<svg width="20" height="20" viewBox="0 0 20 20" fill="none" xmlns="http://www.w3.org/2000/svg">
<g clip-path="url(#clip0_59_13947)">
<path d="M13.8926 10.9419C15.0342 11.7169 15.8342 12.7669 15.8342 14.1669V16.6669H19.1676V14.1669C19.1676 12.3502 16.1926 11.2752 13.8926 10.9419Z" fill="#323232"/>
<path d="M12.5009 10.0002C14.3426 10.0002 15.8342 8.5085 15.8342 6.66683C15.8342 4.82516 14.3426 3.3335 12.5009 3.3335C12.1092 3.3335 11.7426 3.41683 11.3926 3.5335C12.0842 4.39183 12.5009 5.4835 12.5009 6.66683C12.5009 7.85016 12.0842 8.94183 11.3926 9.80016C11.7426 9.91683 12.1092 10.0002 12.5009 10.0002Z" fill="#323232"/>
<path d="M7.5013 10.0002C9.34297 10.0002 10.8346 8.5085 10.8346 6.66683C10.8346 4.82516 9.34297 3.3335 7.5013 3.3335C5.65964 3.3335 4.16797 4.82516 4.16797 6.66683C4.16797 8.5085 5.65964 10.0002 7.5013 10.0002ZM7.5013 5.00016C8.41797 5.00016 9.16797 5.75016 9.16797 6.66683C9.16797 7.5835 8.41797 8.3335 7.5013 8.3335C6.58464 8.3335 5.83464 7.5835 5.83464 6.66683C5.83464 5.75016 6.58464 5.00016 7.5013 5.00016Z" fill="#323232"/>
<path d="M7.50065 10.8335C5.27565 10.8335 0.833984 11.9502 0.833984 14.1668V16.6668H14.1673V14.1668C14.1673 11.9502 9.72565 10.8335 7.50065 10.8335ZM12.5007 15.0002H2.50065V14.1752C2.66732 13.5752 5.25065 12.5002 7.50065 12.5002C9.75065 12.5002 12.334 13.5752 12.5007 14.1668V15.0002Z" fill="#323232"/>
</g>
<defs>
<clipPath id="clip0_59_13947">
<rect width="20" height="20" fill="white"/>
</clipPath>
</defs>
</svg>
