<svg width="280" height="280" viewBox="0 0 280 280" fill="none" xmlns="http://www.w3.org/2000/svg">
<path d="M280 214.144H0V214.284H280V214.144Z" fill="#EBEBEB"/>
<path d="M251.944 223.154H233.396V223.294H251.944V223.154Z" fill="#EBEBEB"/>
<path d="M185.484 224.678H180.617V224.818H185.484V224.678Z" fill="#EBEBEB"/>
<path d="M232.836 217.957H222.09V218.097H232.836V217.957Z" fill="#EBEBEB"/>
<path d="M53.5634 218.898H29.377V219.038H53.5634V218.898Z" fill="#EBEBEB"/>
<path d="M62.0995 218.898H58.5547V219.038H62.0995V218.898Z" fill="#EBEBEB"/>
<path d="M126.084 221.262H73.623V221.402H126.084V221.262Z" fill="#EBEBEB"/>
<path d="M132.721 189.168H24.5904C23.7434 189.166 22.9315 188.829 22.333 188.229C21.7346 187.63 21.3984 186.817 21.3984 185.97V33.9694C21.4058 33.1272 21.7452 32.3219 22.3428 31.7284C22.9405 31.1349 23.7482 30.8012 24.5904 30.7998H132.721C133.569 30.7998 134.382 31.1367 134.982 31.7364C135.582 32.336 135.918 33.1493 135.918 33.9974V185.97C135.918 186.818 135.582 187.632 134.982 188.231C134.382 188.831 133.569 189.168 132.721 189.168ZM24.5904 30.9118C23.7805 30.9133 23.0042 31.2361 22.432 31.8093C21.8598 32.3826 21.5384 33.1594 21.5384 33.9694V185.97C21.5384 186.78 21.8598 187.557 22.432 188.13C23.0042 188.704 23.7805 189.026 24.5904 189.028H132.721C133.531 189.026 134.308 188.704 134.881 188.131C135.454 187.558 135.777 186.781 135.778 185.97V33.9694C135.777 33.1589 135.454 32.3821 134.881 31.809C134.308 31.2359 133.531 30.9133 132.721 30.9118H24.5904Z" fill="#EBEBEB"/>
<path d="M253.853 189.168H145.717C144.87 189.166 144.057 188.829 143.458 188.23C142.858 187.63 142.521 186.818 142.52 185.97V33.9694C142.528 33.1267 142.869 32.3214 143.468 31.7281C144.066 31.1347 144.874 30.8012 145.717 30.7998H253.853C254.694 30.8027 255.501 31.1371 256.097 31.7304C256.694 32.3237 257.032 33.1281 257.04 33.9694V185.97C257.04 186.816 256.704 187.628 256.107 188.227C255.51 188.827 254.699 189.165 253.853 189.168ZM145.717 30.9118C144.907 30.9133 144.13 31.2359 143.557 31.809C142.984 32.3821 142.661 33.1589 142.66 33.9694V185.97C142.661 186.781 142.984 187.558 143.557 188.131C144.13 188.704 144.907 189.026 145.717 189.028H253.853C254.664 189.026 255.44 188.704 256.014 188.131C256.587 187.558 256.909 186.781 256.911 185.97V33.9694C256.909 33.1589 256.587 32.3821 256.014 31.809C255.44 31.2359 254.664 30.9133 253.853 30.9118H145.717Z" fill="#EBEBEB"/>
<path d="M99.2945 57.0693H46.2793V176.501H99.2945V57.0693Z" fill="#F5F5F5"/>
<path d="M97.3008 174.255V59.3037H48.284L48.284 174.255H97.3008Z" fill="#FAFAFA"/>
<path d="M73.3483 58.7324H72.2227V175.38H73.3483V58.7324Z" fill="#F5F5F5"/>
<path d="M100.519 55.5127H45.0566V61.1351H100.519V55.5127Z" fill="#F5F5F5"/>
<path d="M100.519 61.7568H45.0566V62.4232H100.519V61.7568Z" fill="#F5F5F5"/>
<path d="M100.521 63.2686H45.0586V63.935H100.521V63.2686Z" fill="#F5F5F5"/>
<path d="M100.519 64.7803H45.0566V65.4467H100.519V64.7803Z" fill="#F5F5F5"/>
<path d="M100.521 66.293H45.0586V66.9594H100.521V66.293Z" fill="#F5F5F5"/>
<path d="M100.519 67.8047H45.0566V68.4711H100.519V67.8047Z" fill="#F5F5F5"/>
<path d="M100.521 69.3164H45.0586V69.9828H100.521V69.3164Z" fill="#F5F5F5"/>
<path d="M100.519 70.8291H45.0566V71.4955H100.519V70.8291Z" fill="#F5F5F5"/>
<path d="M100.521 72.3408H45.0586V73.0072H100.521V72.3408Z" fill="#F5F5F5"/>
<path d="M100.519 73.8525H45.0566V74.5189H100.519V73.8525Z" fill="#F5F5F5"/>
<path d="M100.521 75.3643H45.0586V76.0307H100.521V75.3643Z" fill="#F5F5F5"/>
<path d="M100.519 76.877H45.0566V77.5434H100.519V76.877Z" fill="#F5F5F5"/>
<path d="M100.519 78.3887H45.0566V79.0551H100.519V78.3887Z" fill="#F5F5F5"/>
<path d="M100.519 79.9004H45.0566V80.5668H100.519V79.9004Z" fill="#F5F5F5"/>
<path d="M100.521 81.4131H45.0586V82.0795H100.521V81.4131Z" fill="#F5F5F5"/>
<path d="M100.519 82.9248H45.0566V83.5912H100.519V82.9248Z" fill="#F5F5F5"/>
<path d="M100.519 84.4365H45.0566V85.1029H100.519V84.4365Z" fill="#F5F5F5"/>
<path d="M100.521 85.9492H45.0586V86.6156H100.521V85.9492Z" fill="#F5F5F5"/>
<path d="M100.521 87.46H45.0586V88.1264H100.521V87.46Z" fill="#F5F5F5"/>
<path d="M162.064 57.0693H109.049V176.501H162.064V57.0693Z" fill="#F5F5F5"/>
<path d="M160.064 174.261V59.3096H111.048V174.261H160.064Z" fill="#FAFAFA"/>
<path d="M136.12 58.7324H134.994V175.38H136.12V58.7324Z" fill="#F5F5F5"/>
<path d="M163.291 55.5127H107.828V61.1351H163.291V55.5127Z" fill="#F5F5F5"/>
<path d="M163.291 61.7568H107.828V62.4232H163.291V61.7568Z" fill="#F5F5F5"/>
<path d="M163.291 63.2686H107.828V63.935H163.291V63.2686Z" fill="#F5F5F5"/>
<path d="M163.291 64.7803H107.828V65.4467H163.291V64.7803Z" fill="#F5F5F5"/>
<path d="M163.291 66.293H107.828V66.9594H163.291V66.293Z" fill="#F5F5F5"/>
<path d="M163.291 67.8047H107.828V68.4711H163.291V67.8047Z" fill="#F5F5F5"/>
<path d="M163.291 69.3164H107.828V69.9828H163.291V69.3164Z" fill="#F5F5F5"/>
<path d="M163.291 70.8291H107.828V71.4955H163.291V70.8291Z" fill="#F5F5F5"/>
<path d="M163.291 72.3408H107.828V73.0072H163.291V72.3408Z" fill="#F5F5F5"/>
<path d="M163.291 73.8525H107.828V74.5189H163.291V73.8525Z" fill="#F5F5F5"/>
<path d="M163.291 75.3643H107.828V76.0307H163.291V75.3643Z" fill="#F5F5F5"/>
<path d="M163.291 76.877H107.828V77.5434H163.291V76.877Z" fill="#F5F5F5"/>
<path d="M163.291 78.3887H107.828V79.0551H163.291V78.3887Z" fill="#F5F5F5"/>
<path d="M163.291 79.9004H107.828V80.5668H163.291V79.9004Z" fill="#F5F5F5"/>
<path d="M163.291 81.4131H107.828V82.0795H163.291V81.4131Z" fill="#F5F5F5"/>
<path d="M163.291 82.9248H107.828V83.5912H163.291V82.9248Z" fill="#F5F5F5"/>
<path d="M163.291 84.4365H107.828V85.1029H163.291V84.4365Z" fill="#F5F5F5"/>
<path d="M163.291 85.9492H107.828V86.6156H163.291V85.9492Z" fill="#F5F5F5"/>
<path d="M163.291 87.46H107.828V88.1264H163.291V87.46Z" fill="#F5F5F5"/>
<path d="M224.834 57.0693H171.818V176.501H224.834V57.0693Z" fill="#F5F5F5"/>
<path d="M222.836 174.261V59.3096H173.819V174.261H222.836Z" fill="#FAFAFA"/>
<path d="M198.889 58.7324H197.764V175.38H198.889V58.7324Z" fill="#F5F5F5"/>
<path d="M226.056 55.5127H170.594V61.1351H226.056V55.5127Z" fill="#F5F5F5"/>
<path d="M226.054 61.7568H170.592V62.4232H226.054V61.7568Z" fill="#F5F5F5"/>
<path d="M226.056 63.2686H170.594V63.935H226.056V63.2686Z" fill="#F5F5F5"/>
<path d="M226.054 64.7803H170.592V65.4467H226.054V64.7803Z" fill="#F5F5F5"/>
<path d="M226.056 66.293H170.594V66.9594H226.056V66.293Z" fill="#F5F5F5"/>
<path d="M226.056 67.8047H170.594V68.4711H226.056V67.8047Z" fill="#F5F5F5"/>
<path d="M226.056 69.3164H170.594V69.9828H226.056V69.3164Z" fill="#F5F5F5"/>
<path d="M226.054 70.8291H170.592V71.4955H226.054V70.8291Z" fill="#F5F5F5"/>
<path d="M226.056 72.3408H170.594V73.0072H226.056V72.3408Z" fill="#F5F5F5"/>
<path d="M226.056 73.8525H170.594V74.5189H226.056V73.8525Z" fill="#F5F5F5"/>
<path d="M226.056 75.3643H170.594V76.0307H226.056V75.3643Z" fill="#F5F5F5"/>
<path d="M226.054 76.877H170.592V77.5434H226.054V76.877Z" fill="#F5F5F5"/>
<path d="M226.054 78.3887H170.592V79.0551H226.054V78.3887Z" fill="#F5F5F5"/>
<path d="M226.054 79.9004H170.592V80.5668H226.054V79.9004Z" fill="#F5F5F5"/>
<path d="M226.056 81.4131H170.594V82.0795H226.056V81.4131Z" fill="#F5F5F5"/>
<path d="M226.056 82.9248H170.594V83.5912H226.056V82.9248Z" fill="#F5F5F5"/>
<path d="M226.054 84.4365H170.592V85.1029H226.054V84.4365Z" fill="#F5F5F5"/>
<path d="M226.056 85.9492H170.594V86.6156H226.056V85.9492Z" fill="#F5F5F5"/>
<path d="M226.056 87.46H170.594V88.1264H226.056V87.46Z" fill="#F5F5F5"/>
<path d="M84.1738 155.356H91.157V154.891C91.157 153.978 90.1322 153.25 88.917 153.3L86.1842 153.412C85.0642 153.457 84.1738 154.157 84.1738 155.003V155.356Z" fill="#F0F0F0"/>
<path d="M103.6 155.59H112.834L114.307 142.71C114.295 142.477 114.195 142.258 114.026 142.097C113.857 141.937 113.633 141.847 113.4 141.848H107.212C106.98 141.849 106.757 141.939 106.589 142.099C106.421 142.26 106.321 142.478 106.31 142.71L103.6 155.59Z" fill="#E6E6E6"/>
<path d="M89.4985 122.863H91.8057L94.3985 147.223H92.0913C91.9016 147.218 91.72 147.145 91.5793 147.018C91.4386 146.891 91.3481 146.717 91.3241 146.529L88.8825 123.569C88.8685 123.481 88.8741 123.391 88.8988 123.305C88.9236 123.219 88.9668 123.14 89.0256 123.072C89.0843 123.005 89.1571 122.951 89.2388 122.915C89.3205 122.879 89.4092 122.862 89.4985 122.863Z" fill="#E6E6E6"/>
<path d="M93.0662 147.224H127.629C127.718 147.226 127.805 147.208 127.886 147.173C127.967 147.137 128.039 147.085 128.097 147.019C128.156 146.953 128.2 146.875 128.225 146.79C128.251 146.706 128.258 146.617 128.245 146.53L125.804 123.57C125.779 123.382 125.688 123.209 125.547 123.082C125.407 122.955 125.226 122.881 125.037 122.875H90.4734C90.3852 122.873 90.2976 122.891 90.2168 122.926C90.136 122.962 90.0639 123.014 90.0053 123.08C89.9468 123.146 89.9032 123.224 89.8777 123.309C89.8522 123.393 89.8452 123.482 89.8574 123.57L92.299 146.53C92.323 146.718 92.4135 146.891 92.5542 147.019C92.6949 147.146 92.8765 147.219 93.0662 147.224Z" fill="#EBEBEB"/>
<path d="M93.7112 144.972H126.303C126.381 144.973 126.457 144.957 126.528 144.926C126.599 144.895 126.663 144.85 126.716 144.793C126.769 144.736 126.809 144.669 126.834 144.596C126.859 144.523 126.869 144.445 126.863 144.368L124.713 124.32C124.692 124.156 124.613 124.005 124.491 123.895C124.369 123.784 124.211 123.72 124.046 123.715H91.4544C91.3769 123.715 91.3002 123.73 91.2292 123.761C91.1582 123.792 91.0943 123.838 91.0417 123.894C90.989 123.951 90.9488 124.018 90.9234 124.092C90.8981 124.165 90.8882 124.242 90.8944 124.32L93.028 144.362C93.0472 144.53 93.1274 144.685 93.2534 144.797C93.3793 144.91 93.5423 144.972 93.7112 144.972Z" fill="#FAFAFA"/>
<path d="M103.241 155.596H114.62C114.893 155.596 115.113 155.375 115.113 155.103V155.086C115.113 154.814 114.893 154.593 114.62 154.593H103.241C102.969 154.593 102.748 154.814 102.748 155.086V155.103C102.748 155.375 102.969 155.596 103.241 155.596Z" fill="#E6E6E6"/>
<path d="M59.0355 159.55H87.1699V155.305H59.0355V159.55Z" fill="#E6E6E6"/>
<path d="M137.436 213.919H138.136C138.178 213.918 138.219 213.901 138.249 213.87C138.279 213.84 138.297 213.8 138.298 213.757L139.418 159.555H136.17L137.29 213.757C137.29 213.797 137.304 213.836 137.331 213.866C137.358 213.896 137.395 213.915 137.436 213.919Z" fill="#E6E6E6"/>
<path d="M162.473 213.909H164.097L159.516 159.544H156.273L162.473 213.909Z" fill="#F0F0F0"/>
<path d="M57.9314 213.909L64.153 159.544H60.905L56.3242 213.909H57.9314Z" fill="#E6E6E6"/>
<path d="M79.1456 159.55H161.398V155.305H79.1456V159.55Z" fill="#F5F5F5"/>
<path d="M81.7103 213.909H83.5751L84.2639 159.544H81.0215L81.7103 213.909Z" fill="#F0F0F0"/>
<path d="M118.625 154.56H119.487C119.53 154.56 119.572 154.543 119.602 154.512C119.633 154.482 119.65 154.44 119.65 154.397V153.44C119.65 153.418 119.645 153.397 119.637 153.378C119.629 153.358 119.617 153.34 119.602 153.325C119.587 153.31 119.569 153.298 119.549 153.29C119.53 153.282 119.509 153.277 119.487 153.277H118.866C118.83 153.278 118.795 153.29 118.766 153.312C118.738 153.334 118.718 153.365 118.709 153.401L118.462 154.308C118.447 154.335 118.439 154.365 118.439 154.396C118.44 154.427 118.449 154.458 118.466 154.484C118.483 154.51 118.507 154.531 118.535 154.544C118.563 154.558 118.594 154.563 118.625 154.56Z" fill="#F5F5F5"/>
<path d="M117.433 154.56H118.295C118.338 154.56 118.38 154.543 118.41 154.512C118.441 154.482 118.458 154.44 118.458 154.397V153.44C118.458 153.418 118.453 153.397 118.445 153.378C118.437 153.358 118.425 153.34 118.41 153.325C118.395 153.31 118.377 153.298 118.357 153.29C118.338 153.282 118.317 153.277 118.295 153.277H117.679C117.642 153.277 117.607 153.289 117.577 153.312C117.548 153.334 117.527 153.365 117.517 153.401L117.276 154.308C117.258 154.334 117.249 154.364 117.248 154.396C117.247 154.427 117.256 154.458 117.273 154.485C117.289 154.511 117.313 154.533 117.342 154.546C117.37 154.559 117.402 154.564 117.433 154.56Z" fill="#F5F5F5"/>
<path d="M116.24 154.56H117.102C117.124 154.561 117.146 154.557 117.166 154.549C117.187 154.541 117.205 154.529 117.221 154.514C117.236 154.499 117.249 154.481 117.257 154.461C117.266 154.441 117.27 154.419 117.27 154.397V153.44C117.27 153.418 117.266 153.396 117.257 153.376C117.249 153.356 117.236 153.338 117.221 153.323C117.205 153.308 117.187 153.296 117.166 153.288C117.146 153.28 117.124 153.277 117.102 153.277H116.481C116.444 153.278 116.409 153.291 116.38 153.313C116.35 153.335 116.329 153.366 116.318 153.401L116.078 154.308C116.059 154.334 116.049 154.365 116.049 154.397C116.048 154.43 116.057 154.461 116.075 154.488C116.092 154.515 116.117 154.536 116.146 154.549C116.176 154.562 116.208 154.566 116.24 154.56Z" fill="#F5F5F5"/>
<path d="M115.052 154.56H115.92C115.963 154.56 116.004 154.543 116.035 154.512C116.065 154.482 116.082 154.44 116.082 154.397V153.44C116.082 153.418 116.078 153.397 116.07 153.378C116.062 153.358 116.05 153.34 116.035 153.325C116.02 153.31 116.002 153.298 115.982 153.29C115.962 153.282 115.941 153.277 115.92 153.277H115.298C115.262 153.278 115.227 153.29 115.199 153.312C115.17 153.334 115.15 153.365 115.142 153.401L114.895 154.308C114.878 154.334 114.868 154.364 114.867 154.396C114.867 154.427 114.875 154.458 114.892 154.485C114.908 154.511 114.932 154.533 114.961 154.546C114.989 154.559 115.021 154.564 115.052 154.56Z" fill="#F5F5F5"/>
<path d="M113.859 154.56H114.721C114.764 154.56 114.805 154.543 114.836 154.512C114.866 154.482 114.883 154.44 114.883 154.397V153.44C114.883 153.418 114.879 153.397 114.871 153.378C114.863 153.358 114.851 153.34 114.836 153.325C114.821 153.31 114.803 153.298 114.783 153.29C114.763 153.282 114.742 153.277 114.721 153.277H114.099C114.064 153.278 114.029 153.291 114.001 153.313C113.973 153.335 113.952 153.366 113.943 153.401L113.702 154.308C113.684 154.334 113.674 154.364 113.674 154.396C113.673 154.427 113.682 154.458 113.698 154.485C113.715 154.511 113.739 154.533 113.767 154.546C113.796 154.559 113.828 154.564 113.859 154.56Z" fill="#F5F5F5"/>
<path d="M112.667 154.56H113.53C113.551 154.561 113.573 154.557 113.593 154.549C113.614 154.541 113.632 154.529 113.648 154.514C113.664 154.499 113.676 154.481 113.685 154.461C113.693 154.441 113.698 154.419 113.698 154.397V153.44C113.698 153.418 113.693 153.396 113.685 153.376C113.676 153.356 113.664 153.338 113.648 153.323C113.632 153.308 113.614 153.296 113.593 153.288C113.573 153.28 113.551 153.277 113.53 153.277H112.914C112.877 153.277 112.841 153.289 112.812 153.312C112.782 153.334 112.761 153.365 112.751 153.401L112.51 154.308C112.493 154.334 112.483 154.364 112.482 154.396C112.482 154.427 112.49 154.458 112.507 154.485C112.524 154.511 112.548 154.533 112.576 154.546C112.604 154.559 112.636 154.564 112.667 154.56Z" fill="#F5F5F5"/>
<path d="M111.48 154.56H112.343C112.386 154.56 112.427 154.543 112.457 154.512C112.488 154.482 112.505 154.44 112.505 154.397V153.44C112.505 153.418 112.501 153.397 112.493 153.378C112.484 153.358 112.472 153.34 112.457 153.325C112.442 153.31 112.424 153.298 112.405 153.29C112.385 153.282 112.364 153.277 112.343 153.277H111.721C111.685 153.278 111.65 153.29 111.621 153.312C111.593 153.334 111.573 153.365 111.564 153.401L111.318 154.308C111.3 154.334 111.29 154.365 111.289 154.397C111.289 154.429 111.298 154.461 111.315 154.488C111.332 154.515 111.357 154.536 111.387 154.549C111.416 154.562 111.449 154.565 111.48 154.56Z" fill="#F5F5F5"/>
<path d="M110.286 154.56H111.149C111.192 154.56 111.233 154.543 111.264 154.512C111.294 154.482 111.311 154.44 111.311 154.397V153.44C111.311 153.418 111.307 153.397 111.299 153.378C111.291 153.358 111.279 153.34 111.264 153.325C111.249 153.31 111.231 153.298 111.211 153.29C111.191 153.282 111.17 153.277 111.149 153.277H110.527C110.491 153.278 110.456 153.29 110.428 153.312C110.399 153.334 110.379 153.365 110.37 153.401L110.13 154.308C110.112 154.334 110.102 154.364 110.102 154.396C110.101 154.427 110.109 154.458 110.126 154.485C110.143 154.511 110.167 154.533 110.195 154.546C110.224 154.559 110.255 154.564 110.286 154.56Z" fill="#F5F5F5"/>
<path d="M109.093 154.56H109.955C109.999 154.56 110.041 154.543 110.072 154.513C110.104 154.482 110.122 154.441 110.123 154.397V153.44C110.122 153.396 110.104 153.355 110.072 153.325C110.041 153.294 109.999 153.277 109.955 153.277H109.339C109.303 153.277 109.267 153.289 109.237 153.312C109.208 153.334 109.187 153.365 109.177 153.401L108.936 154.308C108.919 154.334 108.909 154.364 108.908 154.396C108.908 154.427 108.916 154.458 108.933 154.485C108.949 154.511 108.973 154.533 109.002 154.546C109.03 154.559 109.062 154.564 109.093 154.56Z" fill="#F5F5F5"/>
<path d="M107.906 154.56H108.763C108.785 154.561 108.806 154.557 108.827 154.549C108.847 154.541 108.866 154.529 108.881 154.514C108.897 154.499 108.909 154.481 108.918 154.461C108.926 154.441 108.931 154.419 108.931 154.397V153.44C108.931 153.418 108.926 153.396 108.918 153.376C108.909 153.356 108.897 153.338 108.881 153.323C108.866 153.308 108.847 153.296 108.827 153.288C108.806 153.28 108.785 153.277 108.763 153.277H108.147C108.111 153.278 108.076 153.29 108.047 153.312C108.019 153.334 107.999 153.366 107.99 153.401L107.744 154.308C107.725 154.334 107.715 154.365 107.715 154.397C107.714 154.43 107.723 154.461 107.741 154.488C107.758 154.515 107.783 154.536 107.812 154.549C107.842 154.562 107.874 154.566 107.906 154.56Z" fill="#F5F5F5"/>
<path d="M106.713 154.56H107.575C107.618 154.56 107.66 154.543 107.69 154.512C107.72 154.482 107.738 154.44 107.738 154.397V153.44C107.738 153.418 107.733 153.397 107.725 153.378C107.717 153.358 107.705 153.34 107.69 153.325C107.675 153.31 107.657 153.298 107.637 153.29C107.618 153.282 107.596 153.277 107.575 153.277H106.959C106.923 153.278 106.888 153.29 106.86 153.312C106.831 153.334 106.811 153.365 106.802 153.401L106.556 154.308C106.541 154.334 106.533 154.364 106.533 154.395C106.534 154.425 106.542 154.455 106.559 154.481C106.575 154.507 106.598 154.528 106.625 154.542C106.652 154.556 106.682 154.562 106.713 154.56Z" fill="#F5F5F5"/>
<path d="M105.521 154.56H106.4C106.443 154.56 106.484 154.543 106.515 154.512C106.545 154.482 106.562 154.44 106.562 154.397V153.44C106.562 153.418 106.558 153.397 106.55 153.378C106.542 153.358 106.53 153.34 106.515 153.325C106.499 153.31 106.482 153.298 106.462 153.29C106.442 153.282 106.421 153.277 106.4 153.277H105.784C105.747 153.277 105.711 153.289 105.682 153.312C105.652 153.334 105.631 153.365 105.621 153.401L105.381 154.308C105.364 154.333 105.355 154.361 105.354 154.391C105.352 154.421 105.36 154.45 105.374 154.476C105.388 154.502 105.41 154.524 105.436 154.539C105.461 154.553 105.491 154.561 105.521 154.56Z" fill="#F5F5F5"/>
<path d="M104.334 154.56H105.19C105.212 154.561 105.234 154.557 105.254 154.549C105.275 154.541 105.293 154.529 105.309 154.514C105.325 154.499 105.337 154.481 105.346 154.461C105.354 154.441 105.358 154.419 105.358 154.397V153.44C105.358 153.418 105.354 153.396 105.346 153.376C105.337 153.356 105.325 153.338 105.309 153.323C105.293 153.308 105.275 153.296 105.254 153.288C105.234 153.28 105.212 153.277 105.19 153.277H104.574C104.538 153.278 104.503 153.29 104.475 153.312C104.447 153.334 104.426 153.366 104.418 153.401L104.171 154.308C104.153 154.334 104.143 154.365 104.143 154.397C104.142 154.43 104.151 154.461 104.168 154.488C104.186 154.515 104.211 154.536 104.24 154.549C104.27 154.562 104.302 154.566 104.334 154.56Z" fill="#F5F5F5"/>
<path d="M103.141 154.56H104.003C104.046 154.56 104.087 154.543 104.118 154.512C104.148 154.482 104.165 154.44 104.165 154.397V153.44C104.165 153.418 104.161 153.397 104.153 153.378C104.145 153.358 104.133 153.34 104.118 153.325C104.103 153.31 104.085 153.298 104.065 153.29C104.045 153.282 104.024 153.277 104.003 153.277H103.381C103.345 153.278 103.31 153.29 103.282 153.312C103.253 153.334 103.233 153.365 103.225 153.401L102.978 154.308C102.962 154.335 102.954 154.365 102.955 154.396C102.956 154.427 102.965 154.458 102.982 154.484C102.999 154.51 103.022 154.531 103.05 154.544C103.078 154.558 103.11 154.563 103.141 154.56Z" fill="#F5F5F5"/>
<path d="M101.948 154.56H102.811C102.854 154.56 102.895 154.543 102.926 154.512C102.956 154.482 102.973 154.44 102.973 154.397V153.44C102.973 153.418 102.969 153.397 102.961 153.378C102.953 153.358 102.941 153.34 102.926 153.325C102.911 153.31 102.893 153.298 102.873 153.29C102.853 153.282 102.832 153.277 102.811 153.277H102.195C102.158 153.277 102.122 153.289 102.093 153.312C102.064 153.334 102.042 153.365 102.032 153.401L101.792 154.308C101.774 154.334 101.764 154.364 101.764 154.396C101.763 154.427 101.772 154.458 101.788 154.485C101.805 154.511 101.829 154.533 101.857 154.546C101.886 154.559 101.917 154.564 101.948 154.56Z" fill="#F5F5F5"/>
<path d="M101.086 155.355H120.355V153.922H101.086V155.355Z" fill="#EBEBEB"/>
<path d="M191.42 179.172H156.442V177.402C156.442 176.66 156.737 175.947 157.262 175.422C157.788 174.897 158.5 174.602 159.242 174.602H188.62C189.363 174.602 190.075 174.897 190.6 175.422C191.125 175.947 191.42 176.66 191.42 177.402V179.149V179.172Z" fill="#E0E0E0"/>
<path d="M190.282 205.06L179.082 203.94V188.21H174.642V203.957L163.391 205.077C162.851 205.13 162.351 205.382 161.986 205.783C161.622 206.185 161.42 206.708 161.42 207.25V208.93H192.248V207.25C192.252 206.706 192.053 206.18 191.689 205.774C191.326 205.369 190.824 205.115 190.282 205.06Z" fill="#E0E0E0"/>
<path d="M165.502 211.002C165.503 211.577 165.334 212.14 165.015 212.619C164.696 213.097 164.243 213.471 163.712 213.692C163.181 213.912 162.596 213.971 162.032 213.859C161.468 213.748 160.95 213.471 160.543 213.065C160.136 212.659 159.858 212.141 159.746 211.577C159.633 211.013 159.69 210.428 159.91 209.897C160.13 209.366 160.502 208.911 160.981 208.592C161.459 208.272 162.021 208.102 162.596 208.102C163.366 208.102 164.104 208.407 164.649 208.951C165.194 209.495 165.501 210.233 165.502 211.002Z" fill="#E0E0E0"/>
<path d="M188.16 211.002C188.159 211.577 188.329 212.14 188.647 212.619C188.966 213.097 189.419 213.471 189.95 213.692C190.481 213.912 191.066 213.971 191.63 213.859C192.194 213.748 192.713 213.471 193.12 213.065C193.527 212.659 193.804 212.141 193.917 211.577C194.029 211.013 193.972 210.428 193.752 209.897C193.532 209.366 193.16 208.911 192.682 208.592C192.204 208.272 191.642 208.102 191.067 208.102C190.297 208.102 189.558 208.407 189.013 208.951C188.469 209.495 188.162 210.233 188.16 211.002Z" fill="#E0E0E0"/>
<path d="M173.869 177.564H179.839V189.28C179.839 189.893 179.595 190.481 179.161 190.915C178.728 191.349 178.139 191.592 177.526 191.592H176.182C175.569 191.592 174.98 191.349 174.547 190.915C174.113 190.481 173.869 189.893 173.869 189.28V177.564Z" fill="#E6E6E6"/>
<path d="M170.952 174.922C174.342 161.484 176.278 147.72 176.726 133.868C176.782 132.378 177.414 130.968 178.489 129.934C179.564 128.9 180.997 128.323 182.488 128.324H192.831C194.357 128.323 195.821 128.926 196.902 130.002C197.983 131.078 198.594 132.539 198.599 134.064C198.639 143.483 197.983 162.742 192.669 178.394L172.991 177.666C172.662 177.655 172.341 177.57 172.05 177.418C171.759 177.265 171.506 177.049 171.31 176.785C171.114 176.522 170.98 176.217 170.918 175.894C170.856 175.572 170.868 175.239 170.952 174.922Z" fill="#EBEBEB"/>
<path d="M173.734 177.34C177.313 163.334 179.387 148.986 179.922 134.54C179.975 133.165 180.557 131.865 181.548 130.911C182.539 129.958 183.862 129.426 185.237 129.427H194.757C196.163 129.427 197.513 129.983 198.511 130.975C199.509 131.966 200.074 133.312 200.082 134.719C200.116 143.41 199.522 162.904 194.611 177.34H173.734Z" fill="#E6E6E6"/>
<path d="M177.823 163.61C177.823 163.61 166.494 161.319 155.551 162.428C144.609 163.537 160.72 177.839 160.72 177.839H162.96C162.96 177.839 154.437 168.773 154.913 166.516C155.389 164.259 176.859 167.233 176.859 167.233L177.823 163.61Z" fill="#E6E6E6"/>
<path d="M194.628 177.34H176.064C179.646 163.334 181.722 148.986 182.258 134.54C182.31 133.165 182.893 131.865 183.884 130.911C184.875 129.958 186.197 129.426 187.572 129.427H194.774C196.182 129.425 197.533 129.982 198.532 130.975C199.53 131.968 200.094 133.316 200.1 134.724C200.133 143.41 199.528 162.904 194.628 177.34Z" fill="#E0E0E0"/>
<path d="M156.319 179.172H193.884C194.502 179.172 195.004 178.67 195.004 178.052V178.018C195.004 177.4 194.502 176.898 193.884 176.898H156.319C155.701 176.898 155.199 177.4 155.199 178.018V178.052C155.199 178.67 155.701 179.172 156.319 179.172Z" fill="#E0E0E0"/>
<path d="M52.4891 202.776C52.5844 202.582 52.6312 202.368 52.6256 202.153C52.6199 201.937 52.562 201.726 52.4568 201.538C52.3516 201.349 52.2023 201.189 52.0216 201.071C51.8409 200.953 51.6343 200.881 51.4195 200.861C51.6016 200.308 51.6124 199.714 51.4505 199.155C51.2886 198.596 50.9616 198.1 50.5123 197.73C50.4019 197.631 50.2625 197.57 50.1147 197.557C49.958 197.574 49.8108 197.64 49.6947 197.747L47.1915 199.545C46.989 199.665 46.8182 199.832 46.6931 200.032C46.1835 201.023 48.0259 202.272 47.2531 203.112C47.0347 203.347 46.6931 203.397 46.4131 203.565C45.8139 203.941 45.7467 204.758 45.4667 205.402C45.1867 206.046 44.2235 206.522 43.8483 205.962C44.1227 205.341 43.2883 204.809 42.6219 204.73C41.9555 204.652 41.2499 204.618 40.8803 203.985C39.9227 204.82 37.7891 202.496 37.8395 201.555C37.4636 201.625 37.1184 201.809 36.8517 202.083C36.5849 202.356 36.4096 202.706 36.3499 203.084C36.2397 203.857 36.2134 204.64 36.2715 205.419C36.2715 206.937 35.7563 208.426 35.7843 209.944C35.7843 211.125 36.2603 212.436 37.3411 212.912C37.8789 213.105 38.4516 213.181 39.0211 213.136L51.3411 213.057C51.6362 213.08 51.9323 213.03 52.2035 212.912C52.7635 212.626 52.8811 211.893 52.9315 211.271C53.148 208.594 53.3683 205.917 53.5923 203.241L52.4891 202.776Z" fill="#E0E0E0"/>
<path d="M53.1993 189.762H34.0977L34.2545 191.688L34.3665 193.071L34.6577 196.655L34.8257 198.716L35.0441 201.46L35.1393 202.636V202.989L35.2793 204.4L35.4305 206.293L35.5257 207.469L35.6209 208.662L35.7329 210.045L35.8393 211.064L35.9289 212.24L35.9737 212.755H53.4961L53.5353 212.24L53.6305 211.07L53.7201 210.011L53.8321 208.634L53.9273 207.441L54.0225 206.265L54.1737 204.367L54.2857 202.989V202.636L54.3809 201.46L54.6049 198.716L54.7729 196.661L55.0585 193.071L55.1705 191.688L55.3273 189.762H53.1993ZM54.3193 191.027L53.9553 190.658H54.3529L54.3193 191.027ZM54.2297 192.198L54.1905 192.663L52.5105 194.376L50.5449 192.416L52.3033 190.658H52.7177L54.2297 192.198ZM53.7593 198.313L52.5105 199.567L50.5449 197.602L52.5105 195.647L53.8657 197.003L53.7593 198.313ZM35.5761 197.003L36.9593 195.647L38.9249 197.602L36.9593 199.567L35.7161 198.313L35.5761 197.003ZM51.8777 195.009L49.9121 196.969L47.9521 195.009L49.9121 193.049L51.8777 195.009ZM48.7921 190.658H51.0321L49.9121 191.778L48.7921 190.658ZM49.2737 197.602L47.3193 199.567L45.3593 197.602L47.3249 195.647L49.2737 197.602ZM42.7665 200.2L44.7265 198.24L46.6865 200.2L44.7265 202.16L42.7665 200.2ZM44.0937 202.793L42.1281 204.759L40.1737 202.799L42.1337 200.839L44.0937 202.793ZM47.3249 200.839L49.2793 202.799L47.3249 204.759L45.3593 202.793L47.3249 200.839ZM44.7265 196.969L42.7665 195.009L44.7265 193.049L46.6865 195.009L44.7265 196.969ZM44.0937 197.602L42.1337 199.567L40.1737 197.602L42.1337 195.647L44.0937 197.602ZM39.5353 196.969L37.5753 195.009L39.5353 193.049L41.4953 195.009L39.5353 196.969ZM39.5353 198.24L41.4953 200.2L39.5353 202.16L37.5753 200.2L39.5353 198.24ZM41.4953 205.391L39.5353 207.351L37.5753 205.391L39.5353 203.431L41.4953 205.391ZM42.1281 206.024L44.0937 207.99L42.1337 209.95L40.1737 207.99L42.1281 206.024ZM42.7665 205.391L44.7265 203.431L46.6865 205.391L44.7265 207.351L42.7665 205.391ZM47.3249 206.024L49.2793 207.99L47.3249 209.95L45.3593 207.99L47.3249 206.024ZM49.9177 208.623L51.8833 210.583L50.6121 211.854H49.2289L47.9577 210.56L49.9177 208.623ZM47.9577 205.391L49.9177 203.431L51.8833 205.391L49.9177 207.351L47.9577 205.391ZM47.9577 200.2L49.9177 198.24L51.8833 200.2L49.9177 202.16L47.9577 200.2ZM49.2793 192.416L47.3249 194.376L45.3593 192.416L47.1177 190.658H47.5321L49.2793 192.416ZM44.7265 191.778L43.6065 190.658H45.8465L44.7265 191.778ZM44.0937 192.416L42.1337 194.376L40.1737 192.416L41.9265 190.658H42.3409L44.0937 192.416ZM40.6553 190.658L39.5353 191.778L38.4153 190.658H40.6553ZM37.1441 190.658L38.9025 192.416L36.9593 194.376L35.2793 192.663L35.2401 192.198L36.7801 190.658H37.1441ZM35.4641 190.658L35.1001 191.022V190.658H35.4641ZM35.3465 194.046L36.3041 195.009L35.4865 195.827L35.3465 194.046ZM35.8785 200.626L35.8057 199.696L36.3041 200.2L35.8785 200.626ZM35.9737 201.807L36.9593 200.839L38.9249 202.799L36.9593 204.759L36.1697 203.963L35.9737 201.807ZM36.2649 205.436V205.347L36.3097 205.391L36.2705 205.436H36.2649ZM36.6065 209.614L36.3601 206.607L36.9201 206.047L38.8857 208.012L36.9593 209.944L36.6289 209.614H36.6065ZM36.7857 211.854L36.7521 211.406L36.9369 211.215L37.5753 211.854H36.7857ZM37.5753 210.56L39.5353 208.6L41.4953 210.56L40.2241 211.831H38.8409L37.5753 210.56ZM41.4953 211.831L42.1337 211.193L42.7721 211.831H41.4953ZM44.0377 211.831L42.7665 210.56L44.7265 208.6L46.6865 210.56L45.4209 211.831H44.0377ZM46.6865 211.831L47.3249 211.193L47.9633 211.831H46.6865ZM52.6673 211.831H51.8777L52.5161 211.193L52.7009 211.383L52.6673 211.831ZM52.8521 209.591L52.5161 209.922L50.5505 207.967L52.5161 206.002L53.0761 206.562L52.8521 209.591ZM53.1993 205.324V205.414L53.1601 205.369L53.2105 205.324H53.1993ZM53.3113 203.941L52.5161 204.736L50.5505 202.776L52.5161 200.816L53.4849 201.785L53.3113 203.941ZM53.5801 200.581L53.1489 200.15L53.6529 199.646L53.5801 200.581ZM54.1121 193.995L53.9665 195.782L53.1489 194.959L54.1121 193.995Z" fill="#E6E6E6"/>
<path d="M33.79 191.458H55.6636C56.1708 191.458 56.582 191.047 56.582 190.54V189.879C56.582 189.372 56.1708 188.96 55.6636 188.96H33.79C33.2828 188.96 32.8716 189.372 32.8716 189.879V190.54C32.8716 191.047 33.2828 191.458 33.79 191.458Z" fill="#F0F0F0"/>
<path d="M53.9563 211.411H35.5043C34.9971 211.411 34.5859 211.822 34.5859 212.33V212.99C34.5859 213.498 34.9971 213.909 35.5043 213.909H53.9563C54.4636 213.909 54.8747 213.498 54.8747 212.99V212.33C54.8747 211.822 54.4636 211.411 53.9563 211.411Z" fill="#F0F0F0"/>
<path d="M228.513 193.76L234.472 176.602C234.472 176.602 226.24 182.739 226.268 175.952C226.296 169.165 230.031 174.44 231.308 171.931C232.584 169.422 227.645 169.45 229.381 165.648C231.117 161.846 236.056 167.686 236.93 164.321C237.804 160.955 239.17 159.242 242.788 159.544C242.788 159.544 244.731 163.974 242.345 167.171C239.96 170.369 248.236 167.81 247.385 171.03C246.534 174.25 243.784 177.061 242.569 174.793C241.354 172.525 239.808 176.87 241.886 177.99C243.964 179.11 239.17 183.96 238.117 181.418C237.385 179.726 236.478 178.116 235.412 176.613L229.924 194.97L228.513 193.76Z" fill="#EBEBEB"/>
<path d="M222.381 193.928L215.661 182.958C215.661 182.958 222.302 185.943 221.261 181.278C220.219 176.613 218.427 180.796 217.162 179.256C215.896 177.716 219.318 176.988 217.542 174.619C215.767 172.251 213.236 177.039 212.122 174.843C211.007 172.648 209.786 171.668 207.345 172.419C207.345 172.419 206.673 175.779 208.801 177.632C210.929 179.486 204.825 178.965 205.894 181.065C206.964 183.165 209.294 184.694 209.814 182.941C210.335 181.188 212.054 183.96 210.772 185.052C209.49 186.144 213.572 188.771 213.897 186.85C214.15 185.57 214.535 184.321 215.045 183.12L221.614 194.992L222.381 193.928Z" fill="#E6E6E6"/>
<path d="M226.9 194.034L223.826 176.36C223.826 176.36 230.904 183.64 231.929 177.015C232.954 170.391 228.502 174.938 227.65 172.289C226.799 169.64 231.615 170.452 230.523 166.471C229.431 162.489 223.697 167.395 223.383 163.973C223.07 160.551 221.983 158.659 218.433 158.373C218.433 158.373 215.829 162.383 217.643 165.883C219.458 169.383 211.797 165.563 212.105 168.839C212.413 172.115 214.658 175.291 216.204 173.275C217.75 171.259 218.567 175.739 216.361 176.5C214.154 177.262 218.041 182.75 219.491 180.42C220.475 178.888 221.614 177.462 222.89 176.164L225.321 194.935L226.9 194.034Z" fill="#F5F5F5"/>
<path d="M230.719 213.919H220.158C219.802 213.919 219.46 213.783 219.202 213.54C218.943 213.296 218.786 212.964 218.763 212.609L217.643 194.409C217.632 194.219 217.659 194.029 217.724 193.85C217.789 193.671 217.89 193.507 218.021 193.368C218.151 193.23 218.309 193.12 218.484 193.044C218.659 192.969 218.847 192.93 219.038 192.931H231.839C232.029 192.931 232.217 192.97 232.391 193.046C232.565 193.122 232.722 193.232 232.852 193.37C232.982 193.509 233.083 193.672 233.147 193.851C233.212 194.03 233.239 194.219 233.228 194.409L232.108 212.609C232.085 212.963 231.929 213.295 231.672 213.538C231.414 213.781 231.074 213.917 230.719 213.919Z" fill="#EBEBEB"/>
<path d="M233.084 192.175H217.651C216.884 192.175 216.262 192.797 216.262 193.564V193.58C216.262 194.347 216.884 194.969 217.651 194.969H233.084C233.851 194.969 234.473 194.347 234.473 193.58V193.564C234.473 192.797 233.851 192.175 233.084 192.175Z" fill="#F5F5F5"/>
<path d="M140 239.434C199.966 239.434 248.579 236.596 248.579 233.095C248.579 229.594 199.966 226.756 140 226.756C80.0341 226.756 31.4219 229.594 31.4219 233.095C31.4219 236.596 80.0341 239.434 140 239.434Z" fill="#F5F5F5"/>
<path d="M97.0352 63.9754C97.201 62.5688 97.0015 61.1432 96.456 59.8361C95.9106 58.529 95.0375 57.3845 93.9211 56.513C92.8046 55.6415 91.4824 55.0723 90.082 54.8604C88.6816 54.6485 87.2503 54.8009 85.926 55.3031C84.6016 55.8053 83.429 56.6402 82.5212 57.7274C81.6135 58.8146 81.0011 60.1173 80.7432 61.51C80.4854 62.9027 80.5907 64.3383 81.049 65.6784C81.5074 67.0185 82.3033 68.2179 83.36 69.161L83.6176 70.1298L84.9728 70.2922L90.9312 70.9866L92.292 71.149L92.7624 70.2586C93.9279 69.6327 94.925 68.7346 95.6689 67.6407C96.4128 66.5468 96.8816 65.2893 97.0352 63.9754Z" fill="#2A2FB8"/>
<path opacity="0.7" d="M97.0352 63.9754C97.201 62.5688 97.0015 61.1432 96.456 59.8361C95.9106 58.529 95.0375 57.3845 93.9211 56.513C92.8046 55.6415 91.4824 55.0723 90.082 54.8604C88.6816 54.6485 87.2503 54.8009 85.926 55.3031C84.6016 55.8053 83.429 56.6402 82.5212 57.7274C81.6135 58.8146 81.0011 60.1173 80.7432 61.51C80.4854 62.9027 80.5907 64.3383 81.049 65.6784C81.5074 67.0185 82.3033 68.2179 83.36 69.161L83.6176 70.1298L84.9728 70.2922L90.9312 70.9866L92.292 71.149L92.7624 70.2586C93.9279 69.6327 94.925 68.7346 95.6689 67.6407C96.4128 66.5468 96.8816 65.2893 97.0352 63.9754Z" fill="white"/>
<path d="M90.104 71.0194C90.104 71.0194 90.9608 67.1274 93.0608 65.5202L91.3808 65.3242L90.9832 63.4706L89.3368 66.6402L88.7768 63.6554L87.5336 66.4554L86.6656 62.9834L85.848 64.697L84.168 64.501C85.848 66.545 85.7752 70.5266 85.7752 70.5266" stroke="#2A2FB8" stroke-width="0.28" stroke-linecap="round" stroke-linejoin="round"/>
<path d="M90.8429 75.7296C90.7197 76.7936 89.0789 77.4824 87.1805 77.2584C85.2821 77.0344 83.8205 75.9928 83.9717 74.9232C84.1229 73.8536 85.7357 73.176 87.6341 73.3944C89.5325 73.6128 90.9661 74.66 90.8429 75.7296Z" fill="#263238"/>
<path d="M90.2436 76.3507L84.4084 75.6675C84.0415 75.6266 83.7045 75.4462 83.4668 75.1638C83.2292 74.8813 83.1092 74.5184 83.1316 74.1499L83.3612 70.1067C83.364 70.0694 83.3742 70.033 83.3913 69.9997C83.4084 69.9664 83.432 69.9369 83.4607 69.9129C83.4895 69.8889 83.5227 69.8708 83.5585 69.8599C83.5943 69.8489 83.6319 69.8453 83.6692 69.8491L92.3044 70.8627C92.3416 70.8668 92.3776 70.8784 92.4102 70.8969C92.4428 70.9154 92.4712 70.9404 92.4938 70.9703C92.5163 71.0002 92.5325 71.0344 92.5414 71.0708C92.5502 71.1072 92.5515 71.145 92.5452 71.1819L91.8396 75.1691C91.7762 75.5334 91.5751 75.8593 91.278 76.0793C90.9809 76.2993 90.6104 76.3965 90.2436 76.3507Z" fill="#2A2FB8"/>
<path opacity="0.3" d="M90.2436 76.3507L84.4084 75.6675C84.0415 75.6266 83.7045 75.4462 83.4668 75.1638C83.2292 74.8813 83.1092 74.5184 83.1316 74.1499L83.3612 70.1067C83.364 70.0694 83.3742 70.033 83.3913 69.9997C83.4084 69.9664 83.432 69.9369 83.4607 69.9129C83.4895 69.8889 83.5227 69.8708 83.5585 69.8599C83.5943 69.8489 83.6319 69.8453 83.6692 69.8491L92.3044 70.8627C92.3416 70.8668 92.3776 70.8784 92.4102 70.8969C92.4428 70.9154 92.4712 70.9404 92.4938 70.9703C92.5163 71.0002 92.5325 71.0344 92.5414 71.0708C92.5502 71.1072 92.5515 71.145 92.5452 71.1819L91.8396 75.1691C91.7762 75.5334 91.5751 75.8593 91.278 76.0793C90.9809 76.2993 90.6104 76.3965 90.2436 76.3507Z" fill="white"/>
<path d="M83.2648 71.2497L92.376 72.3137C92.4694 72.3203 92.5619 72.2907 92.634 72.2308C92.7062 72.171 92.7525 72.0857 92.7633 71.9926C92.7741 71.8995 92.7486 71.8059 92.6921 71.7311C92.6356 71.6564 92.5525 71.6063 92.46 71.5913L83.3488 70.5273C83.2553 70.5206 83.1628 70.5503 83.0907 70.6101C83.0185 70.6699 82.9722 70.7552 82.9614 70.8483C82.9506 70.9414 82.9761 71.0351 83.0326 71.1098C83.0891 71.1846 83.1723 71.2347 83.2648 71.2497Z" fill="#2A2FB8"/>
<path d="M92.1577 73.3158L83.2425 72.2742C83.194 72.2664 83.1444 72.2684 83.0966 72.2803C83.0489 72.2921 83.0041 72.3135 82.9648 72.3431C82.9256 72.3728 82.8928 72.4101 82.8684 72.4528C82.8439 72.4955 82.8284 72.5426 82.8227 72.5915C82.8171 72.6403 82.8213 72.6898 82.8353 72.737C82.8493 72.7841 82.8727 72.828 82.9041 72.8658C82.9354 72.9037 82.9742 72.9348 83.0179 72.9573C83.0616 72.9797 83.1095 72.9931 83.1585 72.9966L92.0737 74.0382C92.1213 74.0445 92.1696 74.0411 92.2158 74.0283C92.262 74.0155 92.3052 73.9936 92.3428 73.9639C92.3804 73.9341 92.4117 73.8971 92.4347 73.855C92.4577 73.813 92.4721 73.7667 92.4769 73.719C92.4832 73.6715 92.4798 73.6232 92.467 73.5769C92.4543 73.5307 92.4323 73.4875 92.4026 73.4499C92.3728 73.4123 92.3358 73.3811 92.2938 73.3581C92.2517 73.335 92.2054 73.3207 92.1577 73.3158Z" fill="#2A2FB8"/>
<path d="M91.7895 75.0409L83.2103 74.0385C83.1145 74.0275 83.0183 74.0549 82.9427 74.1147C82.8671 74.1746 82.8184 74.262 82.8071 74.3577C82.796 74.4541 82.8233 74.551 82.883 74.6275C82.9427 74.704 83.0301 74.7539 83.1263 74.7665L91.7055 75.7689C91.801 75.7785 91.8965 75.7505 91.9717 75.6909C92.047 75.6314 92.0961 75.5449 92.1087 75.4497C92.1184 75.3536 92.0906 75.2574 92.0311 75.1813C91.9717 75.1051 91.8851 75.0549 91.7895 75.0409Z" fill="#2A2FB8"/>
<g opacity="0.5">
<path d="M83.2648 71.2497L92.376 72.3137C92.4694 72.3203 92.5619 72.2907 92.634 72.2308C92.7062 72.171 92.7525 72.0857 92.7633 71.9926C92.7741 71.8995 92.7486 71.8059 92.6921 71.7311C92.6356 71.6564 92.5525 71.6063 92.46 71.5913L83.3488 70.5273C83.2553 70.5206 83.1628 70.5503 83.0907 70.6101C83.0185 70.6699 82.9722 70.7552 82.9614 70.8483C82.9506 70.9414 82.9761 71.0351 83.0326 71.1098C83.0891 71.1846 83.1723 71.2347 83.2648 71.2497Z" fill="white"/>
<path d="M92.1577 73.3158L83.2425 72.2742C83.194 72.2664 83.1444 72.2684 83.0966 72.2803C83.0489 72.2921 83.0041 72.3135 82.9648 72.3431C82.9256 72.3728 82.8928 72.4101 82.8684 72.4528C82.8439 72.4955 82.8284 72.5426 82.8227 72.5915C82.8171 72.6403 82.8213 72.6898 82.8353 72.737C82.8493 72.7841 82.8727 72.828 82.9041 72.8658C82.9354 72.9037 82.9742 72.9348 83.0179 72.9573C83.0616 72.9797 83.1095 72.9931 83.1585 72.9966L92.0737 74.0382C92.1213 74.0445 92.1696 74.0411 92.2158 74.0283C92.262 74.0155 92.3052 73.9936 92.3428 73.9639C92.3804 73.9341 92.4117 73.8971 92.4347 73.855C92.4577 73.813 92.4721 73.7667 92.4769 73.719C92.4832 73.6715 92.4798 73.6232 92.467 73.5769C92.4543 73.5307 92.4323 73.4875 92.4026 73.4499C92.3728 73.4123 92.3358 73.3811 92.2938 73.3581C92.2517 73.335 92.2054 73.3207 92.1577 73.3158Z" fill="white"/>
<path d="M91.7876 75.0409L83.2084 74.0385C83.1126 74.0275 83.0163 74.0549 82.9408 74.1147C82.8652 74.1746 82.8164 74.262 82.8052 74.3577C82.7941 74.4541 82.8213 74.551 82.881 74.6275C82.9407 74.704 83.0282 74.7539 83.1244 74.7665L91.7036 75.7689C91.7991 75.7785 91.8945 75.7505 91.9698 75.6909C92.045 75.6314 92.0942 75.5449 92.1068 75.4497C92.1164 75.3536 92.0886 75.2574 92.0292 75.1813C91.9697 75.1051 91.8832 75.0549 91.7876 75.0409Z" fill="white"/>
</g>
<path d="M89.0723 51.0055L89.3355 42.1127L91.1611 41.9727L89.0723 51.0055Z" fill="#2A2FB8"/>
<path d="M95.7988 54.4665L102.317 45.5625L103.073 46.4137L95.7988 54.4665Z" fill="#2A2FB8"/>
<path d="M99.332 60.5871L107.133 59.4111L107.407 60.2287L99.332 60.5871Z" fill="#2A2FB8"/>
<path d="M81.6307 53.2286L75.4259 46.251L74.5859 47.2758L81.6307 53.2286Z" fill="#2A2FB8"/>
<path d="M78.0013 60.3572L69.5117 58.3076L69.7917 59.4388L78.0013 60.3572Z" fill="#2A2FB8"/>
<path d="M189.392 104.434L182.319 110.79C181.199 111.781 173.622 103.852 173.622 103.852L171.539 105.655C171.539 105.655 178.64 114.464 181.272 114.654C183.904 114.844 191.217 109.054 191.217 109.054L189.392 104.434Z" fill="#EEC1BB"/>
<path d="M184.889 107.884L187.582 112.46L190.382 110.78L195.064 107.912V97.5859C195.064 97.5859 187.705 102.408 184.889 107.884Z" fill="#2A2FB8"/>
<path opacity="0.2" d="M190.4 110.752L195.081 107.884V107.817C194.756 106.574 194.482 105.577 194.482 105.577C194.482 105.577 189.588 107.901 190.4 110.752Z" fill="black"/>
<path d="M224.044 110.208C224.044 110.208 228.015 114.957 227.5 117.286C226.984 119.616 223.496 120.926 223.496 120.926L219.52 120.568C219.52 120.568 222.88 118.154 222.88 117.286C222.88 116.418 220.388 114.066 220.388 114.066L224.044 110.208Z" fill="#EEC1BB"/>
<path d="M191.654 133.638L213.718 135.184C213.646 128.146 213.932 121.109 214.574 114.1C214.698 112.748 214.821 111.472 214.944 110.269C215.633 103.768 216.338 99.5455 216.338 99.5455H216.271L195.053 97.5967C190.629 112.711 191.654 133.638 191.654 133.638Z" fill="#2A2FB8"/>
<path d="M207.658 224.185L203.94 226.324L199.477 218.232L203.195 216.093L207.658 224.185Z" fill="#EEC1BB"/>
<path d="M203.486 225.848L207.619 223.216C207.686 223.169 207.768 223.146 207.85 223.154C207.932 223.161 208.009 223.197 208.067 223.256L210.559 225.848C210.612 225.91 210.653 225.982 210.678 226.059C210.704 226.136 210.714 226.218 210.707 226.299C210.701 226.38 210.679 226.46 210.642 226.532C210.605 226.605 210.554 226.669 210.491 226.722L210.385 226.795C208.946 227.68 208.145 228.077 206.364 229.22C205.244 229.92 200.574 232.44 198.843 232.58C197.113 232.72 196.917 231.062 197.623 230.799C201.179 229.472 202.562 227.78 203.015 226.448C203.099 226.2 203.265 225.989 203.486 225.848Z" fill="#263238"/>
<path opacity="0.2" d="M203.195 216.093L199.477 218.232L201.778 222.404L205.502 220.265L203.195 216.093Z" fill="black"/>
<path d="M191.659 133.645C191.659 133.645 180.633 169.613 181.305 181.609C182.033 194.763 199.718 222.433 199.718 222.433L206.382 218.221C206.382 218.221 193.894 190.961 193.423 180.881C194.112 166.276 207.63 134.798 207.63 134.798L191.659 133.645Z" fill="#263238"/>
<path opacity="0.2" d="M202.474 143.427C198.794 145.667 197.333 155.288 198.111 160.165C200.105 154.005 202.378 147.901 204.198 143.231C203.919 143.11 203.612 143.064 203.31 143.098C203.007 143.132 202.719 143.246 202.474 143.427Z" fill="black"/>
<path d="M198.979 223.076L206.836 218.097L205.548 215.88L197.311 220.909L198.979 223.076Z" fill="#2A2FB8"/>
<path d="M202.636 227.209C202.403 227.383 202.12 227.477 201.829 227.478C201.737 227.468 201.649 227.434 201.574 227.379C201.499 227.324 201.44 227.25 201.404 227.164C201.373 227.115 201.357 227.059 201.357 227.002C201.357 226.944 201.373 226.888 201.404 226.839C201.695 226.386 203.263 226.313 203.442 226.313C203.46 226.311 203.479 226.315 203.494 226.326C203.51 226.336 203.521 226.351 203.526 226.369C203.537 226.385 203.542 226.403 203.542 226.422C203.542 226.441 203.537 226.46 203.526 226.475C203.255 226.749 202.957 226.995 202.636 227.209ZM201.678 226.839C201.638 226.864 201.604 226.896 201.577 226.935C201.564 226.953 201.557 226.976 201.557 226.999C201.557 227.022 201.564 227.045 201.577 227.063C201.599 227.123 201.638 227.175 201.688 227.214C201.739 227.253 201.8 227.276 201.863 227.282C202.382 227.198 202.853 226.93 203.19 226.526C202.671 226.537 202.159 226.643 201.678 226.839Z" fill="#2A2FB8"/>
<path d="M203.497 226.498H203.446C202.959 226.549 201.766 226.252 201.643 225.821C201.621 225.749 201.625 225.671 201.652 225.601C201.679 225.531 201.73 225.472 201.794 225.434C201.853 225.385 201.921 225.348 201.994 225.326C202.067 225.304 202.144 225.297 202.22 225.305C202.836 225.361 203.502 226.302 203.525 226.358C203.536 226.373 203.542 226.39 203.542 226.409C203.542 226.427 203.536 226.444 203.525 226.459C203.519 226.474 203.509 226.488 203.497 226.498ZM201.946 225.574L201.912 225.602C201.806 225.686 201.828 225.737 201.834 225.765C201.918 226.017 202.718 226.291 203.245 226.325C203.032 226.061 202.578 225.557 202.192 225.524C202.106 225.513 202.019 225.533 201.946 225.58V225.574Z" fill="#2A2FB8"/>
<path d="M215.767 229.051H211.629L211.287 219.47H215.431L215.767 229.051Z" fill="#EEC1BB"/>
<path d="M211.057 228.569H216.097C216.179 228.572 216.258 228.601 216.322 228.653C216.386 228.704 216.431 228.775 216.45 228.855L217.268 232.54C217.301 232.698 217.27 232.863 217.182 232.998C217.094 233.134 216.955 233.229 216.797 233.262C216.753 233.268 216.708 233.268 216.663 233.262C215.033 233.262 213.863 233.139 211.808 233.139C210.553 233.139 206.768 233.268 205.021 233.268C203.273 233.268 203.061 231.554 203.772 231.397C206.958 230.703 209.372 229.717 210.38 228.821C210.567 228.658 210.808 228.568 211.057 228.569Z" fill="#263238"/>
<path opacity="0.2" d="M215.431 219.476H211.287L211.466 224.415H215.605L215.431 219.476Z" fill="black"/>
<path d="M210.2 99.1757C209.304 99.9877 204.662 100.514 204.662 100.514L202.875 103.208L202.03 99.3717C202.03 99.3717 200.49 99.0077 200.815 98.5261C201.322 98.4804 201.815 98.3341 202.265 98.0956C202.715 97.8572 203.113 97.5314 203.435 97.1373C204.219 96.0677 204.163 94.5725 203.911 93.1165C203.911 93.1165 203.911 93.0773 203.911 93.0605L207.523 90.3949L210.01 88.5469C209.203 91.5261 208.223 97.0141 210.2 99.1757Z" fill="#EEC1BB"/>
<path opacity="0.2" d="M208.991 91.112C208.224 94.612 205.071 96.6449 203.436 97.1377C204.22 96.0681 204.164 94.5728 203.912 93.1168C203.915 93.0964 203.915 93.0757 203.912 93.0552L207.524 90.3896C207.602 90.9328 209.103 90.5744 208.991 91.112Z" fill="black"/>
<path d="M199.482 134.188C199.482 134.188 201.823 169.613 203.57 181.608C205.48 194.763 209.568 223.457 209.568 223.457H217.134C217.134 223.457 215.588 196.017 214.894 183.064C214.07 168.331 213.74 135.184 213.74 135.184L199.482 134.188Z" fill="#263238"/>
<path d="M208.656 223.619H217.583V220.954L208.32 220.78L208.656 223.619Z" fill="#2A2FB8"/>
<path d="M204.524 76.0538C203.793 75.868 203.023 75.9089 202.316 76.1709C201.609 76.433 200.998 76.9038 200.565 77.521C198.823 79.7274 200.1 81.1946 200.1 81.1946C200.221 80.566 200.496 79.9773 200.901 79.481C200.901 79.481 199.881 81.721 202.088 84.3698C204.294 87.0186 210.79 90.0538 210.79 90.0538C210.79 90.0538 214.744 88.5026 215.886 84.969C217.029 81.4354 217.006 78.921 212.868 76.6306C208.729 74.3402 204.636 73.6794 204.524 76.0538Z" fill="#263238"/>
<path d="M211.735 84.5608C211.27 88.1616 211.125 90.4576 209.562 92.2832C209.353 92.5267 209.124 92.7532 208.879 92.9608C205.553 95.9064 200.641 93.6776 199.919 89.528C199.798 88.7746 199.741 88.012 199.751 87.2488C199.751 83.7152 201.045 79.5096 204.393 78.412C205.305 78.1046 206.28 78.037 207.224 78.2157C208.169 78.3944 209.052 78.8134 209.788 79.4323C210.524 80.0512 211.088 80.8492 211.426 81.7494C211.764 82.6496 211.865 83.6217 211.718 84.572L211.735 84.5608Z" fill="#EEC1BB"/>
<path d="M205.452 85.2657C205.452 85.5961 205.239 85.8537 205.015 85.8257C204.791 85.7977 204.64 85.5233 204.662 85.1929C204.685 84.8625 204.886 84.6049 205.099 84.6329C205.312 84.6609 205.474 84.9241 205.452 85.2657Z" fill="#263238"/>
<path d="M201.689 85.003C201.689 85.3334 201.471 85.591 201.253 85.563C201.034 85.535 200.883 85.2606 200.9 84.9302C200.917 84.5998 201.124 84.3422 201.337 84.3702C201.549 84.3982 201.712 84.6838 201.689 85.003Z" fill="#263238"/>
<path d="M202.876 85.249C202.408 86.2386 201.805 87.1583 201.084 87.9818C201.301 88.1613 201.555 88.2914 201.828 88.3629C202.101 88.4345 202.386 88.4459 202.663 88.3962L202.876 85.249Z" fill="#D4827D"/>
<path d="M206.819 83.9662C206.784 83.9752 206.747 83.9753 206.712 83.9665C206.676 83.9577 206.644 83.9403 206.617 83.9158C206.447 83.7389 206.238 83.6042 206.007 83.5225C205.775 83.4409 205.528 83.4144 205.284 83.4454C205.259 83.4511 205.233 83.4517 205.208 83.4471C205.183 83.4425 205.159 83.4329 205.137 83.4188C205.116 83.4046 205.097 83.3863 205.083 83.3649C205.069 83.3435 205.059 83.3194 205.055 83.2942C205.045 83.2445 205.054 83.1928 205.081 83.15C205.108 83.1072 205.151 83.0766 205.2 83.0646C205.505 83.0177 205.816 83.044 206.108 83.1414C206.4 83.2388 206.665 83.4044 206.88 83.6246C206.916 83.6612 206.936 83.7105 206.936 83.7618C206.936 83.8131 206.916 83.8623 206.88 83.899L206.819 83.9662Z" fill="#263238"/>
<path d="M203.577 90.1599C204.057 90.1008 204.515 89.9269 204.912 89.6529C205.31 89.379 205.636 89.0131 205.862 88.5863C205.868 88.5742 205.871 88.5611 205.871 88.5477C205.872 88.5344 205.87 88.5211 205.865 88.5086C205.86 88.4961 205.853 88.4846 205.844 88.4749C205.835 88.4652 205.824 88.4574 205.812 88.4519C205.8 88.4453 205.787 88.4412 205.774 88.4399C205.761 88.4386 205.747 88.4401 205.734 88.4443C205.722 88.4486 205.71 88.4554 205.7 88.4644C205.69 88.4735 205.683 88.4845 205.677 88.4967C205.459 88.8868 205.153 89.2209 204.784 89.4726C204.415 89.7243 203.992 89.8868 203.549 89.9471C203.536 89.9478 203.523 89.9511 203.512 89.9569C203.5 89.9627 203.49 89.9709 203.481 89.9809C203.473 89.9908 203.467 90.0024 203.463 90.0149C203.459 90.0274 203.458 90.0406 203.46 90.0535C203.461 90.0668 203.465 90.0796 203.471 90.0914C203.478 90.1031 203.487 90.1134 203.497 90.1217C203.507 90.13 203.519 90.1362 203.532 90.1399C203.545 90.1436 203.558 90.1447 203.572 90.1431L203.577 90.1599Z" fill="#263238"/>
<path d="M200.239 83.0988C200.199 83.0917 200.161 83.0721 200.133 83.0428C200.118 83.0219 200.107 82.9984 200.102 82.9734C200.097 82.9485 200.096 82.9228 200.101 82.8977C200.106 82.8726 200.115 82.8487 200.129 82.8275C200.144 82.8062 200.162 82.788 200.183 82.774C200.438 82.5953 200.733 82.4806 201.042 82.4397C201.351 82.3988 201.665 82.4327 201.958 82.5388C202.005 82.5607 202.041 82.5997 202.06 82.6475C202.079 82.6954 202.078 82.7487 202.059 82.7964C202.037 82.8428 201.998 82.8792 201.95 82.8979C201.902 82.9166 201.849 82.9164 201.801 82.8972C201.568 82.82 201.32 82.7985 201.077 82.8345C200.834 82.8705 200.602 82.9629 200.401 83.1044C200.349 83.1234 200.29 83.1214 200.239 83.0988Z" fill="#263238"/>
<path d="M202.031 79.8558C202.983 79.5422 203.941 80.4158 203.941 80.4158C205.215 80.3057 206.497 80.3057 207.771 80.4158C209.02 80.6286 209.384 81.8774 209.49 82.1854C209.597 82.4934 208.998 83.1038 208.998 83.1038C208.998 83.1038 209.132 86.8726 209.182 87.9142L210.722 90.7142C212.432 88.0376 213.357 84.9356 213.394 81.7598C213.444 76.4006 202.877 76.6582 202.877 76.6582L202.031 79.8558Z" fill="#263238"/>
<path d="M213.264 89.1855C212.654 90.0169 211.74 90.5743 210.722 90.7367C209.367 90.9327 208.863 89.6839 209.378 88.4967C209.848 87.4495 211.114 86.0383 212.402 86.3967C213.69 86.7551 214.003 88.1551 213.264 89.1855Z" fill="#EEC1BB"/>
<path d="M209.692 229.298C209.41 229.323 209.129 229.247 208.897 229.085C208.819 229.024 208.76 228.944 208.723 228.853C208.687 228.761 208.675 228.662 208.69 228.564C208.687 228.507 208.702 228.451 208.732 228.402C208.762 228.353 208.806 228.314 208.858 228.29C209.317 228.049 210.65 228.85 210.801 228.968C210.817 228.977 210.831 228.991 210.839 229.008C210.847 229.025 210.849 229.044 210.846 229.063C210.843 229.082 210.835 229.101 210.822 229.116C210.809 229.131 210.792 229.141 210.773 229.147C210.419 229.236 210.057 229.287 209.692 229.298ZM209.076 228.441C209.031 228.436 208.986 228.446 208.947 228.469C208.919 228.469 208.891 228.503 208.886 228.581C208.878 228.646 208.885 228.712 208.908 228.773C208.93 228.834 208.967 228.889 209.014 228.934C209.477 229.148 210.005 229.174 210.487 229.007C210.057 228.73 209.578 228.538 209.076 228.441Z" fill="#2A2FB8"/>
<path d="M210.745 229.152H210.7C210.274 228.917 209.445 228.032 209.529 227.573C209.545 227.5 209.585 227.434 209.643 227.387C209.701 227.34 209.774 227.315 209.849 227.315C209.922 227.305 209.998 227.311 210.069 227.332C210.14 227.354 210.207 227.39 210.263 227.438C210.739 227.83 210.823 229.018 210.823 229.079C210.823 229.097 210.818 229.114 210.811 229.129C210.803 229.145 210.792 229.158 210.778 229.169C210.766 229.166 210.755 229.16 210.745 229.152ZM209.916 227.472H209.865C209.742 227.472 209.731 227.545 209.725 227.573C209.675 227.842 210.201 228.53 210.627 228.85C210.598 228.378 210.426 227.927 210.134 227.556C210.074 227.502 209.996 227.472 209.916 227.472Z" fill="#2A2FB8"/>
<path d="M172.217 106.255C172.217 106.255 168 105.891 167.053 105.544C166.107 105.196 166.342 102.184 166.409 101.685C166.477 101.187 172.312 102.245 173.225 102.704C174.137 103.164 174.641 105.387 174.641 105.387L172.217 106.255Z" fill="#EEC1BB"/>
<path d="M239.207 119.669L190.174 115.888L187.592 149.366L236.626 153.147L239.207 119.669Z" fill="#2A2FB8"/>
<path opacity="0.7" d="M239.207 119.669L190.174 115.888L187.592 149.366L236.626 153.147L239.207 119.669Z" fill="white"/>
<path d="M239.207 119.669L190.174 115.888L187.592 149.366L236.626 153.147L239.207 119.669Z" stroke="black" stroke-width="0.28" stroke-miterlimit="10"/>
<path d="M190.712 115.416L189.713 115.339L189.636 116.338L190.635 116.415L190.712 115.416Z" fill="black"/>
<path d="M188.134 148.893L187.135 148.815L187.058 149.815L188.057 149.892L188.134 148.893Z" fill="black"/>
<path d="M237.163 152.68L236.164 152.603L236.087 153.602L237.086 153.679L237.163 152.68Z" fill="black"/>
<path d="M239.742 119.215L238.742 119.138L238.665 120.137L239.665 120.214L239.742 119.215Z" fill="black"/>
<path d="M236.056 147.485L189.016 143.857L188.657 148.514L235.697 152.142L236.056 147.485Z" fill="#2A2FB8"/>
<path opacity="0.2" d="M231.308 149.862L193.334 146.933C193.222 146.924 193.118 146.872 193.045 146.787C192.972 146.702 192.935 146.591 192.942 146.479C192.947 146.423 192.962 146.369 192.987 146.319C193.013 146.269 193.048 146.224 193.09 146.188C193.133 146.151 193.183 146.124 193.236 146.107C193.289 146.089 193.346 146.083 193.402 146.087L231.37 149.016C231.482 149.025 231.586 149.077 231.659 149.162C231.732 149.247 231.769 149.358 231.762 149.47C231.753 149.582 231.701 149.686 231.616 149.759C231.531 149.833 231.42 149.869 231.308 149.862Z" fill="black"/>
<path d="M208.348 135.229L208.93 127.702L218.556 132.233L208.348 135.229Z" fill="#2A2FB8"/>
<path d="M199.08 146.984C199.066 147.16 199.001 147.329 198.891 147.468C198.781 147.607 198.633 147.711 198.464 147.766C198.296 147.82 198.115 147.824 197.944 147.776C197.774 147.728 197.621 147.63 197.506 147.496C197.391 147.361 197.318 147.195 197.297 147.019C197.276 146.843 197.308 146.665 197.389 146.507C197.469 146.349 197.594 146.219 197.749 146.132C197.904 146.045 198.08 146.006 198.257 146.02C198.493 146.04 198.712 146.153 198.866 146.333C199.02 146.513 199.097 146.747 199.08 146.984Z" fill="#2A2FB8"/>
<path opacity="0.4" d="M199.08 146.984C199.066 147.16 199.001 147.329 198.891 147.468C198.781 147.607 198.633 147.711 198.464 147.766C198.296 147.82 198.115 147.824 197.944 147.776C197.774 147.728 197.621 147.63 197.506 147.496C197.391 147.361 197.318 147.195 197.297 147.019C197.276 146.843 197.308 146.665 197.389 146.507C197.469 146.349 197.594 146.219 197.749 146.132C197.904 146.045 198.08 146.006 198.257 146.02C198.493 146.04 198.712 146.153 198.866 146.333C199.02 146.513 199.097 146.747 199.08 146.984Z" fill="white"/>
<path d="M209.748 97.1378L204.663 99.5514L202.877 103.04V99.1202C202.877 99.1202 202.154 98.3362 202.877 96.8018L199.735 98.0002L198.318 101.607L201.981 100.078L202.877 103.841L204.663 100.862L206.954 103.432L211.798 99.109L209.748 97.1378Z" fill="#2A2FB8"/>
<path opacity="0.2" d="M209.748 97.1378L204.663 99.5514L202.877 103.04V99.1202C202.877 99.1202 202.154 98.3362 202.877 96.8018L199.735 98.0002L198.318 101.607L201.981 100.078L202.877 103.841L204.663 100.862L206.954 103.432L211.798 99.109L209.748 97.1378Z" fill="black"/>
<path opacity="0.2" d="M213.656 110.079C213.747 111.46 214.057 112.817 214.575 114.1C214.698 112.748 214.821 111.472 214.944 110.269L213.656 110.079Z" fill="black"/>
<path d="M216.34 99.5518C220.64 101.428 226.24 111.709 226.24 111.709L221.279 116.229L213.635 110.069L216.34 99.5518Z" fill="#2A2FB8"/>
<path d="M217.604 118.362C217.604 118.362 218.164 115.618 218.696 115.562C219.228 115.506 223.288 116.222 223.54 116.973C223.792 117.723 224.005 119.566 222.98 119.672C221.955 119.778 217.279 119.672 217.604 118.362Z" fill="#EEC1BB"/>
<path d="M133.341 105.235C134.204 104.278 136.332 102.587 133.901 100.627C131.471 98.6666 132.417 94.9258 135.021 94.9986C137.625 95.0714 135.189 93.3802 135.296 90.3898C135.402 87.3994 139.216 87.0298 141.405 88.5474C143.595 90.065 145.325 86.1506 148.125 86.8338C150.925 87.517 149.928 89.9698 150.561 92.5458C151.194 95.1218 155.304 93.005 156.576 95.9058C157.847 98.8066 155.685 98.6386 155.887 101.786C156.088 104.933 158.659 105.504 158.412 107.918C158.166 110.331 153.008 110.583 153.372 114.128C153.736 117.673 151.575 120.49 148.68 119.023C145.784 117.555 146.356 122.136 142.52 121.128C138.684 120.12 138.107 117.359 138.04 114.638C137.972 111.916 135.335 113.977 133.588 112.818C131.84 111.659 130.58 108.315 133.341 105.235Z" fill="#2E353A"/>
<path d="M131.162 135.341L132.54 111.367L153.439 112.056L149.575 136.937L131.162 135.341Z" fill="#2A2FB8"/>
<path opacity="0.7" d="M131.162 135.341L132.54 111.367L153.439 112.056L149.575 136.937L131.162 135.341Z" fill="white"/>
<path d="M133.144 140.633C133.144 140.633 127.443 171.024 125.92 183.501C123.932 199.78 115.807 223.597 115.807 223.597L119.055 224.437C119.055 224.437 130.512 204.198 132.747 185.993C141.852 167.378 142.586 144.48 142.586 144.48L133.144 140.633Z" fill="#9F5B53"/>
<path d="M109.759 230.967C110.288 230.722 110.858 230.577 111.439 230.541C111.439 230.541 113.438 229.365 115.421 224.796H117.661C118.037 224.799 118.403 224.918 118.71 225.137C119.016 225.355 119.248 225.662 119.374 226.017C119.408 226.116 119.429 226.22 119.436 226.325C119.414 226.863 119.358 227.4 119.268 227.932C118.94 229.704 118.504 231.454 117.963 233.173L117.588 233.078L118.271 229.752C118.501 228.632 117.314 229.713 116.765 230.872C116.216 232.031 115.37 233.157 112.912 232.591C110.011 231.891 108.852 231.482 109.759 230.967Z" fill="#2E353A"/>
<path d="M139.07 140.146C139.07 140.146 139.776 171.063 140.868 183.585C142.29 199.926 139.266 224.907 139.266 224.907L142.626 225.053C142.626 225.053 149.654 202.882 148.075 184.604C153.115 164.517 149.111 141.943 149.111 141.943L139.07 140.146Z" fill="#9F5B53"/>
<path d="M134.041 231.98C134.54 231.684 135.088 231.481 135.66 231.381C135.66 231.381 137.519 229.992 138.992 225.221L141.232 224.969C141.607 224.932 141.984 225.01 142.312 225.195C142.641 225.379 142.905 225.66 143.068 225.999C143.114 226.095 143.146 226.197 143.164 226.302C143.197 226.839 143.197 227.378 143.164 227.915C143.028 229.71 142.785 231.496 142.436 233.263L142.049 233.212L142.368 229.852C142.475 228.704 141.411 229.919 140.991 231.112C140.571 232.305 139.871 233.531 137.345 233.24C134.4 232.876 133.207 232.591 134.041 231.98Z" fill="#2E353A"/>
<path d="M140.637 114.61C144.916 114.05 146.204 112.235 146.204 112.235C143.488 109.676 145.744 105.235 145.744 105.235L140.592 106.199C140.71 106.915 140.777 107.64 140.794 108.366C140.833 111.491 139.416 111.524 139.416 111.524C138.515 113.215 140.637 114.61 140.637 114.61Z" fill="#9F5B53"/>
<path opacity="0.2" d="M140.594 106.199C140.711 106.915 140.778 107.64 140.795 108.366C144.273 108.366 145.746 105.235 145.746 105.235L140.594 106.199Z" fill="black"/>
<path d="M143.437 91.7902C138.957 91.5438 137.389 93.8622 136.807 98.4598C136.079 104.205 137.137 108.372 142.804 107.448C150.499 106.193 150.874 92.199 143.437 91.7902Z" fill="#9F5B53"/>
<path d="M139.714 98.3701C139.32 99.0204 138.848 99.6203 138.309 100.157C138.432 100.346 138.604 100.498 138.808 100.597C139.011 100.695 139.237 100.737 139.462 100.717L139.714 98.3701Z" fill="#892B29"/>
<path d="M142.475 98.1514C142.475 98.521 142.626 98.8346 142.867 98.8514C143.107 98.8682 143.337 98.5882 143.365 98.2242C143.393 97.8602 143.219 97.541 142.973 97.5242C142.727 97.5074 142.508 97.7874 142.475 98.1514Z" fill="#2E353A"/>
<path d="M143.074 97.5471L142.301 97.1719C142.301 97.1719 142.642 97.8775 143.074 97.5471Z" fill="#2E353A"/>
<path d="M137.917 97.72C137.889 98.084 138.063 98.3976 138.309 98.42C138.555 98.4424 138.774 98.1568 138.802 97.7872C138.83 97.4176 138.656 97.1096 138.41 97.0872C138.163 97.0648 137.945 97.3504 137.917 97.72Z" fill="#2E353A"/>
<path d="M138.509 97.1154L137.736 96.7402C137.736 96.7402 138.084 97.4402 138.509 97.1154Z" fill="#2E353A"/>
<path d="M142.721 94.999C143.078 95.0005 143.43 95.0835 143.75 95.2416C144.071 95.3998 144.35 95.6291 144.569 95.9118" stroke="#2E353A" stroke-width="0.405821" stroke-linecap="round" stroke-linejoin="round"/>
<path d="M139.44 94.584C139.129 94.5268 138.809 94.5415 138.504 94.6269C138.199 94.7123 137.918 94.8662 137.682 95.0768" stroke="#2E353A" stroke-width="0.405821" stroke-linecap="round" stroke-linejoin="round"/>
<path d="M147.917 99.6073C147.917 99.6073 146.025 95.8105 146.501 92.9881C146.501 92.9881 137.826 88.8777 136.891 97.8601C136.891 97.8601 136.465 89.8129 144.171 90.0593C151.877 90.3057 151.233 101.562 147.072 104.703C147.072 104.72 149.088 101.976 147.917 99.6073Z" fill="#2E353A"/>
<path d="M147.139 100.509C147.173 100.253 147.258 100.007 147.388 99.7839C147.517 99.5609 147.69 99.3658 147.896 99.2097C148.101 99.0536 148.336 98.9396 148.585 98.8743C148.835 98.809 149.095 98.7937 149.351 98.8292C150.728 99.0532 151.232 101.937 147.743 102.436C147.245 102.514 146.993 102.016 147.139 100.509Z" fill="#9F5B53"/>
<path d="M142.161 100.929C142.161 100.929 141.825 102.609 139.562 102.609" stroke="#2E353A" stroke-width="0.405821" stroke-linecap="round" stroke-linejoin="round"/>
<path d="M131.196 135.56L120.248 199.87C120.248 199.87 146.736 203.028 155.718 201.18C155.718 201.18 157.919 155.154 148.545 136.993L131.196 135.56Z" fill="#2A2FB8"/>
<path d="M115.807 223.597C115.807 223.597 113.007 229.415 111.422 230.541C111.422 230.541 113.567 231.818 115.807 228.973C118.696 225.288 119.402 226.313 119.402 226.313C119.343 225.679 119.227 225.051 119.055 224.437C118.618 223.25 115.807 223.597 115.807 223.597Z" fill="#9F5B53"/>
<path d="M139.603 223.552C139.603 223.552 138.813 225.702 137.766 228.071C137.283 229.299 136.568 230.423 135.66 231.381C135.66 231.381 137.486 231.974 138.46 230.821C139.435 229.667 141.137 225.534 143.03 226.01C142.927 225.673 142.784 225.35 142.604 225.047C142.335 224.588 139.603 223.552 139.603 223.552Z" fill="#9F5B53"/>
<path d="M131.164 135.341L130.648 138.779L149.957 140.146L149.655 136.427L131.164 135.341Z" fill="black"/>
<path d="M140.559 135.733C140.351 135.509 135.3 135.106 134.886 135.514C134.886 135.514 134.365 138.93 134.572 139.25C134.779 139.569 139.651 139.608 140.105 139.642C140.559 139.675 140.755 135.957 140.559 135.733ZM139.651 139.255C139.282 139.255 135.278 139.199 135.11 138.936C134.942 138.673 135.367 135.867 135.367 135.867C135.709 135.531 139.847 135.867 140.027 136.046C140.206 136.226 139.999 139.283 139.64 139.255H139.651Z" fill="white"/>
<path d="M139.535 137.01L138.538 136.943C138.447 136.935 138.355 136.962 138.283 137.02C138.212 137.077 138.164 137.16 138.152 137.251C138.143 137.302 138.145 137.354 138.158 137.404C138.171 137.454 138.194 137.5 138.227 137.541C138.259 137.581 138.299 137.614 138.345 137.637C138.391 137.661 138.442 137.674 138.493 137.676L139.496 137.732C139.587 137.728 139.673 137.69 139.738 137.626C139.803 137.562 139.842 137.477 139.848 137.386C139.853 137.295 139.825 137.205 139.768 137.133C139.712 137.062 139.631 137.014 139.541 136.999L139.535 137.01Z" fill="white"/>
<path d="M153.439 112.057C156.95 114.341 154.509 132.715 139.562 146.777L137.91 144.716C137.91 144.716 147.604 131.315 148.746 125.737C151.317 113.177 153.439 112.057 153.439 112.057Z" fill="#9F5B53"/>
<path d="M132.54 111.367C130.86 110.914 127.68 120.955 127.68 130.161C127.68 135.341 129.197 145.32 129.197 145.32L131.84 143.64C131.84 143.64 130.972 129.231 131.163 127.904C131.353 126.577 133.319 117.886 133.319 117.886C133.672 116.649 133.877 115.374 133.929 114.089C133.908 113.562 133.774 113.046 133.534 112.576C133.294 112.106 132.955 111.694 132.54 111.367Z" fill="#9F5B53"/>
<path d="M162.657 148.734L113.518 146.761L112.17 180.311L161.31 182.285L162.657 148.734Z" fill="#2A2FB8"/>
<path opacity="0.7" d="M162.657 148.734L113.518 146.761L112.17 180.311L161.31 182.285L162.657 148.734Z" fill="white"/>
<path d="M162.657 148.734L113.518 146.761L112.17 180.311L161.31 182.285L162.657 148.734Z" stroke="black" stroke-width="0.28" stroke-miterlimit="10"/>
<path d="M114.035 146.283L113.033 146.243L112.993 147.245L113.995 147.285L114.035 146.283Z" fill="black"/>
<path d="M112.677 179.836L111.676 179.796L111.636 180.797L112.637 180.838L112.677 179.836Z" fill="black"/>
<path d="M161.816 181.812L160.814 181.771L160.774 182.773L161.776 182.813L161.816 181.812Z" fill="black"/>
<path d="M163.177 148.254L162.176 148.214L162.136 149.215L163.137 149.256L163.177 148.254Z" fill="black"/>
<path d="M158.598 153.507L130.441 152.387C130.385 152.385 130.331 152.372 130.28 152.349C130.23 152.325 130.184 152.292 130.147 152.251C130.109 152.21 130.08 152.161 130.061 152.109C130.043 152.056 130.035 152.001 130.038 151.945C130.042 151.833 130.09 151.728 130.172 151.651C130.254 151.574 130.363 151.533 130.475 151.536L158.631 152.656C158.687 152.658 158.742 152.67 158.793 152.693C158.843 152.716 158.889 152.749 158.927 152.789C158.965 152.83 158.995 152.878 159.014 152.93C159.034 152.982 159.042 153.037 159.04 153.093C159.039 153.149 159.026 153.205 159.003 153.256C158.98 153.308 158.947 153.354 158.906 153.393C158.864 153.431 158.816 153.461 158.763 153.481C158.71 153.501 158.654 153.51 158.598 153.507Z" fill="#2A2FB8"/>
<path d="M158.48 156.598L130.318 155.478C130.262 155.476 130.208 155.463 130.158 155.44C130.108 155.417 130.063 155.384 130.025 155.343C129.988 155.303 129.959 155.255 129.94 155.203C129.921 155.151 129.912 155.096 129.914 155.041C129.916 154.985 129.928 154.93 129.952 154.879C129.975 154.827 130.008 154.781 130.049 154.743C130.09 154.705 130.139 154.676 130.192 154.657C130.245 154.638 130.301 154.629 130.357 154.632L158.514 155.752C158.626 155.758 158.731 155.808 158.806 155.891C158.882 155.974 158.921 156.083 158.917 156.195C158.911 156.306 158.862 156.41 158.78 156.485C158.699 156.561 158.591 156.601 158.48 156.598Z" fill="#2A2FB8"/>
<path d="M158.345 159.684L130.188 158.564C130.133 158.562 130.078 158.549 130.027 158.525C129.976 158.502 129.93 158.469 129.892 158.428C129.854 158.386 129.825 158.338 129.806 158.286C129.786 158.233 129.777 158.177 129.78 158.122C129.782 158.066 129.795 158.011 129.818 157.961C129.842 157.91 129.875 157.865 129.916 157.827C129.958 157.79 130.006 157.761 130.058 157.742C130.111 157.723 130.166 157.715 130.222 157.718L158.379 158.838C158.491 158.844 158.597 158.894 158.673 158.976C158.75 159.059 158.791 159.168 158.788 159.281C158.782 159.393 158.732 159.498 158.649 159.573C158.566 159.649 158.457 159.689 158.345 159.684Z" fill="#2A2FB8"/>
<path d="M158.216 162.775L130.059 161.655C129.947 161.649 129.841 161.6 129.765 161.517C129.689 161.435 129.647 161.325 129.651 161.213C129.653 161.157 129.666 161.102 129.689 161.051C129.713 161 129.746 160.955 129.787 160.917C129.828 160.879 129.876 160.849 129.929 160.83C129.981 160.811 130.037 160.802 130.093 160.804L158.25 161.924C158.362 161.93 158.468 161.979 158.544 162.062C158.621 162.145 158.662 162.254 158.659 162.366C158.656 162.422 158.643 162.477 158.62 162.528C158.596 162.579 158.563 162.625 158.522 162.663C158.481 162.701 158.433 162.73 158.38 162.749C158.328 162.769 158.272 162.778 158.216 162.775Z" fill="#2A2FB8"/>
<path d="M158.087 165.866L116.944 164.186C116.888 164.184 116.833 164.171 116.783 164.148C116.732 164.124 116.686 164.091 116.648 164.05C116.61 164.009 116.581 163.961 116.561 163.908C116.542 163.856 116.533 163.8 116.536 163.744C116.538 163.688 116.551 163.633 116.574 163.582C116.598 163.532 116.631 163.486 116.672 163.448C116.713 163.41 116.761 163.381 116.814 163.361C116.866 163.342 116.922 163.333 116.978 163.335L158.121 165.015C158.177 165.017 158.232 165.031 158.283 165.054C158.334 165.077 158.379 165.111 158.417 165.152C158.455 165.193 158.485 165.241 158.504 165.293C158.523 165.346 158.532 165.402 158.53 165.458C158.524 165.57 158.475 165.676 158.392 165.752C158.309 165.829 158.2 165.87 158.087 165.866Z" fill="#2A2FB8"/>
<path d="M157.959 168.952L116.815 167.272C116.759 167.27 116.705 167.256 116.654 167.233C116.603 167.21 116.557 167.176 116.519 167.135C116.481 167.094 116.452 167.046 116.432 166.994C116.413 166.941 116.404 166.885 116.407 166.829C116.412 166.717 116.462 166.612 116.545 166.537C116.628 166.461 116.737 166.422 116.849 166.426L157.998 168.106C158.053 168.108 158.107 168.121 158.157 168.144C158.207 168.168 158.253 168.2 158.29 168.241C158.327 168.282 158.356 168.329 158.376 168.381C158.395 168.433 158.403 168.488 158.401 168.543C158.4 168.599 158.387 168.654 158.364 168.706C158.341 168.757 158.307 168.803 158.266 168.841C158.225 168.879 158.176 168.908 158.124 168.927C158.071 168.946 158.015 168.955 157.959 168.952Z" fill="#2A2FB8"/>
<path d="M157.835 172.043L116.686 170.363C116.574 170.357 116.468 170.308 116.392 170.225C116.315 170.142 116.274 170.033 116.278 169.921C116.283 169.808 116.333 169.703 116.415 169.626C116.498 169.55 116.607 169.509 116.72 169.512L157.869 171.192C157.981 171.198 158.087 171.247 158.163 171.33C158.24 171.413 158.281 171.522 158.278 171.634C158.272 171.747 158.222 171.852 158.14 171.929C158.057 172.005 157.948 172.046 157.835 172.043Z" fill="#2A2FB8"/>
<path d="M157.707 175.129L116.558 173.449C116.503 173.447 116.448 173.434 116.398 173.411C116.348 173.388 116.303 173.355 116.266 173.315C116.228 173.274 116.199 173.227 116.18 173.175C116.161 173.123 116.152 173.068 116.155 173.013C116.156 172.957 116.169 172.902 116.191 172.851C116.214 172.801 116.247 172.755 116.288 172.717C116.328 172.679 116.376 172.649 116.428 172.63C116.48 172.61 116.536 172.602 116.591 172.604L157.74 174.284C157.853 174.29 157.958 174.339 158.035 174.422C158.111 174.505 158.152 174.614 158.149 174.726C158.143 174.838 158.094 174.943 158.011 175.019C157.928 175.094 157.819 175.134 157.707 175.129Z" fill="#2A2FB8"/>
<path d="M157.578 178.221L116.435 176.541C116.379 176.539 116.324 176.525 116.273 176.502C116.222 176.479 116.176 176.445 116.138 176.404C116.1 176.363 116.071 176.315 116.052 176.263C116.032 176.21 116.023 176.154 116.026 176.098C116.032 175.986 116.081 175.88 116.164 175.804C116.246 175.728 116.356 175.687 116.468 175.69L157.611 177.37C157.667 177.372 157.722 177.385 157.773 177.408C157.824 177.432 157.869 177.465 157.907 177.506C157.945 177.547 157.975 177.595 157.994 177.648C158.014 177.7 158.022 177.756 158.02 177.812C158.018 177.868 158.005 177.923 157.981 177.974C157.958 178.024 157.925 178.07 157.884 178.108C157.843 178.146 157.794 178.176 157.742 178.195C157.689 178.214 157.634 178.223 157.578 178.221Z" fill="#2A2FB8"/>
<path d="M121.468 153.564L119.139 153.468L119.172 152.617L124.8 152.852L124.761 153.698L122.431 153.603L122.185 159.561L121.222 159.522L121.468 153.564Z" fill="#2A2FB8"/>
<path d="M127.049 151.351L117.072 150.939L116.661 160.916L126.637 161.327L127.049 151.351Z" stroke="#2A2FB8" stroke-width="0.28" stroke-miterlimit="10"/>
<path d="M138.364 144.1C138.364 144.1 136.684 144.872 136.46 145.32C136.236 145.768 134.365 150.752 134.516 151.408C134.668 152.063 137.703 152.875 138.14 152.712C138.576 152.55 140.307 146.81 140.301 146.088C140.296 145.365 138.364 144.1 138.364 144.1Z" fill="#9F5B53"/>
<path d="M130.126 142.497C130.126 142.497 128.636 143.561 128.479 144.048C128.323 144.535 127.415 149.766 127.684 150.382C127.953 150.998 131.083 151.244 131.487 151.003C131.89 150.763 132.534 144.804 132.394 144.093C132.254 143.382 130.126 142.497 130.126 142.497Z" fill="#9F5B53"/>
<path d="M145.258 110.421C145.258 110.421 142.716 113.221 140.862 114.095C140.862 114.095 139.826 111.821 140.302 110.421C140.302 110.421 137.082 112.252 137.401 114.61C137.72 116.967 140.627 114.951 140.627 114.951C140.627 114.951 143.096 117.191 145.107 115.931C147.117 114.671 146.669 111.832 146.669 111.832L145.258 110.421Z" fill="#2A2FB8"/>
<path d="M140.665 117.465C140.663 117.579 140.617 117.687 140.537 117.767C140.456 117.846 140.347 117.891 140.234 117.891C140.129 117.879 140.031 117.829 139.961 117.75C139.891 117.671 139.852 117.568 139.852 117.463C139.852 117.357 139.891 117.255 139.961 117.176C140.031 117.097 140.129 117.046 140.234 117.034C140.29 117.034 140.346 117.045 140.399 117.067C140.451 117.089 140.499 117.12 140.539 117.16C140.579 117.201 140.61 117.248 140.632 117.3C140.654 117.353 140.665 117.409 140.665 117.465Z" fill="#2A2FB8"/>
<path d="M139.837 122.64C139.837 122.726 139.812 122.809 139.764 122.88C139.717 122.951 139.65 123.006 139.571 123.039C139.492 123.071 139.405 123.08 139.322 123.063C139.238 123.046 139.161 123.005 139.101 122.945C139.041 122.885 139 122.808 138.983 122.724C138.966 122.641 138.975 122.554 139.007 122.475C139.04 122.396 139.095 122.329 139.166 122.282C139.237 122.234 139.321 122.209 139.406 122.209C139.463 122.208 139.519 122.219 139.572 122.24C139.624 122.262 139.672 122.293 139.712 122.334C139.753 122.374 139.784 122.422 139.806 122.474C139.827 122.527 139.838 122.583 139.837 122.64Z" fill="#2A2FB8"/>
<path d="M96.7399 100.331C96.3759 99.5242 96.7399 94.6466 96.7399 94.6466C96.7399 94.6466 102.743 91.4994 103.701 90.7266C104.658 89.9538 105.745 93.4314 105.14 94.1538C104.535 94.8762 102.743 97.5866 99.7415 97.5866L99.3383 101.551L96.7399 100.331Z" fill="#E4897B"/>
<path d="M79.3683 100.006C81.2387 100.459 90.2547 106.457 92.0915 106.255C93.9283 106.054 96.0955 97.8555 96.0955 97.8555L99.8419 98.9755C99.8419 98.9755 99.6628 113.933 96.2355 115.551C92.8083 117.17 78.7188 114.084 78.7188 114.084L79.3683 100.006Z" fill="#263238"/>
<path opacity="0.2" d="M99.8361 98.9864C99.8361 98.9864 99.6625 113.95 96.2353 115.568C95.0257 116.128 92.5057 116.128 89.7393 115.87C86.0355 115.473 82.3549 114.883 78.7129 114.101L78.7969 112.387L79.3569 100.011C81.2217 100.454 90.2377 106.457 92.0745 106.25C93.9113 106.042 96.0841 97.8496 96.0841 97.8496L99.8361 98.9864Z" fill="white"/>
<path opacity="0.2" d="M89.7393 115.87C86.0355 115.473 82.3549 114.883 78.7129 114.101L78.7969 112.387C79.1721 110.707 79.5193 109.257 79.5193 109.257C79.5193 109.257 89.6833 111.441 89.7393 115.87Z" fill="black"/>
<path d="M61.3044 228.285H56.0012C55.9134 228.285 55.8281 228.315 55.7597 228.37C55.6913 228.425 55.6441 228.502 55.626 228.588L54.7636 232.508C54.7287 232.675 54.7615 232.85 54.8549 232.994C54.9482 233.138 55.0946 233.239 55.262 233.275C55.3085 233.28 55.3555 233.28 55.402 233.275C57.1324 233.247 58.3868 233.141 60.554 233.141C61.8868 233.141 65.9132 233.281 67.7556 233.281C69.598 233.281 69.8388 231.461 69.0884 231.293C65.7284 230.559 63.158 229.534 62.0716 228.565C61.9687 228.47 61.8478 228.396 61.7161 228.348C61.5844 228.3 61.4445 228.279 61.3044 228.285Z" fill="#263238"/>
<path d="M83.9218 228.145H78.5906C78.5028 228.144 78.4174 228.174 78.3491 228.229C78.2807 228.284 78.2335 228.361 78.2154 228.447L77.3474 232.367C77.3126 232.536 77.3462 232.711 77.4407 232.855C77.5352 232.999 77.6829 233.099 77.8514 233.134C77.8977 233.143 77.9451 233.143 77.9914 233.134C79.7162 233.106 80.9706 233 83.1378 233C84.4762 233 88.5026 233.14 90.345 233.14C92.1874 233.14 92.4282 231.32 91.6722 231.152C88.3122 230.418 85.7418 229.394 84.661 228.425C84.46 228.239 84.1951 228.139 83.9218 228.145Z" fill="#263238"/>
<path d="M85.9547 228.789H78.0643C78.0643 228.789 77.3363 204.014 79.5203 186.268C79.5203 186.268 77.3531 175.628 75.4603 165.615C74.4803 160.446 73.5731 155.44 73.0691 152.142C71.1035 178.042 68.1019 185.411 68.1019 185.411C66.4219 211.832 62.8883 228.755 62.8883 228.755H54.8803C54.1355 207.94 58.1003 182.533 58.1003 182.533C55.5579 153.116 55.4235 132.766 55.4627 129.708H86.3971C88.5923 141.804 94.8195 180.321 85.9547 228.789Z" fill="#2A2FB8"/>
<path d="M86.3736 129.708H55.4336V132.502L86.7656 132.211L86.3736 129.708Z" fill="black"/>
<path d="M65.3812 133.41H66.4844V128.454H65.3812V133.41Z" fill="#2A2FB8"/>
<path d="M81.0316 133.41H82.1348V128.454H81.0316V133.41Z" fill="#2A2FB8"/>
<path d="M72.269 132.346H77.9922V129.221H72.269V132.346Z" fill="white"/>
<path d="M86.3734 129.708H55.439C55.2934 128.376 55.187 125.996 55.1086 123.145C55.0246 119.992 54.9686 116.268 54.935 112.768C54.8734 106.356 54.879 100.706 54.879 100.706C54.879 100.706 58.799 97.1108 68.319 97.1388C72.2323 97.2246 76.0699 98.2339 79.519 100.084C86.3734 117.674 86.3734 129.708 86.3734 129.708Z" fill="#263238"/>
<path d="M61.4219 98.6283C64.1211 101.131 69.1387 101.932 69.1387 101.932C69.1387 101.932 72.7395 100.051 73.8147 98.5443C71.9947 97.1387 71.6139 97.0099 71.0147 95.9515C70.6912 95.318 70.5626 94.6028 70.6451 93.8963C70.6751 93.5022 70.735 93.1109 70.8243 92.7259L61.4219 88.6211C62.7603 91.5499 64.3003 96.3211 61.4219 98.6283Z" fill="#E4897B"/>
<path opacity="0.2" d="M63.6719 91.3984C64.2319 95.0384 68.7847 95.8448 71.0135 95.9512C70.69 95.3177 70.5614 94.6026 70.6439 93.896L63.6719 91.3984Z" fill="black"/>
<path d="M68.9354 77.8799C68.9354 77.8799 74.6866 79.9911 71.1754 86.3135C69.2938 89.6735 65.6426 78.9271 65.6426 78.9271L68.9354 77.8799Z" fill="#263238"/>
<path d="M63.873 93.4365C64.7822 94.1693 65.9067 94.5836 67.074 94.616C68.2413 94.6484 69.387 94.297 70.3354 93.6157C71.5809 92.76 72.4508 91.4592 72.7658 89.9813C72.8131 89.7763 72.8486 89.5688 72.8722 89.3597C73.2866 85.4733 71.909 79.3245 67.5858 78.1877C66.6325 77.9314 65.6295 77.9232 64.6722 78.1641C63.7149 78.4049 62.8351 78.8868 62.1167 79.5637C61.3982 80.2406 60.8649 81.0902 60.5675 82.0315C60.2702 82.9727 60.2186 83.9745 60.4178 84.9413C61.2074 89.0965 61.4706 91.5717 63.873 93.4365Z" fill="#E4897B"/>
<path d="M66.9304 85.2944C66.9304 85.636 67.188 85.888 67.4176 85.8544C67.6472 85.8208 67.7816 85.5239 67.7424 85.1879C67.7032 84.8519 67.4792 84.5943 67.2552 84.6279C67.0312 84.6615 66.8912 84.9472 66.9304 85.2944Z" fill="#263238"/>
<path d="M72.1286 85.3613C72.8466 85.633 73.4469 86.1474 73.8253 86.8153C74.2038 87.4833 74.3365 88.2626 74.2006 89.0181C73.579 93.2069 68.7462 96.4605 63.8742 93.4365C59.5118 90.7205 72.1286 85.3613 72.1286 85.3613Z" fill="#E4897B"/>
<path d="M70.7896 84.7961C70.7896 85.1377 71.0528 85.3897 71.2712 85.3561C71.4896 85.3225 71.6408 85.0257 71.596 84.6841C71.5512 84.3425 71.3328 84.0905 71.1144 84.1241C70.896 84.1577 70.7504 84.4713 70.7896 84.7961Z" fill="#263238"/>
<path d="M69.5859 85.1211C70.1274 86.1133 70.804 87.0254 71.5963 87.8315C71.3826 88.0283 71.1287 88.1763 70.8522 88.2652C70.5757 88.3542 70.2831 88.382 69.9947 88.3467L69.5859 85.1211Z" fill="#DE5753"/>
<path d="M71.9943 83.0262C71.9618 83.0443 71.9252 83.0539 71.8879 83.0539C71.8507 83.0539 71.814 83.0443 71.7815 83.0262C71.5625 82.8992 71.3168 82.8249 71.0641 82.8094C70.8114 82.7938 70.5585 82.8374 70.3255 82.9366C70.3028 82.9494 70.2777 82.9575 70.2518 82.9604C70.2259 82.9634 70.1997 82.9612 70.1746 82.9539C70.1496 82.9466 70.1263 82.9344 70.106 82.9179C70.0858 82.9015 70.069 82.8812 70.0567 82.8582C70.0438 82.835 70.0356 82.8096 70.0326 82.7832C70.0295 82.7569 70.0317 82.7302 70.039 82.7047C70.0463 82.6793 70.0585 82.6555 70.075 82.6347C70.0915 82.614 70.1119 82.5967 70.1351 82.5838C70.4269 82.4507 70.7461 82.3889 71.0664 82.4035C71.3868 82.4181 71.6991 82.5087 71.9775 82.6678C72.0242 82.6939 72.059 82.737 72.0747 82.7881C72.0904 82.8392 72.0856 82.8945 72.0615 82.9422C72.0469 82.9756 72.0237 83.0046 71.9943 83.0262Z" fill="#263238"/>
<path d="M65.9735 83.8557C65.9354 83.8689 65.894 83.8689 65.8559 83.8557C65.8193 83.8172 65.7988 83.766 65.7988 83.7129C65.7988 83.6597 65.8193 83.6086 65.8559 83.5701C66.0628 83.324 66.3262 83.1317 66.6237 83.0098C66.9212 82.8879 67.2438 82.84 67.5639 82.8701C67.6155 82.8784 67.6618 82.9064 67.6931 82.9481C67.7245 82.9899 67.7384 83.0423 67.7319 83.0941C67.7223 83.1461 67.6932 83.1925 67.6505 83.2237C67.6078 83.2549 67.5548 83.2687 67.5023 83.2621C67.25 83.243 66.9968 83.2838 66.7632 83.3812C66.5297 83.4785 66.3224 83.6295 66.1583 83.8221C66.1328 83.8427 66.1025 83.8566 66.0702 83.8625C66.0379 83.8683 66.0046 83.866 65.9735 83.8557Z" fill="#263238"/>
<path d="M62.8218 79.3193L63.3202 80.0417C62.0266 80.7361 62.581 82.2817 62.9898 82.9537C63.8578 84.3929 63.4098 86.9409 62.3962 88.1057C62.3962 88.1057 62.2394 87.4449 61.7018 87.7025C61.1642 87.9601 61.9426 91.4153 63.337 92.8769C63.337 92.8769 61.405 91.6729 59.8146 88.1841C58.3474 84.9641 57.0538 81.7665 58.6946 79.3193H62.8218Z" fill="#263238"/>
<path d="M59.0361 88.615C59.326 89.0546 59.6998 89.4328 60.1361 89.7278C60.5723 90.0228 61.0625 90.2289 61.5785 90.3342C62.9617 90.6086 63.5441 89.343 63.0737 88.0942C62.6425 86.9742 61.3937 85.4734 60.0609 85.7758C58.7281 86.0782 58.3249 87.5174 59.0361 88.615Z" fill="#E4897B"/>
<path d="M67.9008 79.7615C67.9008 79.7615 71.8488 77.1575 71.0984 75.1639C70.348 73.1703 69.4184 75.6735 69.4184 75.6735C69.4184 75.6735 69.788 74.0383 68.6456 73.9599C67.5032 73.8815 67.9904 74.7719 67.4696 75.4495C66.9488 76.1271 60.9512 76.0095 59.2096 77.4375C57.468 78.8655 59.4448 82.7351 59.4448 82.7351C59.4448 82.7351 62.48 78.4007 67.9008 79.7615Z" fill="#263238"/>
<path d="M70.4209 89.9363C70.0605 90.4302 69.7349 90.9485 69.4465 91.4875L69.1385 91.3811C67.7609 90.8939 67.2849 90.2107 67.1729 89.6003C67.1248 89.3024 67.1478 88.9973 67.2401 88.7099C67.2884 88.5456 67.36 88.389 67.4529 88.2451C68.1681 88.9256 69.022 89.4433 69.9561 89.7627C70.2417 89.8803 70.4209 89.9363 70.4209 89.9363Z" fill="#263238"/>
<path d="M69.9543 89.7627L69.6519 90.2107C68.3583 89.7515 67.5071 89.2475 67.2383 88.7099C67.2866 88.5456 67.3582 88.389 67.4511 88.2451C68.1662 88.9256 69.0202 89.4433 69.9543 89.7627Z" fill="white"/>
<path d="M69.1375 91.3814C67.7599 90.8942 67.2839 90.211 67.1719 89.6006C67.6912 89.7984 68.1724 90.0845 68.5943 90.4462C68.8682 90.6938 69.0581 91.0207 69.1375 91.3814Z" fill="#DE5753"/>
<path d="M71.2827 100.252L70.0283 103.567L73.3043 120.54L72.0835 122.372L70.0283 120.703L68.8803 103.953L65.7891 100.47L68.8803 99.6748L71.2827 100.252Z" fill="#2A2FB8"/>
<path d="M62.6478 96.0127L68.9366 99.0759L71.591 96.2591L74.6878 98.1351L72.6102 102.951L69.1382 100.302L66.7302 103.231L60.3574 98.0959L62.6478 96.0127Z" fill="#263238"/>
<path opacity="0.2" d="M62.6478 96.0127L68.9366 99.0759L71.591 96.2591L74.6878 98.1351L72.6102 102.951L69.1382 100.302L66.7302 103.231L60.3574 98.0959L62.6478 96.0127Z" fill="white"/>
<path opacity="0.2" d="M55.1091 123.144C55.0251 119.991 54.9691 116.267 54.9355 112.767L57.5619 110.527C57.5619 110.527 57.9427 119.728 55.1091 123.144Z" fill="black"/>
<path opacity="0.2" d="M75.4596 165.615C74.4796 160.447 73.5724 155.44 73.0684 152.142C74.4373 150.658 75.3796 148.831 75.7956 146.855C75.7956 146.855 77.0724 156.891 75.4596 165.615Z" fill="black"/>
<path d="M40.3593 114.661L36.1481 112.717C36.1481 112.717 34.7873 111.642 33.9081 111.732C33.0289 111.821 27.4905 112.622 27.1881 112.717C26.8857 112.813 27.7481 116.492 28.8177 116.329C29.8873 116.167 33.9697 116.525 34.5129 115.893L39.4409 119.706L40.3593 114.661Z" fill="#E4897B"/>
<path d="M55.0826 100.565C52.8762 100.812 47.4666 113.339 45.3442 114.644C43.2218 115.949 38.1482 113.121 38.1482 113.121L35.9082 118.614C35.9082 118.614 44.2522 124.774 47.1922 124.248C52.8874 123.268 56.6114 115.187 56.6114 115.187C56.6114 115.187 58.801 108.366 56.8522 103.197C56.4403 102.213 55.8391 101.318 55.0826 100.565Z" fill="#263238"/>
<path opacity="0.2" d="M55.0826 100.565C52.8762 100.812 47.4666 113.339 45.3442 114.644C43.2218 115.949 38.1482 113.121 38.1482 113.121L35.9082 118.614C35.9082 118.614 44.2522 124.774 47.1922 124.248C52.8874 123.268 56.6114 115.187 56.6114 115.187C56.6114 115.187 58.801 108.366 56.8522 103.197C56.4403 102.213 55.8391 101.318 55.0826 100.565Z" fill="white"/>
</svg>
