<svg width="20" height="20" viewBox="0 0 20 20" fill="none" xmlns="http://www.w3.org/2000/svg">
<g clip-path="url(#clip0_9_881)">
<path d="M3.33335 5.00002H1.66669V16.6667C1.66669 17.5834 2.41669 18.3334 3.33335 18.3334H15V16.6667H3.33335V5.00002ZM16.6667 1.66669H6.66669C5.75002 1.66669 5.00002 2.41669 5.00002 3.33335V13.3334C5.00002 14.25 5.75002 15 6.66669 15H16.6667C17.5834 15 18.3334 14.25 18.3334 13.3334V3.33335C18.3334 2.41669 17.5834 1.66669 16.6667 1.66669ZM11.6667 3.33335C13.05 3.33335 14.1667 4.45002 14.1667 5.83335C14.1667 7.21669 13.05 8.33335 11.6667 8.33335C10.2834 8.33335 9.16669 7.21669 9.16669 5.83335C9.16669 4.45002 10.2834 3.33335 11.6667 3.33335ZM16.6667 13.3334H6.66669V12.0834C6.66669 10.425 10 9.58335 11.6667 9.58335C13.3334 9.58335 16.6667 10.425 16.6667 12.0834V13.3334Z" fill="#323232"/>
</g>
<defs>
<clipPath id="clip0_9_881">
<rect width="20" height="20" fill="white"/>
</clipPath>
</defs>
</svg>
