<svg width="280" height="275" viewBox="0 0 280 275" fill="none" xmlns="http://www.w3.org/2000/svg">
<path d="M43.4499 198.587H28.6211V204.853H43.4499V198.587Z" fill="#EBEBEB"/>
<path d="M35.1784 206.488H20.3496V212.755H35.1784V206.488Z" fill="#EBEBEB"/>
<path d="M162.225 95.4629H147.396V101.729H162.225V95.4629Z" fill="#EBEBEB"/>
<path d="M153.954 103.364H139.125V109.631H153.954V103.364Z" fill="#EBEBEB"/>
<path d="M145.717 95.4629H130.889V101.729H145.717V95.4629Z" fill="#EBEBEB"/>
<path d="M259.649 206.488H244.82V212.755H259.649V206.488Z" fill="#EBEBEB"/>
<path d="M251.378 29.8643H236.549V36.1307H251.378V29.8643Z" fill="#EBEBEB"/>
<path d="M259.649 37.7656H244.82V44.032H259.649V37.7656Z" fill="#EBEBEB"/>
<path d="M43.4499 29.8643H28.6211V36.1307H43.4499V29.8643Z" fill="#EBEBEB"/>
<path d="M52.0791 80.2759C50.6231 81.1582 49.0349 81.8011 47.3751 82.1799C43.3937 83.1025 39.2109 82.4901 35.6612 80.465C32.1114 78.4398 29.4557 75.1507 28.224 71.2539C26.9922 67.3571 27.2749 63.1392 29.0157 59.4417C30.7565 55.7441 33.8274 52.8389 37.6156 51.3055C41.4039 49.7722 45.631 49.7235 49.4536 51.1692C53.2762 52.6149 56.4131 55.4487 58.2386 59.1051C60.0641 62.7616 60.4439 66.9719 59.3022 70.896C58.1605 74.8201 55.5812 78.1695 52.0791 80.2759Z" fill="#EBEBEB"/>
<path d="M48.6788 64.5725C48.6665 65.5492 48.3649 66.5004 47.8121 67.3058C47.2592 68.1112 46.48 68.7345 45.5729 69.097C44.6658 69.4595 43.6716 69.5449 42.716 69.3424C41.7603 69.1398 40.8862 68.6585 40.2042 67.9592C39.5221 67.2599 39.0627 66.3741 38.8841 65.4137C38.7054 64.4533 38.8156 63.4615 39.2006 62.5638C39.5856 61.666 40.2282 60.9025 41.0471 60.37C41.866 59.8374 42.8244 59.5596 43.8012 59.5717C44.4501 59.579 45.0911 59.7142 45.6876 59.9696C46.2841 60.225 46.8244 60.5956 47.2775 61.0602C47.7306 61.5247 48.0875 62.074 48.328 62.6767C48.5685 63.2794 48.6877 63.9236 48.6788 64.5725Z" fill="white"/>
<path d="M52.1183 78.2426V80.2754C50.6623 81.1577 49.0741 81.8006 47.4143 82.1794C45.3132 82.6761 43.1337 82.7461 41.005 82.3854C38.8764 82.0247 36.8417 81.2405 35.0215 80.0794V78.0466C35.0989 75.8163 36.0462 73.705 37.6607 72.1643C39.2751 70.6237 41.4285 69.7763 43.66 69.8034C45.8914 69.8304 48.0236 70.7299 49.6002 72.3092C51.1768 73.8886 52.0726 76.0223 52.0959 78.2538L52.1183 78.2426Z" fill="white"/>
<path d="M244.646 180.454C243.188 181.336 241.598 181.979 239.936 182.358C235.955 183.278 231.772 182.663 228.224 180.636C224.675 178.609 222.022 175.319 220.792 171.422C219.562 167.525 219.847 163.307 221.589 159.611C223.332 155.914 226.403 153.01 230.192 151.479C233.981 149.947 238.208 149.9 242.03 151.347C245.851 152.794 248.987 155.629 250.811 159.286C252.636 162.943 253.014 167.153 251.871 171.076C250.728 175 248.148 178.348 244.646 180.454Z" fill="#EBEBEB"/>
<path d="M244.893 161.912H227.656V173.734H244.893V161.912Z" fill="white"/>
<path d="M233.766 159.354H228.653L227.656 161.521H234.763L233.766 159.354Z" fill="white"/>
<path d="M109.949 218.59C107.01 220.36 103.586 221.154 100.168 220.858C96.7498 220.562 93.5134 219.19 90.9227 216.941C88.3321 214.692 86.5204 211.68 85.7475 208.337C84.9746 204.994 85.2803 201.493 86.6206 198.334C87.9609 195.176 90.267 192.523 93.2081 190.757C96.1493 188.99 99.5744 188.2 102.992 188.501C106.41 188.801 109.645 190.176 112.233 192.429C114.82 194.682 116.628 197.696 117.397 201.04C118.17 204.377 117.865 207.873 116.527 211.026C115.189 214.179 112.886 216.827 109.949 218.59Z" fill="#EBEBEB"/>
<path d="M110.352 206.388C110.132 206.257 109.953 206.068 109.833 205.842C109.714 205.616 109.659 205.361 109.675 205.106C109.675 204.966 109.675 204.82 109.675 204.68C109.675 204.54 109.675 204.389 109.675 204.249C109.658 203.993 109.713 203.738 109.833 203.512C109.952 203.286 110.132 203.097 110.352 202.966L111.898 202.076L108.991 197.036L107.446 197.926C107.223 198.053 106.969 198.116 106.713 198.107C106.457 198.098 106.209 198.018 105.995 197.876C105.755 197.718 105.507 197.574 105.251 197.445C105.022 197.33 104.829 197.154 104.694 196.936C104.559 196.719 104.486 196.469 104.483 196.213V194.438H98.6705V196.213C98.6692 196.468 98.5974 196.718 98.463 196.936C98.3287 197.153 98.1369 197.329 97.9089 197.445C97.6509 197.574 97.4003 197.718 97.1585 197.876C96.9452 198.018 96.6966 198.098 96.4405 198.107C96.1844 198.116 95.9308 198.053 95.7081 197.926L94.1625 197.036L91.2617 202.076L92.8129 202.972C93.0316 203.102 93.21 203.29 93.3286 203.516C93.4472 203.741 93.5013 203.995 93.4849 204.249C93.4849 204.389 93.4849 204.534 93.4849 204.68C93.4849 204.826 93.4849 204.966 93.4849 205.106C93.5011 205.361 93.4464 205.616 93.3268 205.842C93.2073 206.068 93.0275 206.257 92.8073 206.388L91.2785 207.278L94.1793 212.318L95.7249 211.428C95.9466 211.301 96.1992 211.238 96.4545 211.247C96.7097 211.256 96.9575 211.336 97.1697 211.478C97.4134 211.636 97.6658 211.78 97.9257 211.91C98.1537 212.025 98.3455 212.201 98.4798 212.418C98.6142 212.636 98.686 212.886 98.6873 213.141V214.917H104.5V213.136C104.503 212.88 104.575 212.63 104.711 212.412C104.846 212.195 105.039 212.019 105.267 211.904C105.525 211.774 105.776 211.63 106.018 211.473C106.231 211.331 106.48 211.251 106.736 211.242C106.992 211.233 107.245 211.296 107.468 211.422L109.008 212.313L111.915 207.273L110.352 206.388ZM101.583 209.44C100.641 209.44 99.7208 209.161 98.938 208.638C98.1552 208.115 97.5451 207.371 97.1849 206.501C96.8246 205.632 96.7303 204.675 96.914 203.751C97.0976 202.828 97.551 201.98 98.2167 201.314C98.8824 200.648 99.7305 200.195 100.654 200.011C101.577 199.828 102.534 199.922 103.404 200.282C104.274 200.643 105.017 201.253 105.54 202.035C106.063 202.818 106.343 203.738 106.343 204.68C106.341 205.942 105.839 207.152 104.947 208.044C104.054 208.936 102.844 209.438 101.583 209.44Z" fill="white"/>
<path d="M104.887 204.68C104.887 205.334 104.693 205.974 104.329 206.518C103.965 207.063 103.448 207.487 102.844 207.737C102.239 207.988 101.574 208.053 100.932 207.926C100.29 207.798 99.6998 207.483 99.2369 207.02C98.7741 206.557 98.4589 205.967 98.3312 205.325C98.2035 204.683 98.269 204.018 98.5195 203.413C98.77 202.808 99.1942 202.292 99.7385 201.928C100.283 201.564 100.923 201.37 101.577 201.37C102.455 201.37 103.297 201.719 103.917 202.339C104.538 202.96 104.887 203.802 104.887 204.68Z" fill="white"/>
<path d="M140 260.304C201.064 260.304 250.566 255.493 250.566 249.558C250.566 243.623 201.064 238.812 140 238.812C78.9359 238.812 29.4336 243.623 29.4336 249.558C29.4336 255.493 78.9359 260.304 140 260.304Z" fill="#EBEBEB"/>
<path d="M18.916 228.195L49.184 228.061L79.4576 228.01L139.999 227.915L200.541 228.01L230.814 228.061L261.082 228.195L230.814 228.335L200.541 228.38L139.999 228.475L79.4576 228.38L49.184 228.335L18.916 228.195Z" fill="#263238"/>
<path d="M258.424 186.043C252.662 193.844 246.664 202.899 245.191 212.688C245.191 212.834 245.415 212.884 245.449 212.733C246.11 210.062 246.962 207.442 247.997 204.893C251.783 203.851 255.501 202.995 257.489 199.237C259.522 195.373 259.259 190.333 258.878 186.122C258.85 185.92 258.542 185.92 258.424 186.043Z" fill="#2A2FB8"/>
<path d="M248.08 204.826C250.667 199.018 253.988 193.189 258.216 188.412C258.244 188.378 258.289 188.412 258.261 188.457C255.495 191.856 253.395 195.563 251.345 199.332C253.249 197.394 255.343 195.658 257.147 193.609C257.18 193.57 257.242 193.609 257.208 193.665C255.411 195.821 253.451 198.145 251.115 199.752C250.488 200.906 249.855 202.07 249.211 203.23C249.368 203.14 249.531 203.062 249.693 202.983C249.721 202.983 249.749 202.983 249.721 203.022C249.542 203.118 249.363 203.213 249.161 203.291C248.859 203.851 248.562 204.411 248.248 204.932C248.231 204.945 248.21 204.952 248.189 204.953C248.167 204.954 248.146 204.948 248.128 204.937C248.109 204.925 248.095 204.908 248.087 204.889C248.078 204.869 248.076 204.847 248.08 204.826Z" fill="#263238"/>
<path d="M249.978 202.798C251.526 201.929 253.005 200.942 254.402 199.847C254.436 199.819 254.492 199.847 254.453 199.903C253.102 201.071 251.622 202.08 250.04 202.91C250.025 202.918 250.008 202.92 249.991 202.916C249.975 202.911 249.961 202.9 249.953 202.885C249.945 202.87 249.943 202.853 249.948 202.836C249.953 202.82 249.964 202.806 249.978 202.798Z" fill="#263238"/>
<path d="M244.524 211.232C244.524 211.35 244.737 211.35 244.737 211.232C244.765 208.012 244.737 204.775 244.787 201.539C245.616 199.859 247.385 198.946 248.617 197.619C249.503 196.645 250.274 195.572 250.913 194.421C252.398 191.669 253.306 188.643 253.585 185.528C253.921 182.084 252.616 170.711 251.16 171.103C250.409 171.31 247.968 176.943 247.324 178.803C246.277 181.875 245.508 185.035 245.028 188.244C243.852 195.815 243.947 203.599 244.524 211.232Z" fill="#2A2FB8"/>
<path d="M244.502 197.327C244.675 193.251 245.594 189.135 246.456 185.181C247.38 180.919 248.467 176.91 250.656 173.107C250.664 173.092 250.678 173.081 250.694 173.077C250.711 173.072 250.728 173.074 250.743 173.082C250.758 173.09 250.769 173.104 250.774 173.12C250.778 173.137 250.776 173.154 250.768 173.169C249.31 176.125 248.184 179.233 247.408 182.437C247.554 182.207 247.733 181.989 247.884 181.771C247.946 181.687 248.086 181.771 248.03 181.855C247.832 182.199 247.601 182.523 247.341 182.823H247.313C246.557 185.87 246.019 188.983 245.555 192.091L245.655 191.974C245.658 191.97 245.66 191.968 245.664 191.965C245.667 191.963 245.671 191.962 245.675 191.961C245.679 191.96 245.683 191.96 245.687 191.961C245.69 191.962 245.694 191.963 245.697 191.965C245.701 191.968 245.704 191.97 245.706 191.974C245.708 191.977 245.71 191.981 245.71 191.985C245.711 191.988 245.711 191.993 245.71 191.996C245.71 192 245.708 192.004 245.706 192.007C245.65 192.108 245.583 192.215 245.521 192.315C245.286 193.895 245.067 195.468 244.855 197.025C247.655 194.628 250.057 191.8 251.412 188.311C250.091 191.929 248.002 195.143 244.787 197.339C244.726 197.759 244.67 198.179 244.608 198.599C244.608 198.683 244.457 198.66 244.457 198.599C244.457 198.229 244.457 197.854 244.491 197.479C244.48 197.469 244.471 197.457 244.465 197.443C244.46 197.429 244.458 197.415 244.459 197.4C244.46 197.386 244.464 197.371 244.472 197.359C244.479 197.346 244.49 197.335 244.502 197.327Z" fill="#263238"/>
<path d="M245.841 191.42C248.037 188.312 249.952 185.016 251.564 181.569C251.564 181.53 251.648 181.569 251.631 181.569C250.348 185.202 248.418 188.574 245.936 191.52C245.885 191.565 245.785 191.487 245.841 191.42Z" fill="#263238"/>
<path d="M248.68 180.779C249.565 179.205 250.506 177.677 251.34 176.069C251.34 176.025 251.424 176.069 251.407 176.109C250.723 177.783 249.853 179.376 248.815 180.857C248.803 180.873 248.786 180.883 248.767 180.887C248.749 180.891 248.729 180.887 248.713 180.878C248.696 180.868 248.684 180.853 248.678 180.835C248.672 180.816 248.673 180.797 248.68 180.779Z" fill="#263238"/>
<path d="M242.346 201.913C242.303 204.048 242.049 206.173 241.59 208.258L241.691 208.953C242.342 206.648 242.718 204.273 242.811 201.88C242.83 201.847 242.84 201.809 242.84 201.771C242.84 201.732 242.83 201.695 242.811 201.661C242.91 198.453 242.681 195.242 242.128 192.08C241.131 186.161 238.947 180.477 234.82 176.036C234.786 176.007 234.745 175.985 234.701 175.974C234.657 175.963 234.611 175.962 234.567 175.971C234.523 175.98 234.481 175.999 234.445 176.027C234.41 176.055 234.381 176.09 234.361 176.131C232.681 180.37 233.274 185.427 234.697 189.655C235.48 191.939 236.593 194.095 238.001 196.056C239.39 198.049 241.193 199.735 242.346 201.913Z" fill="#2A2FB8"/>
<path d="M235.307 178.002C239.227 184.358 241.943 191.89 242.279 199.394C242.279 199.529 242.06 199.562 242.038 199.422C241.948 198.75 241.847 198.084 241.735 197.417C240.034 195.915 238.54 194.192 237.295 192.293C237.289 192.286 237.287 192.277 237.289 192.268C237.291 192.259 237.296 192.251 237.303 192.246C237.31 192.241 237.32 192.239 237.329 192.24C237.338 192.242 237.345 192.247 237.351 192.254C238.693 193.903 240.133 195.47 241.663 196.947C241.383 195.267 241.052 193.654 240.66 192.047C240.554 191.924 240.453 191.801 240.347 191.683C240.24 191.565 240.391 191.487 240.464 191.565L240.559 191.672C240.009 189.465 239.324 187.294 238.51 185.17C237.519 183.983 236.404 182.958 235.676 181.525C235.674 181.521 235.673 181.518 235.673 181.514C235.672 181.51 235.673 181.506 235.674 181.503C235.675 181.499 235.677 181.496 235.679 181.493C235.681 181.49 235.684 181.487 235.687 181.485C235.691 181.484 235.694 181.482 235.698 181.482C235.702 181.482 235.706 181.482 235.709 181.483C235.713 181.484 235.716 181.486 235.719 181.488C235.722 181.49 235.725 181.493 235.727 181.497C236.291 182.327 236.896 183.129 237.541 183.899C237.804 184.201 238.101 184.459 238.364 184.778C237.46 182.47 236.388 180.232 235.155 178.081C235.152 178.062 235.155 178.043 235.164 178.026C235.172 178.009 235.186 177.995 235.203 177.987C235.219 177.978 235.239 177.975 235.257 177.978C235.276 177.98 235.293 177.989 235.307 178.002Z" fill="#263238"/>
<path d="M236.096 185.842C237.361 187.522 238.806 189.169 239.982 190.927C240.016 190.977 239.943 191.028 239.898 190.989C238.397 189.457 237.092 187.745 236.012 185.893C235.978 185.837 236.062 185.792 236.096 185.842Z" fill="#263238"/>
<path d="M240.157 191.324L240.213 191.374C240.252 191.413 240.213 191.469 240.157 191.436L240.101 191.38C240.061 191.341 240.123 191.285 240.157 191.324Z" fill="#263238"/>
<path d="M229.175 190.215C229.634 193.767 231.062 197.125 233.302 199.92C234.227 201.015 235.372 201.905 236.662 202.529C238.113 203.252 239.63 204.075 241.142 204.663C241.853 206.473 242.382 208.349 242.722 210.263C242.772 210.101 242.822 209.933 242.867 209.765C241.904 201.493 236.55 194.421 229.702 189.879C229.648 189.836 229.582 189.812 229.513 189.808C229.445 189.805 229.377 189.823 229.319 189.86C229.261 189.896 229.216 189.951 229.19 190.014C229.164 190.078 229.159 190.148 229.175 190.215Z" fill="#2A2FB8"/>
<path d="M231.537 192.64C231.493 192.595 231.537 192.511 231.61 192.55C235.373 195.347 238.373 199.044 240.335 203.302C240.385 203.414 240.229 203.515 240.167 203.403C239.848 202.843 239.523 202.283 239.193 201.768C237.63 201.477 236.152 200.373 234.993 199.332C234.959 199.304 234.993 199.259 235.037 199.287C235.636 199.83 236.3 200.297 237.014 200.676C237.663 200.971 238.327 201.232 239.002 201.46C238.442 200.541 237.815 199.662 237.188 198.805C235.499 198.162 233.916 197.271 232.489 196.162C232.445 196.129 232.489 196.056 232.534 196.089C233.947 196.945 235.405 197.722 236.902 198.419C235.946 197.162 234.916 195.963 233.817 194.829C233.285 194.549 232.747 194.269 232.232 193.967C232.187 193.939 232.232 193.866 232.265 193.883C232.692 194.035 233.1 194.236 233.481 194.482C232.859 193.877 232.221 193.261 231.537 192.64Z" fill="#263238"/>
<path d="M231.684 195.518C231.777 195.572 231.865 195.634 231.948 195.703C231.976 195.703 231.948 195.759 231.92 195.748C231.822 195.703 231.729 195.651 231.64 195.591C231.595 195.563 231.64 195.484 231.684 195.518Z" fill="#263238"/>
<path d="M253.541 228.195H234.775L236.287 211.104L236.623 207.335H251.693L252.029 211.104L253.541 228.195Z" fill="#455A64"/>
<path d="M252.029 211.104H236.287L236.623 207.335H251.693L252.029 211.104Z" fill="#263238"/>
<path d="M252.588 204.697H235.721V208.427H252.588V204.697Z" fill="#455A64"/>
<path d="M241.261 81.284L217.937 190.092C217.628 191.53 216.781 192.796 215.569 193.629C214.357 194.462 212.872 194.799 211.418 194.572L158.577 185.259C157.371 185.048 156.279 184.415 155.497 183.473L153.363 180.902C154.144 181.845 155.237 182.476 156.443 182.683L209.279 192.002C210.732 192.229 212.218 191.891 213.43 191.058C214.642 190.225 215.489 188.96 215.798 187.522L239.122 78.7136C239.302 77.9137 239.297 77.0835 239.107 76.2858C238.918 75.4882 238.55 74.7442 238.03 74.1104L240.169 76.6864C240.689 77.3189 241.058 78.0619 241.247 78.8587C241.436 79.6555 241.441 80.485 241.261 81.284Z" fill="#263238"/>
<path d="M234.938 72.324L182.102 63.0056C180.649 62.7785 179.165 63.1162 177.954 63.9493C176.742 64.7825 175.896 66.0479 175.589 67.4856L152.265 176.316C152.101 177.011 152.081 177.731 152.205 178.434C152.328 179.137 152.594 179.807 152.984 180.404C153.375 181.001 153.883 181.513 154.478 181.907C155.072 182.302 155.741 182.572 156.443 182.7L209.279 192.018C210.732 192.246 212.217 191.908 213.429 191.075C214.641 190.242 215.488 188.977 215.797 187.538L239.121 78.7136C239.286 78.0182 239.308 77.2964 239.184 76.5923C239.061 75.8883 238.796 75.2167 238.404 74.6187C238.013 74.0207 237.503 73.5088 236.907 73.1143C236.311 72.7197 235.641 72.4508 234.938 72.324ZM204.233 71.4448C204.255 71.3477 204.312 71.2624 204.394 71.2062C204.477 71.1501 204.577 71.1272 204.675 71.1424L210.651 72.1952C210.699 72.2031 210.746 72.2209 210.787 72.2476C210.829 72.2743 210.864 72.3092 210.891 72.3502C210.919 72.3912 210.937 72.4373 210.946 72.4858C210.955 72.5343 210.953 72.5841 210.942 72.632C210.92 72.7303 210.862 72.8165 210.778 72.8728C210.695 72.9291 210.593 72.9511 210.494 72.9344L204.519 71.8816C204.47 71.873 204.425 71.8547 204.384 71.8278C204.343 71.8008 204.308 71.7658 204.281 71.7249C204.255 71.684 204.237 71.638 204.228 71.5899C204.22 71.5417 204.222 71.4923 204.233 71.4448ZM235.201 80.2704C235.201 80.3824 235.201 80.5 234.899 82.2472L234.507 84.0784L227.098 118.642L226.185 122.881L225.698 125.171L225.457 126.291L221.879 142.99L220.971 147.235L219.773 152.802L219.538 153.922L215.976 170.526L215.741 171.646L215.439 173.046L213.411 182.51L213.182 183.585C212.566 186.452 209.928 188.39 207.274 187.925L160.004 179.592C157.355 179.122 155.709 176.428 156.325 173.566L178.047 72.24C178.68 69.272 179.559 67.844 180.623 67.2C181.687 66.556 182.863 66.724 184.151 66.9536L193.627 68.6336C194.187 68.7344 194.489 69.44 194.321 70.2128L194.248 70.5488C193.862 72.3688 194.853 72.5424 196.287 72.7888L199.087 73.276L217.987 76.608C219.213 76.8264 220.227 76.9944 220.591 75.18L220.663 74.844C220.707 74.6116 220.8 74.3912 220.936 74.198C221.072 74.0047 221.249 73.843 221.453 73.724C221.613 73.6396 221.795 73.6083 221.974 73.6344L231.438 75.3144C232.53 75.4653 233.552 75.9391 234.372 76.6752C234.977 77.3584 235.313 78.4336 235.201 80.2704Z" fill="#37474F"/>
<path d="M210.941 72.6319C210.92 72.7301 210.861 72.8163 210.778 72.8726C210.694 72.9289 210.593 72.951 210.493 72.9343L204.518 71.8815C204.47 71.8729 204.424 71.8546 204.383 71.8276C204.343 71.8007 204.308 71.7657 204.281 71.7248C204.254 71.6838 204.236 71.6379 204.228 71.5897C204.22 71.5416 204.221 71.4922 204.233 71.4447C204.254 71.3475 204.312 71.2622 204.394 71.2061C204.476 71.1499 204.577 71.1271 204.675 71.1423L210.65 72.1951C210.699 72.203 210.745 72.2208 210.787 72.2475C210.828 72.2741 210.864 72.309 210.891 72.35C210.918 72.391 210.937 72.4372 210.946 72.4857C210.954 72.5342 210.953 72.5839 210.941 72.6319Z" fill="#263238"/>
<path d="M235.2 80.0805C235.2 80.3829 235.167 80.4949 235.156 80.6405L234.495 84.1013L227.086 118.664L226.173 122.904L225.686 125.194L225.445 126.314L221.867 143.013L220.96 147.258L219.761 152.824L219.526 153.944L215.964 170.548L215.729 171.668L215.427 173.068L213.4 182.533L213.17 183.608C212.554 186.475 209.916 188.412 207.268 187.948L196.353 186.021L172.615 181.838L169.12 181.166L166.32 180.679L160.004 179.559C157.355 179.089 155.708 176.395 156.324 173.528L157.82 166.539L158.06 165.419L159.253 159.847L160.16 155.624L163.739 138.931L163.974 137.811L164.467 135.52L165.374 131.276L172.783 96.7181L174.81 87.2597L176.848 77.8405L177.084 76.7205L178.047 72.2405C178.685 69.2781 179.564 67.8445 180.623 67.2005C181.681 66.5565 182.863 66.7245 184.151 66.9541L193.626 68.6341C194.186 68.7349 194.488 69.4405 194.32 70.2133L194.248 70.5493C193.861 72.3637 194.852 72.5429 196.073 72.7893L196.286 72.8285L199.086 73.3157L217.986 76.6477C219.218 76.8661 220.226 77.0397 220.596 75.2197L220.668 74.8837C220.71 74.6512 220.801 74.4306 220.937 74.2372C221.072 74.0437 221.248 73.8822 221.452 73.7637C221.612 73.6793 221.795 73.6479 221.973 73.6741L231.437 75.3541C231.751 75.4101 232.048 75.4773 232.339 75.5557C232.937 75.7012 233.498 75.9702 233.985 76.3453C234.198 76.5301 234.248 76.5805 234.304 76.6365C234.976 77.3589 235.312 78.4341 235.2 80.0805Z" fill="#455A64"/>
<g opacity="0.1">
<path d="M199.07 73.2704L176.85 77.8232L177.085 76.72L196.287 72.7832L199.07 73.2704Z" fill="white"/>
<path d="M232.323 75.4824C232.921 75.628 233.482 75.8969 233.969 76.272C234.182 76.4568 234.233 76.5072 234.289 76.5632C234.977 77.3584 235.313 78.4336 235.213 80.0856C235.213 80.388 235.179 80.5 235.168 80.6456L234.507 84.1064L172.795 96.7512L174.822 87.2928L232.323 75.4824Z" fill="white"/>
<path d="M227.098 118.642L226.185 122.881L164.479 135.526L165.386 131.281L227.098 118.642Z" fill="white"/>
<path d="M225.697 125.171L225.456 126.28L163.75 138.93L163.985 137.816L225.697 125.171Z" fill="white"/>
<path d="M219.773 152.79L219.538 153.899L157.826 166.544L158.067 165.44L219.773 152.79Z" fill="white"/>
<path d="M221.879 142.979L220.966 147.223L159.26 159.868L160.173 155.618L221.879 142.979Z" fill="white"/>
<path d="M215.978 170.503L215.743 171.617L169.117 181.165L166.328 180.678L215.978 170.503Z" fill="white"/>
<path d="M215.439 173.018L213.412 182.482L196.365 185.97L172.627 181.787L215.439 173.018Z" fill="white"/>
</g>
<path d="M220.06 44.7625C221.795 33.9555 214.441 23.7882 203.634 22.0534C192.827 20.3185 182.659 27.6729 180.924 38.48C179.19 49.287 186.544 59.4542 197.351 61.1891C208.158 62.924 218.325 55.5696 220.06 44.7625Z" fill="#2A2FB8"/>
<path d="M200.479 47.2474C202.824 47.2474 204.724 45.347 204.724 43.0026C204.724 40.6583 202.824 38.7578 200.479 38.7578C198.135 38.7578 196.234 40.6583 196.234 43.0026C196.234 45.347 198.135 47.2474 200.479 47.2474Z" fill="white"/>
<path d="M188.719 35.7949V50.2037H212.289V35.7949H188.719ZM200.479 48.4677C199.398 48.4666 198.342 48.1451 197.444 47.5439C196.546 46.9426 195.846 46.0886 195.433 45.0898C195.02 44.091 194.913 42.9923 195.124 41.9324C195.336 40.8726 195.857 39.8992 196.622 39.1354C197.386 38.3716 198.36 37.8516 199.42 37.6411C200.48 37.4307 201.579 37.5393 202.577 37.9531C203.576 38.3669 204.429 39.0675 205.029 39.9662C205.63 40.8649 205.95 41.9214 205.95 43.0021C205.95 43.7203 205.808 44.4315 205.533 45.095C205.258 45.7585 204.855 46.3613 204.347 46.8689C203.839 47.3765 203.236 47.7789 202.572 48.0533C201.908 48.3276 201.197 48.4685 200.479 48.4677ZM210.884 38.3205H208.616V37.0157H210.884V38.3205Z" fill="white"/>
<path d="M206.337 35.7947H194.627L195.786 33.0283H205.177L206.337 35.7947Z" fill="white"/>
<path d="M200.479 47.2474C202.824 47.2474 204.724 45.347 204.724 43.0026C204.724 40.6583 202.824 38.7578 200.479 38.7578C198.135 38.7578 196.234 40.6583 196.234 43.0026C196.234 45.347 198.135 47.2474 200.479 47.2474Z" fill="#455A64"/>
<path d="M200.479 47.2474C202.824 47.2474 204.724 45.347 204.724 43.0026C204.724 40.6583 202.824 38.7578 200.479 38.7578C198.135 38.7578 196.234 40.6583 196.234 43.0026C196.234 45.347 198.135 47.2474 200.479 47.2474Z" fill="white"/>
<path d="M191.732 34.7256H189.486V35.3752H191.732V34.7256Z" fill="white"/>
<path d="M139.02 87.4151C149.965 87.4151 158.838 78.5421 158.838 67.5967C158.838 56.6513 149.965 47.7783 139.02 47.7783C128.074 47.7783 119.201 56.6513 119.201 67.5967C119.201 78.5421 128.074 87.4151 139.02 87.4151Z" fill="#2A2FB8"/>
<path d="M139.02 90.0583H138.606V89.4983C139.166 89.4983 139.726 89.4871 140.286 89.4647L140.319 90.0247C139.894 90.0471 139.44 90.0583 139.02 90.0583ZM136.892 89.9631C136.332 89.9071 135.772 89.8287 135.212 89.7335L135.307 89.1735C135.867 89.2687 136.427 89.3471 136.987 89.3975L136.892 89.9631ZM142.039 89.8567L141.966 89.2967C142.526 89.2239 143.086 89.1287 143.618 89.0111L143.735 89.5711C143.181 89.6831 142.61 89.7839 142.039 89.8567ZM133.504 89.3751C132.944 89.2351 132.384 89.0727 131.824 88.8935L132.003 88.3335C132.53 88.5127 133.073 88.6695 133.611 88.8039L133.504 89.3751ZM145.404 89.1399L145.247 88.5799C145.779 88.4231 146.311 88.2439 146.832 88.0199L147.034 88.5463C146.496 88.7927 145.947 88.9775 145.404 89.1399ZM130.245 88.2831C129.719 88.0591 129.198 87.8127 128.688 87.5495L128.946 87.0567C129.439 87.3087 129.954 87.5495 130.463 87.7679L130.245 88.2831ZM148.619 87.9135L148.378 87.4095C148.882 87.1687 149.38 86.9111 149.867 86.6311L150.142 87.1183C149.649 87.4039 149.134 87.6727 148.619 87.9191V87.9135ZM127.193 86.7039C126.711 86.4015 126.23 86.0767 125.765 85.7407L126.095 85.2871C126.549 85.6175 127.019 85.9367 127.49 86.2279L127.193 86.7039ZM151.603 86.2111L151.29 85.7463C151.749 85.4327 152.203 85.1023 152.645 84.7495L152.992 85.1863C152.539 85.5503 152.074 85.8919 151.603 86.2391V86.2111ZM124.421 84.6711C123.984 84.3015 123.564 83.9095 123.155 83.5063L123.553 83.1087C123.945 83.5007 124.359 83.8871 124.785 84.2287L124.421 84.6711ZM154.297 84.0663L153.916 83.6575C154.118 83.4727 154.314 83.2823 154.51 83.0975C154.706 82.9127 154.907 82.6887 155.103 82.4815L155.512 82.8623C155.316 83.0751 155.115 83.2823 154.902 83.4951C154.689 83.7079 154.504 83.8759 154.297 84.0663ZM121.985 82.2463C121.61 81.8095 121.251 81.3615 120.91 80.8967L121.363 80.5663C121.694 81.0143 122.047 81.4567 122.411 81.8823L121.985 82.2463ZM156.632 81.5463L156.195 81.1935C156.543 80.7567 156.873 80.3031 157.187 79.8439L157.646 80.1575C157.327 80.6391 156.985 81.0927 156.632 81.5463ZM119.947 79.4743C119.644 78.9871 119.353 78.4887 119.09 77.9791L119.588 77.7215C119.846 78.2143 120.148 78.7071 120.423 79.1775L119.947 79.4743ZM158.553 78.6959L158.066 78.4215C158.346 77.9343 158.626 77.4359 158.839 76.9319L159.348 77.1727C159.102 77.6879 158.839 78.2031 158.553 78.6959ZM118.356 76.4223C118.132 75.9015 117.925 75.3583 117.74 74.8151L118.272 74.6359C118.451 75.1679 118.653 75.6943 118.871 76.2039L118.356 76.4223ZM160.02 75.5879L159.494 75.3863C159.695 74.8711 159.875 74.3335 160.054 73.8015L160.614 73.9583C160.407 74.5071 160.222 75.0391 160.02 75.5991V75.5879ZM117.253 73.1687C117.113 72.6087 116.99 72.0487 116.889 71.4887L117.449 71.3935C117.544 71.9535 117.662 72.5135 117.802 73.0343L117.253 73.1687ZM160.989 72.2895L160.429 72.1719C160.547 71.6119 160.642 71.0519 160.72 70.5199L161.28 70.5927C161.207 71.1583 161.112 71.7295 160.989 72.2895ZM116.659 69.7807C116.603 69.2207 116.57 68.6607 116.559 68.0615H117.119C117.119 68.6215 117.163 69.1815 117.219 69.7415L116.659 69.7807ZM161.459 68.8791H160.899C160.899 68.4591 160.933 68.0447 160.933 67.6247V67.1991H161.493V67.6359C161.482 68.0223 161.471 68.4535 161.448 68.8791H161.459ZM117.158 66.3759L116.598 66.3423C116.631 65.7823 116.687 65.2223 116.76 64.6287L117.32 64.7015C117.231 65.2559 117.18 65.8159 117.147 66.3759H117.158ZM160.838 65.4967C160.787 64.9367 160.715 64.3767 160.619 63.8167L161.179 63.7215C161.28 64.2815 161.353 64.8415 161.409 65.4295L160.838 65.4967ZM117.6 63.0495L117.04 62.9319C117.158 62.3719 117.298 61.8119 117.46 61.2519L118.02 61.4087C117.841 61.9575 117.701 62.5063 117.6 63.0495ZM160.261 62.1927C160.127 61.6327 159.964 61.1119 159.785 60.5855L160.317 60.4063C160.502 60.9663 160.664 61.5263 160.804 62.0583L160.261 62.1927ZM118.541 59.8351L118.015 59.6335C118.222 59.1015 118.446 58.5695 118.687 58.0487L119.196 58.2895C118.944 58.7991 118.72 59.3143 118.53 59.8351H118.541ZM159.191 59.0175C158.973 58.5079 158.732 57.9927 158.475 57.4999L158.973 57.2423C159.236 57.7519 159.483 58.2727 159.707 58.7991L159.191 59.0175ZM119.963 56.7775L119.476 56.5031C119.756 56.0047 120.036 55.5119 120.383 55.0415L120.848 55.3495C120.523 55.8367 120.227 56.3127 119.952 56.7999L119.963 56.7775ZM157.646 56.0159C157.349 55.5455 157.035 55.0751 156.705 54.6271L157.159 54.2967C157.495 54.7559 157.819 55.2375 158.122 55.7247L157.646 56.0159ZM121.806 53.9999L121.369 53.6527C121.722 53.2047 122.097 52.7623 122.489 52.3423L122.898 52.7231C122.534 53.1543 122.17 53.5855 121.823 54.0223L121.806 53.9999ZM155.63 53.3167C155.266 52.8911 154.885 52.4767 154.51 52.0847L154.465 52.0399L154.857 51.6423L154.907 51.6927C155.305 52.0903 155.703 52.5159 156.072 52.9471L155.63 53.3167ZM124.096 51.5583L123.715 51.1495C124.135 50.7575 124.578 50.3767 125.02 50.0295L125.367 50.4663C124.936 50.8079 124.511 51.1775 124.096 51.5583ZM153.216 50.9255C152.796 50.5615 152.348 50.2143 151.9 49.8839L152.231 49.4303C152.69 49.7663 153.149 50.1247 153.58 50.4999L153.216 50.9255ZM126.711 49.4639L126.392 48.9991C126.868 48.6799 127.355 48.3719 127.854 48.0919L128.134 48.5735C127.68 48.8535 127.182 49.1503 126.723 49.4639H126.711ZM150.511 48.9487C150.035 48.6575 149.543 48.3887 149.05 48.1255L149.307 47.6271C149.817 47.8847 150.315 48.1871 150.808 48.4727L150.511 48.9487ZM129.618 47.8287L129.377 47.3191C129.898 47.0727 130.43 46.8487 130.962 46.6415L131.163 47.1679C130.654 47.3359 130.133 47.5599 129.629 47.8007L129.618 47.8287ZM147.538 47.4423C147.028 47.2239 146.496 47.0223 145.97 46.8487L146.149 46.2887C146.709 46.4679 147.23 46.6751 147.756 46.8935L147.538 47.4423ZM132.754 46.6247L132.597 46.0927C133.157 45.9247 133.717 45.7847 134.277 45.6615L134.395 46.2215C133.84 46.2999 133.28 46.4399 132.759 46.5967L132.754 46.6247ZM144.363 46.3783C143.803 46.2439 143.243 46.1263 142.722 46.0311L142.811 45.4711C143.371 45.5663 143.931 45.6839 144.491 45.8239L144.363 46.3783ZM136.041 45.9191L135.963 45.3591C136.523 45.2863 137.083 45.2247 137.676 45.1911L137.71 45.7511C137.155 45.7623 136.595 45.8183 136.041 45.9191ZM141.081 45.8127C140.521 45.7623 139.961 45.7287 139.401 45.7231V45.1631C139.961 45.1631 140.555 45.2023 141.12 45.2583L141.081 45.8127Z" fill="#2A2FB8"/>
<path d="M150.539 60.2895C149.548 61.0567 148.579 61.8575 147.593 62.6415C146.608 63.4255 145.645 64.2319 144.676 65.0383C143.589 65.9343 142.514 66.8415 141.439 67.7543C140.627 68.4319 139.821 69.1263 139.02 69.8151C138.219 69.1263 137.407 68.4431 136.601 67.7543C135.531 66.8303 134.45 65.9231 133.375 65.0271C132.401 64.2207 131.426 63.4255 130.446 62.6303C129.466 61.8351 128.503 61.0455 127.512 60.2783L150.539 60.2895Z" fill="white"/>
<path d="M150.538 60.2891V74.9051H127.5V60.2891C128.43 61.1851 129.376 62.0363 130.3 62.9099C131.224 63.7835 132.193 64.6291 133.139 65.4691C134.086 66.3091 135.133 67.2387 136.13 68.1067L136.225 68.1851L136.314 68.2579L136.13 68.3699C135.48 68.7339 134.853 69.1259 134.237 69.5291C133.458 70.0219 132.697 70.5427 131.93 71.0691C131.162 71.5955 130.434 72.1387 129.69 72.6987C128.945 73.2587 128.234 73.8187 127.528 74.4347C128.346 73.9923 129.13 73.5051 129.908 73.0011C130.686 72.4971 131.442 71.9875 132.198 71.4667C132.954 70.9459 133.71 70.3971 134.438 69.8315C135.043 69.3835 135.631 68.9187 136.214 68.4259L136.354 68.3083C137.188 69.0419 138.034 69.7643 138.862 70.4923L138.991 70.6043L139.12 70.4923C139.96 69.7643 140.8 69.0307 141.64 68.3139L141.774 68.4259C142.334 68.9187 142.939 69.3835 143.538 69.8315C144.272 70.3915 145.022 70.9515 145.778 71.4667C146.534 71.9819 147.296 72.5027 148.074 73.0011C148.853 73.4995 149.637 73.9923 150.454 74.4347C149.754 73.8243 149.026 73.2531 148.287 72.6987C147.548 72.1443 146.809 71.5787 146.047 71.0691C145.286 70.5595 144.524 70.0219 143.746 69.5291C143.13 69.1259 142.502 68.7339 141.853 68.3699C141.798 68.3318 141.74 68.2981 141.679 68.2691L141.769 68.1907C141.802 68.1907 141.825 68.1291 141.853 68.1067C142.855 67.2387 143.846 66.3595 144.838 65.4747C145.829 64.5899 146.742 63.7947 147.688 62.9099C148.634 62.0251 149.609 61.1851 150.538 60.2891Z" fill="white"/>
<path d="M221.079 220.243C223.442 209.556 216.694 198.976 206.007 196.613C195.32 194.249 184.74 200.997 182.377 211.684C180.014 222.371 186.761 232.951 197.449 235.315C208.136 237.678 218.715 230.93 221.079 220.243Z" fill="#2A2FB8"/>
<path d="M213.483 226.161H190.002V205.805H213.483V226.161ZM191.52 224.637H211.948V207.328H191.52V224.637Z" fill="white"/>
<path d="M190.764 225.4L197.136 219.296L202.91 225.4H190.764Z" fill="white"/>
<path d="M198.945 225.4L206.511 215.841L212.721 225.4H198.945Z" fill="white"/>
<path d="M199.097 215.269C199.097 215.712 198.966 216.145 198.72 216.514C198.474 216.882 198.124 217.169 197.714 217.339C197.305 217.508 196.855 217.553 196.42 217.466C195.986 217.38 195.587 217.166 195.273 216.853C194.96 216.54 194.747 216.141 194.66 215.706C194.574 215.272 194.618 214.821 194.788 214.412C194.957 214.003 195.244 213.653 195.613 213.407C195.981 213.161 196.414 213.029 196.857 213.029C197.451 213.029 198.021 213.265 198.441 213.685C198.861 214.105 199.097 214.675 199.097 215.269Z" fill="white"/>
<path d="M139.91 210.711C150.856 210.711 159.729 201.838 159.729 190.893C159.729 179.947 150.856 171.074 139.91 171.074C128.965 171.074 120.092 179.947 120.092 190.893C120.092 201.838 128.965 210.711 139.91 210.711Z" fill="#2A2FB8"/>
<path d="M139.91 199.382C145.753 199.382 150.489 195.278 150.489 190.215C150.489 185.152 145.753 181.048 139.91 181.048C134.068 181.048 129.332 185.152 129.332 190.215C129.332 195.278 134.068 199.382 139.91 199.382Z" fill="white"/>
<path d="M132.244 195.406L130.346 200.737L137.071 198.643L132.244 195.406Z" fill="white"/>
<path d="M113.926 149.245C124.871 149.245 133.744 140.372 133.744 129.427C133.744 118.481 124.871 109.608 113.926 109.608C102.98 109.608 94.1074 118.481 94.1074 129.427C94.1074 140.372 102.98 149.245 113.926 149.245Z" fill="#2A2FB8"/>
<path d="M121.648 125.137C121.262 121.279 118.602 117.432 113.926 117.432C109.25 117.432 106.59 121.279 106.209 125.137C105.615 131.101 109.636 136.5 113.926 141.422C118.215 136.5 122.236 131.101 121.648 125.137ZM113.926 129.427C113.09 129.426 112.273 129.177 111.578 128.712C110.884 128.246 110.343 127.586 110.024 126.813C109.704 126.04 109.621 125.19 109.785 124.371C109.949 123.551 110.352 122.798 110.944 122.207C111.535 121.616 112.288 121.214 113.108 121.052C113.928 120.889 114.778 120.973 115.551 121.293C116.323 121.613 116.983 122.155 117.447 122.85C117.911 123.546 118.159 124.363 118.159 125.199C118.159 125.755 118.05 126.305 117.837 126.818C117.624 127.331 117.312 127.798 116.919 128.19C116.526 128.583 116.059 128.894 115.545 129.107C115.032 129.319 114.481 129.428 113.926 129.427Z" fill="white"/>
<path d="M200.759 72.3463H200.199V70.6663H200.759V72.3463ZM200.759 68.9863H200.199V67.3063H200.759V68.9863ZM200.759 65.6263H200.199V63.9463H200.759V65.6263Z" fill="#2A2FB8"/>
<path d="M160.686 89.3644L159.499 88.1772L159.896 87.7796L161.083 88.9668L160.686 89.3644ZM158.311 86.9844L157.124 85.7972L157.516 85.4052L158.703 86.5924L158.311 86.9844ZM155.931 84.61L154.744 83.4396L155.142 83.042L156.329 84.2292L155.931 84.61Z" fill="#2A2FB8"/>
<path d="M144.777 129.36H143.097V128.8H144.777V129.36ZM141.417 129.36H139.737V128.8H141.417V129.36ZM138.057 129.36H136.377V128.8H138.057V129.36Z" fill="#2A2FB8"/>
<path d="M155.853 174.793L155.455 174.395L156.642 173.208L157.04 173.605L155.853 174.793ZM158.227 172.418L157.829 172.021L159.022 170.833L159.414 171.231L158.227 172.418ZM160.601 170.044L160.209 169.646L161.397 168.459L161.794 168.857L160.601 170.044Z" fill="#2A2FB8"/>
<path d="M201.767 193.166H201.207V191.486H201.767V193.166ZM201.767 189.806H201.207V188.126H201.767V189.806ZM201.767 186.446H201.207V184.766H201.767V186.446Z" fill="#2A2FB8"/>
<path d="M104.938 249.407C103.683 249.816 67.9331 249.351 66.5835 248.466C66.0683 248.141 65.7715 213.32 65.7715 213.32L89.6835 213.561L88.7819 236.88C88.7819 236.88 102.384 243.174 103.767 244.305C105.151 245.436 106.192 249.009 104.938 249.407Z" fill="#AD6359"/>
<path d="M94.1964 239.299C94.1012 239.271 94.0564 239.249 94.0508 239.221L94.1964 239.299Z" fill="#2A2FB8"/>
<path d="M104.937 249.413C103.683 249.811 67.9377 249.351 66.5881 248.467C66.4089 248.355 66.2577 244.155 66.1289 238.7C71.3649 240.554 92.3593 244.899 96.6881 244.563C100.608 244.255 97.0577 241.119 96.0553 240.291C99.5385 241.971 103.1 243.735 103.767 244.278C105.139 245.403 106.191 249.01 104.937 249.413Z" fill="#263238"/>
<path d="M58.4297 110.32C58.4297 110.32 63.8001 170.728 64.6737 175.336C64.8753 176.389 65.0041 182.096 65.0825 189.437C65.2729 205.448 65.1609 234.332 65.1609 234.332H90.3609C90.3609 234.332 89.5993 184.313 88.4793 175.107C87.3593 165.9 80.2473 110.32 80.2473 110.32H58.4297Z" fill="#455A64"/>
<path d="M89.2237 229.964C85.3037 229.88 86.4237 229.852 82.5037 229.813C80.5773 229.813 67.9437 229.684 66.1349 229.981C66.1245 229.981 66.1145 229.985 66.1072 229.992C66.0998 230 66.0957 230.01 66.0957 230.02C66.0957 230.031 66.0998 230.041 66.1072 230.048C66.1145 230.055 66.1245 230.059 66.1349 230.059C67.9325 230.356 80.5773 230.25 82.5037 230.227C86.4237 230.194 85.3037 230.16 89.2237 230.076C89.2386 230.076 89.2528 230.07 89.2633 230.06C89.2738 230.049 89.2797 230.035 89.2797 230.02C89.2797 230.005 89.2738 229.991 89.2633 229.981C89.2528 229.97 89.2386 229.964 89.2237 229.964Z" fill="#263238"/>
<path d="M69.9491 201.359L69.8651 190.399C69.8651 186.855 69.8651 183.315 69.6747 179.759C69.3387 172.597 67.8827 165.558 66.8747 158.479C65.8667 151.401 64.9763 144.289 64.1979 137.199C63.3187 129.214 62.5459 121.223 61.7283 113.231C61.7283 113.175 61.6387 113.175 61.6387 113.231C62.8259 127.5 64.1531 141.791 66.1187 155.943C66.6059 159.471 67.1491 162.987 67.7259 166.504C68.3027 170.021 68.9019 173.616 69.1819 177.211C69.4619 180.807 69.5011 184.267 69.5347 187.795C69.572 191.447 69.6093 195.1 69.6467 198.755C69.7251 206.869 69.8035 219.357 69.8819 227.471C69.8878 227.499 69.903 227.524 69.9249 227.541C69.9468 227.559 69.9741 227.569 70.0023 227.569C70.0304 227.569 70.0577 227.559 70.0796 227.541C70.1015 227.524 70.1167 227.499 70.1227 227.471C70.0611 220.203 69.9995 208.594 69.9491 201.359Z" fill="#263238"/>
<path d="M53.1211 110.32C53.1211 110.32 63.8003 170.728 64.6739 175.336C64.8755 176.389 65.0043 182.096 65.0827 189.437L77.1003 110.32H53.1211Z" fill="#263238"/>
<path d="M74.7708 253.422C73.4828 253.708 37.934 249.905 36.6908 248.897C36.2036 248.522 39.166 213.83 39.166 213.83L62.9492 216.305L59.8692 239.416C59.8692 239.416 72.7996 246.96 74.082 248.208C75.3644 249.457 76.0532 253.12 74.7708 253.422Z" fill="#AD6359"/>
<path d="M65.0209 242.357C64.9257 242.318 64.8809 242.29 64.8809 242.262L65.0209 242.357Z" fill="#2A2FB8"/>
<path d="M74.7709 253.428C73.4773 253.714 37.9285 249.906 36.6909 248.903C36.5173 248.763 36.7805 244.255 37.2005 238.504C42.7613 240.974 62.4397 247.072 66.6901 247.156C69.6301 247.218 68.5381 245.258 67.4293 243.902C70.5205 245.767 73.5165 247.632 74.0989 248.209C75.3365 249.452 76.0533 253.12 74.7709 253.428Z" fill="#263238"/>
<path d="M61.5164 235.716L36.3164 234.646C36.3164 234.646 43.1876 179.402 43.3164 176.003C43.5068 170.963 45.926 150.12 47.9588 133.252C47.9588 133.252 44.106 124.119 51.3188 110.32H80.2484C80.2484 110.32 78.3108 123.452 74.99 131.774C72.7614 132.555 70.6094 133.539 68.5612 134.714C68.5612 134.714 65.6772 172.324 65.5708 177.016C65.3804 186.29 61.5164 235.716 61.5164 235.716Z" fill="#455A64"/>
<path d="M60.8429 231.101C56.9229 230.854 58.0429 230.871 54.1229 230.664C52.1965 230.563 39.5629 229.919 37.7597 230.138C37.7511 230.141 37.7437 230.147 37.7385 230.154C37.7333 230.162 37.7305 230.171 37.7305 230.18C37.7305 230.189 37.7333 230.198 37.7385 230.205C37.7437 230.213 37.7511 230.218 37.7597 230.222C39.5461 230.591 52.1853 231.017 54.1061 231.084C58.0261 231.213 56.9061 231.129 60.8261 231.218C60.8395 231.217 60.8519 231.211 60.8615 231.201C60.8711 231.192 60.8774 231.179 60.8793 231.166C60.8812 231.153 60.8787 231.139 60.8721 231.127C60.8655 231.116 60.8553 231.106 60.8429 231.101Z" fill="#263238"/>
<path d="M76.1084 131.202C73.5017 132.15 70.9832 133.325 68.582 134.713C68.5656 134.724 68.5537 134.741 68.5482 134.76C68.5427 134.779 68.5441 134.799 68.5522 134.817C68.5602 134.835 68.5743 134.85 68.5921 134.858C68.6098 134.867 68.6301 134.869 68.6492 134.865C71.186 133.778 73.7732 132.731 76.2484 131.505C76.283 131.483 76.3084 131.449 76.32 131.41C76.3316 131.371 76.3285 131.329 76.3114 131.292C76.2942 131.255 76.2641 131.225 76.2268 131.209C76.1895 131.192 76.1474 131.19 76.1084 131.202Z" fill="#263238"/>
<path d="M76.915 113.797C76.915 113.708 76.7582 113.691 76.7582 113.797C76.7582 116.81 76.5846 119.459 76.3326 122.276C76.215 123.58 75.1622 130.804 72.8942 130.278C72.519 130.188 72.3342 129.819 72.2614 129.242C72.2739 128.495 72.3754 127.753 72.5638 127.03C72.8158 125.518 73.0174 124 73.1238 122.472C73.3908 119.63 73.3608 116.767 73.0342 113.932C73.0342 113.912 73.0265 113.894 73.0129 113.88C72.9992 113.867 72.9807 113.859 72.9614 113.859C72.9421 113.859 72.9236 113.867 72.9099 113.88C72.8963 113.894 72.8886 113.912 72.8886 113.932C72.9659 117.87 72.7488 121.808 72.239 125.714C71.9534 127.596 71.007 130.424 72.9726 130.709C74.9382 130.995 76.2654 126.268 76.5118 124.975C77.1301 121.282 77.2656 117.525 76.915 113.797Z" fill="#263238"/>
<path d="M72.957 130.48C72.7554 130.967 72.5852 131.466 72.4474 131.975C72.3018 132.369 72.2297 132.787 72.2346 133.207C72.2346 133.286 72.3522 133.291 72.3914 133.241C72.6288 132.871 72.8064 132.467 72.9178 132.042C73.0914 131.578 73.2762 131.118 73.433 130.654C73.456 130.59 73.453 130.521 73.4247 130.46C73.3963 130.399 73.3449 130.352 73.2818 130.329C73.2187 130.306 73.149 130.309 73.0881 130.337C73.0272 130.365 72.98 130.417 72.957 130.48Z" fill="#263238"/>
<path d="M40.9961 226.66L42.4745 212.24L44.0145 197.809L47.1673 168.946L50.4265 140.101L50.8353 136.494L51.0313 134.702L51.0761 134.254C51.0738 134.119 51.0512 133.985 51.0089 133.857L50.7681 132.983C50.4549 131.795 50.2432 130.583 50.1353 129.36C50.0327 128.147 50.0196 126.929 50.0961 125.714C50.3985 120.848 51.9273 116.161 53.9097 111.765C52.946 113.982 52.1413 116.265 51.5017 118.597C50.8758 120.926 50.5003 123.316 50.3817 125.725C50.3182 126.928 50.3444 128.133 50.4601 129.332C50.5823 130.526 50.8033 131.708 51.1209 132.865L51.3729 133.739C51.4248 133.898 51.4531 134.064 51.4569 134.232L51.4121 134.691L51.2329 136.505L50.8633 140.117L47.7329 168.98L44.4513 197.825L42.7713 212.245L40.9961 226.66Z" fill="#263238"/>
<path d="M68.9289 57.7421C68.2401 57.8261 65.2329 57.4621 63.2113 60.1893C61.3017 62.7653 60.6018 70.6333 60.1874 72.3469C59.773 74.0605 57.5218 74.3069 56.9842 76.3005C56.525 78.0085 57.7681 78.6413 57.8913 79.9013C57.9865 80.8757 56.9953 82.3317 57.8913 83.7765C58.6921 85.0925 60.1313 84.8237 60.9713 85.2381C61.8113 85.6525 62.3546 87.6405 63.945 88.1837C65.5354 88.7269 66.9466 87.2877 67.7866 87.2989C68.6266 87.3101 69.6178 89.9029 72.373 89.6901C75.1282 89.4773 75.9346 87.1477 77.0714 86.6941C78.2082 86.2405 81.0585 87.0469 82.3689 85.6301C83.6793 84.2133 83.9089 82.3205 84.497 81.6261C85.0849 80.9317 86.3169 81.0661 87.0505 79.4365C87.7841 77.8069 86.2889 76.7933 86.0873 75.3877C85.9417 74.4133 86.8153 73.5173 86.2105 72.0277C85.3817 69.9725 82.8505 70.3981 81.9209 68.2869C81.1817 66.6069 79.681 59.4501 75.3298 57.6469C72.3282 56.4261 68.9289 57.7421 68.9289 57.7421Z" fill="#263238"/>
<path d="M60.2721 71.9375C60.1062 72.3005 59.852 72.6163 59.5329 72.8559L58.6369 73.6231C58.0197 74.0955 57.481 74.6625 57.0409 75.3031C56.8387 75.6072 56.7088 75.9536 56.6612 76.3156C56.6137 76.6777 56.6497 77.0459 56.7665 77.3919C56.9036 77.7376 57.0924 78.0605 57.3265 78.3495C57.6017 78.664 57.8299 79.0167 58.0041 79.3967C58.1074 79.8292 58.0661 80.2836 57.8865 80.6903C57.7577 81.0767 57.6121 81.4351 57.5057 81.8103C57.3729 82.1559 57.31 82.5244 57.3205 82.8945C57.3311 83.2645 57.415 83.6288 57.5673 83.9663C57.7251 84.2929 57.9899 84.5557 58.3177 84.7111C58.6718 84.8635 59.0522 84.9453 59.4377 84.9519C59.8241 84.9799 60.2161 84.9519 60.6137 84.9799C61.0049 84.9543 61.3948 85.0459 61.7337 85.2431C61.3801 85.0951 60.9933 85.0448 60.6137 85.0975C60.2217 85.0975 59.8297 85.1703 59.4265 85.1759C59.0156 85.184 58.607 85.1137 58.2225 84.9687C57.8249 84.8 57.4942 84.5047 57.2817 84.1287C57.0905 83.7548 56.9785 83.3455 56.9525 82.9264C56.9264 82.5073 56.987 82.0874 57.1305 81.6927C57.2425 81.3063 57.3825 80.9311 57.5001 80.5727C57.6389 80.2517 57.6742 79.8954 57.6009 79.5535C57.3657 78.9263 56.6601 78.3607 56.3913 77.5431C56.255 77.1393 56.218 76.7087 56.2833 76.2877C56.3486 75.8666 56.5143 75.4674 56.7665 75.1239C57.2545 74.4848 57.8426 73.9288 58.5081 73.4775L59.4713 72.7831C59.7976 72.5641 60.0712 72.2753 60.2721 71.9375Z" fill="#263238"/>
<path d="M79.3125 61.7285C79.9888 62.9688 80.5873 64.2499 81.1045 65.5645C81.3957 66.2029 81.6645 66.8525 82.0061 67.4573C82.1592 67.7566 82.3471 68.0367 82.5661 68.2917C82.61 68.3536 82.6651 68.4068 82.7285 68.4485C82.7839 68.4997 82.8461 68.5431 82.9133 68.5773C83.0645 68.6557 83.2213 68.7229 83.3781 68.7957C84.0383 69.0624 84.6833 69.3652 85.3101 69.7029C85.9745 70.0488 86.5147 70.5929 86.8557 71.2597C87.022 71.6084 87.0953 71.9943 87.0685 72.3797C87.0287 72.7465 86.9184 73.102 86.7437 73.4269C86.3727 74.0239 86.1447 74.6985 86.0773 75.3981C86.0573 74.6831 86.2171 73.9745 86.5421 73.3373C86.6823 73.03 86.7658 72.6999 86.7885 72.3629C86.7877 72.0352 86.7029 71.7132 86.5421 71.4277C86.2046 70.8475 85.7068 70.3769 85.1085 70.0725C84.485 69.7546 83.8458 69.4686 83.1933 69.2157C83.0309 69.1429 82.8685 69.0645 82.7061 68.9749C82.5304 68.8781 82.3746 68.7489 82.2469 68.5941C82.0144 68.3055 81.8118 67.994 81.6421 67.6645C81.3164 67.0314 81.0302 66.3787 80.7853 65.7101L80.0797 63.7053C79.8641 63.0315 79.6079 62.3713 79.3125 61.7285Z" fill="#263238"/>
<path d="M85.1636 81.1494C84.9161 81.5857 84.7598 82.0677 84.7043 82.5662C84.5923 83.059 84.486 83.5518 84.3516 84.0502C84.2161 84.5519 84.0284 85.038 83.7916 85.5006C83.5623 85.9944 83.214 86.4235 82.778 86.7494C81.8295 87.2549 80.7237 87.379 79.6868 87.0966C79.1828 87.0014 78.6955 86.8782 78.2027 86.7942C77.7147 86.6795 77.2068 86.6795 76.7188 86.7942C77.1949 86.5902 77.7163 86.5149 78.2307 86.5758C78.7403 86.615 79.2387 86.699 79.7371 86.755C80.7115 86.8614 81.7531 86.8838 82.5371 86.3742C82.9126 86.0913 83.2174 85.7252 83.4275 85.3046C83.6502 84.8667 83.8375 84.4116 83.9875 83.9438C84.1611 83.4734 84.3012 82.9918 84.458 82.5102C84.5364 82.2694 84.6259 82.0286 84.7211 81.7878C84.8083 81.539 84.9612 81.3184 85.1636 81.1494Z" fill="#263238"/>
<path d="M69.1719 83.9996C73.1927 88.0988 84.1967 99.9708 90.8383 98.6492C96.5223 97.5292 107.442 91.638 109.761 90.3948C111.575 89.426 103.998 77.2628 101.439 78.5732C97.3679 80.6564 93.5151 84.7332 89.0855 85.9484C87.2711 86.4412 82.7127 83.0308 71.8711 79.9844C67.6767 78.814 66.3551 81.1324 69.1719 83.9996Z" fill="#AD6359"/>
<path d="M107.699 73.2817C109.877 72.5705 112.319 71.6017 114.716 71.6913C117.112 71.7809 119.022 75.0177 119 75.9249C118.977 76.8321 117.924 82.4601 115.528 82.3985C113.131 82.3369 114.688 78.0305 114.609 77.5321C114.531 77.0337 114.458 76.4121 114.004 76.4121C113.551 76.4121 105.537 79.9961 105.537 79.9961L107.699 73.2817Z" fill="#AD6359"/>
<path d="M107.844 73.6118C107.979 73.6118 114.469 71.2486 116.866 71.3718C119.263 71.495 121.172 74.6982 121.15 75.6054C121.127 76.5126 120.075 82.1406 117.678 82.079C115.281 82.0174 116.838 77.711 116.759 77.2126C116.681 76.7142 116.608 76.0926 116.155 76.0926C115.701 76.0926 107.688 79.6766 107.688 79.6766L107.844 73.6118Z" fill="#AD6359"/>
<path d="M116.872 81.7597C116.63 81.3231 116.504 80.8311 116.508 80.3317C116.47 79.8185 116.513 79.3024 116.637 78.8029C116.781 78.3758 116.89 77.9375 116.962 77.4925C116.969 77.0483 116.865 76.6094 116.659 76.2157C116.486 75.8741 116.127 75.9805 115.825 76.0813C115.374 76.2423 114.933 76.4293 114.503 76.6413C114.039 76.8541 113.579 77.0837 113.12 77.3077C112.634 77.5178 112.162 77.761 111.709 78.0357C111.703 78.0412 111.7 78.0482 111.698 78.0559C111.696 78.0636 111.697 78.0715 111.7 78.0788C111.703 78.086 111.708 78.0922 111.715 78.0965C111.722 78.1008 111.729 78.103 111.737 78.1029C112.157 77.9685 112.56 77.7613 112.963 77.5877C113.367 77.4141 113.887 77.1845 114.352 76.9941C114.817 76.8037 115.215 76.6077 115.651 76.4341C115.847 76.3248 116.066 76.2652 116.29 76.2605C116.469 76.3053 116.547 76.7589 116.587 76.9045C116.674 77.3379 116.634 77.7876 116.469 78.1981C116.331 78.6223 116.238 79.0595 116.189 79.5029C116.132 79.9215 116.155 80.3471 116.256 80.7573C116.399 81.1283 116.587 81.4801 116.816 81.8045C116.827 81.8325 116.906 81.7597 116.872 81.7597Z" fill="#263238"/>
<path d="M100.078 79.7099C100.078 79.7099 106.877 73.8243 108.293 72.6595C111.133 70.3187 122.943 65.8443 124.578 65.7155C126.213 65.5867 126.712 68.9411 118.687 72.2059C114.459 73.9251 113.647 76.2995 113.697 77.6267C113.748 78.9539 114.946 81.4627 117.181 81.4627C119.415 81.4627 120.949 78.2371 123.01 77.9291C125.071 77.6211 123.615 81.3451 122.114 83.4787C120.542 85.5381 118.417 87.1091 115.988 88.0091C114.039 88.6867 107.997 91.1059 107.997 91.1059L100.078 79.7099Z" fill="#AD6359"/>
<path d="M119.991 79.9627C119.134 80.5955 118.16 81.4131 117.051 81.4243C115.942 81.4355 115.186 80.6795 114.677 79.7443C114.116 78.8135 113.935 77.7023 114.173 76.6419C114.455 75.6848 115.007 74.8293 115.763 74.1779C116.69 73.3862 117.728 72.7335 118.843 72.2403C118.888 72.2403 118.843 72.1451 118.798 72.1675C117.757 72.5987 114.531 73.8475 113.82 76.6475C113.596 77.735 113.796 78.8669 114.38 79.8115C114.856 80.7131 115.55 81.5867 116.62 81.7043C117.936 81.8443 119.101 80.8027 120.069 80.0243C120.097 79.9627 120.036 79.9291 119.991 79.9627Z" fill="#263238"/>
<path d="M98.6661 79.7499L106.081 94.3099C106.081 94.3099 94.3541 99.7867 88.7653 99.3891C83.1765 98.9915 73.4045 88.7211 69.1317 84.3083C64.8589 79.8955 68.0117 78.2155 74.6029 80.4499C81.1941 82.6843 88.3285 85.7307 88.8941 85.6579C89.4597 85.5851 98.6661 79.7499 98.6661 79.7499Z" fill="#2A2FB8"/>
<path d="M96.2134 81.7597C96.4241 82.363 96.669 82.9538 96.947 83.5293C97.199 84.1173 97.4398 84.7109 97.6974 85.2933C98.2014 86.4133 98.7278 87.5333 99.271 88.6533C100.338 90.8844 101.517 93.06 102.805 95.1717C102.805 95.2165 102.905 95.1717 102.883 95.1269C101.825 92.8533 100.643 90.6469 99.523 88.4069C98.963 87.2869 98.4366 86.1669 97.8878 85.0917C97.619 84.5317 97.3278 83.9717 97.0646 83.4117C96.8014 82.8517 96.5662 82.2917 96.247 81.7317C96.247 81.6813 96.2078 81.7093 96.2134 81.7597Z" fill="#263238"/>
<path opacity="0.1" d="M95.4125 98.3415H95.3285L94.8469 98.4703L94.6397 98.5599L94.0797 98.6943L93.7493 98.7727L93.1893 98.9015H93.1501L92.6517 99.0023C92.3157 99.0751 91.9797 99.1311 91.6549 99.1871H91.6045C90.8419 99.3137 90.0704 99.3793 89.2973 99.3831C89.1107 99.3831 88.924 99.3831 88.7373 99.3831C83.1373 98.9855 73.3821 88.7095 69.1373 84.2967C68.7317 83.8806 68.3573 83.4351 68.0173 82.9639L67.7933 82.6391C67.6836 82.4584 67.5845 82.2714 67.4965 82.0791C67.4636 82.0265 67.4373 81.9701 67.4181 81.9111L67.3509 81.7487C67.3299 81.6979 67.313 81.6454 67.3005 81.5919C67.3005 81.5359 67.3005 81.4855 67.2557 81.4407C67.2109 81.3959 67.2557 81.3399 67.2557 81.2895C67.2005 81.0615 67.2072 80.823 67.2752 80.5985C67.3431 80.374 67.4698 80.1718 67.6421 80.0127L95.4125 98.3415Z" fill="black"/>
<path d="M81.2786 114.559L48.1602 115.399C48.1602 115.399 56.633 88.3562 63.4538 81.065C66.5618 77.7442 69.6138 78.265 72.1674 80.3874C72.8114 80.9194 80.7634 91.0274 81.441 94.5386C82.0346 97.6466 79.509 101.102 79.509 101.102L81.2786 114.559Z" fill="#EBEBEB"/>
<path d="M78.0856 101.31C76.9785 101.201 75.866 101.156 74.7536 101.175C74.1936 101.175 73.6336 101.231 73.0736 101.293C72.8104 101.321 72.5472 101.349 72.284 101.388C72.0208 101.427 71.724 101.506 71.416 101.539V101.59C71.6904 101.59 71.976 101.59 72.2504 101.59H73.0792C73.6392 101.59 74.1992 101.562 74.7592 101.534C75.8792 101.489 76.9992 101.455 78.0856 101.444C78.1472 101.399 78.1416 101.315 78.0856 101.31Z" fill="#263238"/>
<path d="M66.259 79.0439C66.259 79.0439 69.479 97.2551 69.507 98.1847C69.535 99.1143 66.8526 119.414 66.8526 119.414L46.5078 118.485C46.5078 118.485 55.1486 93.2848 58.5366 87.2312C62.367 80.3768 66.259 79.0439 66.259 79.0439Z" fill="#2A2FB8"/>
<path d="M73.1348 81.4854C73.1348 81.4854 78.0516 95.7654 78.13 97.5798C78.2084 99.3942 80.2692 119.039 80.2692 119.039L82.5876 117.04L79.726 101.169C79.726 101.169 82.2404 97.9718 81.658 94.6902C81.0756 91.4086 73.1348 81.4854 73.1348 81.4854Z" fill="#2A2FB8"/>
<path d="M66.7344 80.4276C66.88 80.9876 69.7304 84.7452 72.396 84.5716C73.264 84.5156 73.1576 79.7668 73.1576 79.7668L73.2304 79.414L74.2384 74.4804L68.4032 70.8852L67.5576 70.4092C67.5576 70.4092 67.3728 71.7756 67.1544 73.4836C67.1544 73.562 67.1544 73.6404 67.1544 73.7244C67.1544 73.8084 67.1264 73.9092 67.1152 73.9988C67.076 74.2564 67.0424 74.514 67.0144 74.7772C66.9864 75.0404 66.964 75.1636 66.9472 75.3708C66.9304 75.578 66.908 75.7852 66.8856 75.9924C66.7333 77.4655 66.6828 78.9475 66.7344 80.4276Z" fill="#AD6359"/>
<path d="M67.1543 73.4836C67.6747 74.8545 68.488 76.0954 69.5374 77.1197C70.5869 78.144 71.8471 78.9269 73.2303 79.414L74.2383 74.4804L68.4031 70.8852L67.5575 70.4092C67.5575 70.4092 67.3727 71.7756 67.1543 73.4836Z" fill="#263238"/>
<path d="M81.4749 66.5222C82.8749 75.2414 77.8069 77.067 75.9253 77.3694C74.2173 77.6382 68.3653 78.3494 66.0749 69.815C63.7845 61.2806 67.3909 57.8758 71.2661 57.047C75.1413 56.2182 80.0805 57.7974 81.4749 66.5222Z" fill="#AD6359"/>
<path d="M80.0013 65.2121C79.7972 65.2083 79.5934 65.1933 79.3909 65.1673C79.1751 65.1824 78.9603 65.1253 78.7805 65.0049C78.7311 64.956 78.6993 64.892 78.6902 64.8231C78.6811 64.7542 78.6951 64.6841 78.7301 64.6241C78.8164 64.516 78.9297 64.4327 79.0585 64.3825C79.1873 64.3324 79.3271 64.3172 79.4637 64.3385C79.7478 64.3423 80.0206 64.4499 80.2309 64.6409C80.2767 64.6875 80.3079 64.7464 80.3206 64.8105C80.3334 64.8745 80.3273 64.9409 80.3029 65.0015C80.2785 65.0621 80.237 65.1143 80.1835 65.1517C80.1299 65.1891 80.0666 65.2101 80.0013 65.2121Z" fill="#263238"/>
<path d="M74.2053 66.8919C74.4125 66.8359 74.5861 66.7575 74.7653 66.6847C74.9835 66.6434 75.1811 66.5288 75.3253 66.3599C75.3603 66.2998 75.3744 66.2298 75.3652 66.1609C75.3561 66.0919 75.3243 66.028 75.2749 65.9791C75.1627 65.8978 75.0308 65.8481 74.8929 65.8353C74.7549 65.8225 74.6161 65.847 74.4909 65.9063C74.2168 65.9854 73.9815 66.1629 73.8301 66.4047C73.7989 66.4619 73.785 66.5269 73.7901 66.5919C73.7952 66.6569 73.8191 66.719 73.8589 66.7706C73.8986 66.8222 73.9525 66.8612 74.0141 66.8827C74.0756 66.9043 74.142 66.9074 74.2053 66.8919Z" fill="#263238"/>
<path d="M75.6772 67.9785C75.6772 67.9785 75.638 68.0121 75.6436 68.0345C75.7556 68.6281 75.7892 69.3225 75.2852 69.6081C75.2852 69.6081 75.2852 69.6473 75.2852 69.6417C75.9348 69.4401 75.8844 68.5161 75.6772 67.9785Z" fill="#263238"/>
<path d="M75.04 67.4412C74.0712 67.5252 74.3064 69.4516 75.2024 69.3788C76.0984 69.306 75.8576 67.374 75.04 67.4412Z" fill="#263238"/>
<path d="M74.6811 67.5923C74.5299 67.7211 74.3843 67.9339 74.1883 67.9787C73.9923 68.0235 73.7515 67.8499 73.5723 67.6763C73.6115 68.0459 73.8019 68.4099 74.2051 68.4155C74.6083 68.4211 74.7651 68.0627 74.8379 67.6819C74.8155 67.6315 74.7483 67.5363 74.6811 67.5923Z" fill="#263238"/>
<path d="M78.959 67.4463C78.959 67.4463 79.0094 67.4463 79.015 67.4911C79.0598 68.0959 79.2222 68.7735 79.7822 68.9079V68.9415C79.1326 68.9247 78.959 68.0231 78.959 67.4463Z" fill="#263238"/>
<path d="M79.4474 66.7625C80.3994 66.5777 80.6962 68.4985 79.8114 68.6665C78.9266 68.8345 78.6466 66.9137 79.4474 66.7625Z" fill="#263238"/>
<path d="M79.8668 66.8245C80.0348 66.9029 80.214 67.0653 80.3932 67.0485C80.5724 67.0317 80.7292 66.8021 80.8356 66.5781C80.8356 66.5781 80.8636 66.5781 80.8692 66.5781C80.9364 66.9421 80.8692 67.3453 80.5276 67.4685C80.186 67.5917 79.934 67.3061 79.7884 66.9533C79.7604 66.9029 79.7996 66.7965 79.8668 66.8245Z" fill="#263238"/>
<path d="M78.3998 71.6072C78.2105 71.9829 77.9293 72.3046 77.5822 72.5424C77.3899 72.6686 77.1621 72.7294 76.9326 72.716C76.4342 72.6824 76.3334 72.2512 76.3446 71.8592C76.354 71.6506 76.3878 71.4439 76.4454 71.2432C77.0411 71.5706 77.7261 71.6982 78.3998 71.6072Z" fill="#263238"/>
<path d="M77.5704 72.5428C77.3782 72.669 77.1504 72.7299 76.9208 72.7164C76.4224 72.6828 76.3216 72.2516 76.3328 71.8596C76.5862 71.8139 76.8476 71.8568 77.073 71.9813C77.2985 72.1057 77.4741 72.304 77.5704 72.5428Z" fill="#FF9BBC"/>
<path d="M78.3999 70.3979C78.3999 70.3979 78.6407 71.2715 78.6967 71.6915C78.6967 71.7307 78.6015 71.7643 78.4615 71.7923C78.1104 71.9078 77.7342 71.9239 77.3745 71.8389C77.0147 71.7539 76.6855 71.5711 76.4231 71.3107C76.4182 71.303 76.4157 71.294 76.416 71.2849C76.4164 71.2757 76.4195 71.2669 76.425 71.2596C76.4305 71.2523 76.4381 71.2468 76.4467 71.244C76.4554 71.2411 76.4648 71.2409 76.4735 71.2435C77.0605 71.5363 77.7261 71.6325 78.3719 71.5179C78.3719 71.4003 77.9071 70.0395 77.9687 70.0227C78.2998 70.0077 78.6314 70.0378 78.9543 70.1123C78.5007 68.2755 77.7615 66.5283 77.3359 64.6915C77.3307 64.6774 77.3314 64.6618 77.3377 64.6482C77.344 64.6345 77.3554 64.6239 77.3695 64.6187C77.3837 64.6135 77.3993 64.6142 77.4129 64.6205C77.4266 64.6268 77.4371 64.6382 77.4423 64.6523C78.2958 66.5019 78.9617 68.4324 79.4303 70.4147C79.5199 70.6443 78.5903 70.4483 78.3999 70.3979Z" fill="#263238"/>
<path d="M66.5668 70.1847C68.0172 70.1511 67.9164 66.8247 67.9164 66.8247C67.9164 66.8247 70.8396 66.5391 71.3772 62.2439C71.4212 63.5102 71.0942 64.7618 70.4364 65.8447C70.4364 65.8447 75.6444 65.0775 77.3804 60.5527C77.3804 60.5527 76.7364 62.8319 76.0028 63.6943C77.2691 63.1627 78.3175 62.2169 78.9764 61.0119C78.9764 61.0119 80.13 63.4087 80.8916 64.0247C80.8916 64.0247 79.7716 55.0647 71.5228 56.8455C71.5228 56.8455 66.3372 57.7191 64.8812 62.0423C63.4252 66.3655 66.5668 70.1847 66.5668 70.1847Z" fill="#263238"/>
<path d="M66.5714 73.0347C66.706 73.0763 66.8452 73.1007 66.9858 73.1075C67.1249 73.1303 67.2668 73.1303 67.4058 73.1075C67.5832 73.0785 67.7517 73.0096 67.8986 72.9059C68.0168 72.8291 68.1226 72.7347 68.2122 72.6259C68.3436 72.472 68.446 72.2955 68.5146 72.1051L67.8538 69.7867C67.8538 69.7867 65.7258 67.1771 64.533 67.9555C63.3402 68.7339 65.065 72.5979 66.5714 73.0347Z" fill="#AD6359"/>
<path d="M65.0547 69.0371C65.0547 69.0371 65.0547 69.0707 65.0547 69.0763C66.1131 69.4179 66.7347 70.3307 67.1771 71.3163C67.1098 71.2178 67.0221 71.1349 66.9199 71.0734C66.8177 71.0118 66.7034 70.9731 66.5848 70.9598C66.4662 70.9465 66.3462 70.959 66.2329 70.9963C66.1196 71.0337 66.0157 71.0951 65.9283 71.1763C65.9283 71.1763 65.9283 71.2379 65.9619 71.2323C66.1378 71.1602 66.3319 71.1453 66.5168 71.1895C66.7017 71.2337 66.868 71.3349 66.9923 71.4787C67.2049 71.7185 67.3925 71.9793 67.5523 72.2571C67.6083 72.3467 67.7707 72.2571 67.7259 72.1843C67.6251 70.8235 66.4715 69.0651 65.0547 69.0371Z" fill="#263238"/>
<path d="M66.6674 72.6543C66.6891 72.7321 66.7333 72.8018 66.7946 72.8545C66.8558 72.9071 66.9313 72.9405 67.0115 72.9503C67.0916 72.9601 67.1729 72.946 67.2451 72.9096C67.3172 72.8733 67.377 72.8164 67.4168 72.7461C67.4566 72.6758 67.4747 72.5953 67.4689 72.5147C67.463 72.4342 67.4333 72.3571 67.3837 72.2934C67.3341 72.2297 67.2667 72.1821 67.19 72.1566C67.1133 72.1311 67.0309 72.1289 66.953 72.1503C66.9011 72.1646 66.8525 72.1889 66.81 72.222C66.7675 72.255 66.732 72.2962 66.7055 72.343C66.6789 72.3898 66.6619 72.4414 66.6554 72.4949C66.6488 72.5483 66.6529 72.6025 66.6674 72.6543Z" fill="white"/>
<path d="M65.7824 72.0996C65.8033 72.1738 65.8527 72.2367 65.9199 72.2745C65.9871 72.3123 66.0665 72.3219 66.1408 72.3012C66.1963 72.2858 66.246 72.2542 66.2835 72.2105C66.3211 72.1668 66.3449 72.1129 66.3518 72.0557C66.3587 71.9985 66.3485 71.9405 66.3224 71.8891C66.2964 71.8377 66.2557 71.7951 66.2055 71.7669C66.1552 71.7386 66.0977 71.7259 66.0403 71.7304C65.9828 71.7348 65.928 71.7562 65.8827 71.7918C65.8374 71.8274 65.8037 71.8757 65.7858 71.9305C65.768 71.9853 65.7668 72.0442 65.7824 72.0996Z" fill="white"/>
<path d="M60.5244 83.5294C51.402 96.807 39.53 123.015 37.9004 127.316C36.7804 130.233 52.074 136.421 52.5332 134.333C53.0932 131.65 63.9516 97.4342 66.3428 84.9742C67.6644 78.103 62.8932 80.0798 60.5244 83.5294Z" fill="#AD6359"/>
<path d="M48.7649 141.462C45.6457 145.27 44.2849 145.768 43.3329 150.377C42.7225 153.401 40.5329 154.297 39.6313 151.234C38.1529 146.194 41.1433 140.437 42.7561 138.74L48.7649 141.462Z" fill="#AD6359"/>
<path d="M53.9443 128.43C53.9443 128.43 53.0539 135.352 50.1307 139.737C48.1091 142.766 42.9795 148.876 32.1155 148.277C29.5395 148.137 25.9555 146.11 30.2619 144.81C33.3083 143.892 35.5203 144.25 37.1947 143.366C37.1947 143.366 32.9611 140.246 33.2019 137.67C33.4194 135.42 33.7937 133.188 34.3219 130.99C34.7471 130.996 35.1716 131.028 35.5931 131.085C35.5931 131.085 36.0467 128.699 38.9531 126.465L53.9443 128.43Z" fill="#AD6359"/>
<path d="M47.7395 142.324C45.9195 142.8 41.9995 143.819 38.4771 143.517C34.5963 143.181 27.2155 141.49 27.4899 138.628C27.6971 136.528 30.5699 136.948 30.5699 136.948C30.5699 136.948 27.6691 135.604 28.2627 133.751C28.8227 132.071 31.0179 132.502 31.0179 132.502C31.0179 132.502 29.3939 131.382 30.2339 129.853C31.2419 128.016 34.4787 130.659 37.1051 129.685C37.6987 129.444 47.7395 142.324 47.7395 142.324Z" fill="#AD6359"/>
<path d="M39.5183 139.473C36.3637 139.577 33.253 138.713 30.6031 136.998C30.5359 136.953 30.5359 136.881 30.6031 136.909C33.4614 138.11 36.455 138.96 39.5183 139.44C39.5183 139.44 39.5351 139.473 39.5183 139.473Z" fill="#263238"/>
<path d="M39.7598 135.548C38.1806 135.548 33.8574 134.702 31.007 132.546C30.9454 132.496 30.951 132.423 31.007 132.457C33.8003 133.803 36.7364 134.831 39.7598 135.52V135.548Z" fill="#263238"/>
<path d="M37.8398 124.191L54.987 131.191C54.987 131.191 64.8654 94.0795 66.2766 86.7995C67.6878 79.5195 65.263 77.5371 59.6742 84.2403C54.0854 90.9435 37.8398 124.191 37.8398 124.191Z" fill="#2A2FB8"/>
<path d="M40.8061 121.576C41.3732 121.89 41.9585 122.171 42.5589 122.416C43.1189 122.69 43.7125 122.976 44.2949 123.239C45.4149 123.743 46.5461 124.226 47.6885 124.689C49.9675 125.651 52.2946 126.494 54.6605 127.215C54.7109 127.215 54.7333 127.148 54.6605 127.131C52.3589 126.134 50.0125 125.249 47.6885 124.331L44.2669 122.937C43.7069 122.701 43.1469 122.483 42.5477 122.248C41.9875 121.976 41.4136 121.733 40.8285 121.52C40.821 121.517 40.8127 121.517 40.8054 121.52C40.798 121.523 40.7922 121.529 40.7893 121.537C40.7863 121.544 40.7864 121.552 40.7895 121.56C40.7927 121.567 40.7986 121.573 40.8061 121.576Z" fill="#263238"/>
<path d="M58.2402 119.039C58.7162 116.687 59.2538 114.352 59.797 112.017C60.3402 109.681 60.917 107.357 61.477 105.033C62.037 102.709 62.6754 100.391 63.3082 98.0781L64.2658 94.6117C64.6074 93.4917 64.9266 92.3045 65.285 91.1621C65.0498 92.3381 64.7866 93.5085 64.5346 94.6789L63.7282 98.1845C63.1682 100.52 62.6082 102.838 62.0482 105.168C61.4882 107.497 60.8554 109.81 60.217 112.123C59.5786 114.436 58.929 116.743 58.2402 119.039Z" fill="#263238"/>
<path d="M64.584 94.1531C64.7184 93.8675 64.8584 93.6211 65.004 93.3691C65.1473 93.1093 65.3121 92.8621 65.4968 92.6299C65.4934 92.9403 65.4064 93.244 65.2448 93.5091C65.1674 93.6436 65.0734 93.7678 64.9648 93.8787C64.8578 93.995 64.7282 94.0884 64.584 94.1531Z" fill="#263238"/>
</svg>
