<svg width="44" height="44" viewBox="0 0 44 44" xmlns="http://www.w3.org/2000/svg">
  <rect x="0.788086" y="0.835144" width="42.6917" height="42.6917" rx="21.3458" fill="#E0E1EE"/>
  <g clip-path="url(#clip0_59_3505)">
    <path d="M19.4659 30.1857H27.4706C28.2088 30.1857 28.8402 29.741 29.1071 29.1006L31.7931 22.8302C31.8731 22.6257 31.9176 22.4122 31.9176 22.181V20.4022C31.9176 19.4238 31.1171 18.6233 30.1388 18.6233H24.5266L25.3715 14.5587L25.3982 14.2741C25.3982 13.9095 25.247 13.5715 25.0069 13.3313L24.0641 12.3975L18.2029 18.2587C17.8827 18.5789 17.687 19.0236 17.687 19.5127V28.4068C17.687 29.3852 18.4875 30.1857 19.4659 30.1857Z" 
      fill="#2A2FB8"/> <!-- Change this to your desired color -->
    <rect x="12.3506" y="19.5127" width="3.5576" height="10.673" fill="#2A2FB8"/> <!-- Fill the left rectangle -->
  </g>
  <defs>
    <clipPath id="clip0_59_3505">
      <rect width="21.3458" height="21.3458" fill="white" transform="translate(11.4609 11.5081)"/>
    </clipPath>
  </defs>
</svg>
