<svg width="297" height="281" viewBox="0 0 297 281" fill="none" xmlns="http://www.w3.org/2000/svg">
<path d="M281.767 116.583C279.62 105.182 276.861 93.905 273.501 82.801C263.421 50.6614 243.393 18.1359 208.975 7.20104C183.578 -0.868758 156.145 4.73823 134.672 21.157C101.017 46.9261 76.4989 82.0868 39.6513 104.416C8.88608 123.052 -7.21886 153.172 3.13197 195.737C13.4828 238.303 48.0157 263.12 85.8073 260.066C117.237 257.529 150.087 260.238 177.257 275.499C201.53 289.127 244.435 277.297 279.92 240.035C300.589 218.329 298.594 190.738 291.855 164.927C287.702 149.034 284.993 132.739 281.767 116.583Z" fill="#EEF2FF"/>
<path opacity="0.7" d="M281.767 116.583C279.62 105.182 276.861 93.905 273.501 82.801C263.421 50.6614 243.393 18.1359 208.975 7.20104C183.578 -0.868758 156.145 4.73823 134.672 21.157C101.017 46.9261 76.4989 82.0868 39.6513 104.416C8.88608 123.052 -7.21886 153.172 3.13197 195.737C13.4828 238.303 48.0157 263.12 85.8073 260.066C117.237 257.529 150.087 260.238 177.257 275.499C201.53 289.127 244.435 277.297 279.92 240.035C300.589 218.329 298.594 190.738 291.855 164.927C287.702 149.034 284.993 132.739 281.767 116.583Z" fill="#EEF2FF"/>
<path d="M60.5103 16.0769C60.5103 16.0769 64.3519 13.0477 65.3287 11.1021C66.1495 9.4602 66.7733 7.10411 65.9115 5.35552C65.7242 4.93154 65.4494 4.55201 65.105 4.24188C64.7606 3.93175 64.3544 3.69804 63.9132 3.55613C63.4721 3.41423 63.0058 3.36733 62.5452 3.41854C62.0846 3.46974 61.6401 3.61788 61.2409 3.85321C58.8768 5.32269 58.6224 10.3386 59.2298 12.7522C59.279 12.941 60.4693 16.1098 60.5103 16.0769Z" fill="#2A2FB8"/>
<path d="M25.0076 41.3428C25.1636 41.4905 27.9052 43.469 27.9216 43.4279C27.938 43.3869 29.4484 38.7814 29.1939 36.6142C28.9805 34.7671 28.1925 32.5095 26.5016 31.4833C26.1113 31.234 25.6727 31.07 25.2146 31.0022C24.7565 30.9344 24.2892 30.9642 23.8435 31.0898C23.3977 31.2154 22.9836 31.4339 22.6283 31.731C22.2729 32.028 21.9844 32.3968 21.7817 32.8132C20.6161 35.3417 23.1772 39.6598 25.0076 41.3428Z" fill="#2A2FB8"/>
<path d="M105.459 20.6738C105.459 20.6738 91.4059 35.188 91.5044 53.0105C91.6029 70.833 105.762 85.224 105.762 85.224C105.762 85.224 119.824 70.7181 119.717 52.8874C119.61 35.0566 105.459 20.6738 105.459 20.6738Z" fill="#2A2FB8"/>
<path d="M85.422 63.6819C85.6068 63.4839 85.7769 63.2726 85.9309 63.0498C86.9488 61.4982 87.827 59.2406 87.1704 57.3853C87.0329 56.943 86.8034 56.5347 86.497 56.1873C86.1906 55.84 85.8141 55.5614 85.3924 55.3699C84.9706 55.1784 84.5132 55.0783 84.05 55.0762C83.5868 55.0741 83.1285 55.17 82.705 55.3576C80.7924 56.2606 79.8567 59.3227 79.6597 61.8266C78.8963 61.6542 78.2068 61.5228 77.6158 61.4161C77.3695 60.8497 77.1151 60.2832 76.8524 59.7086C76.5897 59.1339 76.3845 58.5182 76.1382 57.9107C75.8017 57.0241 75.5062 56.0882 75.2025 55.1524C76.3106 54.6598 79.5448 53.1411 80.7514 51.8111C81.958 50.4812 83.2139 48.3304 82.8363 46.4012C82.7668 45.9438 82.6015 45.5063 82.3511 45.1172C82.1007 44.7282 81.771 44.3965 81.3835 44.1438C80.996 43.8912 80.5595 43.7232 80.1026 43.651C79.6456 43.5788 79.1786 43.604 78.7321 43.7249C76.0562 44.5459 74.4884 49.2909 74.4391 51.7783C74.4391 51.8522 74.4391 52.3776 74.5294 53.0097C74.2667 52.0903 73.9876 51.1708 73.7496 50.2267C73.0601 47.5587 72.4445 44.8168 71.8206 42.0748C71.6893 41.5084 71.5497 40.9337 71.4184 40.3673C72.3542 39.9486 75.8756 38.3396 77.1643 36.944C78.453 35.5484 79.6268 33.4632 79.2492 31.534C79.1797 31.0766 79.0144 30.6391 78.764 30.2501C78.5136 29.8611 78.1839 29.5293 77.7964 29.2767C77.4089 29.024 76.9724 28.8561 76.5155 28.7839C76.0586 28.7117 75.5915 28.7369 75.145 28.8578C72.4773 29.6787 70.9095 34.4237 70.852 36.9112C70.852 36.9933 70.9013 37.6254 70.9669 38.3314C70.6058 36.8455 70.2282 35.3678 69.8013 33.9147C69.0929 31.4144 68.2153 28.9651 67.1746 26.5838C67.5112 26.4442 71.6811 24.6382 73.0847 23.0866C74.3242 21.7074 75.5472 19.6058 75.1614 17.6766C75.0919 17.2192 74.9266 16.7817 74.6762 16.3927C74.4258 16.0037 74.0961 15.672 73.7086 15.4193C73.3211 15.1666 72.8846 14.9987 72.4277 14.9265C71.9708 14.8543 71.5037 14.8795 71.0572 15.0004C68.3895 15.8213 66.8217 20.5663 66.7642 23.0538C66.7642 23.2262 66.9694 25.5166 67.0679 26.3375C67.0647 26.3102 67.0647 26.2827 67.0679 26.2554C65.9907 23.9438 64.7107 21.7323 63.2428 19.6469C61.9373 17.7781 60.5258 15.9855 59.0155 14.278C57.6282 12.6361 56.2656 11.3062 55.0508 10.0994C54.3859 9.45085 53.7621 8.86799 53.1793 8.33438H53.2367C53.286 8.33438 51.9398 5.23124 51.8331 5.05063C50.5854 2.89978 46.908 -0.523522 44.191 0.0675517C43.7389 0.167275 43.313 0.361492 42.9413 0.637451C42.5696 0.913409 42.2604 1.26487 42.034 1.66878C41.8077 2.07268 41.6693 2.51989 41.628 2.98105C41.5866 3.44221 41.6433 3.9069 41.7942 4.34463C42.4016 6.21636 44.4701 7.4724 46.2185 8.07989C47.9669 8.68738 51.9644 8.40005 52.9248 8.30975C53.5158 8.88441 54.1479 9.50011 54.8292 10.1897C56.0194 11.4211 57.3492 12.8249 58.6953 14.4421C59.0565 14.8772 59.4259 15.3534 59.7871 15.8131C59.0155 15.1646 57.932 14.3026 57.817 14.2287C55.7239 12.8988 50.8809 11.5524 48.7467 13.3257C48.3937 13.6297 48.1095 14.0054 47.9128 14.4278C47.7162 14.8502 47.6117 15.3096 47.6063 15.7755C47.6008 16.2414 47.6946 16.7031 47.8813 17.13C48.068 17.5568 48.3434 17.9391 48.6893 18.2513C50.0847 19.6305 52.5062 19.7946 54.3449 19.5237C56.1836 19.2528 59.6803 17.0609 60.4273 16.6258C61.2482 17.6438 62.0115 18.7192 62.7749 19.9096C64.1778 21.9875 65.3947 24.1852 66.4113 26.4771C66.4687 26.6084 66.5098 26.7562 66.5672 26.8875C66.2389 26.5017 64.2853 24.5314 64.1047 24.4247C62.1675 22.8649 57.5379 21.0014 55.1821 22.5284C54.8017 22.7925 54.4815 23.1341 54.2425 23.5308C54.0035 23.9274 53.8511 24.3702 53.7953 24.8299C53.7394 25.2897 53.7815 25.756 53.9187 26.1984C54.0558 26.6407 54.285 27.049 54.5911 27.3965C55.8306 28.9235 58.211 29.3503 60.0661 29.2847C62.2085 29.2108 66.4195 27.0846 66.5754 27.0025C67.522 29.3294 68.3171 31.7151 68.9559 34.1446C69.432 35.9425 69.8506 37.7813 70.2446 39.6285C69.8096 39.1359 67.9873 37.3052 67.8395 37.1656C65.9023 35.6141 61.2728 33.7423 58.917 35.2775C58.5366 35.5416 58.2164 35.8832 57.9774 36.2799C57.7383 36.6766 57.5859 37.1193 57.5301 37.579C57.4743 38.0388 57.5163 38.5052 57.6535 38.9475C57.7907 39.3898 58.0198 39.7982 58.326 40.1456C59.5654 41.6644 61.9459 42.0995 63.801 42.0338C65.8941 41.9517 69.9409 39.9322 70.2774 39.7598L70.8192 42.2883C71.3856 45.0384 71.9437 47.7968 72.5758 50.4977C72.7974 51.4335 73.0437 52.353 73.2899 53.2724C72.6086 52.5582 71.3445 51.2857 71.2214 51.1872C69.2842 49.6357 64.6547 47.7639 62.2988 49.2991C61.9185 49.5632 61.5982 49.9048 61.3592 50.3015C61.1202 50.6982 60.9678 51.1409 60.912 51.6006C60.8562 52.0604 60.8982 52.5267 61.0354 52.9691C61.1725 53.4114 61.4017 53.8197 61.7078 54.1672C62.9473 55.686 65.3277 56.1211 67.1828 56.0472C69.0379 55.9733 72.4855 54.3561 73.4541 53.8881C73.8727 55.4151 74.3242 56.9174 74.8413 58.3786C75.0794 59.0025 75.2764 59.6593 75.539 60.2422L75.933 61.178L75.4487 61.1041C75.4487 61.1041 75.4077 61.9743 75.4898 63.3863C73.4459 61.9333 70.4991 60.6773 68.5783 61.5557C68.1626 61.7591 67.7946 62.0482 67.4985 62.4039C67.2023 62.7596 66.9847 63.174 66.8599 63.6197C66.7351 64.0654 66.706 64.5325 66.7744 64.9903C66.8427 65.4481 67.0071 65.8863 67.2567 66.276C67.3773 66.4879 67.5204 66.6861 67.6836 66.8671C68.0458 69.0257 68.9559 71.0552 70.3267 72.7614C70.4334 72.8764 71.8206 74.1652 72.543 74.8056C71.8452 74.4197 71.1475 74.0503 70.4252 73.6398C69.3827 73.0652 68.2992 72.4166 67.2403 71.7927L65.5986 70.7583C65.0405 70.4218 64.548 70.0277 64.0144 69.6583C63.2428 69.1083 62.4712 68.4926 61.7078 67.8851C62.3563 66.8507 64.2196 63.7804 64.4905 62.0236C64.7614 60.2668 64.6136 57.7711 63.2428 56.3673C62.9347 56.0179 62.5558 55.7381 62.1312 55.5464C61.7066 55.3547 61.2461 55.2556 60.7803 55.2556C60.3144 55.2556 59.854 55.3547 59.4294 55.5464C59.0048 55.7381 58.6259 56.0179 58.3178 56.3673C56.5283 58.5018 57.8499 63.3453 59.1796 65.4469C59.1796 65.5208 59.549 65.9312 59.9348 66.4238C59.2043 65.8081 58.4737 65.1924 57.7514 64.5356C55.7075 62.6885 53.6472 60.7429 51.6443 58.7891L50.3638 57.5823C50.922 56.7203 52.9659 53.4366 53.2532 51.5731C53.5404 49.7096 53.3763 47.3206 52.0055 45.9086C51.6973 45.5592 51.3184 45.2794 50.8938 45.0877C50.4693 44.896 50.0088 44.7969 49.5429 44.7969C49.0771 44.7969 48.6166 44.896 48.192 45.0877C47.7675 45.2794 47.3885 45.5592 47.0804 45.9086C45.291 48.0431 46.6125 52.8866 47.9013 54.9964C47.9505 55.0703 48.3445 55.5628 48.7878 56.1129C47.6632 55.0785 46.5304 54.0523 45.3731 53.0754C43.4035 51.3828 41.322 49.8249 39.1429 48.4125C39.3481 48.1087 41.827 44.3078 42.1389 42.239C42.418 40.4001 42.2621 37.9866 40.8913 36.5746C40.5831 36.2252 40.2042 35.9453 39.7796 35.7536C39.3551 35.562 38.8946 35.4628 38.4287 35.4628C37.9629 35.4628 37.5024 35.562 37.0778 35.7536C36.6532 35.9453 36.2743 36.2252 35.9662 36.5746C34.1768 38.709 35.4983 43.5525 36.787 45.6623C36.8773 45.8101 38.3056 47.5915 38.8309 48.2072L38.7571 48.158C36.5849 46.819 34.2964 45.6788 31.9194 44.7511C29.8005 43.9137 27.6354 43.1983 25.4348 42.6085C23.3991 42.042 21.5029 41.648 19.8202 41.3114C18.9091 41.139 18.0718 40.9912 17.292 40.8681C17.292 40.8681 14.4929 38.9881 14.3041 38.8978C12.0797 37.7896 7.12177 36.9604 5.18458 38.9553C4.8618 39.295 4.61545 39.6998 4.46209 40.1426C4.30873 40.5854 4.25191 41.056 4.29546 41.5225C4.339 41.9891 4.4819 42.441 4.71454 42.8478C4.94718 43.2546 5.26419 43.6068 5.64425 43.8809C7.17923 45.1041 9.60071 45.0138 11.3902 44.5459C13.1796 44.0779 16.3152 41.6562 17.1361 41.0487C17.9569 41.1964 18.7777 41.3606 19.7628 41.5577C21.4044 41.9353 23.317 42.3786 25.3281 42.9779C25.8698 43.1339 26.4362 43.3309 26.9698 43.5115C25.9683 43.4048 24.5893 43.2816 24.458 43.2816C21.9954 43.3227 17.1935 44.8742 16.3891 47.5341C16.2681 47.9794 16.2424 48.4453 16.3136 48.9013C16.3848 49.3573 16.5513 49.7931 16.8022 50.1804C17.0532 50.5677 17.3829 50.8978 17.77 51.1491C18.1571 51.4003 18.5927 51.5672 19.0486 51.6388C20.9776 52.0164 23.079 50.8178 24.4662 49.5864C25.8534 48.355 27.5854 44.6115 27.9384 43.8399C29.1696 44.2585 30.4009 44.71 31.6978 45.2601C34.0255 46.2293 36.2617 47.4052 38.3795 48.7737C38.4944 48.8476 38.6175 48.9461 38.7324 49.0282C38.2481 48.8886 35.5311 48.3222 35.3341 48.3058C32.8716 48.0759 27.9466 49.1267 26.8466 51.647C26.6741 52.0774 26.5947 52.5395 26.6136 53.0028C26.6325 53.4661 26.7494 53.9202 26.9564 54.3351C27.1635 54.75 27.456 55.1164 27.8149 55.4101C28.1737 55.7037 28.5906 55.9181 29.0383 56.039C30.918 56.6218 33.1425 55.6695 34.6528 54.5859C36.393 53.3381 38.7571 49.2416 38.8145 49.0856C40.8861 50.5078 42.8655 52.0598 44.741 53.7321C46.1282 54.9635 47.4908 56.277 48.8452 57.5987C48.205 57.4346 45.6768 56.9009 45.488 56.8845C43.0254 56.6547 38.1004 57.7055 37.0005 60.234C36.8293 60.6639 36.751 61.1252 36.7706 61.5876C36.7902 62.05 36.9074 62.503 37.1143 62.9169C37.3212 63.3308 37.6133 63.6963 37.9714 63.9894C38.3295 64.2826 38.7455 64.4967 39.1921 64.6177C41.0718 65.2006 43.2963 64.2483 44.8067 63.1647C46.5058 61.9497 48.7631 58.0338 48.9519 57.7055C49.5676 58.3047 50.1832 58.904 50.7906 59.5115C52.7853 61.4982 54.7717 63.4931 56.7992 65.3976C57.4969 66.0626 58.211 66.6865 58.9252 67.3186C57.9648 67.097 56.2082 66.7358 56.0522 66.7193C53.5897 66.4895 48.6646 67.5403 47.5647 70.0688C47.3936 70.4987 47.3153 70.96 47.3349 71.4224C47.3545 71.8848 47.4716 72.3378 47.6786 72.7517C47.8855 73.1656 48.1776 73.5311 48.5357 73.8243C48.8937 74.1174 49.3097 74.3315 49.7564 74.4526C51.6279 75.0436 53.8606 74.0831 55.3627 73.0077C56.8649 71.9323 58.8513 68.665 59.3931 67.7455C60.5915 68.7799 61.7981 69.7896 63.0376 70.7255C63.5794 71.1114 64.1047 71.5464 64.6793 71.8912L66.2799 72.9585C67.3963 73.6563 68.4305 74.2966 69.4894 74.9123C70.0148 75.2325 70.5237 75.5198 71.049 75.8153C70.105 75.4459 68.5865 74.8959 68.4634 74.8548C66.0501 74.2555 61.0347 74.51 59.5654 76.8743C59.3301 77.2736 59.182 77.7182 59.1308 78.1789C59.0796 78.6395 59.1265 79.1058 59.2684 79.547C59.4103 79.9882 59.644 80.3944 59.9541 80.7389C60.2641 81.0833 60.6436 81.3582 61.0676 81.5454C62.8324 82.4074 65.1718 81.7999 66.8135 80.9626C68.644 80.0349 71.3938 76.6363 71.7385 76.2176C73.019 76.9482 74.2667 77.6378 75.4487 78.2699C78.6008 79.961 81.3588 81.3074 83.493 82.3089C90.4373 88.3182 100.205 88.9749 100.205 88.9749C100.205 88.9749 100.722 77.2684 93.8356 69.568C91.4822 67.0291 88.6136 65.0223 85.422 63.6819ZM73.0273 75.1011C73.2407 74.6168 74.907 70.8979 75.0219 68.8045L76.1711 68.5664C76.8765 72.2628 78.3442 75.7716 80.4805 78.8692C79.2164 78.2727 77.8483 77.6049 76.3763 76.8661C75.3174 76.3161 74.1846 75.725 73.0273 75.1011Z" fill="#2A2FB8"/>
<path d="M136.627 61.4492C136.627 61.4492 124.914 61.8022 117.748 69.2563C110.582 76.7104 110.672 88.417 110.672 88.417C110.672 88.417 122.377 88.0557 129.551 80.6099C136.725 73.164 136.627 61.4492 136.627 61.4492Z" fill="#2A2FB8"/>
<g opacity="0.5">
<path d="M60.5103 16.0772C60.5103 16.0772 64.3519 13.0479 65.3287 11.1023C66.1495 9.46044 66.7733 7.10436 65.9115 5.35576C65.7242 4.93179 65.4494 4.55225 65.105 4.24212C64.7606 3.93199 64.3544 3.69829 63.9132 3.55638C63.4721 3.41447 63.0058 3.36758 62.5452 3.41878C62.0846 3.46998 61.6401 3.61812 61.2409 3.85346C58.8768 5.32293 58.6224 10.3388 59.2298 12.7524C59.279 12.9412 60.4693 16.11 60.5103 16.0772Z" fill="white"/>
<path d="M25.0076 41.345C25.1636 41.4927 27.9052 43.4712 27.9216 43.4301C27.938 43.3891 29.4484 38.7836 29.1939 36.6164C28.9805 34.7693 28.1925 32.5117 26.5016 31.4855C26.1113 31.2362 25.6727 31.0722 25.2146 31.0044C24.7565 30.9366 24.2892 30.9664 23.8435 31.092C23.3977 31.2176 22.9836 31.4361 22.6283 31.7331C22.2729 32.0302 21.9844 32.399 21.7817 32.8154C20.6161 35.3439 23.1772 39.662 25.0076 41.345Z" fill="white"/>
<path d="M105.459 20.6741C105.459 20.6741 91.4059 35.1882 91.5044 53.0107C91.6029 70.8333 105.762 85.2243 105.762 85.2243C105.762 85.2243 119.824 70.7183 119.717 52.8876C119.61 35.0569 105.459 20.6741 105.459 20.6741Z" fill="white"/>
<path d="M85.422 63.6821C85.6068 63.4841 85.7769 63.2729 85.9309 63.05C86.9488 61.4984 87.827 59.2409 87.1704 57.3855C87.0329 56.9432 86.8034 56.5349 86.497 56.1876C86.1906 55.8402 85.8141 55.5617 85.3924 55.3702C84.9706 55.1787 84.5132 55.0785 84.05 55.0764C83.5868 55.0743 83.1285 55.1702 82.705 55.3578C80.7924 56.2609 79.8567 59.323 79.6597 61.8268C78.8963 61.6544 78.2068 61.5231 77.6158 61.4163C77.3695 60.8499 77.1151 60.2835 76.8524 59.7088C76.5897 59.1341 76.3845 58.5184 76.1382 57.9109C75.8017 57.0243 75.5062 56.0885 75.2025 55.1526C76.3106 54.66 79.5448 53.1413 80.7514 51.8114C81.958 50.4815 83.2139 48.3306 82.8363 46.4014C82.7668 45.944 82.6015 45.5065 82.3511 45.1175C82.1007 44.7285 81.771 44.3968 81.3835 44.1441C80.996 43.8914 80.5595 43.7235 80.1026 43.6513C79.6456 43.5791 79.1786 43.6043 78.7321 43.7252C76.0562 44.5461 74.4884 49.2911 74.4391 51.7786C74.4391 51.8524 74.4391 52.3778 74.5294 53.01C74.2667 52.0905 73.9876 51.1711 73.7496 50.227C73.0601 47.5589 72.4445 44.817 71.8206 42.0751C71.6893 41.5086 71.5497 40.934 71.4184 40.3675C72.3542 39.9489 75.8756 38.3398 77.1643 36.9442C78.453 35.5486 79.6268 33.4635 79.2492 31.5343C79.1797 31.0769 79.0144 30.6393 78.764 30.2503C78.5136 29.8613 78.1839 29.5296 77.7964 29.2769C77.4089 29.0242 76.9724 28.8563 76.5155 28.7841C76.0586 28.7119 75.5915 28.7371 75.145 28.858C72.4773 29.679 70.9095 34.424 70.852 36.9114C70.852 36.9935 70.9013 37.6256 70.9669 38.3316C70.6058 36.8457 70.2282 35.368 69.8013 33.915C69.0929 31.4146 68.2153 28.9653 67.1746 26.584C67.5112 26.4445 71.6811 24.6384 73.0847 23.0868C74.3242 21.7077 75.5472 19.6061 75.1614 17.6769C75.0919 17.2195 74.9266 16.7819 74.6762 16.3929C74.4258 16.0039 74.0961 15.6722 73.7086 15.4195C73.3211 15.1668 72.8846 14.9989 72.4277 14.9267C71.9708 14.8545 71.5037 14.8797 71.0572 15.0006C68.3895 15.8216 66.8217 20.5666 66.7642 23.054C66.7642 23.2264 66.9694 25.5168 67.0679 26.3377C67.0647 26.3105 67.0647 26.2829 67.0679 26.2557C65.9907 23.944 64.7107 21.7325 63.2428 19.6471C61.9373 17.7783 60.5258 15.9857 59.0155 14.2782C57.6282 12.6363 56.2656 11.3064 55.0508 10.0996C54.3859 9.4511 53.7621 8.86823 53.1793 8.33462H53.2367C53.286 8.33462 51.9398 5.23148 51.8331 5.05088C50.5854 2.90003 46.908 -0.523278 44.191 0.0677958C43.7389 0.16752 43.313 0.361736 42.9413 0.637695C42.5696 0.913654 42.2604 1.26512 42.034 1.66902C41.8077 2.07292 41.6693 2.52013 41.628 2.98129C41.5866 3.44246 41.6433 3.90715 41.7942 4.34487C42.4016 6.21661 44.4701 7.47264 46.2185 8.08013C47.9669 8.68763 51.9644 8.4003 52.9248 8.30999C53.5158 8.88465 54.1479 9.50035 54.8292 10.1899C56.0194 11.4213 57.3492 12.8251 58.6953 14.4424C59.0565 14.8775 59.4259 15.3536 59.7871 15.8133C59.0155 15.1648 57.932 14.3028 57.817 14.2289C55.7239 12.899 50.8809 11.5527 48.7467 13.3259C48.3937 13.63 48.1095 14.0057 47.9128 14.4281C47.7162 14.8505 47.6117 15.3099 47.6063 15.7758C47.6008 16.2416 47.6946 16.7034 47.8813 17.1302C48.068 17.5571 48.3434 17.9393 48.6893 18.2515C50.0847 19.6307 52.5062 19.7949 54.3449 19.524C56.1836 19.2531 59.6803 17.0612 60.4273 16.6261C61.2482 17.644 62.0115 18.7195 62.7749 19.9098C64.1778 21.9878 65.3947 24.1854 66.4113 26.4773C66.4687 26.6087 66.5098 26.7564 66.5672 26.8878C66.2389 26.5019 64.2853 24.5317 64.1047 24.425C62.1675 22.8652 57.5379 21.0017 55.1821 22.5286C54.8017 22.7927 54.4815 23.1343 54.2425 23.531C54.0035 23.9277 53.8511 24.3704 53.7953 24.8302C53.7394 25.2899 53.7815 25.7563 53.9187 26.1986C54.0558 26.6409 54.285 27.0493 54.5911 27.3968C55.8306 28.9237 58.211 29.3506 60.0661 29.2849C62.2085 29.211 66.4195 27.0848 66.5754 27.0027C67.522 29.3296 68.3171 31.7153 68.9559 34.1449C69.432 35.9427 69.8506 37.7816 70.2446 39.6287C69.8096 39.1361 67.9873 37.3055 67.8395 37.1659C65.9023 35.6143 61.2728 33.7426 58.917 35.2777C58.5366 35.5419 58.2164 35.8835 57.9774 36.2801C57.7383 36.6768 57.5859 37.1195 57.5301 37.5793C57.4743 38.039 57.5163 38.5054 57.6535 38.9477C57.7907 39.3901 58.0198 39.7984 58.326 40.1459C59.5654 41.6646 61.9459 42.0997 63.801 42.034C65.8941 41.952 69.9409 39.9324 70.2774 39.7601L70.8192 42.2885C71.3856 45.0387 71.9437 47.797 72.5758 50.4979C72.7974 51.4338 73.0437 52.3532 73.2899 53.2727C72.6086 52.5584 71.3445 51.286 71.2214 51.1875C69.2842 49.6359 64.6547 47.7642 62.2988 49.2993C61.9185 49.5635 61.5982 49.9051 61.3592 50.3017C61.1202 50.6984 60.9678 51.1411 60.912 51.6009C60.8562 52.0606 60.8982 52.527 61.0354 52.9693C61.1725 53.4117 61.4017 53.82 61.7078 54.1675C62.9473 55.6862 65.3277 56.1213 67.1828 56.0474C69.0379 55.9735 72.4855 54.3563 73.4541 53.8884C73.8727 55.4153 74.3242 56.9176 74.8413 58.3789C75.0794 59.0028 75.2764 59.6595 75.539 60.2424L75.933 61.1783L75.4487 61.1044C75.4487 61.1044 75.4077 61.9746 75.4898 63.3866C73.4459 61.9335 70.4991 60.6775 68.5783 61.5559C68.1626 61.7594 67.7946 62.0485 67.4985 62.4042C67.2023 62.7599 66.9847 63.1742 66.8599 63.6199C66.7351 64.0657 66.706 64.5327 66.7744 64.9905C66.8427 65.4483 67.0071 65.8865 67.2567 66.2763C67.3773 66.4881 67.5204 66.6863 67.6836 66.8674C68.0458 69.0259 68.9559 71.0555 70.3267 72.7617C70.4334 72.8766 71.8206 74.1655 72.543 74.8058C71.8452 74.42 71.1475 74.0506 70.4252 73.6401C69.3827 73.0654 68.2992 72.4169 67.2403 71.793L65.5986 70.7586C65.0405 70.422 64.548 70.028 64.0144 69.6585C63.2428 69.1085 62.4712 68.4928 61.7078 67.8853C62.3563 66.8509 64.2196 63.7806 64.4905 62.0238C64.7614 60.267 64.6136 57.7714 63.2428 56.3676C62.9347 56.0182 62.5558 55.7383 62.1312 55.5466C61.7066 55.355 61.2461 55.2558 60.7803 55.2558C60.3144 55.2558 59.854 55.355 59.4294 55.5466C59.0048 55.7383 58.6259 56.0182 58.3178 56.3676C56.5283 58.502 57.8499 63.3455 59.1796 65.4471C59.1796 65.521 59.549 65.9315 59.9348 66.424C59.2043 65.8083 58.4737 65.1926 57.7514 64.5359C55.7075 62.6888 53.6472 60.7432 51.6443 58.7893L50.3638 57.5826C50.922 56.7206 52.9659 53.4368 53.2532 51.5733C53.5404 49.7098 53.3763 47.3209 52.0055 45.9089C51.6973 45.5595 51.3184 45.2796 50.8938 45.0879C50.4693 44.8962 50.0088 44.7971 49.5429 44.7971C49.0771 44.7971 48.6166 44.8962 48.192 45.0879C47.7675 45.2796 47.3885 45.5595 47.0804 45.9089C45.291 48.0433 46.6125 52.8868 47.9013 54.9966C47.9505 55.0705 48.3445 55.5631 48.7878 56.1131C47.6632 55.0787 46.5304 54.0525 45.3731 53.0756C43.4035 51.383 41.322 49.8252 39.1429 48.4127C39.3481 48.109 41.827 44.308 42.1389 42.2393C42.418 40.4004 42.2621 37.9868 40.8913 36.5748C40.5831 36.2254 40.2042 35.9456 39.7796 35.7539C39.3551 35.5622 38.8946 35.4631 38.4287 35.4631C37.9629 35.4631 37.5024 35.5622 37.0778 35.7539C36.6532 35.9456 36.2743 36.2254 35.9662 36.5748C34.1768 38.7093 35.4983 43.5528 36.787 45.6626C36.8773 45.8104 38.3056 47.5918 38.8309 48.2075L38.7571 48.1582C36.5849 46.8193 34.2964 45.679 31.9194 44.7513C29.8005 43.9139 27.6354 43.1985 25.4348 42.6087C23.3991 42.0423 21.5029 41.6482 19.8202 41.3116C18.9091 41.1392 18.0718 40.9915 17.292 40.8683C17.292 40.8683 14.4929 38.9884 14.3041 38.8981C12.0797 37.7898 7.12177 36.9607 5.18458 38.9555C4.8618 39.2952 4.61545 39.7001 4.46209 40.1429C4.30873 40.5857 4.25191 41.0562 4.29546 41.5228C4.339 41.9894 4.4819 42.4412 4.71454 42.848C4.94718 43.2548 5.26419 43.6071 5.64425 43.8812C7.17923 45.1043 9.60071 45.014 11.3902 44.5461C13.1796 44.0782 16.3152 41.6564 17.1361 41.0489C17.9569 41.1967 18.7777 41.3609 19.7628 41.5579C21.4044 41.9355 23.317 42.3788 25.3281 42.9781C25.8698 43.1341 26.4362 43.3311 26.9698 43.5117C25.9683 43.405 24.5893 43.2819 24.458 43.2819C21.9954 43.3229 17.1935 44.8745 16.3891 47.5343C16.2681 47.9797 16.2424 48.4456 16.3136 48.9015C16.3848 49.3575 16.5513 49.7934 16.8022 50.1807C17.0532 50.568 17.3829 50.898 17.77 51.1493C18.1571 51.4006 18.5927 51.5674 19.0486 51.639C20.9776 52.0166 23.079 50.8181 24.4662 49.5867C25.8534 48.3553 27.5854 44.6118 27.9384 43.8401C29.1696 44.2588 30.4009 44.7103 31.6978 45.2603C34.0255 46.2295 36.2617 47.4054 38.3795 48.7739C38.4944 48.8478 38.6175 48.9463 38.7324 49.0284C38.2481 48.8889 35.5311 48.3224 35.3341 48.306C32.8716 48.0761 27.9466 49.1269 26.8466 51.6472C26.6741 52.0776 26.5947 52.5397 26.6136 53.003C26.6325 53.4664 26.7494 53.9204 26.9564 54.3354C27.1635 54.7503 27.456 55.1166 27.8149 55.4103C28.1737 55.704 28.5906 55.9183 29.0383 56.0392C30.918 56.6221 33.1425 55.6698 34.6528 54.5862C36.393 53.3383 38.7571 49.2419 38.8145 49.0859C40.8861 50.5081 42.8655 52.06 44.741 53.7324C46.1282 54.9638 47.4908 56.2773 48.8452 57.599C48.205 57.4348 45.6768 56.9012 45.488 56.8848C43.0254 56.6549 38.1004 57.7057 37.0005 60.2342C36.8293 60.6642 36.751 61.1255 36.7706 61.5878C36.7902 62.0502 36.9074 62.5032 37.1143 62.9171C37.3212 63.3311 37.6133 63.6966 37.9714 63.9897C38.3295 64.2828 38.7455 64.4969 39.1921 64.618C41.0718 65.2009 43.2963 64.2486 44.8067 63.1649C46.5058 61.9499 48.7631 58.0341 48.9519 57.7057C49.5676 58.305 50.1832 58.9043 50.7906 59.5118C52.7853 61.4984 54.7717 63.4933 56.7992 65.3979C57.4969 66.0628 58.211 66.6868 58.9252 67.3189C57.9648 67.0972 56.2082 66.736 56.0522 66.7196C53.5897 66.4897 48.6646 67.5405 47.5647 70.069C47.3936 70.499 47.3153 70.9603 47.3349 71.4227C47.3545 71.885 47.4716 72.338 47.6786 72.752C47.8855 73.1659 48.1776 73.5314 48.5357 73.8245C48.8937 74.1176 49.3097 74.3317 49.7564 74.4528C51.6279 75.0439 53.8606 74.0834 55.3627 73.008C56.8649 71.9325 58.8513 68.6652 59.3931 67.7458C60.5915 68.7801 61.7981 69.7899 63.0376 70.7258C63.5794 71.1116 64.1047 71.5467 64.6793 71.8915L66.2799 72.9587C67.3963 73.6565 68.4305 74.2968 69.4894 74.9125C70.0148 75.2327 70.5237 75.52 71.049 75.8156C70.105 75.4461 68.5865 74.8961 68.4634 74.8551C66.0501 74.2558 61.0347 74.5103 59.5654 76.8746C59.3301 77.2739 59.182 77.7185 59.1308 78.1791C59.0796 78.6398 59.1265 79.106 59.2684 79.5473C59.4103 79.9885 59.644 80.3947 59.9541 80.7391C60.2641 81.0836 60.6436 81.3584 61.0676 81.5457C62.8324 82.4077 65.1718 81.8002 66.8135 80.9628C68.644 80.0352 71.3938 76.6365 71.7385 76.2178C73.019 76.9485 74.2667 77.638 75.4487 78.2702C78.6008 79.9613 81.3588 81.3076 83.493 82.3092C90.4373 88.3184 100.205 88.9752 100.205 88.9752C100.205 88.9752 100.722 77.2686 93.8356 69.5682C91.4822 67.0294 88.6136 65.0226 85.422 63.6821ZM73.0273 75.1013C73.2407 74.617 74.907 70.8982 75.0219 68.8048L76.1711 68.5667C76.8765 72.263 78.3442 75.7718 80.4805 78.8694C79.2164 78.2729 77.8483 77.6052 76.3763 76.8664C75.3174 76.3163 74.1846 75.7253 73.0273 75.1013Z" fill="white"/>
<path d="M136.627 61.4495C136.627 61.4495 124.914 61.8025 117.748 69.2566C110.582 76.7107 110.672 88.4172 110.672 88.4172C110.672 88.4172 122.377 88.056 129.551 80.6101C136.725 73.1642 136.627 61.4495 136.627 61.4495Z" fill="white"/>
</g>
<path d="M106.042 68.9941L117.542 58.6503L117.049 58.1003L106.034 68.0008L105.976 54.4553L106.034 54.4964L115.769 40.2696L115.153 39.8509L105.976 53.2814L105.829 20.6738H105.098L105.188 42.8063L97.8664 36.4686L97.3821 37.0269L105.197 43.7914L105.262 59.6108L94.1644 49.7924L93.6719 50.3425L105.262 60.6041L105.328 75.0116L96.9881 68.4687L96.5366 69.0434L105.336 75.9557L105.369 85.224H106.108L106.042 68.9859V68.9941Z" fill="white"/>
<path d="M95.4447 72.983L94.7142 72.9009L93.7866 81.0856L88.8452 75.569H88.8616L87.6057 65.652L86.8751 65.7506L87.9915 74.6167L75.7199 60.8906L75.1699 61.3832L83.5015 70.6926L78.2235 70.7583L78.2399 71.4971L84.1499 71.4232L89.9943 77.9497L81.7449 77.9579V78.6967L90.651 78.6885L95.9619 84.6239L90.1421 84.9769L90.1913 85.7075L96.5857 85.3217L100.124 89.2786L100.674 88.786L94.4433 81.8245L95.4447 72.983Z" fill="white"/>
<path d="M123.236 75.9065L133.021 73.9116L132.873 73.1892L124.123 74.9706L136.887 61.7043L136.353 61.1953L127.694 70.1928L127.234 64.9388L126.503 65.0045L127.012 70.8988L120.938 77.2118L120.314 68.986L119.575 69.0435L120.257 77.926L114.732 83.6561L113.953 77.8849L113.214 77.9834L114.076 84.3375L110.398 88.1631L110.932 88.672L117.408 81.9404L126.306 82.2769L126.331 81.5463L118.098 81.2261L123.228 75.8901L123.236 75.9065Z" fill="white"/>
<path d="M128.236 47.3493C132.076 47.3493 135.188 44.2032 135.188 40.3221C135.188 36.4411 132.076 33.2949 128.236 33.2949C124.396 33.2949 121.283 36.4411 121.283 40.3221C121.283 44.2032 124.396 47.3493 128.236 47.3493Z" fill="#263238" stroke="#263238" stroke-width="0.611408" stroke-linecap="round" stroke-linejoin="round"/>
<path d="M147.533 59.5491C147.533 59.5491 150.817 59.4096 151.637 65.23C152.458 71.0504 155.889 86.2295 156.177 88.3558C156.464 90.482 155.183 93.0433 152.072 94.0366C148.961 95.03 147.246 92.05 146.959 90.6298C146.671 89.2095 143.93 71.9206 143.93 71.9206L147.533 59.5491Z" fill="#263238" stroke="#263238" stroke-width="0.611408" stroke-linecap="round" stroke-linejoin="round"/>
<path d="M115.58 73.7033C115.58 73.7033 101.199 79.7864 101.199 81.9948C101.199 84.2031 110.056 105.802 110.056 105.802L148.217 95.844L143.941 71.9383C143.941 71.9383 138.26 64.8536 115.58 73.7033Z" fill="#2A2FB8" stroke="#263238" stroke-width="0.611408" stroke-linecap="round" stroke-linejoin="round"/>
<path d="M128.696 60.6504C128.696 60.6504 124.591 63.2036 121.308 65.0425C118.025 66.8814 113.1 69.4427 113.1 74.5571C113.1 79.6715 116.793 99.9569 116.793 102.083C116.726 103.032 116.773 103.986 116.933 104.924C116.933 104.497 141.903 96.2626 141.903 96.2626C142.671 92.9974 143.619 89.7772 144.743 86.6167C146.024 83.4971 144.743 80.7962 146.163 75.69C147.583 70.5838 150.267 67.1769 149.143 63.376C148.018 59.575 147.723 59.69 143.61 59.5422C139.498 59.3944 132.669 59.3698 128.696 60.6504Z" fill="#263238" stroke="#263238" stroke-width="0.611408" stroke-linecap="round" stroke-linejoin="round"/>
<path d="M126.824 58.4158C126.824 58.4158 124.977 59.4091 124.263 63.9489C123.8 67.5728 123.564 71.2222 123.557 74.8756C123.557 74.8756 131.215 70.6231 132.356 70.4753C133.497 70.3276 141.722 73.7591 141.722 73.7591C141.054 70.0016 140.105 66.2997 138.882 62.6847C137.183 58.1285 128.523 56.4291 126.824 58.4158Z" fill="white" stroke="#263238" stroke-width="0.611408" stroke-linecap="round" stroke-linejoin="round"/>
<path d="M125.404 57.2834L125.544 57.7678C126.094 59.6888 128.154 66.7981 129.377 70.3363C130.797 74.441 132.923 76.1568 132.923 76.1568L135.049 67.6683C135.049 67.6683 126.677 59.5492 125.404 57.2834Z" fill="white" stroke="#263238" stroke-width="0.611408" stroke-linecap="round" stroke-linejoin="round"/>
<path d="M132.906 39.1155C132.906 39.1155 125.953 37.9826 123.54 47.0622C121.126 56.1417 128.933 63.9488 131.198 66.9288C133.464 69.9088 136.747 70.8611 138.586 67.9221C141.426 63.3824 142.28 61.1084 142.69 55.1484C143.1 49.1884 142.403 45.215 139.71 42.0955C138.84 41.1601 137.787 40.4131 136.617 39.9006C135.446 39.388 134.183 39.1208 132.906 39.1155Z" fill="white" stroke="#263238" stroke-width="0.611408" stroke-linecap="round" stroke-linejoin="round"/>
<path d="M139.736 42.0955C138.865 41.1591 137.81 40.4115 136.639 39.8989C135.467 39.3864 134.202 39.1197 132.923 39.1155C132.923 39.1155 125.97 37.9826 123.557 47.0622C122.896 49.6374 122.962 52.3453 123.746 54.8857C124 54.2371 124.386 53.7282 124.977 53.7282C126.676 53.7282 126.824 56.1417 127.391 56.0021C127.957 55.8626 130.222 53.8759 129.804 52.0288C129.385 50.1817 129.943 49.3361 132.923 49.3361C135.903 49.3361 136.609 50.6086 137.602 50.3295C138.595 50.0504 139.309 48.0555 140.302 48.0555C140.746 48.0711 141.182 48.1749 141.585 48.361C141.988 48.547 142.35 48.8116 142.65 49.1391C142.431 46.5462 141.413 44.0851 139.736 42.0955Z" fill="#263238" stroke="#263238" stroke-width="0.611408" stroke-linecap="round" stroke-linejoin="round"/>
<path d="M127.39 56.8567C127.39 56.8567 126.249 54.0162 124.977 53.7289C123.704 53.4416 122.99 54.3036 123.696 56.7089C124.402 59.1142 125.404 60.1158 125.97 60.1158C126.536 60.1158 126.791 59.2949 126.791 59.2949" fill="white"/>
<path d="M127.39 56.8567C127.39 56.8567 126.249 54.0162 124.977 53.7289C123.704 53.4416 122.99 54.3036 123.696 56.7089C124.402 59.1142 125.404 60.1158 125.97 60.1158C126.536 60.1158 126.791 59.2949 126.791 59.2949" stroke="#263238" stroke-width="0.611408" stroke-linecap="round" stroke-linejoin="round"/>
<path d="M117.031 85.9431C117.031 85.9431 117.737 90.4911 120.865 92.5106C123.992 94.5301 128.252 93.5039 128.252 93.5039" stroke="#263238" stroke-width="0.611408" stroke-linecap="round" stroke-linejoin="round"/>
<path d="M132.906 76.1562C132.906 76.1562 134.893 83.676 134.466 86.9351" stroke="#263238" stroke-width="0.611408" stroke-linecap="round" stroke-linejoin="round"/>
<path d="M90.5186 74.2332C90.5186 74.2332 92.2424 74.9474 93.5393 79.4051C94.8362 83.8628 98.2756 92.0475 99.1374 95.2081C99.9993 98.3687 99.712 102.391 95.9772 103.418C92.2424 104.444 88.2202 94.223 87.6456 93.361C87.0711 92.4991 85.6346 84.4539 86.3569 80.144C87.0793 75.8341 88.9426 73.6668 90.5186 74.2332Z" fill="white" stroke="#263238" stroke-width="0.611408" stroke-linecap="round" stroke-linejoin="round"/>
<path d="M70.0629 89.1599C70.0629 89.1599 47.6211 111.054 47.6211 114.338C47.6211 117.622 60.8285 144.778 64.5223 144.163C68.216 143.547 84.8381 125.831 84.8381 125.831L70.0629 89.1599Z" fill="#2A2FB8" stroke="#263238" stroke-width="0.611408" stroke-linecap="round" stroke-linejoin="round"/>
<path d="M70.695 77.6923C66.4309 81.4653 62.4012 85.4954 58.6286 89.7601C53.5969 95.6462 54.0319 105.563 55.6079 112.311C57.184 119.059 60.0651 138.171 63.6522 138.893C67.2393 139.615 70.1204 131.997 76.4409 126.579C82.7614 121.161 87.7932 116.523 88.22 112.927C88.6469 109.331 88.0805 97.8463 88.3678 96.9843C89.0511 92.7532 89.4351 88.4792 89.517 84.1941C89.517 80.032 86.3567 75.4347 83.1965 74.425C80.0362 73.4152 71.9838 76.699 70.695 77.6923Z" fill="white" stroke="#263238" stroke-width="0.611408" stroke-linecap="round" stroke-linejoin="round"/>
<path d="M99.7939 212.835C99.7939 212.835 95.1479 222.391 88.4991 228.474C81.8503 234.557 71.4174 242.085 71.4174 242.085C71.4174 242.085 82.4167 245.566 84.7396 245.853C87.0626 246.14 86.4716 247.298 83.8695 248.464C81.2675 249.629 78.0744 250.491 70.8346 250.491C63.5947 250.491 58.9652 250.491 58.6697 248.751C58.3742 247.011 63.0201 242.668 66.4923 239.195C69.9645 235.723 83.2868 213.993 84.4441 212.835C85.6015 211.678 93.7115 207.909 99.7939 212.835Z" fill="white" stroke="#263238" stroke-width="0.611408" stroke-linecap="round" stroke-linejoin="round"/>
<path d="M84.7385 245.851C82.8259 245.613 75.0361 243.216 72.3438 242.379L70.2588 247.009C68.685 247.263 67.0737 247.148 65.5522 246.672C64.0307 246.196 62.6407 245.373 61.4922 244.267C59.7602 246.147 58.5126 247.822 58.6603 248.749C58.9558 250.49 63.5854 250.49 70.8252 250.49C78.065 250.49 81.2499 249.62 83.8602 248.462C86.4705 247.305 87.0533 246.139 84.7385 245.851Z" fill="#263238" stroke="#263238" stroke-width="0.611408" stroke-linecap="round" stroke-linejoin="round"/>
<path d="M182.879 212.835C182.879 212.835 187.517 222.391 194.174 228.474C200.831 234.557 211.264 242.085 211.264 242.085C211.264 242.085 200.256 245.566 197.941 245.853C195.627 246.14 196.201 247.298 198.811 248.464C201.422 249.629 204.557 250.491 211.838 250.491C219.119 250.491 223.716 250.491 224.003 248.751C224.29 247.011 219.661 242.668 216.181 239.195C212.7 235.723 199.386 213.993 198.229 212.835C197.071 211.678 188.961 207.909 182.879 212.835Z" fill="white" stroke="#263238" stroke-width="0.611408" stroke-linecap="round" stroke-linejoin="round"/>
<path d="M197.941 245.851C199.845 245.613 207.643 243.216 210.336 242.379L212.421 247.009C213.993 247.261 215.603 247.145 217.122 246.669C218.642 246.193 220.031 245.371 221.179 244.267C222.903 246.147 224.159 247.822 224.003 248.749C223.715 250.49 219.078 250.49 211.838 250.49C204.598 250.49 201.413 249.62 198.811 248.462C196.209 247.305 195.626 246.139 197.941 245.851Z" fill="#263238" stroke="#263238" stroke-width="0.611408" stroke-linecap="round" stroke-linejoin="round"/>
<path d="M32.8946 216.891C32.8946 216.891 36.9495 224.419 36.6622 227.029C36.4242 229.156 31.3596 245.394 29.5127 251.272C29.4401 251.504 29.4259 251.75 29.4713 251.989C29.5167 252.228 29.6203 252.452 29.7729 252.641C29.9256 252.83 30.1225 252.978 30.3463 253.073C30.5701 253.168 30.8138 253.206 31.0559 253.185C31.3444 253.158 31.6188 253.048 31.845 252.867C32.0712 252.686 32.2392 252.442 32.3282 252.167L40.4299 227.317C40.4299 227.317 41.8746 225.576 46.5123 224.714C50.0584 224.041 67.7229 223.212 75.7836 222.859C77.271 222.774 78.7332 223.27 79.8618 224.243C80.9905 225.215 81.6973 226.588 81.8332 228.072C81.8332 228.113 81.8332 228.146 81.8332 228.187C82.0877 231.528 87.5791 248.809 88.8268 252.634C88.8946 252.844 89.0356 253.023 89.2239 253.137C89.4122 253.252 89.6354 253.295 89.8528 253.258C89.9754 253.238 90.0925 253.193 90.1972 253.126C90.3018 253.059 90.3917 252.971 90.4615 252.868C90.5314 252.765 90.5796 252.649 90.6034 252.527C90.6271 252.405 90.6259 252.28 90.5998 252.158C89.6148 247.676 85.3875 228.351 83.8607 218.631C83.8607 218.631 53.1612 220.076 46.2086 218.336C42.0298 217.292 38.0295 215.632 34.3392 213.41C34.3392 213.41 32.6073 213.418 32.8946 216.891Z" fill="#263238" stroke="#263238" stroke-width="0.611408" stroke-linecap="round" stroke-linejoin="round"/>
<path d="M30.3012 165.918C30.3012 165.918 19.8683 198.64 21.6003 204.436C23.3323 210.232 31.7377 218.334 34.9226 218.334C38.1074 218.334 40.7177 186.482 40.7177 183.584C40.7177 180.686 35.2263 170.285 33.4779 165.918C31.7295 161.55 30.3012 165.918 30.3012 165.918Z" fill="#2A2FB8" stroke="#263238" stroke-width="0.611408" stroke-linecap="round" stroke-linejoin="round"/>
<path d="M87.3003 214.86C87.1936 218.144 86.6847 220.656 85.3138 220.656C82.7118 220.656 54.327 223.546 47.67 223.258C41.0129 222.971 36.0879 219.54 36.0879 214.614C36.0879 209.688 36.3752 187.966 41.3002 185.06C46.2253 182.154 72.2871 181.875 78.3695 181.875C85.8556 181.875 86.1757 196.34 86.4959 201.241C86.5862 202.653 87.4645 209.688 87.3003 214.86Z" fill="#2A2FB8" stroke="#263238" stroke-width="0.611408" stroke-linecap="round" stroke-linejoin="round"/>
<path d="M79.8138 215.149C79.8138 215.149 98.3484 215.731 99.7931 212.833C101.238 209.936 99.7931 203.852 96.0336 202.695C92.2742 201.537 76.6289 202.408 76.6289 202.408L79.8138 215.149Z" fill="white" stroke="#263238" stroke-width="0.611408" stroke-linecap="round" stroke-linejoin="round"/>
<path d="M34.9228 187.927C33.8205 191.797 33.333 195.817 33.4781 199.839C33.7654 206.217 35.5056 212.588 44.1491 217.801C52.7925 223.014 81.2183 216.93 81.2183 216.93L79.1908 178.987C79.1908 178.987 60.3689 176.672 49.9442 178.699C39.5195 180.727 35.2265 186.769 34.9228 187.927Z" fill="#263238" stroke="#263238" stroke-width="0.611408" stroke-linecap="round" stroke-linejoin="round"/>
<path d="M170.665 54.4273C168.581 56.6227 166.946 59.2053 165.855 62.0292C164.304 66.3801 159.182 79.4166 159.337 81.8958C159.493 84.3751 161.66 87.4864 163.836 85.7789C166.011 84.0713 171.281 74.9179 171.593 74.4499C171.905 73.982 172.216 67.4638 172.216 63.4248C172.216 59.3858 172.487 54.2713 170.665 54.4273Z" fill="white" stroke="#263238" stroke-width="0.611408" stroke-linecap="round" stroke-linejoin="round"/>
<path d="M175.672 68.3666C177.371 68.0383 216.172 76.576 216.172 80.9516C216.172 85.3272 207.414 109.413 207.414 109.413L170.205 99.5622C170.205 99.5622 170.952 69.3107 175.672 68.3666Z" fill="#2A2FB8" stroke="#263238" stroke-width="0.611408" stroke-linecap="round" stroke-linejoin="round"/>
<path d="M188.781 49.459C188.781 49.459 180.401 48.5231 174.499 51.4785C168.597 54.4338 168.605 59.3923 168.917 64.203C169.229 69.0137 170.83 94.9635 171.297 96.827C171.765 98.6905 182.42 98.1979 188.625 99.4376C194.831 100.677 199.181 95.5545 200.117 93.535C201.053 91.5155 211.913 71.8049 211.913 67.6181C211.913 63.4313 207.415 55.5093 201.045 51.7822C197.365 49.5699 193.015 48.7459 188.781 49.459Z" fill="white" stroke="#263238" stroke-width="0.611408" stroke-linecap="round" stroke-linejoin="round"/>
<path d="M182.88 65.4419L184.588 69.1689L177.914 92.4507L179.465 96.9494L183.972 93.5343L186.451 69.6369L189.866 65.9098L188.158 61.7148L182.88 65.4419Z" fill="#263238" stroke="#263238" stroke-width="0.611408" stroke-linecap="round" stroke-linejoin="round"/>
<path d="M183.348 55.8207C182.43 57.5685 181.65 59.3856 181.016 61.2553C180.598 63.2974 180.392 65.3771 180.401 67.4616C180.401 67.4616 185.367 65.1301 186.762 65.1301C188.158 65.1301 190.949 71.5006 190.949 71.5006C190.949 71.5006 195.143 65.2861 195.767 60.8284C196.391 56.3707 191.572 53.0706 188.158 53.0706C187.184 53.0614 186.226 53.3112 185.38 53.7944C184.535 54.2777 183.834 54.977 183.348 55.8207Z" fill="white" stroke="#263238" stroke-width="0.611408" stroke-linecap="round" stroke-linejoin="round"/>
<path d="M201.037 51.3223C201.037 51.3223 202.597 48.9908 202.901 51.1663C203.204 53.3418 201.349 55.0411 200.266 55.6651C199.992 55.8539 199.667 55.955 199.334 55.955C199.001 55.955 198.676 55.8539 198.402 55.6651" fill="white"/>
<path d="M201.037 51.3223C201.037 51.3223 202.597 48.9908 202.901 51.1663C203.204 53.3418 201.349 55.0411 200.266 55.6651C199.992 55.8539 199.667 55.955 199.334 55.955C199.001 55.955 198.676 55.8539 198.402 55.6651" stroke="#263238" stroke-width="0.611408" stroke-linecap="round" stroke-linejoin="round"/>
<path d="M185.21 42.3177C185.21 42.3177 183.659 41.0781 182.748 43.5573C181.837 46.0366 183.372 49.1479 183.372 49.1479L184.923 45.8642" fill="white"/>
<path d="M185.21 42.3177C185.21 42.3177 183.659 41.0781 182.748 43.5573C181.837 46.0366 183.372 49.1479 183.372 49.1479L184.923 45.8642" stroke="#263238" stroke-width="0.611408" stroke-linecap="round" stroke-linejoin="round"/>
<path d="M185.211 63.121C185.14 63.3587 185.128 63.6097 185.173 63.8534C185.219 64.097 185.322 64.3264 185.473 64.5227C185.624 64.719 185.82 64.8766 186.044 64.9825C186.268 65.0885 186.514 65.1398 186.762 65.1322C188.781 65.2882 192.968 60.9455 193.28 60.0096C193.591 59.0737 185.211 63.121 185.211 63.121Z" fill="white" stroke="#263238" stroke-width="0.611408" stroke-linecap="round" stroke-linejoin="round"/>
<path d="M192.508 32.85C192.508 32.85 187.074 35.3128 185.834 39.2123C184.595 43.1117 182.551 51.0091 182.551 53.9891C182.551 56.9691 183.478 63.0194 185.498 63.9224C187.517 64.8255 194.19 60.5074 196.045 59.2677C197.901 58.0281 200.084 53.2174 202.415 50.4181C204.746 47.6187 206.601 42.5042 205.699 38.3175C204.796 34.1307 197.933 29.123 192.508 32.85Z" fill="white" stroke="#263238" stroke-width="0.611408" stroke-linecap="round" stroke-linejoin="round"/>
<path d="M205.699 38.2869C204.763 34.0919 197.934 29.1252 192.508 32.8523C192.508 32.8523 187.074 35.3151 185.835 39.2145C185.244 41.0616 184.48 43.8118 183.84 46.5126C184.899 44.8708 186.655 42.0385 186.762 41.39C186.918 40.4541 186.918 40.2982 188.002 40.2982C189.085 40.2982 191.104 43.4013 193.903 44.0252C196.702 44.6491 200.421 44.1812 200.421 45.7328C200.421 47.2843 198.246 49.7718 199.641 50.5434C200.733 51.1509 199.756 53.2443 199.854 54.1556C200.628 52.841 201.492 51.5819 202.44 50.3875C204.763 47.5963 206.626 42.4736 205.699 38.2869Z" fill="#263238" stroke="#263238" stroke-width="0.611408" stroke-linecap="round" stroke-linejoin="round"/>
<path d="M185.367 47.9088C185.367 47.9088 190.801 50.544 193.436 51.4798C196.071 52.4157 198.714 53.4911 197.778 55.1987C196.842 56.9062 193.748 57.6615 191.884 56.9062C190.021 56.151 190.489 52.2515 189.422 52.0955C188.355 51.9396 187.567 53.9591 185.547 53.9591C183.528 53.9591 181.353 50.8559 181.665 48.6805C181.977 46.505 185.367 47.9088 185.367 47.9088Z" fill="white" stroke="#263238" stroke-width="0.611408" stroke-linecap="round" stroke-linejoin="round"/>
<path d="M198.246 53.6472L201.817 50.0762" stroke="#263238" stroke-width="0.611408" stroke-linecap="round" stroke-linejoin="round"/>
<path d="M182.576 47.7516L184.431 43.5566" stroke="#263238" stroke-width="0.611408" stroke-linecap="round" stroke-linejoin="round"/>
<path d="M225.916 80.6719C225.916 80.6719 215.622 89.8335 212.954 92.4851C210.287 95.1368 210.164 100.235 212.7 101.376C215.236 102.517 223.248 97.8212 224.512 96.8033C225.776 95.7853 229.215 81.304 225.916 80.6719Z" fill="#263238" stroke="#263238" stroke-width="0.611408" stroke-linecap="round" stroke-linejoin="round"/>
<path d="M251.65 103.574C251.65 103.574 265.481 117.399 262.715 121.824C259.949 126.248 233.402 140.081 233.402 140.081L228.42 118.507L251.65 103.574Z" fill="#2A2FB8" stroke="#263238" stroke-width="0.611408" stroke-linecap="round" stroke-linejoin="round"/>
<path d="M233.912 79.7855C233.912 79.7855 228.076 79.2765 225.917 80.6721C223.759 82.0677 222.232 95.0303 221.813 102.78C221.395 110.53 220.418 116.736 220.927 118.271C221.436 119.806 234.643 136.438 236.523 138.729C238.402 141.019 253.801 117.639 255.96 112.935C258.119 108.231 256.724 103.905 253.924 97.4438C251.125 90.9831 245.166 84.9902 241.612 81.6901C240.594 80.7479 239.354 80.0791 238.007 79.746C236.661 79.4129 235.252 79.4265 233.912 79.7855Z" fill="#263238" stroke="#263238" stroke-width="0.611408" stroke-linecap="round" stroke-linejoin="round"/>
<path d="M233.787 95.1506L233.696 95.6432C233.532 96.5544 233.179 98.6396 232.876 100.996C232.49 104.173 232.621 108.384 233.639 108.384C234.657 108.384 247.987 98.7299 248.242 89.9705C248.496 81.2111 234.804 91.4728 233.787 95.1506Z" fill="white" stroke="#263238" stroke-width="0.611408" stroke-linecap="round" stroke-linejoin="round"/>
<path d="M233.155 77.8802C233.155 77.8802 231.883 82.576 231.883 83.3394C231.979 84.2413 232.149 85.1336 232.392 86.0075C232.392 86.0075 230.233 89.439 230.488 89.8166C230.789 90.189 231.127 90.5301 231.497 90.8346C231.497 90.8346 231.251 95.6617 232.261 96.6796C233.27 97.6976 237.473 97.0573 237.473 97.0573C237.473 97.0573 235.437 99.6022 237.727 99.7253C240.018 99.8485 246.108 94.7997 247.89 91.8526C249.671 88.9054 249.531 83.5939 247.89 80.9259C246.248 78.2578 236.455 74.5718 233.155 77.8802Z" fill="white" stroke="#263238" stroke-width="0.611408" stroke-linecap="round" stroke-linejoin="round"/>
<path d="M244.205 68.7272C244.205 68.7272 234.421 69.9996 232.648 73.8088C230.875 77.6179 234.93 82.3219 237.852 82.9622C239.433 83.3345 241.055 83.5028 242.679 83.463C242.679 83.463 239.633 86.131 241.538 86.7467C243.442 87.3624 244.329 87.0012 244.329 87.6333C244.329 88.2655 242.424 90.3014 244.074 90.4327C245.724 90.5641 246.233 87.6333 247.251 88.2737C248.269 88.914 246.873 91.4425 247.382 91.5574C247.891 91.6723 252.718 86.6318 254.77 81.2629C256.822 75.8939 254.006 72.6266 251.979 70.8534C249.951 69.0802 246.619 68.095 244.205 68.7272Z" fill="#263238" stroke="#263238" stroke-width="0.611408" stroke-linecap="round" stroke-linejoin="round"/>
<path d="M244.204 90.958C244.204 90.958 245.985 86.8533 247.126 87.7891C248.267 88.725 247.89 91.5983 246.617 92.6163C245.345 93.6342 242.932 92.4849 242.932 92.4849" fill="white"/>
<path d="M244.204 90.958C244.204 90.958 245.985 86.8533 247.126 87.7891C248.267 88.725 247.89 91.5983 246.617 92.6163C245.345 93.6342 242.932 92.4849 242.932 92.4849" stroke="#263238" stroke-width="0.611408" stroke-linecap="round" stroke-linejoin="round"/>
<path d="M232.902 102.139L236.966 100.111L236.333 106.203" fill="white"/>
<path d="M232.902 102.139L236.966 100.111L236.333 106.203" stroke="#263238" stroke-width="0.611408" stroke-linecap="round" stroke-linejoin="round"/>
<path d="M265.226 210.034C265.226 210.034 257.921 224.417 258.208 227.027C258.446 229.153 263.511 245.391 265.366 251.269C265.437 251.502 265.449 251.748 265.403 251.987C265.356 252.226 265.251 252.449 265.098 252.638C264.945 252.827 264.748 252.975 264.524 253.07C264.3 253.165 264.057 253.203 263.814 253.182C263.526 253.156 263.252 253.045 263.025 252.864C262.799 252.683 262.631 252.44 262.542 252.164L254.449 227.314C254.449 227.314 252.996 225.574 248.366 224.712C244.812 224.039 227.156 223.21 219.087 222.857C217.601 222.774 216.141 223.271 215.014 224.243C213.887 225.216 213.181 226.587 213.045 228.07C213.041 228.108 213.041 228.146 213.045 228.185C212.783 231.526 207.299 248.807 206.044 252.632C205.976 252.842 205.835 253.02 205.646 253.135C205.458 253.249 205.235 253.292 205.017 253.256C204.895 253.236 204.778 253.19 204.673 253.123C204.569 253.056 204.479 252.969 204.409 252.866C204.339 252.763 204.291 252.647 204.267 252.525C204.243 252.403 204.244 252.278 204.271 252.156C205.256 247.674 209.483 228.349 211.018 218.629C211.018 218.629 241.709 220.074 248.662 218.333C255.614 216.593 263.79 206.553 263.79 206.553C263.79 206.553 265.514 206.553 265.226 210.034Z" fill="#263238" stroke="#263238" stroke-width="0.611408" stroke-linecap="round" stroke-linejoin="round"/>
<path d="M270.127 162.347C270.127 162.347 278.122 195.751 275.964 201.399C273.805 207.047 264.841 214.534 261.664 214.288C258.488 214.042 258.217 182.091 258.43 179.201C258.644 176.311 264.899 166.321 266.951 162.076C269.003 157.832 270.127 162.347 270.127 162.347Z" fill="#2A2FB8" stroke="#263238" stroke-width="0.611408" stroke-linecap="round" stroke-linejoin="round"/>
<path d="M207.603 214.86C207.701 218.144 208.219 220.656 209.581 220.656C212.191 220.656 240.568 223.546 247.233 223.258C253.898 222.971 258.791 219.54 258.791 214.614C258.791 209.688 258.495 187.925 253.57 185.06C248.645 182.195 222.583 181.875 216.501 181.875C209.015 181.875 208.686 196.34 208.374 201.241C208.284 202.653 207.414 209.688 207.603 214.86Z" fill="#2A2FB8" stroke="#263238" stroke-width="0.611408" stroke-linecap="round" stroke-linejoin="round"/>
<path d="M256.723 187.918C256.723 187.918 254.326 193.771 254.326 198.418C254.326 203.064 252.077 212.209 247.431 214.902C242.785 217.595 237.581 219.105 229.889 218.054C222.198 217.004 205.461 214.303 205.461 214.303C205.461 214.303 222.699 201.989 227.041 195.865C231.383 189.74 232.885 184.626 236.333 181.178C239.78 177.73 256.419 174.282 256.723 187.918Z" fill="#263238" stroke="#263238" stroke-width="0.611408" stroke-linecap="round" stroke-linejoin="round"/>
<path d="M153.585 234.466C204.472 234.466 245.725 202.581 245.725 163.249C245.725 123.918 204.472 92.0332 153.585 92.0332C102.698 92.0332 61.4453 123.918 61.4453 163.249C61.4453 202.581 102.698 234.466 153.585 234.466Z" fill="#263238" stroke="#263238" stroke-width="0.611408" stroke-linecap="round" stroke-linejoin="round"/>
<path d="M153.585 232.333C204.472 232.333 245.725 200.448 245.725 161.117C245.725 121.785 204.472 89.9004 153.585 89.9004C102.698 89.9004 61.4453 121.785 61.4453 161.117C61.4453 200.448 102.698 232.333 153.585 232.333Z" fill="#2A2FB8" stroke="#263238" stroke-width="0.611408" stroke-linecap="round" stroke-linejoin="round"/>
<path d="M199.239 117.385L210.928 130.216L190.218 145.075L178.283 130.593L199.239 117.385Z" fill="white" stroke="#263238" stroke-width="0.611408" stroke-linecap="round" stroke-linejoin="round"/>
<path d="M136.016 118.494L116.891 128.329L133.833 149.09L153.5 135.98L136.016 118.494Z" fill="white" stroke="#263238" stroke-width="0.611408" stroke-linecap="round" stroke-linejoin="round"/>
<path d="M165.018 139.289L145.9 149.124L162.834 169.885L182.502 156.775L165.018 139.289Z" fill="white" stroke="#263238" stroke-width="0.611408" stroke-linecap="round" stroke-linejoin="round"/>
<path d="M162.884 140.797L142.289 146.954L155.127 170.474L176.863 161.189L162.884 140.797Z" fill="white" stroke="#263238" stroke-width="0.611408" stroke-linecap="round" stroke-linejoin="round"/>
<path d="M138.309 106.828C138.309 106.828 142.027 105.441 142.027 106.369C142.027 107.296 142.027 108.224 140.385 108.692C138.744 109.16 133.187 107.994 134.582 107.296C135.772 106.859 137.047 106.699 138.309 106.828Z" fill="white" stroke="#263238" stroke-width="0.611408" stroke-linecap="round" stroke-linejoin="round"/>
<path d="M117.738 66.9297C117.738 66.9297 112.919 68.629 110.506 71.6172C108.093 74.6054 106.96 82.3961 106.402 85.803C105.844 89.2099 103.283 102.123 104.703 103.683C106.123 105.243 121.3 110.497 124.28 111.351C127.259 112.204 130.847 113.477 132.8 113.337C134.227 113.132 135.588 112.598 136.773 111.777C136.773 111.777 140.18 113.337 141.025 113.337C141.87 113.337 143.011 111.777 142.018 110.209C141.025 108.641 138.259 106.367 136.699 106.367C135.14 106.367 129.394 107.229 129.394 107.229C129.394 107.229 119.601 102.263 116.761 100.276C114.981 99.0113 113.319 97.588 111.795 96.0236L117.615 77.8563" fill="#263238"/>
<path d="M117.738 66.9297C117.738 66.9297 112.919 68.629 110.506 71.6172C108.093 74.6054 106.96 82.3961 106.402 85.803C105.844 89.2099 103.283 102.123 104.703 103.683C106.123 105.243 121.3 110.497 124.28 111.351C127.259 112.204 130.847 113.477 132.8 113.337C134.227 113.132 135.588 112.598 136.773 111.777C136.773 111.777 140.18 113.337 141.025 113.337C141.87 113.337 143.011 111.777 142.018 110.209C141.025 108.641 138.259 106.367 136.699 106.367C135.14 106.367 129.394 107.229 129.394 107.229C129.394 107.229 119.601 102.263 116.761 100.276C114.981 99.0113 113.319 97.588 111.795 96.0236L117.615 77.8563" stroke="#263238" stroke-width="0.611408" stroke-linecap="round" stroke-linejoin="round"/>
<path d="M136.683 106.367C135.123 106.367 129.377 107.229 129.377 107.229C129.377 107.229 128.294 106.687 126.751 105.883C125.552 106.696 124.635 107.86 124.124 109.216C123.942 109.869 123.84 110.541 123.82 111.219L124.264 111.35C127.243 112.171 130.83 113.476 132.784 113.337C134.211 113.132 135.571 112.598 136.757 111.777C136.757 111.777 140.163 113.337 141.009 113.337C141.854 113.337 142.995 111.777 142.002 110.209C141.009 108.641 138.243 106.367 136.683 106.367Z" fill="white" stroke="#263238" stroke-width="0.611408" stroke-linecap="round" stroke-linejoin="round"/>
<path d="M71.6968 80.9938C71.2617 81.1251 67.962 84.729 67.6747 88.8994C67.3874 93.0698 70.5476 99.9574 71.1222 101.107C71.6968 102.256 70.9827 104.267 72.4191 104.267C73.8556 104.267 78.3128 97.6588 78.3128 97.6588C78.3128 97.6588 83.3364 97.9461 83.9109 96.6572C84.4855 95.3684 79.8888 88.177 78.8874 85.1641C77.886 82.1513 74.1429 80.2796 71.6968 80.9938Z" fill="white" stroke="#263238" stroke-width="0.611408" stroke-linecap="round" stroke-linejoin="round"/>
<path d="M71.4085 78.8403C71.4185 80.8168 71.2259 82.7891 70.8339 84.7264C70.2593 86.7377 70.1198 87.7475 72.2704 90.9081C74.43 93.7488 76.7832 96.4369 79.3132 98.9532C79.3132 98.9532 79.6005 95.6695 79.7483 93.7813C79.896 91.8932 82.7607 90.7603 83.3353 89.8983C83.9099 89.0363 80.1751 88.4617 78.7386 85.8757C77.3021 83.2898 77.3021 78.8403 75.2911 78.4052C73.28 77.9701 72.1637 76.829 71.4085 78.8403Z" fill="white" stroke="#263238" stroke-width="0.611408" stroke-linecap="round" stroke-linejoin="round"/>
<path d="M90.6658 70.0729C90.6658 70.0729 94.6879 68.9236 93.9491 64.901C93.2104 60.8784 85.9049 57.8656 78.0084 58.5798C70.1119 59.294 66.5166 64.4741 65.7942 69.646C65.0719 74.8179 70.5305 79.842 71.1051 80.704C71.6797 81.566 70.9655 82.428 72.6893 83.0026C73.8623 83.3321 75.1034 83.3321 76.2764 83.0026C76.7012 83.6138 77.294 84.0887 77.9831 84.3699C78.6721 84.6511 79.4279 84.7265 80.159 84.587C82.6215 84.0124 81.8828 79.1278 82.8924 78.5532C83.902 77.9785 84.6162 76.0903 87.6286 74.3828C90.6411 72.6753 90.6658 70.0729 90.6658 70.0729Z" fill="#263238" stroke="#263238" stroke-width="0.611408" stroke-linecap="round" stroke-linejoin="round"/>
<path d="M78.451 82.0028C78.451 82.0028 78.7383 79.7042 75.8653 79.4168C72.9924 79.1295 73.7147 81.8796 74.2893 83.1521C74.8639 84.4245 76.8667 85.4507 76.8667 85.4507C76.8667 85.4507 77.5891 88.7345 78.5987 89.0382C79.6084 89.3419 85.6333 91.9115 86.8072 91.501C87.981 91.0905 89.1055 85.7545 89.1055 85.7545C89.1055 85.7545 91.1166 84.7447 91.1166 83.7432C91.1166 82.7416 90.2219 79.8437 90.2219 79.1623C90.2219 78.481 91.8061 76.4286 92.0934 74.8524C92.3807 73.2762 90.6569 70.1074 90.6569 70.1074C90.6569 70.1074 89.9346 72.6934 87.6362 72.6934C86.0793 72.6576 84.5339 72.4174 83.0395 71.9792C83.0395 71.9792 84.1887 74.992 83.3268 76.2891C82.4649 77.5861 81.0284 77.2906 80.7411 77.8653C80.4538 78.4399 80.6016 81.0259 80.4538 81.6005C80.3061 82.1752 79.3129 84.1536 78.451 82.0028Z" fill="white" stroke="#263238" stroke-width="0.611408" stroke-linecap="round" stroke-linejoin="round"/>
<path d="M92.3906 97.6572C92.3906 97.6572 93.1048 103.404 94.5412 105.702C95.9777 108.001 102.011 116.908 102.011 116.908C102.011 116.908 101.584 119.929 102.011 120.791C102.871 122.6 103.593 124.472 104.17 126.39C104.17 126.965 105.319 127.4 105.458 126.538C105.555 125.872 105.604 125.199 105.606 124.526L108.069 128.262C108.069 128.262 109.366 129.263 109.792 128.401C110.219 127.539 109.94 122.942 110.228 121.078C110.515 119.215 109.078 116.621 107.929 115.471C106.78 114.322 105.344 112.311 104.908 111.884C104.473 111.457 102.61 104.701 101.748 100.104C100.886 95.5063 98.588 92.633 96.8642 92.3457" fill="white"/>
<path d="M92.3906 97.6572C92.3906 97.6572 93.1048 103.404 94.5412 105.702C95.9777 108.001 102.011 116.908 102.011 116.908C102.011 116.908 101.584 119.929 102.011 120.791C102.871 122.6 103.593 124.472 104.17 126.39C104.17 126.965 105.319 127.4 105.458 126.538C105.555 125.872 105.604 125.199 105.606 124.526L108.069 128.262C108.069 128.262 109.366 129.263 109.792 128.401C110.219 127.539 109.94 122.942 110.228 121.078C110.515 119.215 109.078 116.621 107.929 115.471C106.78 114.322 105.344 112.311 104.908 111.884C104.473 111.457 102.61 104.701 101.748 100.104C100.886 95.5063 98.588 92.633 96.8642 92.3457" stroke="#263238" stroke-width="0.611408" stroke-linecap="round" stroke-linejoin="round"/>
<path d="M109.767 128.419C110.202 127.598 109.915 122.96 110.202 121.096C110.489 119.233 109.053 116.639 107.904 115.489C107.075 114.609 106.294 113.686 105.564 112.723C103.827 113.212 102.268 114.193 101.074 115.547L102.01 116.926C102.01 116.926 101.583 119.947 102.01 120.809C102.87 122.618 103.592 124.489 104.169 126.408C104.169 126.982 105.318 127.417 105.458 126.555C105.554 125.889 105.603 125.217 105.605 124.544L108.068 128.279C108.068 128.279 109.34 129.24 109.767 128.419Z" fill="white" stroke="#263238" stroke-width="0.611408" stroke-linecap="round" stroke-linejoin="round"/>
<path d="M57.9065 91.9121C56.0315 93.3985 54.715 95.4761 54.1717 97.8064C53.1702 101.829 56.47 118.207 57.3319 122.943C58.1938 127.68 62.5032 143.467 63.8002 144.493C65.0971 145.519 80.176 143.631 85.6346 142.63C91.0932 141.628 102.872 137.458 105.335 136.735C107.797 136.013 109.07 132.286 109.784 131.563C110.498 130.841 112.082 128.403 111.22 127.541C110.358 126.679 107.937 127.541 106.911 127.541C105.885 127.541 104.038 127.401 102.027 127.401C101.031 127.428 100.071 127.779 99.2933 128.402C98.5154 129.024 97.962 129.883 97.7174 130.849C97.4422 131.938 96.954 132.962 96.2809 133.862C96.2809 133.862 81.5057 135.873 78.3291 135.873C76.2619 135.858 74.1977 135.716 72.1481 135.446C72.1481 135.446 70.4244 125.529 69.1274 119.356C67.8305 113.183 66.6649 108.438 65.6799 106.853" fill="white"/>
<path d="M57.9065 91.9121C56.0315 93.3985 54.715 95.4761 54.1717 97.8064C53.1702 101.829 56.47 118.207 57.3319 122.943C58.1938 127.68 62.5032 143.467 63.8002 144.493C65.0971 145.519 80.176 143.631 85.6346 142.63C91.0932 141.628 102.872 137.458 105.335 136.735C107.797 136.013 109.07 132.286 109.784 131.563C110.498 130.841 112.082 128.403 111.22 127.541C110.358 126.679 107.937 127.541 106.911 127.541C105.885 127.541 104.038 127.401 102.027 127.401C101.031 127.428 100.071 127.779 99.2933 128.402C98.5154 129.024 97.962 129.883 97.7174 130.849C97.4422 131.938 96.954 132.962 96.2809 133.862C96.2809 133.862 81.5057 135.873 78.3291 135.873C76.2619 135.858 74.1977 135.716 72.1481 135.446C72.1481 135.446 70.4244 125.529 69.1274 119.356C67.8305 113.183 66.6649 108.438 65.6799 106.853" stroke="#263238" stroke-width="0.611408" stroke-linecap="round" stroke-linejoin="round"/>
<path d="M106.895 127.537C105.894 127.537 104.022 127.398 102.011 127.398C101.015 127.425 100.055 127.776 99.2775 128.398C98.4996 129.021 97.9463 129.88 97.7016 130.846C97.4265 131.935 96.9382 132.959 96.2651 133.859L95.2227 133.998C95.6371 134.856 95.8929 135.783 95.9778 136.732C96.0209 137.77 95.9576 138.81 95.789 139.835C100.041 138.489 103.997 137.118 105.319 136.732C107.782 136.018 109.054 132.282 109.768 131.56C110.482 130.838 112.066 128.399 111.204 127.537C110.343 126.675 107.905 127.537 106.895 127.537Z" fill="white" stroke="#263238" stroke-width="0.611408" stroke-linecap="round" stroke-linejoin="round"/>
<path d="M97.1758 154.614C97.1758 154.614 100.878 154.918 102.101 154.918C103.324 154.918 111.82 153.999 110.588 152.611C109.357 151.224 100.082 149.984 100.082 149.984L97.1758 154.614Z" fill="white" stroke="#263238" stroke-width="0.611408" stroke-linecap="round" stroke-linejoin="round"/>
<path d="M115.676 146.281L88.6953 158.776L99.1775 180.055L125.699 166.64L115.676 146.281Z" fill="white" stroke="#263238" stroke-width="0.611408" stroke-linecap="round" stroke-linejoin="round"/>
<path d="M97.6094 153.375C97.6094 153.375 100.844 153.375 101.615 153.843C102.387 154.311 105.621 157.233 106.089 156.461C106.557 155.69 104.701 153.843 103.93 153.071C103.158 152.299 102.387 151.684 102.387 151.684" fill="white"/>
<path d="M97.6094 153.375C97.6094 153.375 100.844 153.375 101.615 153.843C102.387 154.311 105.621 157.233 106.089 156.461C106.557 155.69 104.701 153.843 103.93 153.071C103.158 152.299 102.387 151.684 102.387 151.684" stroke="#263238" stroke-width="0.611408" stroke-linecap="round" stroke-linejoin="round"/>
<path d="M72.287 142.744L100.073 149.985L95.7221 156.355L66.4754 152.883C66.4754 152.883 59.5393 143.327 72.287 142.744Z" fill="white" stroke="#263238" stroke-width="0.611408" stroke-linecap="round" stroke-linejoin="round"/>
<path d="M52.6203 143.958C52.6203 143.958 45.8483 149.704 43.591 156.682C41.3337 163.66 39.8972 177.616 39.8972 177.616C39.8972 177.616 32.7148 187.878 32.7148 188.904C32.7148 189.93 38.666 188.904 38.666 188.904L32.9201 198.755C32.9201 198.755 32.9201 206.965 37.4347 211.274C39.5189 213.255 42.0197 214.743 44.7539 215.631C47.488 216.519 50.3862 216.783 53.2359 216.405C58.161 215.584 67.1903 204.502 68.2163 203.886C69.2424 203.27 65.7538 193.83 64.9329 190.341C64.1121 186.852 65.7538 184.389 66.7798 183.773C67.8059 183.157 73.757 179.463 74.9883 176.795C76.2195 174.127 76.0143 169.612 75.6039 166.123C75.1935 162.634 70.0632 150.525 65.5486 146.831C61.0339 143.137 56.9297 140.674 52.6203 143.958Z" fill="white" stroke="#263238" stroke-width="0.611408" stroke-linecap="round" stroke-linejoin="round"/>
<path d="M56.7246 142.933C56.7246 142.933 53.6465 147.448 53.6465 150.732C53.6465 154.015 56.3142 159.351 58.3663 161.814C59.5725 163.268 60.8751 164.64 62.2653 165.919L66.78 164.893L66.9852 168.382C66.9852 168.382 68.0112 166.535 70.8842 167.766C73.7571 168.997 75.604 168.176 75.604 167.561C76.5853 163.584 76.5853 159.429 75.604 155.452C73.9623 148.269 72.1154 147.037 69.4477 144.369C66.78 141.701 60.6236 140.675 56.7246 142.933Z" fill="white" stroke="#263238" stroke-width="0.611408" stroke-linecap="round" stroke-linejoin="round"/>
<path d="M58.7764 143.958C58.7764 143.958 56.519 147.857 57.7503 150.936C58.9816 154.014 62.8806 157.709 65.9587 160.377C69.0369 163.045 72.9359 165.918 72.9359 165.918C73.6322 163.647 73.8639 161.259 73.6171 158.896C73.3703 156.534 72.6501 154.245 71.4994 152.167C67.6004 144.779 60.6233 142.521 58.7764 143.958Z" fill="white" stroke="#263238" stroke-width="0.611408" stroke-linecap="round" stroke-linejoin="round"/>
<path d="M76.6289 125.281C77.204 126.614 77.6841 127.985 78.0653 129.386V130.823C78.0653 130.823 80.9383 132.464 80.5279 133.08C80.1174 133.696 78.4758 136.364 78.4758 136.364C78.7005 138.621 78.6316 140.897 78.2705 143.137C77.6549 145.805 78.4758 147.036 76.2184 147.036H70.4725C70.4725 147.036 69.8569 155.656 68.4204 155.656C66.984 155.656 60.4172 152.577 59.186 150.935C57.9547 149.294 57.5443 147.652 57.9547 146.42C59.2318 143.131 60.3279 139.773 61.2381 136.364C62.0589 132.67 68.2152 129.796 69.6517 129.181C71.0882 128.565 76.6289 125.281 76.6289 125.281Z" fill="white" stroke="#263238" stroke-width="0.611408" stroke-linecap="round" stroke-linejoin="round"/>
<path d="M53.8521 139.852C53.8521 139.852 48.927 139.031 46.4645 139.441C44.002 139.852 40.9238 143.341 40.9238 146.83C40.9238 150.319 43.5916 152.371 47.901 152.781C52.2104 153.192 55.0834 149.498 55.0834 147.445C55.0857 144.864 54.6699 142.3 53.8521 139.852Z" fill="#263238" stroke="#263238" stroke-width="0.611408" stroke-linecap="round" stroke-linejoin="round"/>
<path d="M66.3697 138.827C66.3697 138.827 74.1677 130.413 76.6303 125.282C79.0928 120.151 78.2719 114.815 74.3729 114.815C70.4739 114.815 66.1645 113.583 58.7769 116.251C51.3893 118.919 48.3112 127.539 48.7216 132.054C49.132 136.57 55.904 145.805 59.3926 146.421C62.8811 147.036 62.8811 140.879 62.8811 140.879L66.3697 138.827Z" fill="#263238" stroke="#263238" stroke-width="0.611408" stroke-linecap="round" stroke-linejoin="round"/>
<path d="M67.3959 140.264C67.3959 140.264 65.549 136.159 63.2917 137.391C61.0343 138.622 63.0865 143.137 64.5229 144.163C65.9594 145.189 68.2167 143.548 68.2167 143.548" fill="white"/>
<path d="M67.3959 140.264C67.3959 140.264 65.549 136.159 63.2917 137.391C61.0343 138.622 63.0865 143.137 64.5229 144.163C65.9594 145.189 68.2167 143.548 68.2167 143.548" stroke="#263238" stroke-width="0.611408" stroke-linecap="round" stroke-linejoin="round"/>
<path d="M78.0656 130.824C78.0656 130.824 77.2448 133.492 76.2188 133.903" stroke="#263238" stroke-width="0.611408" stroke-linecap="round" stroke-linejoin="round"/>
<path d="M93.8019 167.986C93.8019 167.986 92.2259 166.936 92.0207 168.298C91.8155 169.661 93.3833 171.13 93.3833 171.13C93.3833 171.13 91.3886 168.93 91.2819 170.186C91.1752 171.442 92.4393 172.813 92.4393 172.813C92.4393 172.813 90.8633 172.075 90.8633 172.707C90.8633 173.339 93.0713 175.539 93.1698 176.582C93.2683 177.624 95.2712 174.381 95.6898 171.869C95.7788 171.109 95.6483 170.34 95.3137 169.652C94.9791 168.964 94.4545 168.386 93.8019 167.986Z" fill="white" stroke="#263238" stroke-width="0.611408" stroke-linecap="round" stroke-linejoin="round"/>
<path d="M90.7891 183.568C91.2845 181.753 91.6278 179.899 91.8151 178.027C91.8151 176.385 93.662 173.511 94.4829 171.87C95.3037 170.228 91.8151 167.354 93.4568 166.534C95.0985 165.713 96.3298 167.354 97.7662 169.202C99.2027 171.049 99.6131 174.948 98.3819 177.616C97.2208 180.085 95.6993 182.367 93.8672 184.389C93.2661 185.032 92.5749 185.586 91.8151 186.031L90.7891 183.568Z" fill="white" stroke="#263238" stroke-width="0.611408" stroke-linecap="round" stroke-linejoin="round"/>
<path d="M92.3398 179.627V174.43C92.3398 171.828 93.8009 167.986 93.8009 167.986C94.0412 167.953 94.2858 167.981 94.5126 168.067C94.7394 168.153 94.9413 168.294 95.1001 168.477C95.2589 168.66 95.3696 168.88 95.4223 169.117C95.4749 169.353 95.4678 169.6 95.4016 169.833C95.2672 171.522 95.3694 173.221 95.7053 174.882" fill="white"/>
<path d="M92.3398 179.627V174.43C92.3398 171.828 93.8009 167.986 93.8009 167.986C94.0412 167.953 94.2858 167.981 94.5126 168.067C94.7394 168.153 94.9413 168.294 95.1001 168.477C95.2589 168.66 95.3696 168.88 95.4223 169.117C95.4749 169.353 95.4678 169.6 95.4016 169.833C95.2672 171.522 95.3694 173.221 95.7053 174.882" stroke="#263238" stroke-width="0.611408" stroke-linecap="round" stroke-linejoin="round"/>
<path d="M46.8738 176.59C46.8738 176.59 44.0009 180.695 45.4374 185.21C46.8738 189.725 67.3949 217.021 70.2679 217.021C73.1408 217.021 93.8671 190.136 95.0984 188.494C96.3296 186.852 90.9942 182.747 90.9942 182.747L70.2679 201.629C70.2679 201.629 64.7272 179.464 62.4699 175.359C60.2125 171.254 54.8771 170.844 54.8771 170.844" fill="white"/>
<path d="M46.8738 176.59C46.8738 176.59 44.0009 180.695 45.4374 185.21C46.8738 189.725 67.3949 217.021 70.2679 217.021C73.1408 217.021 93.8671 190.136 95.0984 188.494C96.3296 186.852 90.9942 182.747 90.9942 182.747L70.2679 201.629C70.2679 201.629 64.7272 179.464 62.4699 175.359C60.2125 171.254 54.8771 170.844 54.8771 170.844" stroke="#263238" stroke-width="0.611408" stroke-linecap="round" stroke-linejoin="round"/>
<path d="M146.123 89.6358C146.123 89.6358 148.954 86.5163 151.934 85.9416C154.914 85.367 156.473 87.3618 155.628 90.9083C154.782 94.4547 152.082 95.3085 150.514 95.1689C148.946 95.0294 146.41 94.348 145.696 92.4763C145.467 92.0162 145.385 91.4969 145.461 90.9887C145.538 90.4806 145.769 90.0083 146.123 89.6358Z" fill="#263238" stroke="#263238" stroke-width="0.611408" stroke-linecap="round" stroke-linejoin="round"/>
<path d="M147.821 88.7832C147.821 88.7832 141.722 89.6041 140.302 90.6303C138.882 91.6565 135.615 97.1567 135.615 97.8628C135.615 98.5688 137.602 99.283 138.595 99.283C139.588 99.283 142.149 95.8761 142.149 95.8761L140.869 99.4307C140.869 99.4307 142.149 99.283 142.289 98.7165C142.428 98.1501 144.415 94.3163 144.415 94.3163C144.415 94.3163 148.108 94.4641 149.102 92.7565C150.095 91.049 150.801 89.9161 147.821 88.7832Z" fill="white" stroke="#263238" stroke-width="0.611408" stroke-linecap="round" stroke-linejoin="round"/>
<path d="M160.069 79.416C160.069 79.416 158.362 85.1626 158.362 88.7254C158.362 92.2883 160.816 103.79 160.816 103.79C160.476 105.736 159.627 107.557 158.353 109.068C156.334 111.244 156.958 114.191 157.886 115.119C158.813 116.046 160.685 117.762 161.3 116.67C161.916 115.578 161.456 113.567 162.08 112.795C162.704 112.024 165.027 110.776 165.363 108.444C165.7 106.113 165.207 98.9789 165.207 95.0959C165.207 91.2129 167.227 85.4745 165.052 81.4437" fill="white"/>
<path d="M160.069 79.416C160.069 79.416 158.362 85.1626 158.362 88.7254C158.362 92.2883 160.816 103.79 160.816 103.79C160.476 105.736 159.627 107.557 158.353 109.068C156.334 111.244 156.958 114.191 157.886 115.119C158.813 116.046 160.685 117.762 161.3 116.67C161.916 115.578 161.456 113.567 162.08 112.795C162.704 112.024 165.027 110.776 165.363 108.444C165.7 106.113 165.207 98.9789 165.207 95.0959C165.207 91.2129 167.227 85.4745 165.052 81.4437" stroke="#263238" stroke-width="0.611408" stroke-linecap="round" stroke-linejoin="round"/>
<path d="M165.37 101.951C162.85 101.45 161.463 102.304 160.724 103.223C160.798 103.576 160.847 103.782 160.847 103.782C160.507 105.728 159.658 107.55 158.385 109.06C156.365 111.236 156.989 114.183 157.917 115.111C158.844 116.038 160.716 117.754 161.332 116.662C161.947 115.57 161.487 113.559 162.111 112.787C162.735 112.016 165.058 110.768 165.395 108.436C165.516 106.276 165.508 104.11 165.37 101.951Z" fill="white" stroke="#263238" stroke-width="0.611408" stroke-linecap="round" stroke-linejoin="round"/>
<path d="M169.689 101.764L154.791 118.683L169.845 129.396L184.276 111.081L169.689 101.764Z" fill="white" stroke="#263238" stroke-width="0.611408" stroke-linecap="round" stroke-linejoin="round"/>
<path d="M163.17 108.715C163.17 108.715 163.326 113.994 163.326 114.774C163.326 115.553 165.033 116.481 165.189 114.618C165.214 113.577 165.319 112.539 165.501 111.514C165.657 111.046 166.585 108.099 165.345 105.924" fill="white"/>
<path d="M163.17 108.715C163.17 108.715 163.326 113.994 163.326 114.774C163.326 115.553 165.033 116.481 165.189 114.618C165.214 113.577 165.319 112.539 165.501 111.514C165.657 111.046 166.585 108.099 165.345 105.924" stroke="#263238" stroke-width="0.611408" stroke-linecap="round" stroke-linejoin="round"/>
<path d="M205.075 67.6166C205.075 67.6166 200.888 72.2713 198.869 76.6469C196.85 81.0225 195.298 92.1626 195.298 92.1626C195.298 92.1626 187.23 105.355 186.138 106.447C185.046 107.539 185.678 107.375 183.035 108.614C180.392 109.854 176.985 110.478 176.518 111.258C176.05 112.037 174.342 115.756 173.883 116.224C173.423 116.692 174.498 117.62 175.122 116.996C175.746 116.372 177.913 113.893 177.913 113.893L175.278 120.099C175.283 120.213 175.311 120.325 175.361 120.427C175.412 120.529 175.483 120.62 175.57 120.693C175.657 120.767 175.759 120.821 175.868 120.853C175.978 120.885 176.093 120.894 176.206 120.879C177.344 120.667 178.448 120.303 179.489 119.795C179.489 119.795 182.132 119.171 183.06 117.932C183.987 116.692 187.41 110.01 187.41 110.01C187.41 110.01 196.439 104.263 199.665 100.388C202.191 97.3267 204.185 93.8637 205.567 90.1431C206.027 88.5915 211.773 71.3683 211.617 68.5689C211.461 65.7695 210.065 65.2852 210.065 65.2852" fill="white"/>
<path d="M205.075 67.6166C205.075 67.6166 200.888 72.2713 198.869 76.6469C196.85 81.0225 195.298 92.1626 195.298 92.1626C195.298 92.1626 187.23 105.355 186.138 106.447C185.046 107.539 185.678 107.375 183.035 108.614C180.392 109.854 176.985 110.478 176.518 111.258C176.05 112.037 174.342 115.756 173.883 116.224C173.423 116.692 174.498 117.62 175.122 116.996C175.746 116.372 177.913 113.893 177.913 113.893L175.278 120.099C175.283 120.213 175.311 120.325 175.361 120.427C175.412 120.529 175.483 120.62 175.57 120.693C175.657 120.767 175.759 120.821 175.868 120.853C175.978 120.885 176.093 120.894 176.206 120.879C177.344 120.667 178.448 120.303 179.489 119.795C179.489 119.795 182.132 119.171 183.06 117.932C183.987 116.692 187.41 110.01 187.41 110.01C187.41 110.01 196.439 104.263 199.665 100.388C202.191 97.3267 204.185 93.8637 205.567 90.1431C206.027 88.5915 211.773 71.3683 211.617 68.5689C211.461 65.7695 210.065 65.2852 210.065 65.2852" stroke="#263238" stroke-width="0.611408" stroke-linecap="round" stroke-linejoin="round"/>
<path d="M185.678 106.916C185.169 107.499 185.186 107.581 183.035 108.558C180.4 109.806 176.985 110.421 176.518 111.201C176.05 111.981 174.342 115.7 173.883 116.168C173.423 116.636 174.498 117.564 175.122 116.94C175.746 116.316 177.913 113.837 177.913 113.837L175.278 120.043C175.283 120.157 175.311 120.268 175.361 120.371C175.412 120.473 175.483 120.564 175.57 120.637C175.657 120.711 175.759 120.765 175.868 120.797C175.978 120.829 176.093 120.838 176.206 120.823C177.344 120.611 178.448 120.246 179.489 119.739C179.489 119.739 182.132 119.115 183.06 117.876C183.987 116.636 187.41 109.953 187.41 109.953C187.41 109.953 187.968 109.6 188.871 109.001C188.044 107.997 186.93 107.27 185.678 106.916Z" fill="white" stroke="#263238" stroke-width="0.611408" stroke-linecap="round" stroke-linejoin="round"/>
<path d="M247.249 111.794C247.249 111.794 243.818 118.271 243.186 120.824C242.554 123.377 241.545 126.16 241.545 126.16C241.545 126.16 235.191 125.142 229.733 124.518C224.274 123.894 216.525 122.482 214.613 122.105C212.7 121.727 209.154 120.701 208.391 121.341C207.627 121.982 208.136 121.85 209.031 122.228C209.77 122.454 210.553 122.499 211.313 122.359C211.313 122.359 210.041 122.737 208.645 123.246C207.25 123.755 204.705 124.642 204.328 125.151C203.95 125.66 204.836 127.441 206.232 127.441C207.29 127.374 208.351 127.374 209.409 127.441C210.172 127.564 210.55 128.328 213.094 128.328C215.639 128.328 219.185 126.292 219.185 126.292C219.185 126.292 231.128 131.759 237.859 132.9C244.59 134.041 245.608 132.523 248.407 130.355C251.206 128.188 259.324 114.864 258.692 112.196C258.279 110.526 257.591 108.937 256.656 107.492" fill="#263238"/>
<path d="M247.249 111.794C247.249 111.794 243.818 118.271 243.186 120.824C242.554 123.377 241.545 126.16 241.545 126.16C241.545 126.16 235.191 125.142 229.733 124.518C224.274 123.894 216.525 122.482 214.613 122.105C212.7 121.727 209.154 120.701 208.391 121.341C207.627 121.982 208.136 121.85 209.031 122.228C209.77 122.454 210.553 122.499 211.313 122.359C211.313 122.359 210.041 122.737 208.645 123.246C207.25 123.755 204.705 124.642 204.328 125.151C203.95 125.66 204.836 127.441 206.232 127.441C207.29 127.374 208.351 127.374 209.409 127.441C210.172 127.564 210.55 128.328 213.094 128.328C215.639 128.328 219.185 126.292 219.185 126.292C219.185 126.292 231.128 131.759 237.859 132.9C244.59 134.041 245.608 132.523 248.407 130.355C251.206 128.188 259.324 114.864 258.692 112.196C258.279 110.526 257.591 108.937 256.656 107.492" stroke="#263238" stroke-width="0.611408" stroke-linecap="round" stroke-linejoin="round"/>
<path d="M221.919 123.376C218.594 122.834 215.68 122.301 214.605 122.087C212.701 121.701 209.146 120.683 208.383 121.324C207.62 121.964 208.128 121.833 209.023 122.21C209.762 122.436 210.545 122.481 211.305 122.342C211.305 122.342 210.033 122.719 208.637 123.228C207.242 123.737 204.697 124.624 204.32 125.133C203.942 125.642 204.829 127.423 206.224 127.423C207.282 127.356 208.343 127.356 209.401 127.423C210.164 127.546 210.542 128.31 213.086 128.31C215.631 128.31 219.177 126.274 219.177 126.274C219.177 126.274 220.113 126.701 221.598 127.341L221.919 123.376Z" fill="white" stroke="#263238" stroke-width="0.611408" stroke-linecap="round" stroke-linejoin="round"/>
<path d="M213.719 92.2305C213.719 92.2305 207.751 95.153 205.461 97.1561C203.171 99.1592 197.458 112.015 197.335 112.902C197.211 113.788 201.652 114.305 202.161 114.051C202.67 113.796 211.691 103.379 213.973 101.597C214.603 101.187 215.074 100.572 215.305 99.8565C215.537 99.1407 215.516 98.3671 215.245 97.6651" fill="#263238"/>
<path d="M213.719 92.2305C213.719 92.2305 207.751 95.153 205.461 97.1561C203.171 99.1592 197.458 112.015 197.335 112.902C197.211 113.788 201.652 114.305 202.161 114.051C202.67 113.796 211.691 103.379 213.973 101.597C214.603 101.187 215.074 100.572 215.305 99.8565C215.537 99.1407 215.516 98.3671 215.245 97.6651" stroke="#263238" stroke-width="0.611408" stroke-linecap="round" stroke-linejoin="round"/>
<path d="M199.495 110.276C197.604 110.676 195.738 111.183 193.905 111.794C192.378 112.435 188.824 117.007 189.71 117.262C190.597 117.516 192.994 114.594 192.994 114.594C192.15 115.789 191.427 117.065 190.835 118.403C190.58 119.421 190.326 121.687 191.344 121.325C192.362 120.964 194.389 118.148 194.389 118.148C194.389 118.148 196.926 116.621 198.961 116.621C200.997 116.621 202.392 112.812 202.392 112.812C202.392 112.812 204.034 111.17 203.41 109.381C202.786 107.591 199.495 110.276 199.495 110.276Z" fill="white" stroke="#263238" stroke-width="0.611408" stroke-linecap="round" stroke-linejoin="round"/>
<path d="M202.923 109.257C202.421 109.277 201.92 109.185 201.459 108.986C200.997 108.787 200.586 108.487 200.255 108.107C199.238 106.843 198.614 108.107 198.614 109.38C198.629 109.751 198.759 110.107 198.985 110.401C199.212 110.695 199.523 110.912 199.878 111.022C199.878 111.022 197.719 113.058 198.991 113.69C199.411 113.856 199.867 113.909 200.314 113.842C200.761 113.776 201.182 113.593 201.536 113.312" fill="white"/>
<path d="M202.923 109.257C202.421 109.277 201.92 109.185 201.459 108.986C200.997 108.787 200.586 108.487 200.255 108.107C199.238 106.843 198.614 108.107 198.614 109.38C198.629 109.751 198.759 110.107 198.985 110.401C199.212 110.695 199.523 110.912 199.878 111.022C199.878 111.022 197.719 113.058 198.991 113.69C199.411 113.856 199.867 113.909 200.314 113.842C200.761 113.776 201.182 113.593 201.536 113.312" stroke="#263238" stroke-width="0.611408" stroke-linecap="round" stroke-linejoin="round"/>
<path d="M247.577 142.374C247.577 142.374 241.282 141.175 239.032 140.732C236.783 140.289 229.437 143.285 227.344 144.016C225.25 144.746 227.344 145.37 229.593 145.814C231.842 146.257 236.332 145.37 236.332 145.37C236.332 145.37 231.407 147.464 232.589 147.767C233.771 148.071 236.184 147.464 238.285 147.316C240.387 147.168 242.48 145.214 242.48 145.214C242.48 145.214 252.527 150.14 253.726 150.14C254.924 150.14 256.722 146.544 254.169 145.042C252.065 143.938 249.857 143.044 247.577 142.374Z" fill="white" stroke="#263238" stroke-width="0.611408" stroke-linecap="round" stroke-linejoin="round"/>
<path d="M249.828 147.898C245.893 150.878 242.409 154.412 239.486 158.39C235.135 164.538 234.388 176.976 235.291 180.555C236.194 184.134 236.785 188.346 241.136 191.227C245.486 194.109 248.63 195.274 256.124 191.227C263.618 187.18 267.517 173.692 266.795 163.315C266.073 152.939 259.752 145.772 256.452 144.877C253.153 143.982 249.828 147.898 249.828 147.898Z" fill="white" stroke="#263238" stroke-width="0.611408" stroke-linecap="round" stroke-linejoin="round"/>
<path d="M250.288 149.843C250.288 149.843 247.587 150.147 246.241 151.945C244.895 153.743 245.338 154.342 246.241 154.794C246.523 154.975 246.763 155.216 246.943 155.5C247.123 155.783 247.239 156.103 247.283 156.436C247.283 156.436 244.139 161.534 245.789 162.576C247.439 163.619 254.778 160.179 256.731 157.651C258.685 155.122 257.782 150.902 256.583 149.704C255.385 148.505 250.288 149.843 250.288 149.843Z" fill="white" stroke="#263238" stroke-width="0.611408" stroke-linecap="round" stroke-linejoin="round"/>
<path d="M248.474 130.363C247.607 131.397 246.598 132.303 245.478 133.056C244.28 133.655 242.786 134.255 243.984 135.158C244.669 135.661 245.319 136.209 245.93 136.8C245.93 136.8 244.428 141.725 245.035 144.59C245.088 144.956 245.219 145.306 245.42 145.617C245.62 145.928 245.885 146.192 246.196 146.392C246.508 146.591 246.858 146.721 247.225 146.773C247.591 146.824 247.964 146.797 248.318 146.692C248.318 146.692 247.867 154.187 247.268 156.436C246.668 158.686 249.517 158.53 251.766 157.183C254.015 155.837 254.319 150.287 255.213 146.24C256.108 142.193 261.509 137.399 257.766 132.9C254.023 128.401 248.474 130.363 248.474 130.363Z" fill="white" stroke="#263238" stroke-width="0.611408" stroke-linecap="round" stroke-linejoin="round"/>
<path d="M272.91 125.264C267.361 119.567 258.956 120.913 257.774 121.217C257.774 121.217 253.095 120.076 250.386 120.528C247.677 120.979 246.668 128.737 248.318 133.055C248.906 134.605 250.018 135.9 251.461 136.716C251.191 136.478 249.59 134.968 251.133 133.769C252.05 133.017 253.138 132.504 254.302 132.275C254.302 132.275 252.996 136.56 253.555 137.316C255.837 140.353 245.576 154.679 245.174 154.449C245.174 154.449 248.17 156.14 251.921 157.938C260.203 161.919 269.98 153.422 273.05 146.248C275.496 140.583 277.852 130.338 272.91 125.264Z" fill="#263238" stroke="#263238" stroke-width="0.611408" stroke-linecap="round" stroke-linejoin="round"/>
<path d="M192.205 146.625L184.637 178.289L200.118 185.34L205.97 155.573L192.205 146.625Z" fill="white" stroke="#263238" stroke-width="0.611408" stroke-linecap="round" stroke-linejoin="round"/>
<path d="M192.729 149.9L186.441 176.211L199.304 182.073L204.172 157.33L192.729 149.9Z" fill="#263238" stroke="#263238" stroke-width="0.611408" stroke-linecap="round" stroke-linejoin="round"/>
<path d="M205.97 155.574L227.131 156.609L223.002 187.065L200.117 185.341L205.97 155.574Z" fill="white" stroke="#263238" stroke-width="0.611408" stroke-linecap="round" stroke-linejoin="round"/>
<path d="M212.201 169.104L213.736 169.17L213.892 168.185L212.382 168.078L212.201 169.104Z" fill="#263238"/>
<path d="M215.762 176.015L216.009 174.513L213.874 174.414L213.645 175.867L215.762 176.015Z" fill="#263238"/>
<path d="M211.986 164.794L212.174 163.735L210.254 163.604L210.057 164.712L211.986 164.794Z" fill="#263238"/>
<path d="M212.938 164.843L214.399 164.909L214.555 163.907L213.118 163.809L212.938 164.843Z" fill="#263238"/>
<path d="M211.807 171.41L213.366 171.525L213.588 170.105L212.036 170.039L211.807 171.41Z" fill="#263238"/>
<path d="M217.166 167.461L217.412 165.991L215.204 165.885L214.982 167.313L217.166 167.461Z" fill="#263238"/>
<path d="M210.812 160.451L212.725 160.541L213.004 158.899L211.108 158.801L210.812 160.451Z" fill="#263238"/>
<path d="M215.065 160.649L215.319 159.023L213.957 158.949L213.678 160.583L215.065 160.649Z" fill="#263238"/>
<path d="M210.65 161.387L210.42 162.676L212.333 162.807L212.562 161.469L210.65 161.387Z" fill="#263238"/>
<path d="M214.261 165.843L212.775 165.777L212.537 167.14L214.039 167.247L214.261 165.843Z" fill="#263238"/>
<path d="M214.925 161.585L213.513 161.52L213.275 162.874L214.704 162.973L214.925 161.585Z" fill="#263238"/>
<path d="M216.469 171.739L216.715 170.253L214.54 170.154L214.318 171.591L216.469 171.739Z" fill="#263238"/>
<path d="M207.793 172.075L206.225 171.969L206.02 173.11L207.596 173.184L207.793 172.075Z" fill="#263238"/>
<path d="M207.43 174.119L205.854 174.045L205.641 175.301L207.2 175.416L207.43 174.119Z" fill="#263238"/>
<path d="M207.036 176.345L205.476 176.238L205.279 177.371L206.839 177.445L207.036 176.345Z" fill="#263238"/>
<path d="M206.676 178.379L205.108 178.305L204.887 179.569L206.438 179.684L206.676 178.379Z" fill="#263238"/>
<path d="M208.186 169.859L206.602 169.785L206.389 171.033L207.956 171.148L208.186 169.859Z" fill="#263238"/>
<path d="M208.941 165.597L207.348 165.523L207.135 166.763L208.719 166.87L208.941 165.597Z" fill="#263238"/>
<path d="M209.705 161.338L208.096 161.264L207.883 162.495L209.475 162.602L209.705 161.338Z" fill="#263238"/>
<path d="M208.547 167.806L206.971 167.699L206.766 168.849L208.35 168.922L208.547 167.806Z" fill="#263238"/>
<path d="M209.311 163.537L207.719 163.422L207.514 164.588L209.106 164.661L209.311 163.537Z" fill="#263238"/>
<path d="M218.109 161.73L215.868 161.623L215.646 163.035L217.871 163.191L218.109 161.73Z" fill="#263238"/>
<path d="M206.273 180.611L204.73 180.504L204.418 182.244L205.961 182.4L206.273 180.611Z" fill="#263238"/>
<path d="M214.688 169.218L216.863 169.317L217.019 168.398L214.835 168.25L214.688 169.218Z" fill="#263238"/>
<path d="M213.35 177.739L215.467 177.838L215.615 176.943L213.497 176.795L213.35 177.739Z" fill="#263238"/>
<path d="M214.014 173.478L216.164 173.576L216.312 172.673L214.17 172.525L214.014 173.478Z" fill="#263238"/>
<path d="M213.226 172.45L211.642 172.344L211.461 173.362L213.07 173.436L213.226 172.45Z" fill="#263238"/>
<path d="M215.312 178.772L213.21 178.674L212.98 180.135L215.065 180.283L215.312 178.772Z" fill="#263238"/>
<path d="M212.831 181.072L212.52 183.067L214.572 183.272L214.908 181.22L212.831 181.072Z" fill="#263238"/>
<path d="M209.664 166.944L211.593 167.075L211.831 165.729L209.894 165.646L209.664 166.944Z" fill="#263238"/>
<path d="M209.869 160.4L210.164 158.75L208.547 158.668L208.26 160.334L209.869 160.4Z" fill="#263238"/>
<path d="M215.352 164.95L217.568 165.056L217.716 164.129L215.499 163.973L215.352 164.95Z" fill="#263238"/>
<path d="M216.018 160.69L218.267 160.796L218.529 159.187L216.264 159.072L216.018 160.69Z" fill="#263238"/>
<path d="M212.922 174.373L211.305 174.291L211.059 175.678L212.7 175.793L212.922 174.373Z" fill="#263238"/>
<path d="M210.353 174.252L208.374 174.162L208.145 175.484L210.115 175.615L210.353 174.252Z" fill="#263238"/>
<path d="M210.903 176.613L210.73 177.615L212.405 177.697L212.561 176.728L210.903 176.613Z" fill="#263238"/>
<path d="M212.258 178.633L210.567 178.551L210.32 179.955L212.036 180.07L212.258 178.633Z" fill="#263238"/>
<path d="M207.391 179.752L209.377 179.891L209.615 178.512L207.62 178.422L207.391 179.752Z" fill="#263238"/>
<path d="M209.96 176.55L207.982 176.41L207.793 177.486L209.779 177.576L209.96 176.55Z" fill="#263238"/>
<path d="M208.547 173.224L210.517 173.315L210.697 172.28L208.736 172.141L208.547 173.224Z" fill="#263238"/>
<path d="M207.219 180.68L206.898 182.494L208.893 182.699L209.221 180.819L207.219 180.68Z" fill="#263238"/>
<path d="M211.888 181.006L210.164 180.883L209.836 182.796L211.584 182.968L211.888 181.006Z" fill="#263238"/>
<path d="M211.437 168.011L209.5 167.871L209.303 168.963L211.256 169.053L211.437 168.011Z" fill="#263238"/>
<path d="M211.092 169.989L209.138 169.898L208.9 171.212L210.854 171.343L211.092 169.989Z" fill="#263238"/>
<path d="M250.574 175.029C250.574 175.029 248.645 175.21 245.362 177.878C242.079 180.546 229.027 203.327 229.027 203.327C229.027 203.327 217.183 195.939 214.186 193.886C211.19 191.834 208.793 188.041 207.144 185.792C205.494 183.542 205.19 183.239 202.941 183.091C200.692 182.943 199.05 181.449 198.746 182.492C198.443 183.534 199.346 183.994 199.945 184.289C200.469 184.491 201.025 184.594 201.587 184.593C200.172 184.806 198.729 184.484 197.54 183.69C195.291 182.344 194.691 182.048 194.691 183.542C194.691 185.037 196.333 187.442 197.54 188.936C198.746 190.43 205.633 191.038 205.633 191.038C208.133 195.863 210.938 200.525 214.03 204.993C218.52 211.29 228.116 218.038 230.817 217.135C233.517 216.232 247.751 198.401 251.65 193.451C255.549 188.501 260.679 182.656 259.439 179.364" fill="white"/>
<path d="M250.574 175.029C250.574 175.029 248.645 175.21 245.362 177.878C242.079 180.546 229.027 203.327 229.027 203.327C229.027 203.327 217.183 195.939 214.186 193.886C211.19 191.834 208.793 188.041 207.144 185.792C205.494 183.542 205.19 183.239 202.941 183.091C200.692 182.943 199.05 181.449 198.746 182.492C198.443 183.534 199.346 183.994 199.945 184.289C200.469 184.491 201.025 184.594 201.587 184.593C200.172 184.806 198.729 184.484 197.54 183.69C195.291 182.344 194.691 182.048 194.691 183.542C194.691 185.037 196.333 187.442 197.54 188.936C198.746 190.43 205.633 191.038 205.633 191.038C208.133 195.863 210.938 200.525 214.03 204.993C218.52 211.29 228.116 218.038 230.817 217.135C233.517 216.232 247.751 198.401 251.65 193.451C255.549 188.501 260.679 182.656 259.439 179.364" stroke="#263238" stroke-width="0.611408" stroke-linecap="round" stroke-linejoin="round"/>
<path d="M210.115 189.915C208.941 188.445 207.931 186.943 207.11 185.81C205.469 183.56 205.157 183.257 202.908 183.109C200.659 182.961 199.017 181.467 198.713 182.51C198.409 183.552 199.312 184.012 199.912 184.308C200.435 184.509 200.992 184.612 201.553 184.611C200.139 184.824 198.696 184.502 197.507 183.708C195.257 182.362 194.658 182.066 194.658 183.56C194.658 185.055 196.3 187.46 197.507 188.954C198.713 190.448 205.6 191.056 205.6 191.056C205.6 191.056 205.904 191.647 206.421 192.607C207.395 191.402 208.669 190.473 210.115 189.915Z" fill="white" stroke="#263238" stroke-width="0.611408" stroke-linecap="round" stroke-linejoin="round"/>
</svg>
