<svg width="170" height="60" viewBox="0 0 180 61" fill="none" xmlns="http://www.w3.org/2000/svg">
<g clip-path="url(#clip0_59_13221)">
<g clip-path="url(#clip1_59_13221)">
<path d="M179.943 0.0761719H0.0761719V60.6406H179.943V0.0761719Z" fill="white"/>
<path d="M56.5273 37.4841V21.7065H62.2813C63.3164 21.7065 64.1764 21.8435 64.8614 22.1175C65.5616 22.3915 66.0868 22.8254 66.4369 23.419C66.8022 24.0127 66.9849 24.7814 66.9849 25.7251C66.9849 26.3949 66.9011 26.9657 66.7337 27.4376C66.5815 27.8943 66.3607 28.2748 66.0715 28.5793C65.7823 28.8837 65.4246 29.1425 64.9984 29.3556C65.455 29.5078 65.866 29.7285 66.2314 30.0177C66.6119 30.307 66.9087 30.6951 67.1218 31.1822C67.3502 31.6693 67.4643 32.2934 67.4643 33.0545C67.4643 33.8765 67.3502 34.5767 67.1218 35.1552C66.8935 35.7184 66.5586 36.175 66.1172 36.5251C65.691 36.86 65.1734 37.1036 64.5646 37.2558C63.9709 37.408 63.3011 37.4841 62.5553 37.4841H56.5273ZM58.354 35.8858H62.4868C63.1261 35.8858 63.6741 35.8021 64.1307 35.6347C64.6026 35.4672 64.9679 35.178 65.2267 34.767C65.4855 34.3408 65.6149 33.7471 65.6149 32.986C65.6149 32.3924 65.5007 31.9129 65.2724 31.5476C65.0593 31.1822 64.7853 30.9082 64.4504 30.7256C64.1155 30.5429 63.7654 30.4211 63.4001 30.3602C63.0347 30.2994 62.6999 30.2689 62.3954 30.2689H58.354V35.8858ZM58.354 28.6706H62.3726C63.0271 28.6706 63.5523 28.5717 63.9481 28.3738C64.3591 28.1607 64.6559 27.8486 64.8386 27.4376C65.0364 27.0266 65.1354 26.5091 65.1354 25.885C65.1354 24.9869 64.8918 24.3323 64.4047 23.9213C63.9328 23.5103 63.2022 23.3049 62.2128 23.3049H58.354V28.6706Z" fill="#2A2FB8"/>
<path d="M70.2949 37.4841V26.0676H72.0531V37.4841H70.2949ZM70.2949 23.5559V21.501H72.0531V23.5559H70.2949Z" fill="#2A2FB8"/>
<path d="M74.6562 37.4841V35.8858L80.9582 27.6659H74.6562V26.0676H83.1273V27.6659L76.8254 35.8858H83.1273V37.4841H74.6562Z" fill="#2A2FB8"/>
<path d="M86.0039 37.4841V21.7065H89.406L95.3426 35.863H95.7993V21.7065H97.6259V37.4841H94.2923L88.2644 23.3277H87.8305V37.4841H86.0039Z" fill="#2A2FB8"/>
<path d="M105.115 37.7125C103.974 37.7125 103.068 37.4918 102.398 37.0503C101.744 36.6089 101.272 35.9544 100.983 35.0867C100.693 34.2191 100.549 33.1383 100.549 31.8444C100.549 30.3983 100.747 29.2415 101.142 28.3738C101.538 27.4909 102.094 26.8516 102.809 26.4558C103.525 26.0449 104.37 25.8394 105.344 25.8394C106.866 25.8394 108.015 26.2656 108.792 27.118C109.568 27.9552 109.956 29.31 109.956 31.1823L109.865 32.5294H102.353C102.368 33.7167 102.589 34.6148 103.015 35.2237C103.441 35.8326 104.21 36.137 105.321 36.137C105.747 36.137 106.211 36.1294 106.714 36.1142C107.231 36.0838 107.741 36.0533 108.244 36.0229C108.746 35.9924 109.172 35.962 109.522 35.9315L109.568 37.3243C109.203 37.3852 108.753 37.4461 108.221 37.507C107.703 37.5679 107.17 37.6136 106.622 37.644C106.074 37.6897 105.572 37.7125 105.115 37.7125ZM102.353 31.0909H108.175C108.175 29.6905 107.947 28.7163 107.49 28.1683C107.049 27.6051 106.333 27.3235 105.344 27.3235C104.704 27.3235 104.164 27.4529 103.723 27.7117C103.281 27.9552 102.939 28.351 102.695 28.899C102.467 29.447 102.353 30.1776 102.353 31.0909Z" fill="#2A2FB8"/>
<path d="M116.281 37.7353C115.49 37.7353 114.858 37.6135 114.386 37.37C113.929 37.1264 113.602 36.7078 113.404 36.1142C113.206 35.5053 113.107 34.6529 113.107 33.5569V27.5975H111.486V26.0677H113.107V22.5742H114.866V26.0677H118.45V27.5975H114.866V33.0317C114.866 33.8385 114.896 34.4702 114.957 34.9269C115.033 35.3683 115.185 35.6803 115.414 35.863C115.642 36.0457 116 36.137 116.487 36.137C116.639 36.137 116.837 36.1294 117.08 36.1142C117.324 36.099 117.568 36.0837 117.811 36.0685C118.07 36.0381 118.298 36.0152 118.496 36L118.61 37.4842C118.397 37.5146 118.146 37.545 117.857 37.5755C117.568 37.6212 117.278 37.6592 116.989 37.6897C116.715 37.7201 116.479 37.7353 116.281 37.7353Z" fill="#2A2FB8"/>
<path d="M122.31 37.4841L119.615 26.0676H121.396L123.634 35.9543H124.022L126.693 26.296H128.543L131.214 35.9543H131.603L133.84 26.0676H135.621L132.927 37.4841H129.981L127.607 28.6478L125.255 37.4841H122.31Z" fill="#2A2FB8"/>
<path d="M142.242 37.7125C140.963 37.7125 139.966 37.4918 139.251 37.0503C138.55 36.6089 138.056 35.9391 137.766 35.041C137.492 34.1429 137.355 33.0089 137.355 31.6389C137.355 30.3298 137.508 29.2491 137.812 28.3966C138.132 27.5442 138.649 26.9049 139.365 26.4787C140.08 26.0525 141.039 25.8394 142.242 25.8394C143.459 25.8394 144.426 26.0525 145.142 26.4787C145.857 26.9049 146.367 27.5442 146.671 28.3966C146.991 29.2491 147.151 30.3298 147.151 31.6389C147.151 33.0089 147.006 34.1429 146.717 35.041C146.443 35.9391 145.948 36.6089 145.233 37.0503C144.533 37.4918 143.536 37.7125 142.242 37.7125ZM142.242 36.1827C143.125 36.1827 143.787 36.0305 144.228 35.726C144.67 35.4064 144.959 34.9117 145.096 34.2419C145.248 33.5721 145.324 32.7045 145.324 31.6389C145.324 30.5886 145.233 29.7514 145.05 29.1273C144.868 28.5032 144.555 28.0542 144.114 27.7802C143.673 27.5062 143.048 27.3692 142.242 27.3692C141.45 27.3692 140.826 27.5062 140.369 27.7802C139.928 28.0542 139.616 28.5032 139.433 29.1273C139.251 29.7514 139.159 30.5886 139.159 31.6389C139.159 32.7045 139.228 33.5721 139.365 34.2419C139.517 34.9117 139.814 35.4064 140.255 35.726C140.697 36.0305 141.359 36.1827 142.242 36.1827Z" fill="#2A2FB8"/>
<path d="M149.938 37.4841V26.0676H151.696V27.5974C151.985 27.3995 152.35 27.1864 152.792 26.9581C153.233 26.7145 153.72 26.4862 154.253 26.2731C154.786 26.06 155.318 25.9077 155.851 25.8164V27.6202C155.334 27.7268 154.809 27.8714 154.276 28.054C153.743 28.2215 153.248 28.4041 152.792 28.602C152.35 28.7999 151.985 28.975 151.696 29.1272V37.4841H149.938Z" fill="#2A2FB8"/>
<path d="M167.632 40.8177L165.623 37.5069C165.379 37.5678 165.09 37.6135 164.755 37.6439C164.435 37.6896 164.1 37.7124 163.75 37.7124C162.106 37.7124 160.828 37.4156 159.914 36.8219C159.016 36.213 158.385 35.3149 158.019 34.1276C157.669 32.9251 157.494 31.4409 157.494 29.6752C157.494 27.9247 157.677 26.4405 158.042 25.2228C158.407 24.005 159.039 23.0765 159.937 22.4371C160.851 21.7826 162.122 21.4553 163.75 21.4553C165.379 21.4553 166.643 21.775 167.541 22.4143C168.454 23.0536 169.093 23.9898 169.459 25.2228C169.824 26.4405 170.007 27.9247 170.007 29.6752C170.007 31.5171 169.816 33.0316 169.436 34.219C169.07 35.4063 168.393 36.2891 167.404 36.8676L169.344 40.0185L167.632 40.8177ZM163.75 36.0913C164.953 36.0913 165.866 35.8629 166.49 35.4063C167.114 34.9496 167.541 34.2494 167.769 33.3056C167.997 32.3467 168.111 31.1365 168.111 29.6752C168.111 28.2596 167.99 27.0646 167.746 26.0904C167.518 25.101 167.092 24.3551 166.468 23.8528C165.843 23.3352 164.938 23.0765 163.75 23.0765C162.563 23.0765 161.657 23.3352 161.033 23.8528C160.409 24.3551 159.975 25.0934 159.732 26.0676C159.503 27.0418 159.389 28.2443 159.389 29.6752C159.389 31.1061 159.503 32.301 159.732 33.26C159.96 34.2037 160.386 34.9116 161.01 35.3834C161.635 35.8553 162.548 36.0913 163.75 36.0913Z" fill="#2A2FB8"/>
<path d="M14.4051 8.95089C14.3914 8.98515 14.3845 14.5199 14.3914 21.2396L14.4119 33.4598L19.7069 33.4461C24.2484 33.4324 25.0018 33.4461 25.0361 33.5283C25.0566 33.5831 25.0429 33.8503 25.0155 34.1311L24.9607 34.638L19.6863 34.6722L14.4119 34.7065V42.6866V50.6667H15.1517H15.8915L15.9052 47.2076L15.9189 43.7484L19.8918 43.7141L23.8648 43.6799L23.899 41.3509L23.9333 39.0219H24.447H24.9607L24.995 42.2071L25.0292 45.3923L27.3788 45.4129C29.2351 45.4266 29.7351 45.4129 29.7557 45.3375C29.7762 45.2896 29.7968 42.6044 29.8105 39.3713L29.8242 33.4941L32.5641 33.4804L35.3041 33.4735V31.5555V29.6376H30.1667H25.0292L24.995 30.1856L24.9607 30.7336L20.4878 30.7541L16.0216 30.7678L15.9531 30.5897C15.8778 30.3979 15.8709 18.7873 15.9394 18.1709L15.9874 17.801L16.6039 17.7873C16.9395 17.7736 17.282 17.7941 17.3711 17.8284L17.5286 17.8832L17.5423 23.0754L17.5629 28.2676H26.4335H35.3041V24.5344V20.8012L32.6395 20.7807C30.8106 20.7738 29.9475 20.7396 29.879 20.6916C29.8105 20.63 29.7899 20.1779 29.7899 18.4722V16.3351L28.0637 16.2871C27.1116 16.2597 24.0155 16.2597 21.1796 16.2734C17.145 16.3077 16.0148 16.294 15.9737 16.2255C15.9463 16.1844 15.912 14.5062 15.8983 12.5128L15.8846 8.8824H15.1585C14.7339 8.8824 14.4188 8.90979 14.4051 8.95089ZM24.9607 32.1035V32.72H20.4741H15.9874L15.9326 32.1857C15.8915 31.7953 15.8983 31.624 15.9531 31.5487C16.0285 31.4665 16.6655 31.4528 20.5015 31.4665L24.9607 31.487V32.1035ZM17.5149 37.8848C17.5286 39.7001 17.5081 40.3988 17.4533 40.4741C17.3916 40.5426 17.2067 40.5632 16.6792 40.5495L15.9874 40.5289L15.9463 39.7069C15.9189 39.2548 15.8983 38.1246 15.8915 37.193C15.8846 35.6518 15.8983 35.4942 16.0079 35.4326C16.0696 35.3915 16.4258 35.3641 16.8094 35.3778L17.4944 35.3915L17.5149 37.8848Z" fill="#2A2FB8"/>
<path d="M17.5725 9.71184C17.5519 9.75294 17.5519 10.1571 17.5588 10.6092L17.5793 11.4243H26.4499H35.3206V10.5338V9.64334L26.4568 9.63649C20.0042 9.63649 17.593 9.65704 17.5725 9.71184Z" fill="#2A2FB8"/>
<path d="M36.3714 9.16455C36.3577 9.20565 36.3372 9.91804 36.3303 10.7469L36.3098 12.2538L34.5768 12.2881L32.8438 12.3223L32.8506 15.9528C32.8506 17.9461 32.878 19.6038 32.9054 19.6312C32.9328 19.6586 33.7137 19.6928 34.6316 19.6997L36.3098 19.7202L36.344 26.7071L36.3783 33.694L40.4882 33.7283L44.5982 33.7625V34.3105V34.8585L42.8514 34.8927L41.1047 34.927V37.0847V39.2424H43.2967H45.4887L45.5229 38.6602L45.5572 38.0779H46.0024H46.4476L46.4819 38.6602L46.5161 39.2424H46.8518H47.1874V33.968V28.6936L44.1461 28.7073L41.1047 28.7141L41.0705 30.2485L41.0362 31.776H40.5225H40.0087V26.8441V21.9122L44.4612 21.878L48.9136 21.8437L48.9342 20.2956L48.9479 18.7475L48.3656 18.6996C48.0437 18.6722 46.0572 18.6585 43.9543 18.6653C41.8514 18.6722 40.0909 18.6517 40.0498 18.6311C39.995 18.5969 39.9745 17.2474 39.9745 13.8225V9.0618L38.1867 9.0755C36.9742 9.0892 36.392 9.1166 36.3714 9.16455ZM46.4476 30.2006V30.8171H46.0366H45.6257L45.564 30.2896C45.4818 29.5635 45.4955 29.5361 46.0161 29.5635L46.4476 29.5841V30.2006ZM46.4476 32.2898V32.872L46.0846 32.8926C45.5777 32.92 45.5229 32.8583 45.5229 32.2555C45.5229 31.9884 45.5435 31.7418 45.5709 31.7144C45.5983 31.687 45.8038 31.6733 46.0366 31.687L46.4476 31.7075V32.2898ZM46.4476 34.3448V34.927H46.0024H45.5572L45.5366 34.4201C45.5092 33.7214 45.5092 33.7146 46.0161 33.742L46.4476 33.7625V34.3448ZM46.4682 36.4751C46.4887 37.2012 46.4339 37.2765 45.9476 37.1806C45.6668 37.1258 45.6188 37.0916 45.5846 36.9135C45.5229 36.6258 45.5161 35.9545 45.5709 35.8928C45.5983 35.8654 45.8038 35.8517 46.0366 35.8654L46.4476 35.886L46.4682 36.4751Z" fill="#2A2FB8"/>
<path d="M41.2887 9.5672C41.2682 9.61514 41.2613 11.492 41.2682 13.7319L41.2887 17.8076H41.597H41.9052V13.6634V9.51925L41.6107 9.4987C41.4189 9.485 41.3093 9.50555 41.2887 9.5672Z" fill="#2A2FB8"/>
<path d="M42.8338 9.51313C42.8201 9.52683 42.8201 11.4037 42.8406 13.6779L42.8749 17.8083H45.9231H48.9713V13.6642V9.51998L45.9162 9.49943C44.238 9.49258 42.8543 9.49943 42.8338 9.51313Z" fill="#2A2FB8"/>
<path d="M17.657 12.8529C17.6433 12.9008 17.6365 13.5516 17.6433 14.3051L17.6639 15.675H24.3083H30.9527V14.2366V12.7981L24.322 12.7775C18.979 12.7638 17.6844 12.7775 17.657 12.8529Z" fill="#2A2FB8"/>
<path d="M9.57976 14.406C9.55921 14.454 9.55236 22.2492 9.55921 31.7226L9.57976 48.9501L10.1004 48.9706C10.4839 48.9843 10.6415 48.9638 10.6963 48.8953C10.7579 48.8199 10.7716 44.5387 10.7648 31.5787L10.7442 14.3581L10.1757 14.3375C9.76471 14.3238 9.60031 14.3444 9.57976 14.406Z" fill="#2A2FB8"/>
<path d="M31.125 18.5063L31.1456 20.0681H31.5908H32.0361V18.5269V16.9857L31.5703 16.9651L31.1113 16.9446L31.125 18.5063Z" fill="#2A2FB8"/>
<path d="M13.0056 19.6916C12.9851 19.7053 12.9851 26.6922 13.0056 35.2204L13.0399 50.7148L13.3139 50.7217L13.5879 50.7285V35.2135V19.6985L13.3139 19.6779C13.1563 19.6642 13.0193 19.6711 13.0056 19.6916Z" fill="#2A2FB8"/>
<path d="M41.1593 23.5814C41.1456 23.602 41.1319 24.2048 41.125 24.924L41.1113 26.2323L41.4059 26.2597C41.5703 26.2734 43.3375 26.2734 45.3309 26.2529L48.9613 26.2186V24.8829V23.5472H45.0706C42.9266 23.5472 41.1661 23.5609 41.1593 23.5814Z" fill="#2A2FB8"/>
<path d="M41.1393 27.1649C41.1256 27.206 41.1188 27.343 41.1325 27.4731L41.153 27.6992L44.6807 27.7334L48.2084 27.7677L48.2427 33.549L48.2769 39.3303L48.6126 39.3371L48.9413 39.344L48.9345 33.2476L48.9276 27.1512L48.092 27.1375C45.0369 27.0758 41.1667 27.0895 41.1393 27.1649Z" fill="#2A2FB8"/>
<path d="M35.0533 34.8735L34.7656 34.8941L34.7793 42.8537L34.7999 50.8132H35.1081H35.4164L35.4369 42.8742C35.4438 38.504 35.4301 34.9146 35.4027 34.8941C35.3684 34.8667 35.2177 34.8598 35.0533 34.8735Z" fill="#2A2FB8"/>
<path d="M36.3509 34.9435C36.3372 34.9778 36.344 37.6629 36.3646 40.9235L36.3988 46.8486H42.6665H48.9341V46.5746V46.3006L45.1119 46.2938C43.009 46.2869 41.276 46.2664 41.2554 46.2458C41.2349 46.2253 41.2143 45.4444 41.2075 44.5128L41.1938 42.8072L45.0639 42.7729L48.9341 42.7387L48.9547 41.629L48.9684 40.5125L44.5023 40.4988L40.0293 40.4782L39.995 37.704L39.9608 34.9298L38.1661 34.9093C37.1797 34.9024 36.3646 34.9161 36.3509 34.9435Z" fill="#2A2FB8"/>
<path d="M31.3319 38.6205L31.0031 38.6478L30.9894 42.703L30.9688 46.7581L24.2559 46.7924L17.5431 46.8266L17.5225 47.1486L17.502 47.4774L21.2557 47.4911L25.0094 47.5116V47.9911V48.4706L21.2762 48.5048L17.5431 48.5391L17.5225 48.6898C17.5088 48.772 17.5362 48.9021 17.5773 48.9843L17.6527 49.1213L25.6122 49.1076L33.5718 49.0871V43.8469V38.6068L32.6128 38.5999C32.0854 38.5999 31.51 38.6068 31.3319 38.6205Z" fill="#2A2FB8"/>
<path d="M11.771 39.0069L11.5176 39.0275L11.5313 44.9321L11.5518 50.8367L11.8258 50.8298L12.0998 50.823L12.1204 44.9458C12.1272 41.7058 12.1135 39.048 12.0861 39.0206C12.0519 39.0001 11.9149 38.9932 11.771 39.0069Z" fill="#2A2FB8"/>
<path d="M36.3928 48.0095C36.3722 48.0506 36.3722 48.7151 36.3791 49.4822L36.3996 50.8865H42.6673H48.935V49.4137V47.941H42.6741C38.3176 47.9342 36.4065 47.9616 36.3928 48.0095Z" fill="#2A2FB8"/>
<path d="M9.57351 50.2015C9.52556 50.3385 9.56666 50.9071 9.63516 50.8797C9.66256 50.8728 9.9297 50.866 10.2379 50.866H10.7859L10.7654 50.5098L10.7448 50.1536L10.1763 50.1262C9.73106 50.1056 9.60776 50.1262 9.57351 50.2015Z" fill="#2A2FB8"/>
<path d="M17.5306 50.2155C17.5169 50.2566 17.5306 50.4142 17.5649 50.558L17.6197 50.832H25.593H33.5731L33.5936 50.5375C33.6073 50.3457 33.5868 50.2361 33.5251 50.2155C33.3333 50.1402 17.558 50.147 17.5306 50.2155Z" fill="#2A2FB8"/>
</g>
</g>
<defs>
<clipPath id="clip0_59_13221">
<rect width="180" height="60.6977" fill="white"/>
</clipPath>
<clipPath id="clip1_59_13221">
<rect width="180" height="60.6977" fill="white"/>
</clipPath>
</defs>
</svg>
