<svg width="280" height="280" viewBox="0 0 280 280" fill="none" xmlns="http://www.w3.org/2000/svg">
<path d="M61.6 238.56C106.456 259.935 179.144 259.935 224 238.56C268.856 217.185 268.8 182.56 224 161.185C179.2 139.809 106.478 139.815 61.6448 161.185C16.8112 182.554 16.8 217.196 61.6 238.56Z" fill="#EBEBEB"/>
<path d="M206.124 79.6885L208.185 78.1037V73.5677C208.185 69.9781 211.047 65.8061 214.16 64.0085C217.274 62.2109 219.8 63.6669 219.8 67.2621V67.9173C220.454 66.8545 221.348 65.959 222.409 65.3021C224.649 64.0085 226.469 65.0557 226.469 67.6429V67.9453L230.591 65.5653C232.064 64.7141 233.262 65.4029 233.262 67.1053C233.211 68.0319 232.943 68.9336 232.479 69.7372C232.015 70.5408 231.368 71.2238 230.591 71.7309L206.124 85.8541C204.652 86.7053 203.453 86.0165 203.453 84.3141C203.504 83.3875 203.772 82.4858 204.236 81.6822C204.7 80.8785 205.347 80.1955 206.124 79.6885Z" fill="#EBEBEB"/>
<path d="M58.291 202.967C57.9998 202.916 57.6918 202.827 57.3446 202.737C56.1745 202.423 55.0212 202.049 53.8894 201.617C51.632 200.798 49.5031 199.661 47.567 198.24C46.5052 197.485 45.5968 196.535 44.8902 195.44C44.184 194.332 43.9332 192.994 44.1902 191.705C44.3325 191.069 44.6538 190.487 45.1162 190.028C45.5786 189.568 46.1628 189.251 46.7998 189.112C47.399 189.017 48.0206 189.112 48.6198 189.006C48.9266 188.981 49.2176 188.86 49.4502 188.658C49.6829 188.457 49.8452 188.186 49.9134 187.886C49.9158 187.543 49.8228 187.205 49.6446 186.912C48.5566 184.919 47.6206 182.846 46.8446 180.712C46.195 178.808 46.1559 176.749 46.7326 174.821C47.2224 172.903 48.271 171.175 49.7454 169.854C50.4174 169.294 51.347 168.812 52.159 169.165C52.4172 169.297 52.6439 169.482 52.8237 169.709C53.0035 169.936 53.1321 170.2 53.2006 170.481C53.326 171.044 53.3898 171.618 53.391 172.195C53.471 173.435 53.7081 174.66 54.0966 175.84C54.2705 176.578 54.6938 177.233 55.295 177.694C56.3366 178.344 57.7702 177.834 58.879 178.36C59.9878 178.887 60.3686 180.096 60.419 181.239C60.4694 182.381 60.2398 183.535 60.3686 184.672C60.3912 185.03 60.5049 185.377 60.699 185.68C61.0073 186.01 61.3642 186.291 61.7574 186.514C62.274 186.941 62.6881 187.479 62.9692 188.088C63.2502 188.696 63.3911 189.36 63.3814 190.031C63.3474 191.37 63.092 192.695 62.6254 193.951C62.1113 195.707 61.7368 197.501 61.5054 199.316C61.3229 200.428 60.8517 201.472 60.139 202.345C59.9276 202.621 59.6389 202.827 59.3098 202.938C58.9806 203.048 58.6259 203.059 58.291 202.967Z" fill="#4338CA"/>
<path d="M60.1506 202.037C60.1176 202.037 60.0853 202.028 60.0568 202.011C60.0284 201.995 60.0047 201.971 59.9882 201.942C53.453 190.921 51.3866 183.16 50.7986 178.585C50.1546 173.601 51.0618 171.265 51.101 171.17C51.1102 171.147 51.1239 171.125 51.1414 171.107C51.1589 171.089 51.1799 171.074 51.203 171.064C51.2261 171.054 51.2511 171.048 51.2763 171.048C51.3016 171.047 51.3267 171.052 51.3502 171.061C51.3737 171.07 51.3952 171.084 51.4135 171.101C51.4317 171.119 51.4463 171.14 51.4564 171.163C51.4666 171.186 51.4721 171.211 51.4726 171.236C51.4731 171.262 51.4686 171.287 51.4594 171.31C51.4594 171.349 50.5522 173.696 51.185 178.59C51.745 183.121 53.8394 190.815 60.3186 201.752C60.3317 201.773 60.3404 201.797 60.3441 201.823C60.3478 201.848 60.3465 201.873 60.3402 201.898C60.334 201.922 60.3229 201.945 60.3076 201.965C60.2924 201.985 60.2733 202.002 60.2514 202.015C60.22 202.03 60.1855 202.038 60.1506 202.037Z" fill="white"/>
<path d="M56.6561 195.647C48.6929 194.774 46.4417 192.158 46.3465 192.046C46.311 192.011 46.291 191.962 46.291 191.912C46.291 191.862 46.311 191.813 46.3465 191.778C46.3638 191.759 46.3847 191.745 46.4078 191.735C46.4309 191.725 46.4558 191.72 46.4809 191.72C46.5061 191.72 46.531 191.725 46.5541 191.735C46.5772 191.745 46.5981 191.759 46.6153 191.778C46.6153 191.806 48.8889 194.387 56.6673 195.244C56.7129 195.252 56.7543 195.276 56.7841 195.311C56.814 195.346 56.8303 195.391 56.8303 195.437C56.8303 195.484 56.814 195.528 56.7841 195.564C56.7543 195.599 56.7129 195.623 56.6673 195.63L56.6561 195.647Z" fill="white"/>
<path d="M54.4108 190.686C54.3684 190.686 54.3271 190.672 54.2932 190.647C54.2732 190.632 54.2564 190.612 54.2439 190.591C54.2314 190.569 54.2233 190.545 54.2202 190.52C54.2171 190.495 54.219 190.469 54.2257 190.445C54.2325 190.421 54.244 190.398 54.2596 190.378C56.7852 187.057 56.9476 181.614 56.9532 181.558C56.9531 181.533 56.9582 181.508 56.9682 181.485C56.9782 181.462 56.9928 181.441 57.0112 181.423C57.0296 181.406 57.0513 181.393 57.075 181.384C57.0987 181.376 57.124 181.372 57.1492 181.373C57.1744 181.373 57.1994 181.378 57.2226 181.388C57.2458 181.398 57.2667 181.413 57.284 181.431C57.3013 181.45 57.3147 181.471 57.3233 181.495C57.3319 181.519 57.3355 181.544 57.334 181.569C57.334 181.799 57.166 187.169 54.5676 190.608C54.5493 190.632 54.5256 190.652 54.4984 190.665C54.4712 190.679 54.4412 190.686 54.4108 190.686Z" fill="white"/>
<path d="M217.617 168.93C218.39 163.722 218.401 157.366 214.576 148.081C210.752 138.796 211.939 133.93 216.038 132.603C220.137 131.276 229.22 138.326 228.884 150.181C228.554 161.628 220.82 171.08 220.82 171.08L217.617 168.93Z" fill="#4338CA"/>
<path opacity="0.1" d="M217.617 168.93C218.39 163.722 218.401 157.366 214.576 148.081C210.752 138.796 211.939 133.93 216.038 132.603C220.137 131.276 229.22 138.326 228.884 150.181C228.554 161.628 220.82 171.08 220.82 171.08L217.617 168.93Z" fill="black"/>
<path d="M219.616 170.464C219.592 170.469 219.567 170.469 219.543 170.464C219.52 170.455 219.498 170.441 219.48 170.423C219.462 170.405 219.447 170.384 219.438 170.36C219.429 170.337 219.424 170.311 219.425 170.286C219.426 170.26 219.432 170.235 219.443 170.212C219.482 170.117 223.671 160.334 223.363 151.452C223.015 141.232 217.354 135.61 217.298 135.554C217.28 135.536 217.265 135.515 217.256 135.492C217.246 135.469 217.241 135.444 217.24 135.419C217.24 135.393 217.245 135.368 217.254 135.345C217.264 135.322 217.277 135.3 217.295 135.282C217.313 135.264 217.334 135.25 217.357 135.24C217.38 135.23 217.405 135.225 217.43 135.225C217.456 135.224 217.481 135.229 217.504 135.238C217.527 135.248 217.549 135.262 217.567 135.279C217.623 135.335 223.391 141.053 223.727 151.441C224.035 160.401 219.807 170.268 219.773 170.363C219.757 170.392 219.735 170.416 219.707 170.434C219.68 170.451 219.649 170.462 219.616 170.464Z" fill="white"/>
<path d="M217.84 173.55C217.84 173.55 220.001 160.962 227.673 153.726C235.345 146.491 248.136 145.114 252.145 148.978C256.155 152.842 253.585 156.599 247.934 157.904C241.55 159.377 237.636 161.953 241.55 163.924C245.185 165.75 244.776 169.709 240.99 171.607C234.942 174.642 224.022 171.753 221.39 177.722L217.84 173.55Z" fill="#4338CA"/>
<path d="M219.465 176.216H219.403C219.355 176.198 219.316 176.162 219.295 176.116C219.273 176.07 219.269 176.018 219.286 175.969C221.054 171.047 223.78 166.523 227.305 162.658C230.068 159.67 233.303 157.156 236.881 155.216C240.436 153.254 244.305 151.927 248.316 151.296C248.367 151.291 248.418 151.307 248.458 151.339C248.498 151.372 248.523 151.418 248.529 151.469C248.532 151.494 248.53 151.52 248.523 151.544C248.517 151.568 248.505 151.591 248.489 151.611C248.474 151.631 248.454 151.647 248.432 151.659C248.41 151.672 248.386 151.679 248.361 151.682C244.391 152.32 240.562 153.646 237.049 155.602C231.449 158.643 223.85 164.674 219.633 176.126C219.614 176.154 219.589 176.176 219.56 176.192C219.531 176.208 219.498 176.216 219.465 176.216Z" fill="white"/>
<path d="M223.357 168.297C223.317 168.297 223.277 168.285 223.244 168.262C223.211 168.239 223.186 168.206 223.172 168.168C223.156 168.12 223.159 168.067 223.181 168.021C223.203 167.975 223.242 167.939 223.29 167.922C229.836 165.637 239.222 166.835 239.317 166.846C239.342 166.85 239.366 166.858 239.388 166.871C239.41 166.883 239.429 166.9 239.444 166.92C239.46 166.94 239.471 166.963 239.478 166.987C239.484 167.012 239.486 167.037 239.482 167.062C239.479 167.087 239.471 167.111 239.458 167.133C239.446 167.155 239.429 167.174 239.409 167.189C239.389 167.205 239.366 167.216 239.342 167.222C239.317 167.229 239.292 167.231 239.267 167.227C239.177 167.227 229.876 166.029 223.419 168.286C223.4 168.295 223.378 168.299 223.357 168.297Z" fill="white"/>
<path d="M66.3326 39.1993C66.2857 38.3345 66.0357 37.4928 65.6027 36.7426C65.1698 35.9924 64.566 35.3549 63.8406 34.8817L61.8078 33.7057C61.0356 33.3137 60.1818 33.1094 59.3158 33.1094C58.4498 33.1094 57.596 33.3137 56.8238 33.7057L40.7462 42.9849C39.9805 43.4661 39.3548 44.1401 38.9318 44.9393C38.5675 45.5744 38.3387 46.2779 38.2598 47.0057C38.2598 47.1065 38.2598 47.2073 38.2598 47.3081V65.8665C38.3072 66.7319 38.5581 67.5739 38.9921 68.3241C39.426 69.0743 40.0308 69.7116 40.7574 70.1841L42.7846 71.3601L43.0422 71.4945L43.1374 71.5337L43.311 71.6065L43.4454 71.6569L43.591 71.7073L43.7534 71.7521L43.8766 71.7857L44.067 71.8305H44.1622L44.3918 71.8697H44.4366C45.5846 72.0579 46.7628 71.8714 47.7966 71.3377L63.8406 62.0809C64.5672 61.6072 65.172 60.9689 65.6059 60.2178C66.0398 59.4667 66.2907 58.6239 66.3382 57.7577L66.3326 39.1993Z" fill="#4338CA"/>
<path opacity="0.4" d="M45.9988 48.9041C45.7109 49.381 45.4957 49.8982 45.3604 50.4385C45.6948 49.0389 46.555 47.8216 47.7628 47.0393L63.8404 37.7601C65.218 36.9649 66.338 37.6089 66.338 39.1993C66.2906 38.334 66.0397 37.492 65.6057 36.7418C65.1718 35.9916 64.567 35.3543 63.8404 34.8817L61.8076 33.7057C61.0355 33.3137 60.1817 33.1094 59.3156 33.1094C58.4496 33.1094 57.5958 33.3137 56.8236 33.7057L40.746 42.9849C39.9804 43.4661 39.3546 44.1401 38.9316 44.9393L38.982 44.8497L45.9988 48.9041Z" fill="white"/>
<path opacity="0.1" d="M47.2478 71.5952L47.1302 71.6288L46.9286 71.668H46.7382H46.5422C46.3106 71.651 46.0889 71.5674 45.9038 71.4272L45.8142 71.3432L45.7638 71.2984L45.6966 71.2144L45.6406 71.1416L45.5846 71.052L45.5342 70.9624C45.5342 70.9624 45.5342 70.9008 45.495 70.8672C45.4777 70.8328 45.4627 70.7972 45.4502 70.7608L45.3606 70.6712V70.5592C45.3606 70.5256 45.3606 70.492 45.3606 70.4584C45.3575 70.4043 45.3575 70.3501 45.3606 70.296C45.3575 70.2662 45.3575 70.2362 45.3606 70.2064C45.3606 70.1224 45.3606 70.0328 45.3606 69.9376V51.3624C45.3609 51.1616 45.3777 50.9612 45.411 50.7632C45.411 50.6904 45.411 50.612 45.4558 50.5392V50.4496C45.584 49.9105 45.7916 49.3934 46.0718 48.9152L38.9822 44.8496L38.9318 44.9392C38.5675 45.5742 38.3387 46.2778 38.2598 47.0056C38.2598 47.1064 38.2598 47.2072 38.2598 47.308V65.8664C38.3072 66.7318 38.5581 67.5738 38.9921 68.324C39.426 69.0742 40.0308 69.7115 40.7574 70.184L42.7846 71.36L43.0422 71.4944L43.1374 71.5336L43.311 71.6064L43.4454 71.6568L43.591 71.7072L43.7534 71.752L43.8766 71.7856L44.067 71.8304H44.1622L44.3918 71.8696H44.4366C45.3819 72.0133 46.3481 71.9189 47.2478 71.5952Z" fill="black"/>
<path d="M59.3101 56.2182C60.3839 53.8194 60.9337 51.2192 60.9229 48.591C61.4475 47.7771 61.8884 46.9121 62.2389 46.0094C61.7868 46.5395 61.2779 47.0184 60.7213 47.4374C61.2861 46.6479 61.6808 45.7498 61.8805 44.7998C61.3958 45.4736 60.8317 46.0866 60.2005 46.6254C59.9212 46.4177 59.5825 46.3055 59.2345 46.3055C58.8864 46.3055 58.5477 46.4177 58.2685 46.6254C56.5885 47.611 55.3117 50.4558 55.6981 52.4382C53.5029 53.5582 51.5541 53.2782 50.2549 51.8782C49.5605 53.8606 49.8965 55.7422 51.0725 56.1062C50.7126 56.3223 50.2905 56.4111 49.8741 56.3582C49.8741 58.0382 50.7197 59.0294 51.9909 58.6318C51.6539 58.9674 51.2464 59.2237 50.7981 59.3822C51.1341 60.5862 52.1085 61.0622 53.2677 60.407C52.3653 62.0116 50.9988 63.3058 49.3477 64.1198C50.5125 64.4446 51.9013 64.2262 53.3965 63.3638C56.0061 61.8574 58.0109 59.1302 59.2933 56.179" fill="white"/>
<path d="M66.3328 106.775C66.2826 105.914 66.0309 105.076 65.5981 104.33C65.1653 103.584 64.5634 102.95 63.8408 102.479L61.808 101.303C61.0358 100.911 60.182 100.707 59.316 100.707C58.45 100.707 57.5962 100.911 56.824 101.303L40.752 110.583C39.9863 111.064 39.3606 111.738 38.9376 112.537C38.5734 113.172 38.3446 113.876 38.2656 114.603C38.2656 114.704 38.2656 114.805 38.2656 114.906V133.464C38.3146 134.324 38.5646 135.161 38.9954 135.907C39.4263 136.653 40.026 137.287 40.7464 137.759L42.7736 138.935L43.0312 139.064L43.1264 139.109L43.3 139.182L43.4344 139.232L43.58 139.283L43.7424 139.327L43.8656 139.361L44.056 139.406H44.1512L44.3808 139.445H44.4256C45.5767 139.625 46.755 139.428 47.7856 138.885L63.8408 129.656C64.5675 129.182 65.1722 128.544 65.6062 127.793C66.0401 127.042 66.291 126.199 66.3384 125.333L66.3328 106.775Z" fill="#4338CA"/>
<path opacity="0.4" d="M45.9991 116.479C45.719 116.958 45.5114 117.475 45.3831 118.014C45.7119 116.618 46.5638 115.401 47.7631 114.615L63.8407 105.335C65.2183 104.54 66.3383 105.184 66.3383 106.775C66.2874 105.913 66.0349 105.076 65.6011 104.33C65.1673 103.583 64.5643 102.95 63.8407 102.479L61.8079 101.303C61.0357 100.911 60.1819 100.707 59.3159 100.707C58.4499 100.707 57.5961 100.911 56.8239 101.303L40.7519 110.583C39.9862 111.064 39.3605 111.738 38.9375 112.537L38.9879 112.447L45.9991 116.479Z" fill="white"/>
<path opacity="0.1" d="M47.2483 139.171L47.1307 139.205C47.0648 139.225 46.9973 139.24 46.9291 139.249H46.7387H46.5427C46.3111 139.232 46.0894 139.149 45.9043 139.009L45.8147 138.925L45.7643 138.88L45.6971 138.79L45.6411 138.723L45.5851 138.633L45.5347 138.544C45.5347 138.51 45.5347 138.482 45.4955 138.449C45.4772 138.413 45.4622 138.375 45.4507 138.337L45.4171 138.241L45.3835 138.107C45.3835 138.107 45.3835 138.045 45.3835 138.012C45.3804 137.958 45.3804 137.903 45.3835 137.849C45.3804 137.82 45.3804 137.79 45.3835 137.76C45.3835 137.676 45.3835 137.581 45.3835 137.485V118.938C45.3838 118.737 45.4006 118.537 45.4339 118.339C45.4339 118.261 45.4339 118.188 45.4787 118.115V118.025C45.6069 117.486 45.8145 116.969 46.0947 116.491L39.0779 112.437L39.0275 112.526C38.6632 113.161 38.4344 113.865 38.3555 114.593C38.3555 114.693 38.3555 114.794 38.3555 114.895V133.453C38.3927 134.307 38.6281 135.141 39.0431 135.889C39.4581 136.636 40.0414 137.277 40.7467 137.76L42.7739 138.936L43.0315 139.065L43.1267 139.109L43.3003 139.182L43.4347 139.233L43.5803 139.283L43.7427 139.328L43.8659 139.361L44.0563 139.406H44.1515L44.3811 139.445H44.4259C45.3748 139.591 46.3451 139.497 47.2483 139.171Z" fill="black"/>
<path d="M55.7993 115.359C57.4457 114.407 57.6417 114.306 58.2913 113.97C58.6333 113.765 59.0151 113.635 59.4113 113.59C59.6646 113.564 59.9178 113.638 60.1169 113.797C60.3408 113.967 60.5038 114.204 60.5817 114.474C60.726 114.929 60.7978 115.403 60.7945 115.88C60.8225 116.726 60.8281 117 60.8281 119.178C60.8281 121.357 60.8281 121.631 60.7945 122.538C60.7847 123.093 60.7133 123.646 60.5817 124.185C60.4804 124.607 60.3241 125.013 60.1169 125.394C59.9312 125.768 59.6936 126.113 59.4113 126.419C59.0821 126.782 58.7053 127.098 58.2913 127.36C57.6417 127.774 57.4457 127.92 55.7993 128.844C54.1529 129.768 53.9625 129.902 53.3129 130.238C52.9705 130.442 52.5887 130.57 52.1929 130.614C51.9379 130.64 51.6828 130.565 51.4817 130.406C51.2611 130.235 51.1004 129.997 51.0225 129.729C50.8786 129.276 50.8067 128.804 50.8097 128.329C50.8097 127.478 50.7705 127.209 50.7705 125.03C50.7705 122.852 50.7705 122.572 50.8097 121.67C50.818 121.104 50.8894 120.541 51.0225 119.99C51.1254 119.57 51.2796 119.164 51.4817 118.781C51.6722 118.409 51.9114 118.065 52.1929 117.756C52.5209 117.392 52.8978 117.075 53.3129 116.815C53.9625 116.401 54.1585 116.255 55.7993 115.331M55.7993 113.853C54.1193 114.816 53.9177 114.973 53.2625 115.365C52.7093 115.711 52.2062 116.131 51.7673 116.614C51.3225 117.083 50.9455 117.613 50.6473 118.187C50.3351 118.777 50.0962 119.404 49.9361 120.052C49.7619 120.76 49.6661 121.485 49.6505 122.214C49.6505 123.104 49.6113 123.39 49.6113 125.618C49.6113 127.847 49.6113 128.127 49.6505 128.978C49.6506 129.6 49.747 130.218 49.9361 130.81C50.0602 131.222 50.3086 131.586 50.6473 131.851C50.965 132.099 51.3667 132.214 51.7673 132.17C52.2943 132.118 52.8041 131.954 53.2625 131.689C53.9177 131.347 54.1249 131.235 55.7993 130.272C57.4737 129.309 57.6809 129.152 58.3417 128.754C59.4425 128.073 60.3369 127.105 60.9289 125.954C61.2404 125.364 61.4774 124.738 61.6345 124.09C61.811 123.384 61.9087 122.661 61.9257 121.934C61.9257 121.038 61.9593 120.752 61.9593 118.523C61.9593 116.294 61.9593 116.02 61.9257 115.163C61.925 114.543 61.8267 113.927 61.6345 113.338C61.5113 112.925 61.2652 112.56 60.9289 112.29C60.6109 112.044 60.2089 111.931 59.8089 111.977C59.2813 112.026 58.771 112.191 58.3137 112.458C57.6529 112.794 57.4457 112.906 55.7713 113.875M55.7713 117.868C54.0241 118.876 52.6073 121.581 52.6073 123.91C52.6073 126.24 54.0241 127.31 55.7713 126.302C57.5185 125.294 58.9353 122.589 58.9353 120.259C58.9353 117.93 57.5185 116.86 55.7713 117.868ZM55.7713 124.823C54.6513 125.478 53.7217 124.784 53.7217 123.272C53.7217 121.76 54.6401 120.002 55.7713 119.352C56.9025 118.702 57.8265 119.391 57.8265 120.909C57.8265 122.426 56.9081 124.174 55.7713 124.829M59.7977 115.382C59.7977 114.822 59.4673 114.586 59.0585 114.822C58.8328 114.983 58.6483 115.196 58.5199 115.442C58.3915 115.688 58.3228 115.961 58.3193 116.238C58.3193 116.798 58.6497 117.028 59.0585 116.798C59.2835 116.637 59.4675 116.426 59.5959 116.181C59.7243 115.936 59.7934 115.664 59.7977 115.387" fill="white"/>
<path d="M94.3104 63.5646C94.2666 62.7016 94.0201 61.8611 93.5911 61.111C93.1621 60.3609 92.5625 59.7224 91.8408 59.247L89.808 58.071C89.0348 57.6789 88.1801 57.4746 87.3132 57.4746C86.4463 57.4746 85.5916 57.6789 84.8184 58.071L68.7464 67.3502C68.0667 67.8011 67.4929 68.3941 67.0646 69.0883C66.6364 69.7825 66.3637 70.5613 66.2656 71.371C66.2656 71.4718 66.2656 71.5726 66.2656 71.6734V90.2318C66.312 91.0968 66.5619 91.9387 66.9949 92.6889C67.4279 93.4391 68.0318 94.0766 68.7576 94.5494L70.7904 95.7254L71.048 95.8598L71.1432 95.899L71.3168 95.9718L71.4456 96.0222L71.5968 96.0726L71.7536 96.1174L71.8824 96.151L72.0728 96.1958H72.168L72.3976 96.235H72.4424C73.5905 96.4228 74.7685 96.2363 75.8024 95.703L91.8408 86.4462C92.5667 85.9722 93.1707 85.3337 93.6036 84.5825C94.0366 83.8314 94.2864 82.9888 94.3328 82.123L94.3104 63.5646Z" fill="#4338CA"/>
<path opacity="0.4" d="M73.9823 73.2694C73.703 73.7486 73.4936 74.2653 73.3607 74.8038C73.6909 73.4069 74.5448 72.1901 75.7463 71.4046L91.8407 62.1254C93.2183 61.3302 94.3327 61.9742 94.3327 63.5646C94.2863 62.6996 94.0365 61.8578 93.6035 61.1076C93.1704 60.3573 92.5665 59.7199 91.8407 59.247L89.8079 58.071C89.0347 57.6789 88.18 57.4746 87.3131 57.4746C86.4462 57.4746 85.5915 57.6789 84.8183 58.071L68.7463 67.3502C67.9835 67.8331 67.36 68.5068 66.9375 69.3046L66.9823 69.215L73.9823 73.2694Z" fill="white"/>
<path opacity="0.1" d="M75.2308 95.961L75.1076 95.9946C75.0436 96.0148 74.9781 96.0298 74.9116 96.0394H74.7268H74.4804C74.2507 96.0216 74.031 95.938 73.8476 95.7986L73.758 95.7146L73.7076 95.6698L73.6348 95.5802L73.5844 95.513C73.5625 95.4852 73.5438 95.4552 73.5284 95.4234L73.478 95.3338C73.478 95.3058 73.478 95.2722 73.4332 95.2386L73.394 95.1322L73.3604 95.0314C73.3604 94.9903 73.3492 94.9455 73.3268 94.897C73.3236 94.8653 73.3236 94.8334 73.3268 94.8018C73.3237 94.7477 73.3237 94.6935 73.3268 94.6394C73.3238 94.6096 73.3238 94.5795 73.3268 94.5498C73.3211 94.4603 73.3211 94.3705 73.3268 94.281V75.7282C73.3299 75.5275 73.3468 75.3273 73.3772 75.129C73.3772 75.0506 73.3772 74.9778 73.4164 74.905C73.4186 74.8751 73.4186 74.8452 73.4164 74.8154C73.5494 74.2769 73.7587 73.7602 74.038 73.281L67.0156 69.2266L66.9708 69.3162C66.6042 69.9501 66.3752 70.6542 66.2988 71.3826C66.2988 71.4834 66.2988 71.5842 66.2988 71.685V90.2434C66.3452 91.1083 66.5951 91.9502 67.0281 92.7004C67.4611 93.4507 68.065 94.0881 68.7908 94.561L70.8236 95.737L71.0812 95.8714L71.1764 95.9106L71.35 95.9834L71.4788 96.0338L71.63 96.0842L71.7868 96.129L71.9156 96.1626L72.106 96.2074H72.2012L72.4308 96.2466H72.4756C73.4036 96.3772 74.3494 96.2792 75.2308 95.961Z" fill="black"/>
<path d="M82.0462 89.2179L84.7286 87.6667V78.7067L86.599 77.6259L86.795 74.5123L84.7286 75.7051V73.9971C84.7286 73.2915 84.835 72.9499 85.3446 72.6587L86.795 71.8187V68.7051L84.9414 69.7803C84.0243 70.2637 83.2645 70.9992 82.7516 71.9001C82.2386 72.8009 81.9939 73.8297 82.0462 74.8651V77.2787L80.6406 78.0683V81.1035L82.035 80.3027L82.0462 89.2179Z" fill="white"/>
<path d="M57.9943 206.08L122.243 243.164C122.998 243.547 123.833 243.747 124.679 243.747C125.526 243.747 126.36 243.547 127.115 243.164L227.31 185.321C228.654 184.543 228.654 183.288 227.31 182.521L163.062 145.416C162.308 145.032 161.474 144.832 160.628 144.832C159.783 144.832 158.949 145.032 158.195 145.416L57.9943 203.28C56.6503 204.042 56.6503 205.296 57.9943 206.08Z" fill="#E0E0E0"/>
<path d="M60.0167 197.12L122.445 233.167C123.208 233.554 124.051 233.755 124.907 233.755C125.762 233.755 126.605 233.554 127.368 233.167L226.348 176.03C227.709 175.246 227.709 173.975 226.348 173.191L163.913 137.144C163.151 136.757 162.308 136.556 161.452 136.556C160.597 136.556 159.754 136.757 158.991 137.144L60.0167 194.32C58.6559 195.076 58.6559 196.347 60.0167 197.12Z" fill="#37474F"/>
<path d="M122.446 233.178L60.0167 197.12C58.8015 196.42 58.6727 195.328 59.6303 194.544C59.0219 195.026 58.5222 195.632 58.1642 196.321C57.8061 197.01 57.5978 197.767 57.5527 198.542V200.855C57.5993 201.71 57.8467 202.542 58.2748 203.283C58.7029 204.025 59.2997 204.655 60.0167 205.122L122.446 241.164C123.203 241.567 124.052 241.769 124.91 241.752V233.766C124.052 233.783 123.203 233.581 122.446 233.178Z" fill="#455A64"/>
<path d="M226.347 184.027C227.063 183.56 227.659 182.931 228.086 182.19C228.513 181.45 228.759 180.619 228.805 179.765V177.453C228.76 176.677 228.552 175.92 228.194 175.231C227.836 174.542 227.336 173.936 226.727 173.454C227.685 174.238 227.562 175.33 226.347 176.03L127.367 233.178C126.61 233.58 125.764 233.782 124.908 233.766V241.763C125.764 241.779 126.61 241.577 127.367 241.175L226.347 184.027Z" fill="#263238"/>
<path d="M93.5197 213.768C94.5789 214.307 95.7503 214.588 96.9385 214.588C98.1267 214.588 99.2981 214.307 100.357 213.768C102.244 212.648 102.244 210.912 100.357 209.82C99.2972 209.285 98.1262 209.006 96.9385 209.006C95.7508 209.006 94.5798 209.285 93.5197 209.82C91.6549 210.912 91.6549 212.682 93.5197 213.768Z" fill="#263238"/>
<path d="M132.16 225.529L72.402 191.005C71.59 190.534 71.59 189.767 72.402 189.297L150.242 144.34C150.699 144.108 151.205 143.987 151.718 143.987C152.23 143.987 152.736 144.108 153.193 144.34L212.951 178.864C213.768 179.334 213.768 180.096 212.951 180.544L135.111 225.506C134.655 225.741 134.151 225.866 133.638 225.87C133.125 225.874 132.619 225.757 132.16 225.529Z" fill="white"/>
<path d="M190.613 157.702C190.881 157.838 191.178 157.908 191.478 157.908C191.779 157.908 192.075 157.838 192.344 157.702C192.437 157.656 192.515 157.584 192.57 157.496C192.625 157.407 192.654 157.305 192.654 157.201C192.654 157.097 192.625 156.995 192.57 156.907C192.515 156.818 192.437 156.746 192.344 156.7C192.075 156.565 191.779 156.494 191.478 156.494C191.178 156.494 190.881 156.565 190.613 156.7C190.132 156.974 190.132 157.422 190.613 157.702Z" fill="#263238"/>
<path d="M193.38 165.553C193.917 165.824 194.51 165.965 195.111 165.965C195.712 165.965 196.304 165.824 196.841 165.553C197.799 164.993 197.799 164.102 196.841 163.554C196.305 163.28 195.712 163.138 195.111 163.138C194.509 163.138 193.916 163.28 193.38 163.554C192.423 164.08 192.423 164.998 193.38 165.553Z" fill="#263238"/>
<path d="M190.96 162.07C191.599 161.706 191.565 161.09 190.882 160.698L179.491 154.118C179.125 153.923 178.718 153.818 178.304 153.81C177.889 153.802 177.479 153.892 177.106 154.073C176.467 154.442 176.501 155.058 177.184 155.45L188.575 162.03C188.941 162.224 189.348 162.328 189.763 162.335C190.177 162.342 190.587 162.251 190.96 162.07Z" fill="#263238"/>
<path d="M149.234 153.625C148.417 154.096 148.417 154.857 149.234 155.305L194.762 181.597C195.221 181.829 195.727 181.95 196.241 181.95C196.754 181.95 197.261 181.829 197.719 181.597L207.799 175.79L159.314 147.79L149.234 153.625Z" fill="#EBEBEB"/>
<path d="M149.57 158.188L145.936 156.094C145.784 156.017 145.616 155.977 145.446 155.977C145.275 155.977 145.107 156.017 144.956 156.094L142.665 157.416C142.391 157.572 142.391 157.824 142.665 157.976L142.979 158.16L141.82 158.776C141.685 158.849 141.696 158.894 141.853 158.883L143.892 158.687L146.3 160.076C146.453 160.151 146.622 160.19 146.792 160.19C146.963 160.19 147.132 160.151 147.285 160.076L149.57 158.754C149.627 158.732 149.677 158.694 149.712 158.643C149.747 158.593 149.765 158.533 149.765 158.471C149.765 158.41 149.747 158.35 149.712 158.299C149.677 158.249 149.627 158.21 149.57 158.188Z" fill="#EBEBEB"/>
<path d="M150.641 163.654L150.372 163.094C150.025 162.361 149.812 161.364 150.82 160.787C151.202 160.594 151.624 160.493 152.052 160.493C152.48 160.493 152.902 160.594 153.284 160.787C153.811 161.09 153.928 161.543 153.637 161.907C154.291 161.728 154.988 161.8 155.591 162.109C155.741 162.157 155.871 162.252 155.964 162.379C156.056 162.507 156.106 162.66 156.106 162.817C156.106 162.975 156.056 163.128 155.964 163.255C155.871 163.382 155.741 163.477 155.591 163.526C154.606 164.086 152.881 163.985 151.61 163.789L150.641 163.654Z" fill="#EBEBEB"/>
<path d="M100.744 183.322L146.278 209.614C146.736 209.846 147.242 209.967 147.756 209.967C148.27 209.967 148.776 209.846 149.234 209.614L184.694 189.135C185.506 188.665 185.506 187.903 184.694 187.455L139.16 161.141C138.702 160.909 138.195 160.788 137.682 160.788C137.168 160.788 136.662 160.909 136.203 161.141L100.744 181.62C99.9265 182.09 99.9265 182.852 100.744 183.322Z" fill="#EBEBEB"/>
<path d="M101.093 186.184L97.4414 184.084C97.288 184.009 97.1194 183.97 96.9486 183.97C96.7777 183.97 96.6092 184.009 96.4558 184.084L94.1654 185.406C94.1097 185.428 94.0621 185.467 94.0286 185.517C93.9951 185.567 93.9772 185.625 93.9772 185.686C93.9772 185.746 93.9951 185.804 94.0286 185.854C94.0621 185.904 94.1097 185.943 94.1654 185.966L94.4846 186.15L93.3254 186.761C93.1854 186.834 93.2022 186.884 93.3254 186.867L95.3638 186.677L97.7718 188.066C97.9252 188.141 98.0937 188.18 98.2646 188.18C98.4354 188.18 98.604 188.141 98.7574 188.066L101.048 186.738C101.106 186.722 101.158 186.688 101.196 186.641C101.235 186.594 101.258 186.537 101.263 186.477C101.268 186.416 101.254 186.356 101.223 186.304C101.193 186.251 101.147 186.21 101.093 186.184Z" fill="#EBEBEB"/>
<path d="M102.134 191.643L101.87 191.083C101.518 190.35 101.31 189.353 102.318 188.771C102.699 188.577 103.121 188.477 103.548 188.477C103.975 188.477 104.396 188.577 104.777 188.771C105.337 189.079 105.426 189.532 105.13 189.891C105.786 189.718 106.482 189.79 107.09 190.092C107.239 190.142 107.368 190.238 107.46 190.366C107.551 190.493 107.601 190.646 107.601 190.803C107.601 190.961 107.551 191.114 107.46 191.241C107.368 191.369 107.239 191.465 107.09 191.515C106.104 192.075 104.379 191.974 103.102 191.778L102.134 191.643Z" fill="#EBEBEB"/>
<path d="M87.7245 189.135C88.1829 188.903 88.6893 188.782 89.2029 188.782C89.7165 188.782 90.223 188.903 90.6813 189.135L136.209 215.421C137.027 215.892 137.027 216.659 136.209 217.129L126.919 222.494L78.4453 194.494L87.7245 189.135Z" fill="#EBEBEB"/>
<path d="M138.321 183.081L112.404 190.042L146.29 209.608C146.748 209.84 147.255 209.961 147.768 209.961C148.282 209.961 148.788 209.84 149.247 209.608L149.98 209.183L164.602 187.729L133.55 193.822L138.321 183.081Z" fill="#E0E0E0"/>
<path d="M151.082 168.029L139.16 161.141C138.701 160.909 138.195 160.788 137.681 160.788C137.168 160.788 136.661 160.909 136.203 161.141L122.875 168.841C123.485 170 124.745 171.081 126.655 172.016C132.255 174.693 141.372 174.693 146.989 172.016C149.341 170.896 150.701 169.485 151.082 168.029Z" fill="#E0E0E0"/>
<path opacity="0.2" d="M208.577 165.603L148.814 131.085C148.357 130.853 147.851 130.732 147.339 130.732C146.826 130.732 146.32 130.853 145.863 131.085L68.0231 176.042C67.2111 176.512 67.2111 177.274 68.0231 177.722L80.6567 185.002L127.803 212.235C128.26 212.466 128.766 212.587 129.279 212.587C129.791 212.587 130.297 212.466 130.754 212.235L200.821 171.752L208.572 167.272C209.395 166.841 209.395 166.074 208.577 165.603Z" fill="white"/>
<path d="M208.725 165.357L159.31 136.797L148.961 130.839C148.461 130.582 147.906 130.448 147.343 130.448C146.78 130.448 146.226 130.582 145.725 130.839L67.8847 175.795C67.6628 175.881 67.472 176.031 67.3375 176.227C67.2029 176.423 67.1309 176.655 67.1309 176.893C67.1309 177.131 67.2029 177.363 67.3375 177.559C67.472 177.755 67.6628 177.905 67.8847 177.991L80.5183 185.271L127.681 212.52C128.182 212.778 128.737 212.912 129.3 212.912C129.863 212.912 130.418 212.778 130.918 212.52L200.98 172.038L208.736 167.558C208.957 167.471 209.147 167.32 209.281 167.124C209.415 166.927 209.487 166.695 209.487 166.457C209.487 166.22 209.415 165.988 209.281 165.791C209.147 165.595 208.957 165.444 208.736 165.357H208.725ZM208.439 167.065L200.683 171.545L130.621 212.027C130.207 212.234 129.749 212.342 129.286 212.342C128.822 212.342 128.365 212.234 127.95 212.027L80.8039 184.8L68.1759 177.52C68.0409 177.486 67.9214 177.407 67.836 177.297C67.7506 177.187 67.7042 177.052 67.7042 176.913C67.7042 176.773 67.7506 176.638 67.836 176.528C67.9214 176.418 68.0409 176.339 68.1759 176.305L146.016 131.348C146.431 131.142 146.888 131.035 147.351 131.035C147.815 131.035 148.272 131.142 148.687 131.348L159.041 137.312L208.456 165.872C208.591 165.907 208.71 165.985 208.796 166.095C208.881 166.205 208.927 166.34 208.927 166.48C208.927 166.619 208.881 166.754 208.796 166.864C208.71 166.974 208.591 167.053 208.456 167.087L208.439 167.065Z" fill="white"/>
<path d="M181.758 25.6149C182.582 25.1389 183.254 25.5253 183.254 26.4773V136.568C183.225 137.087 183.074 137.592 182.815 138.042C182.555 138.492 182.193 138.876 181.758 139.161L138.795 163.969L133.755 180.768C133.302 182.292 132.394 182.359 131.734 180.908L127.119 170.722L114.575 177.963C113.752 178.439 113.08 178.053 113.08 177.1V67.0101C113.108 66.4909 113.258 65.9855 113.518 65.535C113.778 65.0846 114.14 64.7016 114.575 64.4173L181.758 25.6149Z" fill="#4338CA"/>
<path d="M176.271 110.6C176.219 111.313 176 112.004 175.632 112.616C175.263 113.228 174.755 113.744 174.148 114.123L150.544 127.753C149.374 128.425 148.422 127.949 148.422 126.678C148.475 125.966 148.695 125.276 149.063 124.664C149.432 124.052 149.939 123.535 150.544 123.156L174.159 109.531C175.324 108.853 176.271 109.335 176.271 110.6Z" fill="white"/>
<path d="M171.919 124.214C171.866 124.926 171.647 125.616 171.278 126.228C170.909 126.84 170.402 127.357 169.797 127.736L150.191 139.07C149.021 139.748 148.074 139.266 148.074 137.995C148.126 137.284 148.344 136.595 148.712 135.984C149.08 135.373 149.587 134.857 150.191 134.478L169.819 123.144C170.989 122.466 171.919 122.948 171.919 124.214Z" fill="white"/>
<path d="M136.556 143.579L136.506 142.918C135.436 145.617 133.823 147.555 132.026 148.591C128.851 150.427 126.011 148.798 126.011 143.937C126.011 139.356 128.251 134.333 131.74 132.334C134.031 131.012 135.593 131.987 135.851 132.563V131.443C135.851 130.822 136.483 129.954 137.256 129.506C138.029 129.058 138.667 129.467 138.667 130.424V140.812C138.667 142.134 139.16 142.403 139.86 141.994C141.137 141.26 142.313 138.119 142.313 134.54C142.313 127.63 138.69 124.41 132.911 127.747C127.495 130.872 123.2 138.768 123.2 145.667C123.2 152.438 127.26 155.019 132.575 151.956C134.101 151.008 135.453 149.805 136.573 148.4C137.178 147.661 137.839 147.437 138.13 147.963C138.421 148.49 138.242 149.576 137.643 150.315C136.226 152.093 134.522 153.623 132.603 154.84C125.989 158.654 120.988 155.327 120.988 146.961C120.988 138.415 126.224 128.834 132.939 124.953C139.653 121.072 144.575 124.522 144.575 133.168C144.575 138.41 142.52 143.002 139.603 144.682C137.99 145.567 136.842 145.359 136.556 143.579ZM129.058 142.005C129.058 144.682 130.357 146.149 132.339 145.007C134.322 143.864 135.699 140.93 135.699 138.225C135.699 135.621 134.372 134.305 132.311 135.492C130.357 136.601 129.058 139.44 129.058 142.005Z" fill="white"/>
<path d="M148.155 61.0403C159.752 54.3203 169.149 59.7747 169.149 73.1643C169.149 86.5539 159.752 102.844 148.155 109.531C136.557 116.217 127.16 110.796 127.16 97.4067C127.16 84.0171 136.557 67.7603 148.155 61.0403Z" fill="white"/>
<path d="M148.155 61.0403C159.752 54.3203 169.149 59.7747 169.149 73.1643C169.149 86.5539 159.752 102.844 148.155 109.531C136.557 116.217 127.16 110.796 127.16 97.4067C127.16 84.0171 136.557 67.7603 148.155 61.0403Z" fill="#F5F5F5"/>
<mask id="mask0_59_9123" style="mask-type:luminance" maskUnits="userSpaceOnUse" x="127" y="58" width="43" height="55">
<path d="M148.155 61.0393C159.752 54.3193 169.149 59.7737 169.149 73.1633C169.149 86.5529 159.752 102.843 148.155 109.53C136.557 116.216 127.16 110.795 127.16 97.4057C127.16 84.0161 136.557 67.7593 148.155 61.0393Z" fill="white"/>
</mask>
<g mask="url(#mask0_59_9123)">
<path d="M140.498 78.8193C139.536 78.9856 138.677 79.5199 138.102 80.3089C137.071 81.6361 137.284 83.5289 138.102 87.7905L141.288 87.3033L140.498 78.8193Z" fill="#263238"/>
<path d="M159.069 72.5473C159.785 72.3561 160.46 72.0374 161.063 71.6065C162.043 70.7833 162.295 71.8305 161.757 72.9393C161.401 73.7297 160.891 74.4416 160.258 75.0337C159.624 75.6258 158.879 76.0864 158.067 76.3889C158.033 76.2545 157.148 74.1489 157.148 74.1489L159.069 72.5473Z" fill="#263238"/>
<path d="M142.331 100.8C142.331 100.8 136.395 104.63 135.107 105.98C133.819 107.33 133.287 111.535 132.811 116.682C132.811 116.682 139.57 119.532 150.171 114.285C160.771 109.038 161.729 104.888 161.729 104.888C161.729 104.888 160.357 98.6552 159.847 96.9248C159.203 94.7352 157.96 93.156 150.731 96.4376L142.331 100.8Z" fill="#263238"/>
<path d="M141.994 87.1183C141.518 87.5271 140.846 86.7991 140.264 86.3455C139.681 85.8919 137.777 85.5671 136.825 87.8239C135.873 90.0807 138.057 92.2423 139.345 92.7967C139.786 92.982 140.271 93.0351 140.741 92.9496C141.212 92.8641 141.647 92.6436 141.994 92.3151L142.33 100.799C142.33 100.799 144.01 103.705 148.602 103.101C153.194 102.496 152.236 97.8815 150.736 96.4367V94.6895C150.736 94.6895 153.104 94.5327 154.219 93.9391C154.818 93.6199 156.24 91.5143 157.159 89.3415C159.053 85.339 159.485 80.7997 158.38 76.5119C156.739 69.9711 149.24 71.7687 144.772 75.7783C140.303 79.7879 141.994 87.1183 141.994 87.1183Z" fill="#FFA8A7"/>
<path d="M160.362 65.9842C159.959 64.6626 159.712 64.8978 156.47 67.177C153.993 68.9206 151.23 70.2153 148.305 71.0018C146.02 71.6962 142.895 72.245 141.288 74.3618C140.597 75.2722 140.244 76.3949 140.291 77.537C140.155 77.4107 139.99 77.3203 139.81 77.2738C139.02 77.061 138.051 77.6378 137.643 78.5674L140.443 79.3122C140.224 80.925 139.597 85.9034 140.28 86.3402C140.868 86.7154 141.77 87.9754 142.011 87.9082C142.811 87.6786 143.131 84.1282 143.567 81.9778C144.043 79.5306 144.228 78.6178 145.107 78.517C147.963 78.0669 150.774 77.3679 153.507 76.4282C156.531 75.2466 157.399 74.2442 157.399 74.2442L159.012 73.2194C159.732 72.1756 160.224 70.9919 160.457 69.7454C160.689 68.4989 160.657 67.2174 160.362 65.9842Z" fill="#263238"/>
<path d="M150.724 94.6903C150.724 94.6903 146.485 94.9759 145.007 94.5839C144.155 94.381 143.418 93.8496 142.957 93.1055C143.167 93.8841 143.567 94.5981 144.122 95.1831C145.203 96.3031 150.724 95.8215 150.724 95.8215V94.6903Z" fill="#F28F8F"/>
<path d="M149.644 89.7676L151.582 89.9748C151.502 90.2622 151.33 90.5154 151.092 90.6955C150.855 90.8756 150.564 90.9726 150.266 90.9716C149.728 90.9156 149.454 90.378 149.644 89.7676Z" fill="#F28F8F"/>
<path d="M152.445 82.207L152.725 87.2414L155.397 85.623L152.445 82.207Z" fill="#F28F8F"/>
<path d="M149.706 83.9991C149.701 84.251 149.616 84.4947 149.465 84.6958C149.313 84.8969 149.101 85.045 148.861 85.1191C148.76 85.1536 148.652 85.1626 148.547 85.1454C148.442 85.1281 148.343 85.0851 148.259 85.0202C148.175 84.9553 148.108 84.8705 148.064 84.7735C148.021 84.6764 148.002 84.57 148.009 84.4639C148.016 84.2115 148.102 83.9676 148.254 83.7666C148.407 83.5657 148.619 83.4178 148.861 83.3439C148.961 83.3091 149.068 83.2998 149.173 83.317C149.278 83.3342 149.377 83.3773 149.461 83.4424C149.545 83.5074 149.611 83.5924 149.654 83.6896C149.697 83.7868 149.715 83.8932 149.706 83.9991Z" fill="#263238"/>
<path d="M148.805 81.0263L146.99 82.5159C146.873 82.2459 146.851 81.944 146.928 81.6599C147.006 81.3758 147.178 81.1266 147.416 80.9535C147.505 80.8547 147.615 80.777 147.738 80.7261C147.862 80.6752 147.994 80.6525 148.128 80.6594C148.261 80.6664 148.39 80.703 148.507 80.7664C148.625 80.8299 148.726 80.9187 148.805 81.0263Z" fill="#263238"/>
<path d="M157.282 79.4579L155.602 78.6291C155.728 78.3699 155.944 78.1652 156.21 78.053C156.475 77.9408 156.772 77.9286 157.046 78.0187C157.161 78.094 157.258 78.1923 157.333 78.3073C157.408 78.4223 157.457 78.5515 157.48 78.6867C157.502 78.822 157.495 78.9603 157.461 79.093C157.427 79.2258 157.366 79.35 157.282 79.4579Z" fill="#263238"/>
<path d="M156.8 81.8546C156.793 82.106 156.708 82.349 156.556 82.5497C156.405 82.7505 156.194 82.899 155.954 82.9746C155.854 83.0091 155.746 83.0181 155.641 83.0008C155.536 82.9836 155.437 82.9406 155.353 82.8757C155.268 82.8108 155.202 82.726 155.158 82.6289C155.114 82.5318 155.096 82.4255 155.103 82.3194C155.11 82.067 155.195 81.8231 155.348 81.6221C155.501 81.4211 155.713 81.2732 155.954 81.1994C156.055 81.1645 156.162 81.1553 156.267 81.1725C156.372 81.1897 156.471 81.2328 156.555 81.2978C156.639 81.3629 156.705 81.4479 156.748 81.5451C156.791 81.6423 156.809 81.7487 156.8 81.8546Z" fill="#263238"/>
</g>
</svg>
