<svg width="352" height="238" viewBox="0 0 352 238" fill="none" xmlns="http://www.w3.org/2000/svg">
<path d="M283.732 179.607H69V179.714H283.732V179.607Z" fill="#EBEBEB"/>
<path d="M259.635 185.795H233.914V185.902H259.635V185.795Z" fill="#EBEBEB"/>
<path d="M214.546 183.472H191.969V183.579H214.546V183.472Z" fill="#EBEBEB"/>
<path d="M231.59 185.743H224.568V185.851H231.59V185.743Z" fill="#EBEBEB"/>
<path d="M114 183.421H93.0977V183.528H114V183.421Z" fill="#EBEBEB"/>
<path d="M120.386 183.421H115.906V183.528H120.386V183.421Z" fill="#EBEBEB"/>
<path d="M155.893 184.344H141.441V184.451H155.893V184.344Z" fill="#EBEBEB"/>
<path d="M170.783 160.452H87.8581C87.2085 160.451 86.5858 160.192 86.1269 159.733C85.6679 159.273 85.4102 158.65 85.4102 158V41.4308C85.4158 40.7849 85.6761 40.1673 86.1344 39.7121C86.5928 39.257 87.2122 39.0011 87.8581 39H170.783C171.434 39 172.057 39.2584 172.517 39.7182C172.977 40.1781 173.236 40.8019 173.236 41.4522V158C173.236 158.651 172.977 159.274 172.517 159.734C172.057 160.194 171.434 160.452 170.783 160.452ZM87.8581 39.0859C87.2369 39.087 86.6416 39.3346 86.2028 39.7742C85.764 40.2138 85.5175 40.8096 85.5175 41.4308V158C85.5175 158.621 85.764 159.217 86.2028 159.657C86.6416 160.096 87.2369 160.344 87.8581 160.345H170.783C171.405 160.344 172.001 160.097 172.44 159.657C172.88 159.217 173.127 158.622 173.128 158V41.4308C173.127 40.8092 172.88 40.2134 172.44 39.7739C172.001 39.3344 171.405 39.087 170.783 39.0859H87.8581Z" fill="#EBEBEB"/>
<path d="M263.681 160.452H180.751C180.101 160.451 179.478 160.193 179.018 159.733C178.559 159.273 178.3 158.65 178.299 158V41.4308C178.306 40.7845 178.567 40.1669 179.026 39.7119C179.485 39.2569 180.105 39.0011 180.751 39H263.681C264.326 39.0022 264.944 39.2586 265.401 39.7137C265.859 40.1687 266.119 40.7856 266.124 41.4308V158C266.124 158.649 265.867 159.272 265.409 159.731C264.951 160.191 264.329 160.45 263.681 160.452ZM180.751 39.0859C180.13 39.087 179.534 39.3344 179.094 39.7739C178.655 40.2134 178.407 40.8092 178.406 41.4308V158C178.407 158.622 178.655 159.217 179.094 159.657C179.534 160.097 180.13 160.344 180.751 160.345H263.681C264.302 160.344 264.898 160.097 265.337 159.657C265.777 159.217 266.024 158.622 266.025 158V41.4308C266.024 40.8092 265.777 40.2134 265.337 39.7739C264.898 39.3344 264.302 39.087 263.681 39.0859H180.751Z" fill="#EBEBEB"/>
<path d="M227.223 178.704C225.938 178.7 224.707 178.188 223.8 177.278C222.892 176.368 222.383 175.136 222.383 173.851V132.412C222.386 131.13 222.897 129.901 223.804 128.995C224.712 128.089 225.941 127.578 227.223 127.576H253.545V178.704H227.223Z" fill="#E6E6E6"/>
<path d="M253.546 127.576C254.829 127.576 256.061 128.085 256.969 128.992C257.878 129.898 258.391 131.128 258.394 132.412V172.782C258.394 173.559 258.241 174.329 257.943 175.048C257.646 175.766 257.21 176.419 256.66 176.969C256.11 177.519 255.457 177.955 254.738 178.253C254.02 178.551 253.25 178.704 252.472 178.704H248.723V132.412C248.725 131.132 249.233 129.906 250.137 129C251.041 128.094 252.266 127.582 253.546 127.576Z" fill="#E0E0E0"/>
<path d="M109.828 145.812L108.11 124.674C108.023 123.785 108.125 122.887 108.409 122.04C108.693 121.193 109.152 120.416 109.758 119.759C110.363 119.102 111.101 118.58 111.922 118.228C112.743 117.876 113.629 117.702 114.522 117.716H213.943C215.831 117.753 217.64 118.482 219.025 119.765C220.411 121.047 221.277 122.794 221.459 124.674L223.177 145.812C223.233 146.411 223.163 147.015 222.972 147.585C222.78 148.155 222.471 148.678 222.064 149.121C221.657 149.564 221.161 149.917 220.61 150.156C220.058 150.395 219.462 150.516 218.861 150.51H114.93C113.651 150.491 112.424 150.001 111.483 149.135C110.542 148.268 109.953 147.085 109.828 145.812Z" fill="#E0E0E0"/>
<path d="M118.422 145.812L116.704 124.674C116.617 123.785 116.718 122.888 117.002 122.041C117.286 121.195 117.745 120.417 118.35 119.76C118.955 119.104 119.692 118.582 120.513 118.23C121.333 117.878 122.219 117.703 123.112 117.717H222.533C224.421 117.753 226.229 118.482 227.615 119.765C229 121.047 229.866 122.794 230.048 124.674L231.766 145.812C231.823 146.409 231.753 147.011 231.563 147.58C231.372 148.148 231.065 148.671 230.66 149.113C230.256 149.556 229.763 149.909 229.214 150.15C228.665 150.39 228.071 150.513 227.471 150.51H123.541C122.259 150.496 121.027 150.009 120.082 149.142C119.137 148.274 118.546 147.089 118.422 145.812Z" fill="#F0F0F0"/>
<path d="M241.215 130.725C241.215 130.725 242.98 129.656 242.293 129.179C241.606 128.702 238.673 129.853 238.673 129.853C238.673 129.853 221.713 129.325 211.81 130.158C211.685 129.222 210.341 128.934 209.284 129.166C208.228 129.398 209.362 130.884 209.362 130.884C209.362 130.884 203.19 143.747 203.804 150.03C202.735 150.768 201.657 151.318 202.817 151.558C203.557 151.701 204.323 151.56 204.964 151.163C204.964 151.163 227.494 152.186 236.53 150.502C237.212 151.318 238.501 151.078 239.235 150.773C239.97 150.468 238.638 149.3 238.638 149.3C238.638 149.3 243.547 138.069 241.215 130.725Z" fill="white"/>
<path d="M117.93 130.725C117.93 130.725 116.164 129.656 116.856 129.179C117.547 128.702 120.476 129.853 120.476 129.853C120.476 129.853 137.432 129.325 147.335 130.158C147.464 129.222 148.808 128.934 149.86 129.166C150.912 129.398 149.783 130.884 149.783 130.884C149.783 130.884 155.954 143.747 155.34 150.03C156.41 150.768 157.487 151.318 156.328 151.558C155.588 151.701 154.822 151.56 154.181 151.163C154.181 151.163 131.647 152.186 122.611 150.502C121.928 151.318 120.639 151.078 119.905 150.773C119.171 150.468 120.502 149.3 120.502 149.3C120.502 149.3 115.598 138.069 117.93 130.725Z" fill="white"/>
<path d="M106.737 178.704C105.452 178.7 104.221 178.188 103.313 177.278C102.406 176.368 101.896 175.136 101.896 173.851V132.412C101.9 131.13 102.411 129.901 103.318 128.995C104.225 128.089 105.454 127.578 106.737 127.576H129.61V178.704H106.737Z" fill="#E6E6E6"/>
<path d="M245.227 155.226V151.051C245.227 149.533 243.996 148.303 242.478 148.303H131.234C129.716 148.303 128.485 149.533 128.485 151.051V155.226C128.485 156.744 129.716 157.974 131.234 157.974H242.478C243.996 157.974 245.227 156.744 245.227 155.226Z" fill="#EBEBEB"/>
<path d="M241.811 177.232V159.443C241.811 158.632 241.153 157.975 240.342 157.975H129.952C129.141 157.975 128.484 158.632 128.484 159.443V177.232C128.484 178.043 129.141 178.701 129.952 178.701H240.342C241.153 178.701 241.811 178.043 241.811 177.232Z" fill="#F0F0F0"/>
<path d="M129.609 127.576C130.891 127.578 132.121 128.089 133.028 128.995C133.935 129.901 134.446 131.13 134.449 132.412V178.704H124.773V132.412C124.777 131.13 125.287 129.902 126.194 128.996C127.1 128.09 128.328 127.58 129.609 127.576Z" fill="#E0E0E0"/>
<path d="M108.546 179.598H250.071C250.308 179.598 250.535 179.504 250.703 179.337C250.87 179.169 250.964 178.942 250.964 178.705H107.652C107.652 178.942 107.746 179.169 107.914 179.337C108.082 179.504 108.309 179.598 108.546 179.598Z" fill="#E0E0E0"/>
<path d="M124.221 86.9023H146.918V64.2052H124.221V86.9023Z" fill="#F5F5F5"/>
<path d="M124.216 64.2097H123.211V86.9069H124.216V64.2097Z" fill="#E0E0E0"/>
<path d="M125.881 85.2412H145.254V65.8681H125.881V85.2412Z" fill="white"/>
<path d="M135.568 79.6045L139.613 75.5596L135.568 71.5146L131.523 75.5596L135.568 79.6045Z" fill="#F5F5F5"/>
<path d="M94.8614 101.677H117.559V78.9796H94.8614V101.677Z" fill="#F5F5F5"/>
<path d="M94.8585 78.9785H93.8535V101.676H94.8585V78.9785Z" fill="#E0E0E0"/>
<path d="M96.4442 100.096H115.98V80.5594H96.4442V100.096Z" fill="white"/>
<path d="M104.792 90.3298L106.213 91.751L107.634 90.3298L106.213 88.9086L104.792 90.3298Z" fill="#F5F5F5"/>
<path d="M220.36 56.4453H192.488V106.401H220.36V56.4453Z" fill="#E6E6E6"/>
<path d="M222.06 56.4453H194.188V106.401H222.06V56.4453Z" fill="#F5F5F5"/>
<path d="M219.004 103.545V59.2969H197.247V103.545H219.004Z" fill="white"/>
<path d="M219.004 103.548V59.3008H217.716V103.548H219.004Z" fill="#E6E6E6"/>
<path d="M220.794 71.085H195.451V74.9158H220.794V71.085Z" fill="#F5F5F5"/>
<path d="M220.794 64.3301H195.451V68.1609H220.794V64.3301Z" fill="#F5F5F5"/>
<path d="M257.935 56.4453H230.062V106.401H257.935V56.4453Z" fill="#E6E6E6"/>
<path d="M259.634 56.4453H231.762V106.401H259.634V56.4453Z" fill="#F5F5F5"/>
<path d="M256.578 103.548V59.3008H234.821V103.548H256.578Z" fill="white"/>
<path d="M256.578 103.544V59.2959H255.29V103.544H256.578Z" fill="#E6E6E6"/>
<path d="M258.37 71.085H233.027V74.9158H258.37V71.085Z" fill="#F5F5F5"/>
<path d="M258.37 64.3301H233.027V68.1609H258.37V64.3301Z" fill="#F5F5F5"/>
<path d="M182.782 56.4453H154.91V106.401H182.782V56.4453Z" fill="#E6E6E6"/>
<path d="M184.487 56.4453H156.615V106.401H184.487V56.4453Z" fill="#F5F5F5"/>
<path d="M181.424 103.548V59.3008H159.667V103.548H181.424Z" fill="white"/>
<path d="M181.426 103.544V59.2959H180.137V103.544H181.426Z" fill="#E6E6E6"/>
<path d="M183.22 71.085H157.877V74.9158H183.22V71.085Z" fill="#F5F5F5"/>
<path d="M183.22 64.3301H157.877V68.1609H183.22V64.3301Z" fill="#F5F5F5"/>
<path d="M176.366 198.999C222.354 198.999 259.635 196.823 259.635 194.138C259.635 191.453 222.354 189.276 176.366 189.276C130.378 189.276 93.0977 191.453 93.0977 194.138C93.0977 196.823 130.378 198.999 176.366 198.999Z" fill="#F5F5F5"/>
<path d="M237.257 102.767L236.849 102.63C237.067 102.018 237.149 101.366 237.089 100.719C237.029 100.072 236.828 99.4459 236.501 98.8847C236.168 98.3403 235.719 97.876 235.186 97.5249C234.653 97.1738 234.049 96.9445 233.417 96.8534L227.379 95.8699L227.448 95.4404L233.486 96.4325C234.18 96.5312 234.843 96.7822 235.428 97.1676C236.013 97.553 236.505 98.0631 236.87 98.6614C237.229 99.2766 237.449 99.9625 237.516 100.672C237.583 101.381 237.494 102.096 237.257 102.767Z" fill="#263238"/>
<path d="M221.409 94.4667L221.34 94.8906L225.138 95.5092L225.207 95.0853L221.409 94.4667Z" fill="#263238"/>
<path d="M154.894 185.388L201.221 192.929C202.3 193.065 203.394 192.831 204.323 192.265C205.252 191.698 205.962 190.833 206.336 189.811L235.84 102.286C236.017 101.831 236.089 101.342 236.049 100.855C236.01 100.368 235.86 99.896 235.612 99.4751C235.364 99.0542 235.024 98.6951 234.617 98.4248C234.21 98.1545 233.747 97.98 233.263 97.9145L186.919 90.3731C185.84 90.2362 184.745 90.4701 183.816 91.0366C182.887 91.6031 182.177 92.4686 181.805 93.4911L152.318 181.012C152.14 181.467 152.069 181.957 152.108 182.444C152.148 182.931 152.297 183.403 152.545 183.824C152.793 184.246 153.133 184.605 153.54 184.876C153.947 185.147 154.41 185.322 154.894 185.388Z" fill="#263238"/>
<path d="M152.141 184.941L198.471 192.482C199.551 192.62 200.645 192.386 201.573 191.819C202.502 191.253 203.211 190.387 203.582 189.364L233.091 101.844C233.268 101.388 233.339 100.899 233.3 100.411C233.261 99.9242 233.111 99.4523 232.863 99.0311C232.615 98.6099 232.275 98.2504 231.868 97.9796C231.461 97.7088 230.998 97.5338 230.514 97.4677L184.175 89.9263C183.096 89.7904 182.002 90.0248 181.074 90.5913C180.145 91.1577 179.437 92.0225 179.064 93.0442L149.555 180.569C149.378 181.025 149.307 181.515 149.347 182.003C149.387 182.49 149.537 182.962 149.786 183.383C150.035 183.804 150.376 184.163 150.784 184.433C151.192 184.703 151.656 184.877 152.141 184.941Z" fill="#2A2FB8"/>
<path d="M198.858 191.34C199.609 191.436 200.369 191.273 201.015 190.879C201.661 190.485 202.153 189.882 202.41 189.171L231.919 101.651C232.042 101.334 232.091 100.993 232.064 100.653C232.036 100.314 231.931 99.9858 231.758 99.6929C231.585 99.4001 231.347 99.1504 231.063 98.9629C230.779 98.7753 230.456 98.6547 230.119 98.6101L183.793 91.0687C183.045 90.9712 182.285 91.1305 181.639 91.5206C180.993 91.9107 180.499 92.5084 180.237 93.2161L150.733 180.737C150.609 181.053 150.558 181.394 150.585 181.733C150.612 182.073 150.716 182.401 150.889 182.694C151.062 182.987 151.3 183.237 151.584 183.425C151.868 183.612 152.19 183.733 152.528 183.777L198.858 191.34Z" fill="white"/>
<mask id="mask0_59_12184" style="mask-type:luminance" maskUnits="userSpaceOnUse" x="150" y="91" width="83" height="101">
<path d="M198.858 191.341C199.609 191.437 200.369 191.275 201.015 190.88C201.661 190.486 202.153 189.884 202.41 189.172L231.919 101.652C232.042 101.335 232.091 100.994 232.064 100.655C232.036 100.315 231.931 99.987 231.758 99.6942C231.585 99.4013 231.347 99.1517 231.063 98.9641C230.779 98.7765 230.456 98.6559 230.119 98.6113L183.793 91.07C183.045 90.9724 182.285 91.1317 181.639 91.5218C180.993 91.9119 180.499 92.5096 180.237 93.2173L150.733 180.738C150.609 181.055 150.558 181.395 150.585 181.735C150.612 182.074 150.716 182.402 150.889 182.695C151.062 182.988 151.3 183.238 151.584 183.426C151.868 183.613 152.19 183.734 152.528 183.778L198.858 191.341Z" fill="white"/>
</mask>
<g mask="url(#mask0_59_12184)">
<path opacity="0.1" d="M229.813 128.883C204.376 127.229 205.986 95.4277 185.578 100.135C152.917 107.663 154.571 93.5122 178.355 83.5787C202.138 73.6452 248.499 80.5725 248.744 100.586C248.877 112.928 244.694 129.853 229.813 128.883Z" fill="#2A2FB8"/>
<path opacity="0.1" d="M230.792 120.646C204.594 115.278 218.904 90.8114 190.946 84.7817C151.311 76.2354 173.089 64.4595 198.861 64.3521C224.633 64.2447 262.113 80.5644 248.572 100.311C240.231 112.474 246.124 123.79 230.792 120.646Z" fill="#2A2FB8"/>
<path opacity="0.1" d="M153.605 146.646C177.135 145.061 176.989 180.324 190.109 177.619C211.118 173.294 212.441 191.791 197.904 200.835C183.366 209.88 146.626 201.527 143.001 174.913C140.772 158.512 142.585 147.384 153.605 146.646Z" fill="#2A2FB8"/>
<path opacity="0.1" d="M135.34 159.105C160.777 160.737 161.275 188.695 181.696 183.971C214.335 176.421 210.14 217.693 186.364 227.648C162.589 237.603 116.71 207.463 116.448 187.416C116.289 175.073 120.459 158.148 135.34 159.105Z" fill="#2A2FB8"/>
</g>
<path d="M196.053 97.3088L215.147 100.414C215.836 100.506 216.536 100.442 217.197 100.227C217.858 100.012 218.462 99.6519 218.965 99.1727L221.542 96.7634L192.656 92.0608L193.425 95.0155C193.587 95.6148 193.923 96.1526 194.391 96.5608C194.859 96.969 195.438 97.2293 196.053 97.3088Z" fill="#2A2FB8"/>
<path d="M190.354 162.24L193.974 162.15L194.734 153.736L191.109 153.827L190.354 162.24Z" fill="#FFB573"/>
<path d="M194.156 161.973L190.681 160.079C190.618 160.044 190.545 160.031 190.474 160.044C190.402 160.056 190.338 160.093 190.291 160.148L188.122 162.634C188.069 162.694 188.031 162.765 188.009 162.842C187.988 162.919 187.985 163 187.999 163.079C188.013 163.157 188.046 163.231 188.093 163.296C188.14 163.36 188.201 163.413 188.272 163.45C189.535 164.112 191.39 165.026 192.966 165.885C194.808 166.886 194.946 166.86 197.106 168.033C198.395 168.745 199.494 167.603 199.013 167.204C196.818 165.305 196.217 165.129 194.787 162.634C194.644 162.358 194.425 162.128 194.156 161.973Z" fill="#263238"/>
<path d="M154.293 100.731C156.389 102.449 158.588 104.167 160.757 105.821C162.886 107.465 165.106 108.991 167.405 110.39C167.688 110.566 167.963 110.716 168.264 110.863L168.968 111.24C169.285 111.382 169.629 111.454 169.977 111.451C171.026 111.369 172.042 111.051 172.949 110.519C174.067 109.897 175.129 109.178 176.123 108.372C176.634 107.942 177.153 107.513 177.656 107.083C178.158 106.654 178.661 106.16 179.112 105.722L181.281 107.367C180.892 108.008 180.47 108.628 180.018 109.226C179.589 109.819 179.12 110.407 178.618 110.966C177.609 112.134 176.473 113.186 175.229 114.101C173.817 115.179 172.158 115.888 170.402 116.162C169.346 116.305 168.272 116.201 167.263 115.857C167.13 115.819 167.005 115.763 166.876 115.715C166.748 115.668 166.687 115.634 166.589 115.591L166.056 115.35C165.7 115.191 165.347 115.028 165.017 114.852C162.416 113.496 159.918 111.95 157.544 110.227C155.195 108.543 152.962 106.791 150.75 104.902L154.293 100.731Z" fill="#FFB573"/>
<path d="M147.705 104.622C149.032 107.826 155.233 109.569 155.233 109.569L158.957 103.931C158.957 103.931 156.281 101.023 152.665 100.031C148.233 98.8199 146.258 101.122 147.705 104.622Z" fill="#2A2FB8"/>
<path opacity="0.2" d="M151.17 103.789C149.422 104.218 148.486 105.077 148.34 105.666C150.371 108.204 155.211 109.569 155.211 109.569L157.848 105.575C156.757 104.489 153.901 103.123 151.17 103.789Z" fill="black"/>
<path d="M178.686 106.06L181.151 103.007L183.611 106.052C183.611 106.052 181.997 109.058 179.587 107.993L178.686 106.06Z" fill="#FFB573"/>
<path d="M183.71 101.036L185.106 104.167L183.611 106.052L181.15 103.007L183.71 101.036Z" fill="#FFB573"/>
<path opacity="0.2" d="M194.73 153.736L194.343 158.074L190.719 158.164L191.105 153.827L194.73 153.736Z" fill="black"/>
<path d="M133.527 110.231C143.59 120.41 149.946 133.59 151.681 135.999L167.923 125.417C162.203 111.133 155.469 103.678 152.377 100.766C151.872 100.294 151.244 99.9765 150.565 99.8502C149.886 99.7239 149.186 99.7943 148.546 100.053L147.871 100.332C147.378 100.543 146.854 100.762 146.321 101.037C146.02 101.178 145.724 101.329 145.423 101.487C143.037 102.856 140.731 104.362 138.518 105.997C138.088 106.302 137.659 106.62 137.272 106.937C136.886 107.255 136.534 107.534 136.194 107.818C134.657 109.119 133.527 110.231 133.527 110.231Z" fill="#2A2FB8"/>
<path opacity="0.2" d="M138.646 113.658C138.332 113.28 137.912 113.002 137.441 112.862C136.969 112.721 136.466 112.723 135.996 112.868C137.126 114.156 138.204 115.445 139.217 116.733C139.354 116.21 139.374 115.663 139.275 115.132C139.176 114.6 138.962 114.097 138.646 113.658Z" fill="black"/>
<path opacity="0.3" d="M155.791 108.817C155.791 108.817 155.791 108.817 155.765 108.792C155.587 108.555 155.394 108.331 155.185 108.122C154.136 107.055 152.758 106.373 151.273 106.185C150.248 106.048 149.207 106.247 148.305 106.752L148.228 106.799L148.125 106.868C147.947 106.981 147.778 107.111 147.622 107.254C145.905 108.847 145.905 111.647 147.575 113.829C147.575 113.829 147.575 113.829 147.575 113.855L147.601 113.881C147.781 114.116 147.977 114.34 148.185 114.551C150.208 116.573 153.163 117.084 155.142 115.878C155.359 115.745 155.562 115.591 155.748 115.418C157.466 113.825 157.444 111.029 155.795 108.847C155.796 108.837 155.795 108.827 155.791 108.817ZM156.083 111.274L155.361 111.703C155.109 111.163 154.809 110.647 154.464 110.162L155.387 109.595C155.718 110.108 155.954 110.677 156.083 111.274ZM147.279 111.411L148 110.982C148.251 111.523 148.551 112.039 148.898 112.524L147.975 113.09C147.642 112.578 147.406 112.009 147.279 111.411ZM153.017 109.59L153.231 109.848L151.732 110.771L150.646 109.346L151.934 108.555C152.321 108.872 152.683 109.218 153.017 109.59ZM150.083 108.607L149.164 107.404C149.295 107.387 149.428 107.387 149.559 107.404C150.112 107.485 150.641 107.684 151.11 107.988L150.083 108.607ZM148.499 107.817L149.413 109.019L148.387 109.65C148.189 108.886 148.215 108.233 148.499 107.817ZM149.976 109.754L151.067 111.179L149.568 112.103C149.231 111.613 148.943 111.091 148.709 110.544L149.976 109.754ZM148.748 114.048C148.67 113.975 148.606 113.898 148.537 113.825L149.461 113.258L149.735 113.58C150.049 113.931 150.384 114.261 150.74 114.568L150.015 114.997C149.55 114.739 149.123 114.416 148.748 114.04V114.048ZM150.345 113.103L150.126 112.846L151.629 111.927L152.716 113.352L151.428 114.138C151.04 113.82 150.678 113.471 150.345 113.095V113.103ZM153.279 114.087L154.198 115.285C154.066 115.303 153.934 115.303 153.802 115.285C153.25 115.205 152.721 115.005 152.252 114.701L153.279 114.087ZM154.863 114.877L153.944 113.679L154.975 113.043C155.172 113.799 155.147 114.456 154.863 114.868V114.877ZM153.386 112.94L152.317 111.506L153.815 110.587C154.155 111.075 154.442 111.598 154.674 112.146L153.386 112.94ZM153.901 109.444L153.626 109.122C153.314 108.772 152.978 108.443 152.621 108.139L153.347 107.709C153.811 107.971 154.237 108.295 154.614 108.671C154.687 108.744 154.756 108.822 154.825 108.895L153.901 109.444ZM152.317 107.237L151.836 107.529C151.549 107.328 151.248 107.15 150.934 106.996C151.067 106.996 151.204 106.996 151.337 107.022C151.67 107.062 151.998 107.134 152.317 107.237ZM147.429 109.152C147.477 109.473 147.553 109.79 147.657 110.097L147.18 110.389C147.193 109.966 147.277 109.548 147.429 109.152ZM151.028 115.444L151.505 115.148C151.794 115.349 152.099 115.529 152.415 115.684C151.944 115.669 151.477 115.588 151.028 115.444ZM155.915 113.524C155.867 113.203 155.791 112.887 155.688 112.579L156.165 112.287C156.158 112.713 156.08 113.134 155.933 113.533L155.915 113.524Z" fill="white"/>
<path d="M140.491 93.3916C140.768 92.7404 140.895 92.0354 140.863 91.3285C140.831 90.6215 140.641 89.9308 140.306 89.3074C138.889 86.5459 136.012 85.2489 133.087 85.0771C133.215 85.5041 133.256 85.9525 133.207 86.3956C132.748 86.3686 132.287 86.3902 131.833 86.46C127.839 87.0613 125.047 90.0589 123.617 93.6106C126.194 93.7223 127.839 95.7579 125.125 97.6175C127.912 97.8065 129.458 100.147 127.65 101.315C130.506 103.312 135.745 102.874 138.129 100.71C139.284 99.666 142.685 97.2482 140.491 93.3916Z" fill="#263238"/>
<path d="M134.197 97.8105C136.083 99.7517 139.17 103.54 138.582 106.03C140.571 106.46 143.053 106.804 145.75 105.172C148.447 103.54 146.806 102.028 145.484 101.525C142.623 102.548 141.49 100.666 140.794 98.6609L134.197 97.8105Z" fill="#FFB573"/>
<path opacity="0.2" d="M136.891 98.1631L140.794 98.6699C140.947 99.1421 141.142 99.5992 141.379 100.036C140.344 100.512 138.372 100.323 137.621 99.3957C137.303 99.0335 137.056 98.6155 136.891 98.1631Z" fill="black"/>
<path d="M131.458 97.8365C134.623 99.5543 136.388 100.714 138.909 100.151C142.705 99.2924 143.654 94.6713 141.056 92.0473C138.724 89.6852 133.944 87.2845 130.873 89.5092C130.194 89.9972 129.651 90.651 129.295 91.4083C128.939 92.1656 128.784 93.0012 128.842 93.8358C128.901 94.6703 129.172 95.476 129.629 96.1763C130.087 96.8765 130.717 97.4481 131.458 97.8365Z" fill="#FFB573"/>
<path d="M133.619 99.0132C133.825 97.2653 133.065 94.2591 131.394 93.4603C133.207 92.3265 135.006 87.8772 133.331 87.6496C131.656 87.422 128.027 89.5178 127.959 93.3314C127.89 97.1451 129.904 98.7341 133.619 99.0132Z" fill="#263238"/>
<path d="M133.382 100.77C134.203 100.886 135.037 100.677 135.706 100.186C136.565 99.5373 136.092 98.571 135.096 98.2102C134.198 97.8881 132.669 97.8366 132.171 98.7471C131.673 99.6575 132.365 100.62 133.382 100.77Z" fill="#FFB573"/>
<path d="M157.303 132.349L165.201 142.291L186.193 133.143C188.92 139.053 189.547 157.352 189.547 157.352L195.68 157.206C195.68 157.206 201.842 136.493 195.912 126.637C190.208 117.159 167.923 125.43 167.923 125.43L157.303 132.349Z" fill="#263238"/>
<path opacity="0.2" d="M172.008 139.327L168.357 140.916L165.703 134.071C165.703 134.071 169.77 136.716 172.008 139.327Z" fill="black"/>
<path opacity="0.2" d="M172.008 139.327L168.357 140.916L165.703 134.071C165.703 134.071 169.77 136.716 172.008 139.327Z" fill="black"/>
<path d="M164.113 127.899C164.113 127.899 176.795 155.471 180.123 165.555C183.774 176.596 183.911 188.909 183.911 188.909L176.309 187.668C176.309 187.668 176.155 181.033 171.551 170.67C166.307 158.868 151.68 136.012 151.68 136.012L164.113 127.899Z" fill="#263238"/>
<path d="M196.454 157.325L189.144 157.506L189.084 155.144L197.257 154.817L196.454 157.325Z" fill="#2A2FB8"/>
<path d="M135.192 93.7524C135.437 93.907 135.72 93.9027 135.823 93.7524C135.926 93.6021 135.823 93.3229 135.557 93.1769C135.291 93.0309 135.025 93.0309 134.926 93.1769C134.827 93.3229 134.943 93.5978 135.192 93.7524Z" fill="#263238"/>
<path d="M136.942 90.9653C137.187 91.1199 137.47 91.1156 137.573 90.9653C137.676 90.815 137.573 90.5358 137.307 90.3898C137.041 90.2438 136.775 90.2438 136.676 90.3898C136.577 90.5358 136.693 90.7935 136.942 90.9653Z" fill="#263238"/>
<path d="M136.508 91.918C137.451 92.0938 138.413 92.14 139.368 92.0554C139.505 92.7468 138.853 93.3781 138.853 93.3781L136.508 91.918Z" fill="#ED893E"/>
<path d="M138.866 94.8303C138.66 95.0864 138.404 95.2977 138.114 95.4513C137.824 95.6049 137.505 95.6976 137.178 95.7236C137.155 95.7227 137.133 95.7134 137.117 95.6976C137.1 95.6818 137.09 95.6605 137.088 95.6377C137.088 95.6149 137.097 95.5931 137.113 95.577C137.129 95.5609 137.151 95.5518 137.174 95.5518C137.535 95.5159 137.883 95.3958 138.19 95.2012C138.496 95.0065 138.753 94.7427 138.939 94.4309C138.945 94.4209 138.952 94.4121 138.962 94.4051C138.971 94.3981 138.981 94.3931 138.993 94.3903C139.004 94.3875 139.016 94.3869 139.027 94.3888C139.038 94.3906 139.049 94.3947 139.059 94.4009C139.078 94.4139 139.091 94.4336 139.096 94.4559C139.1 94.4782 139.097 94.5015 139.085 94.5211C139.017 94.628 138.944 94.7312 138.866 94.8303Z" fill="#263238"/>
<path d="M133.747 94.0529C133.728 94.0747 133.705 94.0923 133.678 94.1044C133.635 94.119 133.589 94.1169 133.547 94.0986C133.506 94.0803 133.473 94.0471 133.455 94.0057C133.352 93.7529 133.311 93.4793 133.335 93.2074C133.359 92.9356 133.447 92.6733 133.592 92.4424C133.619 92.4054 133.66 92.3805 133.705 92.3733C133.75 92.366 133.796 92.377 133.833 92.4038C133.87 92.4305 133.895 92.4709 133.902 92.516C133.909 92.5611 133.898 92.6072 133.872 92.6443C133.76 92.8285 133.693 93.0365 133.676 93.2514C133.66 93.4663 133.694 93.6821 133.777 93.8811C133.787 93.9099 133.79 93.9409 133.785 93.971C133.78 94.0011 133.766 94.0293 133.747 94.0529Z" fill="#263238"/>
<path d="M136.73 89.14C136.711 89.1607 136.688 89.177 136.662 89.1874C136.636 89.1978 136.607 89.2021 136.58 89.2001C136.364 89.1722 136.145 89.1967 135.941 89.2715C135.737 89.3462 135.554 89.469 135.407 89.6295C135.378 89.6649 135.336 89.6872 135.291 89.6916C135.245 89.696 135.2 89.6822 135.164 89.6532C135.129 89.6241 135.107 89.5822 135.102 89.5367C135.098 89.4912 135.112 89.4458 135.141 89.4105C135.327 89.2113 135.557 89.0592 135.813 88.9666C136.069 88.874 136.344 88.8436 136.614 88.878C136.659 88.8823 136.7 88.9041 136.729 88.9387C136.758 88.9732 136.772 89.0178 136.768 89.0627C136.761 89.0908 136.748 89.1171 136.73 89.14Z" fill="#263238"/>
<path d="M194.228 162.583C194.221 162.569 194.217 162.553 194.217 162.537C194.217 162.522 194.221 162.506 194.228 162.492C194.234 162.476 194.246 162.462 194.26 162.452C194.275 162.442 194.292 162.437 194.309 162.437C194.498 162.437 196.13 162.488 196.401 162.918C196.424 162.958 196.436 163.004 196.436 163.051C196.436 163.097 196.424 163.143 196.401 163.184C196.372 163.256 196.326 163.321 196.267 163.372C196.208 163.423 196.137 163.458 196.061 163.476C195.542 163.592 194.7 162.969 194.241 162.591L194.228 162.583ZM196.216 162.982C196.023 162.767 195.181 162.656 194.545 162.621C195.185 163.119 195.727 163.373 196.019 163.308C196.068 163.296 196.115 163.272 196.154 163.239C196.193 163.205 196.223 163.163 196.242 163.115C196.251 163.099 196.256 163.08 196.256 163.061C196.256 163.043 196.251 163.024 196.242 163.008L196.216 162.982Z" fill="#2A2FB8"/>
<path d="M194.229 162.582V162.56C194.222 162.547 194.219 162.532 194.219 162.517C194.219 162.502 194.222 162.488 194.229 162.474C194.254 162.44 194.808 161.615 195.392 161.516C195.476 161.499 195.563 161.498 195.647 161.515C195.732 161.532 195.811 161.566 195.882 161.615C196.075 161.748 196.08 161.886 196.045 161.98C195.908 162.371 194.757 162.646 194.297 162.607C194.285 162.608 194.272 162.606 194.26 162.601C194.249 162.597 194.238 162.59 194.229 162.582ZM195.843 161.817C195.823 161.794 195.8 161.774 195.775 161.757C195.724 161.72 195.666 161.695 195.604 161.683C195.542 161.671 195.479 161.673 195.418 161.688C195.029 161.834 194.694 162.096 194.46 162.44C194.98 162.418 195.792 162.156 195.878 161.924C195.882 161.906 195.881 161.888 195.875 161.87C195.869 161.853 195.858 161.837 195.843 161.826V161.817Z" fill="#2A2FB8"/>
<path d="M139.227 113.878L137.827 114.81C137.346 115.136 136.873 115.471 136.401 115.815C135.46 116.493 134.537 117.197 133.635 117.919C132.733 118.64 131.87 119.392 131.058 120.169C130.629 120.556 130.251 120.955 129.86 121.355C129.658 121.552 129.486 121.784 129.297 121.964L129.018 122.274C128.954 122.342 128.971 122.325 128.958 122.334L128.92 122.372C128.729 122.686 128.584 123.026 128.49 123.382C128.342 123.877 128.228 124.382 128.146 124.893C127.963 126.023 127.836 127.161 127.769 128.303C127.618 130.644 127.567 133.079 127.558 135.467L124.857 135.819C124.254 133.359 123.849 130.854 123.646 128.329C123.541 127.022 123.521 125.709 123.586 124.399C123.625 123.69 123.709 122.985 123.839 122.287C123.985 121.44 124.264 120.622 124.668 119.864C124.737 119.748 124.801 119.632 124.883 119.516C124.964 119.401 125.063 119.255 125.097 119.212L125.402 118.808C125.608 118.542 125.802 118.262 126.016 118.009C126.446 117.494 126.875 116.983 127.305 116.506C128.189 115.544 129.125 114.63 130.109 113.77C131.08 112.911 132.089 112.104 133.115 111.335C133.635 110.962 134.163 110.588 134.696 110.227C134.966 110.047 135.233 109.866 135.512 109.69C135.791 109.514 136.053 109.355 136.371 109.162L139.227 113.878Z" fill="#FFB573"/>
<path d="M137.921 107.43C135.774 107.323 130.156 113.039 130.156 113.039L134.915 117.935C134.915 117.935 137.607 116.273 139.72 114.838C143.757 112.094 142.113 107.641 137.921 107.43Z" fill="#2A2FB8"/>
<path d="M126.979 134.342L129.345 137.129L125.622 137.988C125.622 137.988 123.668 135.145 125.248 134.488L126.979 134.342Z" fill="#FFB573"/>
<path d="M128.936 140.504L126.029 140.461L125.625 137.983L129.348 137.137L128.936 140.504Z" fill="#FFB573"/>
<path d="M143.727 76.8569C143.006 76.1368 142.509 75.2235 142.295 74.2271C142.081 73.2307 142.161 72.1937 142.523 71.2413C142.885 70.2888 143.515 69.4615 144.337 68.8591C145.159 68.2566 146.138 67.9048 147.155 67.846C148.173 67.7871 149.185 68.0238 150.071 68.5275C150.957 69.0312 151.678 69.7803 152.148 70.6847C152.618 71.589 152.816 72.6099 152.718 73.6243C152.621 74.6387 152.232 75.6032 151.599 76.4017C151.956 76.6809 152.299 76.9643 152.643 77.2606C153.132 77.6901 153.618 78.1196 154.094 78.549C154.571 78.9785 155.039 79.4294 155.503 79.8761C155.735 80.0994 155.963 80.3313 156.19 80.5546C156.313 80.6635 156.413 80.7965 156.482 80.9454C156.523 81.0268 156.552 81.1136 156.568 81.2031C156.593 81.3071 156.601 81.4143 156.594 81.5209C156.578 81.7132 156.495 81.8938 156.359 82.0306C156.223 82.1674 156.043 82.2516 155.851 82.2682C155.743 82.2758 155.634 82.2671 155.529 82.2424C155.441 82.2242 155.356 82.1954 155.275 82.1565C155.127 82.0863 154.994 81.987 154.885 81.8645C154.657 81.6326 154.429 81.4093 154.206 81.1731C153.755 80.7135 153.313 80.2411 152.875 79.7687C152.437 79.2963 152.016 78.8067 151.586 78.3128C151.299 77.9735 151.011 77.6257 150.727 77.2735C149.711 78.0715 148.438 78.4697 147.148 78.393C145.858 78.3162 144.641 77.7698 143.727 76.8569ZM149.89 75.5471C150.371 75.0667 150.698 74.4545 150.831 73.788C150.964 73.1214 150.896 72.4305 150.636 71.8026C150.376 71.1747 149.935 70.638 149.37 70.2603C148.805 69.8827 148.141 69.6812 147.461 69.6812C146.782 69.6812 146.117 69.8827 145.552 70.2603C144.987 70.638 144.547 71.1747 144.287 71.8026C144.027 72.4305 143.959 73.1214 144.092 73.788C144.224 74.4545 144.552 75.0667 145.033 75.5471C145.677 76.1909 146.55 76.5526 147.461 76.5526C148.372 76.5526 149.246 76.1909 149.89 75.5471Z" fill="#263238"/>
<path d="M174.24 52.7858C174.23 52.7125 174.195 52.6448 174.143 52.5928C174.09 52.5409 174.022 52.5076 173.948 52.498C173.144 52.4344 172.336 52.5368 171.573 52.7987C170.258 53.2369 169.171 54.179 168.55 55.4183C167.929 56.6575 167.826 58.0925 168.262 59.4081C168.868 61.2376 170.409 61.7874 171.62 61.3837C172.126 61.2264 172.587 60.9524 172.967 60.5839C173.346 60.2153 173.634 59.7625 173.806 59.2621C174.025 59.601 174.353 59.8549 174.736 59.9814C175.119 60.108 175.533 60.0997 175.911 59.9578C177.8 59.3308 179.145 56.9816 178.058 53.7134C176.886 50.1961 173.596 48.5599 170.053 49.7366C165.797 51.1538 163.71 55.5902 165.196 60.0437C166.433 63.7672 169.958 65.5967 173.583 64.3942C174.858 64.0155 176.016 63.3178 176.946 62.3671C176.996 62.3069 177.024 62.2309 177.024 62.1524C177.024 62.0739 176.996 61.9979 176.946 61.9377L176.366 61.199C176.335 61.1626 176.296 61.1334 176.252 61.1135C176.208 61.0935 176.161 61.0831 176.113 61.0831C176.065 61.0831 176.017 61.0935 175.973 61.1135C175.93 61.1334 175.891 61.1626 175.859 61.199C175.146 61.9314 174.26 62.4733 173.282 62.7751C170.461 63.7156 167.901 62.3457 166.914 59.3738C165.724 55.792 167.197 52.4122 170.418 51.3428C173.145 50.4366 175.417 51.6176 176.353 54.4306C176.783 55.6632 176.783 56.8227 176.353 57.613C176.217 57.9229 175.964 58.1667 175.649 58.2915C175.602 58.311 175.55 58.3188 175.5 58.3143C175.449 58.3098 175.4 58.2932 175.357 58.2657C175.202 58.1627 174.927 57.8105 174.76 56.5694L174.24 52.7858ZM171.891 54.5509C172.097 54.4829 172.308 54.434 172.522 54.4049L172.806 56.4448C172.978 57.6173 172.458 59.2234 171.517 59.5327C170.658 59.8161 170.302 59.1032 170.156 58.6737C169.585 56.9473 170.379 55.0534 171.891 54.5509Z" fill="#263238"/>
<path d="M151.201 46.2407C149.801 45.2186 149.178 43.4234 148.963 42.6289C148.936 42.5284 148.878 42.4386 148.799 42.3714C148.719 42.3042 148.621 42.2627 148.517 42.2525C148.413 42.2423 148.309 42.2637 148.217 42.3141C148.126 42.3644 148.052 42.4412 148.006 42.5345C147.779 43.1028 147.74 43.7288 147.894 44.321C147.908 44.3779 147.907 44.4378 147.889 44.4938C147.871 44.5498 147.838 44.5997 147.793 44.6378C147.748 44.6758 147.694 44.7005 147.636 44.7091C147.578 44.7176 147.518 44.7096 147.464 44.6861L147.198 44.5787C146.823 44.4246 146.426 44.3332 146.021 44.3081L145.716 44.2867C145.419 44.2675 145.126 44.3647 144.899 44.5579C144.672 44.7511 144.53 45.0251 144.501 45.3217L144.308 47.396C144.283 47.6397 144.294 47.8858 144.342 48.1261C144.442 48.6183 144.686 49.0698 145.043 49.4231C145.4 49.7764 145.854 50.0155 146.348 50.1102C147.404 50.3078 149.045 50.6213 149.333 50.6685L150.067 50.8532L151.785 46.6401L151.201 46.2407Z" fill="#2A2FB8"/>
<path opacity="0.7" d="M151.201 46.2407C149.801 45.2186 149.178 43.4234 148.963 42.6289C148.936 42.5284 148.878 42.4386 148.799 42.3714C148.719 42.3042 148.621 42.2627 148.517 42.2525C148.413 42.2423 148.309 42.2637 148.217 42.3141C148.126 42.3644 148.052 42.4412 148.006 42.5345C147.779 43.1028 147.74 43.7288 147.894 44.321C147.908 44.3779 147.907 44.4378 147.889 44.4938C147.871 44.5498 147.838 44.5997 147.793 44.6378C147.748 44.6758 147.694 44.7005 147.636 44.7091C147.578 44.7176 147.518 44.7096 147.464 44.6861L147.198 44.5787C146.823 44.4246 146.426 44.3332 146.021 44.3081L145.716 44.2867C145.419 44.2675 145.126 44.3647 144.899 44.5579C144.672 44.7511 144.53 45.0251 144.501 45.3217L144.308 47.396C144.283 47.6397 144.294 47.8858 144.342 48.1261C144.442 48.6183 144.686 49.0698 145.043 49.4231C145.4 49.7764 145.854 50.0155 146.348 50.1102C147.404 50.3078 149.045 50.6213 149.333 50.6685L150.067 50.8532L151.785 46.6401L151.201 46.2407Z" fill="white"/>
<path d="M152.394 52.6011L149.967 51.5274C149.841 51.4715 149.741 51.3703 149.686 51.2438C149.631 51.1173 149.626 50.9748 149.671 50.8446L151.299 46.1205C151.343 45.9912 151.434 45.8833 151.554 45.8181C151.674 45.7529 151.815 45.7351 151.947 45.7683L154.524 46.3953C154.599 46.4137 154.668 46.4475 154.729 46.4945C154.79 46.5415 154.84 46.6007 154.876 46.6682C154.913 46.7358 154.935 46.8102 154.94 46.8868C154.946 46.9633 154.936 47.0402 154.911 47.1125L153.133 52.2661C153.109 52.3386 153.07 52.4054 153.019 52.4623C152.969 52.5191 152.906 52.5647 152.837 52.5962C152.767 52.6278 152.692 52.6445 152.616 52.6453C152.54 52.6461 152.464 52.6311 152.394 52.6011Z" fill="#2A2FB8"/>
<path d="M130.749 53.1333L119.153 54.6493C118.565 54.7285 118.032 55.0369 117.67 55.5075C117.308 55.9781 117.146 56.5727 117.221 57.1617L118.003 63.1742C118.082 63.7626 118.39 64.2959 118.861 64.6578C119.331 65.0198 119.926 65.1812 120.515 65.1068L129.04 63.9902L129.25 66.0988L131.127 63.7196L132.132 63.5865C132.72 63.5073 133.254 63.1988 133.616 62.7283C133.978 62.2577 134.139 61.6631 134.064 61.0741L133.279 55.0616C133.198 54.4706 132.887 53.9356 132.413 53.574C131.939 53.2124 131.34 53.0539 130.749 53.1333ZM119.205 57.239C119.194 57.1574 119.2 57.0745 119.221 56.9951C119.242 56.9157 119.279 56.8412 119.33 56.7762C119.38 56.7111 119.443 56.6566 119.514 56.6159C119.586 56.5752 119.664 56.549 119.746 56.539L122.417 56.1868C122.581 56.1652 122.747 56.2096 122.879 56.3102C123.01 56.4109 123.096 56.5596 123.117 56.7236C123.139 56.8876 123.095 57.0535 122.994 57.1848C122.893 57.3161 122.745 57.402 122.581 57.4237L119.905 57.7715C119.742 57.7935 119.576 57.7498 119.445 57.65C119.314 57.5501 119.227 57.4023 119.205 57.239ZM131.183 61.5809L126.549 62.1907C126.386 62.2118 126.221 62.1673 126.091 62.067C125.961 61.9667 125.876 61.8189 125.855 61.656C125.834 61.4931 125.879 61.3286 125.979 61.1985C126.079 61.0684 126.227 60.9835 126.39 60.9624L131.011 60.3612C131.092 60.3505 131.174 60.3557 131.252 60.3767C131.331 60.3977 131.405 60.4339 131.469 60.4834C131.534 60.5328 131.588 60.5945 131.629 60.6649C131.669 60.7353 131.696 60.8131 131.707 60.8937C131.717 60.9744 131.712 61.0563 131.691 61.135C131.67 61.2136 131.634 61.2873 131.585 61.3519C131.535 61.4165 131.473 61.4707 131.403 61.5115C131.333 61.5522 131.255 61.5787 131.174 61.5895L131.183 61.5809ZM130.843 59.0041L120.867 60.2925C120.786 60.3029 120.704 60.2974 120.626 60.2761C120.547 60.2549 120.474 60.2184 120.41 60.1688C120.345 60.1191 120.291 60.0573 120.251 59.9868C120.21 59.9162 120.184 59.8384 120.173 59.7578C120.163 59.6771 120.169 59.5952 120.19 59.5167C120.211 59.4382 120.247 59.3647 120.297 59.3003C120.347 59.2359 120.409 59.1819 120.479 59.1414C120.55 59.1009 120.627 59.0746 120.708 59.0642L130.685 57.7758C130.768 57.7595 130.853 57.7604 130.936 57.7784C131.018 57.7965 131.096 57.8313 131.165 57.8807C131.234 57.9301 131.292 57.9931 131.335 58.0657C131.378 58.1384 131.406 58.2191 131.417 58.303C131.428 58.3869 131.422 58.4721 131.398 58.5534C131.375 58.6348 131.335 58.7104 131.281 58.7757C131.228 58.841 131.161 58.8946 131.086 58.9331C131.01 58.9717 130.928 58.9944 130.843 58.9998V59.0041ZM130.504 56.4273L124.599 57.2003C124.435 57.222 124.269 57.1776 124.138 57.0769C124.007 56.9762 123.921 56.8275 123.899 56.6635C123.877 56.4995 123.922 56.3336 124.022 56.2023C124.123 56.071 124.272 55.9851 124.436 55.9635L130.341 55.1947C130.499 55.1831 130.656 55.2325 130.78 55.3328C130.903 55.433 130.983 55.5766 131.004 55.7341C131.025 55.8915 130.985 56.051 130.892 56.1799C130.799 56.3088 130.66 56.3973 130.504 56.4273Z" fill="#2A2FB8"/>
<path d="M181.519 81.2506L166.08 83.6899C165.392 83.8009 164.775 84.179 164.364 84.7419C163.953 85.3047 163.781 86.0071 163.885 86.6962L165.397 96.2861C165.508 96.9742 165.886 97.5906 166.449 98.0015C167.012 98.4124 167.714 98.5846 168.403 98.4807L183.842 96.0456C184.53 95.9346 185.147 95.5566 185.558 94.9937C185.969 94.4308 186.141 93.7285 186.037 93.0394L184.525 83.4494C184.414 82.7611 184.036 82.1443 183.473 81.7327C182.911 81.3211 182.208 81.1479 181.519 81.2506ZM173.17 94.1345L171.942 86.3612L179.286 89.1828L173.17 94.1345Z" fill="#2A2FB8"/>
<path opacity="0.5" d="M181.519 81.2506L166.08 83.6899C165.392 83.8009 164.775 84.179 164.364 84.7419C163.953 85.3047 163.781 86.0071 163.885 86.6962L165.397 96.2861C165.508 96.9742 165.886 97.5906 166.449 98.0015C167.012 98.4124 167.714 98.5846 168.403 98.4807L183.842 96.0456C184.53 95.9346 185.147 95.5566 185.558 94.9937C185.969 94.4308 186.141 93.7285 186.037 93.0394L184.525 83.4494C184.414 82.7611 184.036 82.1443 183.473 81.7327C182.911 81.3211 182.208 81.1479 181.519 81.2506ZM173.17 94.1345L171.942 86.3612L179.286 89.1828L173.17 94.1345Z" fill="white"/>
<path d="M199.958 66.4213C197.936 66.0692 195.855 66.4705 194.109 67.5493C192.363 68.6281 191.074 70.3095 190.484 72.2752C189.895 74.241 190.047 76.3546 190.911 78.216C191.775 80.0774 193.291 81.5575 195.173 82.3759L196.634 85.1116L198.944 83.0459C200.999 82.9336 202.94 82.0701 204.399 80.6196C205.859 79.169 206.734 77.2327 206.859 75.1789C206.983 73.1251 206.349 71.0971 205.075 69.4808C203.802 67.8645 201.979 66.7725 199.953 66.4127L199.958 66.4213Z" fill="#2A2FB8"/>
<path opacity="0.3" d="M197.474 80.3872C196.345 80.1869 195.301 79.6562 194.473 78.8623C193.646 78.0684 193.072 77.0469 192.825 75.9271C192.579 74.8072 192.669 73.6393 193.086 72.571C193.503 71.5026 194.227 70.582 195.168 69.9253C196.108 69.2687 197.221 68.9057 198.368 68.8821C199.515 68.8585 200.642 69.1755 201.609 69.7929C202.575 70.4103 203.337 71.3004 203.797 72.3506C204.258 73.4009 204.396 74.5641 204.196 75.6932C204.063 76.4429 203.784 77.1592 203.374 77.8009C202.964 78.4427 202.432 78.9974 201.808 79.4334C201.184 79.8693 200.48 80.178 199.736 80.3416C198.993 80.5053 198.224 80.5208 197.474 80.3872Z" fill="white"/>
</svg>
